<svg version="1.1" width="69" height="70" viewBox="-1 -1 69 70" xmlns="http://www.w3.org/2000/svg" xmlns:xlink="http://www.w3.org/1999/xlink">
  <defs>
    <radialGradient id="grad_1" cx="0.4971" cy="0.4929" r="0.65923">
      <stop offset="0" stop-color="#FFFF18" stop-opacity="1"/>
      <stop offset="1" stop-color="#FFFF18" stop-opacity="0"/>
    </radialGradient>
  </defs>
  <!-- Exported by Scratch - http://scratch.mit.edu/ -->
  <path id="ID0.9881620504893363" fill="url(#grad_1)" stroke="none" stroke-linecap="round" d="M 233.550 149.900 C 241.045 149.894 250.452 148.033 255.800 153.300 C 261.064 158.644 259.640 168.126 259.300 175.650 C 258.954 183.408 259.536 193.163 254.050 198.900 C 249.340 203.795 240.741 202.381 233.950 202.450 C 226.399 202.382 216.829 204.250 211.550 198.900 C 206.050 193.307 207.700 183.366 207.800 175.650 C 207.896 168.059 206.931 158.647 212.300 153.300 C 217.371 148.207 226.395 149.906 233.550 149.900 Z " transform="matrix(1.2815533876419067, 0, 0, 1.2815533876419067, -265.6, -190.8)"/>
  <g id="ID0.8147414498962462" transform="matrix(1, 0, 0, 1, 5, 7)">
    <path id="ID0.6724143116734922" fill="#FFFF18" stroke="none" d="M 212 160 L 222.850 152.300 L 258 152.500 L 266.100 159.050 L 266.500 198.750 L 212 199.900 L 212 160 Z " transform="matrix(1, 0, 0, 1, -211, -152)"/>
    <path id="ID0.8586261845193803" fill="#FFFF18" stroke="none" d="M 221.875 151.250 C 224.324 151.250 226.542 152.244 228.149 153.851 C 229.756 155.458 230.750 157.676 230.750 160.125 C 230.750 162.574 229.756 164.792 228.149 166.399 C 226.542 168.006 224.324 169 221.875 169 C 219.426 169 217.208 168.006 215.601 166.399 C 213.994 164.792 213 162.574 213 160.125 C 213 157.676 213.994 155.458 215.601 153.851 C 217.208 152.244 219.426 151.250 221.875 151.250 Z " transform="matrix(1, 0, 0, 1, -212.05, -150.85)"/>
    <path id="ID0.6132582295686007" fill="#FFFF18" stroke="none" d="M 261.175 152.500 C 263.196 152.500 265.027 153.321 266.353 154.647 C 267.679 155.973 268.500 157.804 268.500 159.825 C 268.500 161.846 267.679 163.677 266.353 165.003 C 265.027 166.329 263.196 167.150 261.175 167.150 C 259.154 167.150 257.323 166.329 255.997 165.003 C 254.671 163.677 253.850 161.846 253.850 159.825 C 253.850 157.804 254.671 155.973 255.997 154.647 C 257.323 153.321 259.154 152.500 261.175 152.500 Z " transform="matrix(1, 0, 0, 1, -213.3, -152.15)"/>
  </g>
  <g id="ID0.8147414498962462" transform="matrix(1, 0, 0, 1, 5, 7)">
    <path id="ID0.6724143116734922" fill="#FFFF18" stroke="none" d="M 212 160 L 222.850 152.300 L 258 152.500 L 266.100 159.050 L 265.900 200.300 L 212 198.750 L 212 160 Z " transform="matrix(1.008244276046753, 0, 0, -1, -212.95, 207.3)"/>
    <path id="ID0.8586261845193803" fill="#FFFF18" stroke="none" d="M 221.875 151.250 C 224.324 151.250 226.542 152.244 228.149 153.851 C 229.756 155.458 230.750 157.676 230.750 160.125 C 230.750 162.574 229.756 164.792 228.149 166.399 C 226.542 168.006 224.324 169 221.875 169 C 219.426 169 217.208 168.006 215.601 166.399 C 213.994 164.792 213 162.574 213 160.125 C 213 157.676 213.994 155.458 215.601 153.851 C 217.208 152.244 219.426 151.250 221.875 151.250 Z " transform="matrix(1.008244276046753, 0, 0, -1, -214.05, 206.15)"/>
    <path id="ID0.6132582295686007" fill="#FFFF18" stroke="none" d="M 261.175 152.500 C 263.196 152.500 265.027 153.321 266.353 154.647 C 267.679 155.973 268.500 157.804 268.500 159.825 C 268.500 161.846 267.679 163.677 266.353 165.003 C 265.027 166.329 263.196 167.150 261.175 167.150 C 259.154 167.150 257.323 166.329 255.997 165.003 C 254.671 163.677 253.850 161.846 253.850 159.825 C 253.850 157.804 254.671 155.973 255.997 154.647 C 257.323 153.321 259.154 152.500 261.175 152.500 Z " transform="matrix(1.008244276046753, 0, 0, -1, -215.3, 207.45)"/>
  </g>
  <text id="ID0.15393093088641763" fill="#FFFFFF" x="249.15" y="171.15" text-anchor="start" font-family="Helvetica" font-size="22" transform="matrix(1, 0, 0, 1, 6, 19.65)">2048</text>
</svg>