<svg version="1.1" width="57" height="57" viewBox="-1 -1 57 57" xmlns="http://www.w3.org/2000/svg" xmlns:xlink="http://www.w3.org/1999/xlink">
  <!-- Exported by Scratch - http://scratch.mit.edu/ -->
  <g id="ID0.6083505759015679">
    <g id="ID0.8147414498962462">
      <path id="ID0.6724143116734922" fill="#FFF9EE" stroke="none" d="M 212 160 L 222.850 152.300 L 258 152.500 L 266.100 159.050 L 266.500 198.750 L 212 199.900 L 212 160 Z " transform="matrix(1, 0, 0, 1, -211, -152)"/>
      <path id="ID0.8586261845193803" fill="#FFF9EE" stroke="none" d="M 221.875 151.250 C 224.324 151.250 226.542 152.244 228.149 153.851 C 229.756 155.458 230.750 157.676 230.750 160.125 C 230.750 162.574 229.756 164.792 228.149 166.399 C 226.542 168.006 224.324 169 221.875 169 C 219.426 169 217.208 168.006 215.601 166.399 C 213.994 164.792 213 162.574 213 160.125 C 213 157.676 213.994 155.458 215.601 153.851 C 217.208 152.244 219.426 151.250 221.875 151.250 Z " transform="matrix(1, 0, 0, 1, -212.05, -150.85)"/>
      <path id="ID0.6132582295686007" fill="#FFF9EE" stroke="none" d="M 261.175 152.500 C 263.196 152.500 265.027 153.321 266.353 154.647 C 267.679 155.973 268.500 157.804 268.500 159.825 C 268.500 161.846 267.679 163.677 266.353 165.003 C 265.027 166.329 263.196 167.150 261.175 167.150 C 259.154 167.150 257.323 166.329 255.997 165.003 C 254.671 163.677 253.850 161.846 253.850 159.825 C 253.850 157.804 254.671 155.973 255.997 154.647 C 257.323 153.321 259.154 152.500 261.175 152.500 Z " transform="matrix(1, 0, 0, 1, -213.3, -152.15)"/>
    </g>
    <g id="ID0.8147414498962462">
      <path id="ID0.6724143116734922" fill="#FFF9EE" stroke="none" d="M 212 160 L 222.850 152.300 L 258 152.500 L 266.100 159.050 L 266.500 198.750 L 212 198.750 L 212 160 Z " transform="matrix(1.008244276046753, 0, 0, -1, -212.8, 208.1)"/>
      <path id="ID0.8586261845193803" fill="#FFF9EE" stroke="none" d="M 221.875 151.250 C 224.324 151.250 226.542 152.244 228.149 153.851 C 229.756 155.458 230.750 157.676 230.750 160.125 C 230.750 162.574 229.756 164.792 228.149 166.399 C 226.542 168.006 224.324 169 221.875 169 C 219.426 169 217.208 168.006 215.601 166.399 C 213.994 164.792 213 162.574 213 160.125 C 213 157.676 213.994 155.458 215.601 153.851 C 217.208 152.244 219.426 151.250 221.875 151.250 Z " transform="matrix(1.008244276046753, 0, 0, -1, -213.9, 206.95)"/>
      <path id="ID0.6132582295686007" fill="#FFF9EE" stroke="none" d="M 261.175 152.500 C 263.196 152.500 265.027 153.321 266.353 154.647 C 267.679 155.973 268.500 157.804 268.500 159.825 C 268.500 161.846 267.679 163.677 266.353 165.003 C 265.027 166.329 263.196 167.150 261.175 167.150 C 259.154 167.150 257.323 166.329 255.997 165.003 C 254.671 163.677 253.850 161.846 253.850 159.825 C 253.850 157.804 254.671 155.973 255.997 154.647 C 257.323 153.321 259.154 152.500 261.175 152.500 Z " transform="matrix(1.008244276046753, 0, 0, -1, -215.15, 208.25)"/>
    </g>
  </g>
  <text id="ID0.15393093088641763" fill="#676655" x="249.15" y="171.15" text-anchor="start" font-family="Helvetica" font-size="22" transform="matrix(1, 0, 0, 1, 19.65, 12.65)">2</text>
</svg>