<?xml version="1.0" standalone="no"?>
<!DOCTYPE svg PUBLIC "-//W3C//DTD SVG 1.1//EN" "http://www.w3.org/Graphics/SVG/1.1/DTD/svg11.dtd" >
<svg>
<metadata>
Created by FontForge 20090914 at Thu Jun  7 11:50:59 2018
 By www-data
Copyright 2015 Google Inc. All Rights Reserved.
</metadata>
<defs>
<font id="RobotoMono-Bold" horiz-adv-x="1229" >
  <font-face 
    font-family="Roboto Mono"
    font-weight="700"
    font-stretch="normal"
    units-per-em="2048"
    panose-1="0 0 0 0 0 0 0 0 0 0"
    ascent="1536"
    descent="-512"
    x-height="1082"
    cap-height="1456"
    bbox="-1590 -554.996 1999 2180"
    underline-thickness="100"
    underline-position="-100"
    unicode-range="U+0002-U+FFFD"
  />
<missing-glyph 
 />
    <glyph glyph-name=".notdef" 
 />
    <glyph glyph-name="NULL" horiz-adv-x="0" 
 />
    <glyph glyph-name="NULL" horiz-adv-x="0" 
 />
    <glyph glyph-name="uni0002" 
 />
    <glyph glyph-name="uni0009" unicode="&#x9;" 
 />
    <glyph glyph-name="nonmarkingreturn" unicode="&#xd;" 
 />
    <glyph glyph-name="space" unicode=" " 
 />
    <glyph glyph-name="exclam" unicode="!" 
d="M735 509h-253l-16 947h285zM446 136c0 22 3.66699 42.333 11 61s18 35 32 49s31 24.833 51 32.5s42.667 11.5 68 11.5c24.667 0 47 -3.83301 67 -11.5s37 -18.5 51 -32.5s24.833 -30.333 32.5 -49s11.5 -39 11.5 -61c0 -21.333 -3.83301 -41.333 -11.5 -60
s-18.5 -34.667 -32.5 -48s-31 -23.833 -51 -31.5s-42.333 -11.5 -67 -11.5c-25.333 0 -48 3.83301 -68 11.5s-37 18.167 -51 31.5s-24.667 29.333 -32 48s-11 38.667 -11 60z" />
    <glyph glyph-name="quotedbl" unicode="&#x22;" 
d="M487 1428l-29 -420h-177v528h206v-108zM898 1428l-28 -420h-177v528h205v-108z" />
    <glyph glyph-name="numbersign" unicode="#" 
d="M649 410h-201l-73 -410h-179l73 410h-228v169h258l52 290h-235v171h265l75 416h178l-74 -416h201l74 416h180l-75 -416h217v-171h-247l-52 -290h223v-169h-253l-73 -410h-179zM478 579h201l51 290h-201z" />
    <glyph glyph-name="dollar" unicode="$" 
d="M863 382c0 28 -4.16602 52.834 -12.499 74.501s-21.666 41.5 -39.999 59.5s-42.333 34.5 -72 49.5s-65.5 29.833 -107.5 44.5c-67.333 24 -128.666 49.333 -183.999 76s-102.5 57.667 -141.5 93s-69.167 76.5 -90.5 123.5s-32 102.833 -32 167.5
c0 56.667 9.66699 108.5 29 155.5s46.666 87.833 81.999 122.5s78 62.667 128 84s105.667 35 167 41v215h160v-217c60 -8 114 -24.333 162 -49s88.833 -56.834 122.5 -96.501s59.667 -86.334 78 -140.001s27.5 -113.834 27.5 -180.501h-278
c0 80.667 -18.333 141.834 -55 183.501s-86.334 62.5 -149.001 62.5c-34 0 -63.5 -4.5 -88.5 -13.5s-45.5 -21.667 -61.5 -38s-27.833 -35.5 -35.5 -57.5s-11.5 -46 -11.5 -72s3.83301 -49.167 11.5 -69.5s20.667 -39.166 39 -56.499s42.5 -33.833 72.5 -49.5
s67.333 -31.5 112 -47.5c67.333 -25.333 128.333 -51.5 183 -78.5s101.5 -58.333 140.5 -94s69 -77 90 -124s31.5 -102.5 31.5 -166.5c0 -58.667 -9.66699 -111.5 -29 -158.5s-47 -87.5 -83 -121.5s-79.333 -61.167 -130 -81.5s-107.334 -33.5 -170.001 -39.5v-196h-159v196
c-56.667 5.33301 -111.667 17.833 -165 37.5s-100.5 48.167 -141.5 85.5s-73.833 84.5 -98.5 141.5s-37 125.5 -37 205.5h279c0 -48 7 -88.167 21 -120.5s32.167 -58 54.5 -77s47.833 -32.5 76.5 -40.5s58 -12 88 -12c71.333 0 125.333 16.667 162 50s55 76.333 55 129z" />
    <glyph glyph-name="percent" unicode="%" 
d="M35 1196c0 38.667 5.83008 75 17.4971 109s29.334 63.667 53.001 89s53.334 45.5 89.001 60.5s77.167 22.5 124.5 22.5c48.667 0 90.834 -7.5 126.501 -22.5s65.167 -35.167 88.5 -60.5s40.833 -55 52.5 -89s17.5 -70.333 17.5 -109v-77
c0 -38 -5.83301 -73.833 -17.5 -107.5s-29.167 -63.334 -52.5 -89.001s-52.666 -45.834 -87.999 -60.501s-77 -22 -125 -22s-89.833 7.33301 -125.5 22s-65.334 34.834 -89.001 60.501s-41.5 55.334 -53.5 89.001s-18 69.5 -18 107.5v77zM222.997 1119
c0 -15.333 1.66797 -30.166 5.00098 -44.499s8.83301 -27 16.5 -38s17.834 -19.667 30.501 -26s28 -9.5 46 -9.5s33.167 3.16699 45.5 9.5s22.166 15 29.499 26s12.666 23.667 15.999 38s5 29.166 5 44.499v77c0 15.333 -1.66699 30.166 -5 44.499s-8.83301 27 -16.5 38
s-17.667 19.667 -30 26s-27.833 9.5 -46.5 9.5c-18 0 -33 -3.16699 -45 -9.5s-21.833 -15 -29.5 -26s-13.167 -23.667 -16.5 -38s-5 -29.166 -5 -44.499v-77zM622.998 337c0 38 5.99805 74 17.998 108s29.833 63.833 53.5 89.5s53.334 45.834 89.001 60.501
s77.167 22 124.5 22c48.667 0 90.834 -7.33301 126.501 -22s65.167 -34.834 88.5 -60.501s40.833 -55.5 52.5 -89.5s17.5 -70 17.5 -108v-78c0 -38 -5.66699 -74 -17 -108s-28.833 -63.667 -52.5 -89s-53.167 -45.333 -88.5 -60s-77 -22 -125 -22s-90 7.33301 -126 22
s-65.833 34.667 -89.5 60s-41.5 55 -53.5 89s-18 70 -18 108v78zM810.996 259c0 -15.333 1.99805 -30.167 5.99805 -44.5s10.167 -27 18.5 -38s18.666 -19.667 30.999 -26s26.833 -9.5 43.5 -9.5c20.667 0 37.334 3.16699 50.001 9.5s22.334 15 29.001 26s11 23.5 13 37.5
s3 29 3 45v78c0 15.333 -1.66699 30 -5 44s-8.83301 26.5 -16.5 37.5s-17.667 19.667 -30 26s-27.5 9.5 -45.5 9.5s-33.333 -3.16699 -46 -9.5s-22.667 -15 -30 -26s-12.666 -23.5 -15.999 -37.5s-5 -28.667 -5 -44v-78zM414.994 197.999l-136 65l561 1028l136 -65z" />
    <glyph glyph-name="ampersand" unicode="&#x26;" 
d="M75 371c0 44 6.16699 84.3291 18.5 120.996s29.833 70.834 52.5 102.501s49.834 61.5 81.501 89.5s67.167 55.667 106.5 83c-39.333 59.333 -69.833 115.5 -91.5 168.5s-32.5 107.833 -32.5 164.5c0 57.333 9.16699 109.333 27.5 156s44.5 86.334 78.5 119.001
s75 57.834 123 75.501s101.667 26.5 161 26.5c50 0 95.5 -9 136.5 -27s76 -42.5 105 -73.5s51.5 -66.833 67.5 -107.5s24 -83.667 24 -129c0 -34 -5.33301 -66 -16 -96s-25.334 -58.167 -44.001 -84.5s-40.5 -51.166 -65.5 -74.499s-51.833 -45.333 -80.5 -66l-80 -65
l247 -317c21.333 38 37.833 79.667 49.5 125s17.5 94 17.5 146h238c0 -91.333 -12.167 -176.5 -36.5 -255.5s-62.5 -149.833 -114.5 -212.5l188 -240h-318l-65 83c-50.667 -34 -103.167 -59.833 -157.5 -77.5s-115.833 -26.5 -184.5 -26.5c-67.333 0 -128 9.66699 -182 29
s-99.833 46.333 -137.5 81s-66.5 76 -86.5 124s-30 100.667 -30 158zM523 201.996c34.667 0 68.667 4.66797 102 14.001s65.333 22.666 96 39.999l-263 342l-8 -6c-20 -19.333 -36.333 -38.333 -49 -57s-22.5 -36.667 -29.5 -54s-11.667 -33.833 -14 -49.5
s-3.5 -30.5 -3.5 -44.5c0 -26.667 4 -51.334 12 -74.001s19.333 -42.167 34 -58.5s32.5 -29.166 53.5 -38.499s44.167 -14 69.5 -14zM462 1100c0 -30 6.16504 -60.166 18.498 -90.499s29.166 -62.5 50.499 -96.5l93 69c20.667 13.333 36.334 27.166 47.001 41.499
s18.167 28 22.5 41s6.5 24.667 6.5 35v24.5c0 16 -2.33301 31.667 -7 47s-11.334 29 -20.001 41s-19.167 21.667 -31.5 29s-26.166 11 -41.499 11c-23.333 0 -43.666 -4 -60.999 -12s-31.666 -19 -42.999 -33s-19.833 -30.167 -25.5 -48.5s-8.5 -37.833 -8.5 -58.5z" />
    <glyph glyph-name="quotesingle" unicode="'" 
d="M671 1394l-28 -401h-186v543h214v-142z" />
    <glyph glyph-name="parenleft" unicode="(" 
d="M345 592c0 94 7.16699 182.501 21.5 265.501s33.833 159.667 58.5 230s53.5 134.5 86.5 192.5s67.833 109.333 104.5 154s74.5 82.5 113.5 113.5s76.833 54.833 113.5 71.5l54 -152c-37.333 -28.667 -74.666 -67.167 -111.999 -115.5s-70.833 -108.333 -100.5 -180
s-53.834 -155.167 -72.501 -250.5s-28 -204.333 -28 -327v-26c0 -123.333 9.33301 -232.666 28 -327.999s42.834 -178.833 72.501 -250.5s63.167 -131.834 100.5 -180.501s74.666 -87.334 111.999 -116.001l-54 -150c-36.667 16.667 -74.5 40.667 -113.5 72
s-76.833 69.166 -113.5 113.499s-71.5 95.5 -104.5 153.5s-61.833 122.167 -86.5 192.5s-44.167 146.833 -58.5 229.5s-21.5 171.334 -21.5 266.001v22z" />
    <glyph glyph-name="parenright" unicode=")" 
d="M881 570c0 -91.333 -7.33301 -177.831 -22 -259.498s-34.667 -157.834 -60 -228.501s-54.833 -135.167 -88.5 -193.5s-69.5 -110.333 -107.5 -156s-77 -84.5 -117 -116.5s-79 -56.333 -117 -73l-53 150c36.667 28 73.667 66.333 111 115s71 108.667 101 180
s54.333 155 73 251s28 205.667 28 329v26c0 122.667 -9.66699 232 -29 328s-44 180 -74 252s-63.5 132.333 -100.5 181s-73.5 87 -109.5 115l53 149c38 -16.667 77 -41 117 -73s79 -70.833 117 -116.5s73.833 -97.667 107.5 -156s63.167 -122.833 88.5 -193.5
s45.333 -146.834 60 -228.501s22 -168.167 22 -259.5v-22z" />
    <glyph glyph-name="asterisk" unicode="*" 
d="M546 637l-392 96l66 205l375 -166l-36 431h219l-39 -438l372 163l66 -209l-398 -91l268 -323l-178 -129l-211 372l-211 -361l-179 123z" />
    <glyph glyph-name="plus" unicode="+" 
d="M731 812h366v-254h-366v-412h-265v412h-367v254h367v394h265v-394z" />
    <glyph glyph-name="comma" unicode="," 
d="M710 22c0 -38 -5.16699 -77.002 -15.5 -117.002s-24.5 -78.667 -42.5 -116s-39.5 -72.666 -64.5 -105.999s-51.833 -63 -80.5 -89l-147 76c12.667 24 24.5 48.333 35.5 73s20.5 50.667 28.5 78s14.333 56.333 19 87s7 64.334 7 101.001v234h261z" />
    <glyph glyph-name="hyphen" unicode="-" 
d="M1115 530h-833v225h833v-225z" />
    <glyph glyph-name="period" unicode="." 
d="M422 161c0 26 4.33301 50.167 13 72.5s21.334 41.666 38.001 57.999s37 29.333 61 39s51 14.5 81 14.5s57 -4.83301 81 -14.5s44.167 -22.667 60.5 -39s29 -35.666 38 -57.999s13.5 -46.5 13.5 -72.5c0 -25.333 -4.5 -49 -13.5 -71s-21.667 -41.167 -38 -57.5
s-36.5 -29.166 -60.5 -38.499s-51 -14 -81 -14s-57 4.66699 -81 14s-44.333 22.166 -61 38.499s-29.334 35.5 -38.001 57.5s-13 45.667 -13 71z" />
    <glyph glyph-name="slash" unicode="/" 
d="M479 -125h-259l545 1581h259z" />
    <glyph glyph-name="zero" unicode="0" 
d="M1089 554c0 -94 -10.8301 -176.833 -32.4971 -248.5s-52.834 -131.667 -93.501 -180s-90.334 -84.833 -149.001 -109.5s-124.667 -37 -198 -37c-72.667 0 -138.334 12.333 -197.001 37s-108.5 61.167 -149.5 109.5s-72.667 108.333 -95 180s-33.5 154.5 -33.5 248.5v348
c0 94 11 176.833 33 248.5s53.5 131.667 94.5 180s90.667 84.833 149 109.5s123.833 37 196.5 37c73.333 0 139.333 -12.333 198 -37s108.5 -61.167 149.5 -109.5s72.5 -108.333 94.5 -180s33 -154.5 33 -248.5v-348zM421.003 674l388 289c-2 98 -19 170.667 -51 218
s-80 71 -144 71c-64.667 0 -113 -25 -145 -75s-48 -127 -48 -231v-272zM809.003 774l-388 -288.001c3.33301 -96 21 -167.167 53 -213.5s79.333 -69.5 142 -69.5c65.333 0 113.833 25.333 145.5 76s47.5 128.334 47.5 233.001v262z" />
    <glyph glyph-name="one" unicode="1" 
d="M822 0h-281v1117l-368 -132v242l634 229h15v-1456z" />
    <glyph glyph-name="two" unicode="2" 
d="M1093 0l-992.997 -0.000976562v190l471 506c36.667 40 67.667 76.333 93 109s45.833 62.5 61.5 89.5s27 52.167 34 75.5s10.5 46 10.5 68c0 32.667 -4.66699 61.667 -14 87s-22.5 46.833 -39.5 64.5s-37.333 31.167 -61 40.5s-49.834 14 -78.501 14
c-76.667 0 -133.834 -21.333 -171.501 -64s-56.5 -102.334 -56.5 -179.001h-279c0 64.667 12.333 125.834 37 183.501s59.5 108.167 104.5 151.5s99.333 77.5 163 102.5s134.167 37.5 211.5 37.5c74 0 139.5 -10.333 196.5 -31s104.667 -49.667 143 -87
s67.5 -82.166 87.5 -134.499s30 -110.166 30 -173.499c0 -48 -7.5 -93.833 -22.5 -137.5s-36.333 -86.834 -64 -129.501s-60.834 -86.167 -99.501 -130.5s-81.667 -90.833 -129 -139.5l-274 -290h639v-223z" />
    <glyph glyph-name="three" unicode="3" 
d="M421 850l150.995 -0.00195312c76 0 132.333 19.167 169 57.5s55 88.5 55 150.5c0 28.667 -4.16699 54.834 -12.5 78.501s-20.833 44 -37.5 61s-37.834 30.167 -63.501 39.5s-55.5 14 -89.5 14c-28 0 -54.167 -4 -78.5 -12s-45.666 -19.5 -63.999 -34.5
s-32.833 -33.167 -43.5 -54.5s-16 -45.333 -16 -72h-278c0 59.333 12.167 113.333 36.5 162s57.833 90.5 100.5 125.5s92.834 62.167 150.501 81.5s119.834 29 186.501 29c72 0 138 -8.83301 198 -26.5s111.333 -44 154 -79s75.834 -78.333 99.501 -130
s35.5 -111.5 35.5 -179.5c0 -31.333 -4.66699 -62.166 -14 -92.499s-23 -59.166 -41 -86.499s-40.333 -52.5 -67 -75.5s-57.334 -42.833 -92.001 -59.5c40.667 -14.667 75.834 -33.334 105.501 -56.001s54.167 -48.5 73.5 -77.5s33.666 -60.833 42.999 -95.5
s14 -71.334 14 -110.001c0 -68 -13 -128.667 -39 -182s-61.667 -98.166 -107 -134.499s-99.166 -64 -161.499 -83s-129.5 -28.5 -201.5 -28.5c-62 0 -122.5 8.5 -181.5 25.5s-111.5 42.667 -157.5 77s-82.833 77.5 -110.5 129.5s-41.5 113.333 -41.5 184h278
c0 -28 5.33301 -53.833 16 -77.5s25.834 -44 45.501 -61s42.834 -30.333 69.501 -40s56 -14.5 88 -14.5c70.667 0 126 18.667 166 56s60 88 60 152c0 39.333 -5.66699 73 -17 101s-27.833 51 -49.5 69s-47.667 31.333 -78 40s-64.5 13 -102.5 13h-151v216z" />
    <glyph glyph-name="four" unicode="4" 
d="M953 541h169v-225h-169v-316h-278v316h-605l-11 174l612 966h282v-915zM332 541h343v541l-27 -48z" />
    <glyph glyph-name="five" unicode="5" 
d="M155 717l83.001 739.005h808v-236h-579l-35 -320c20.667 12 50 24.333 88 37s81.667 19 131 19c70 0 132.5 -11.167 187.5 -33.5s101.333 -54.5 139 -96.5s66.5 -93.333 86.5 -154s30 -129.334 30 -206.001c0 -65.333 -9.66699 -127.333 -29 -186
s-49 -110.334 -89 -155.001s-90.333 -80 -151 -106s-132.334 -39 -215.001 -39c-62.667 0 -123.167 9.33301 -181.5 28s-110.166 46 -155.499 82s-82.166 80.167 -110.499 132.5s-43.5 112.166 -45.5 179.499h274c6.66699 -63.333 29.5 -112.333 68.5 -147
s88.833 -52 149.5 -52c37.333 0 69.166 7 95.499 21s47.666 33.333 63.999 58s28.333 54 36 88s11.5 70.667 11.5 110c0 38.667 -4.83301 74.167 -14.5 106.5s-24.5 60.166 -44.5 83.499s-45 41.333 -75 54s-65.333 19 -106 19c-27.333 0 -51 -2.33301 -71 -7
s-37.667 -10.667 -53 -18s-29 -15.833 -41 -25.5s-23.333 -19.834 -34 -30.501z" />
    <glyph glyph-name="six" unicode="6" 
d="M879 1468v-230.996h-16c-73.333 0 -138.166 -9.66699 -194.499 -29s-104.333 -46.666 -144 -81.999s-71 -77.666 -94 -126.999s-37.5 -104.333 -43.5 -165c15.333 16.667 33 33.167 53 49.5s42.5 31 67.5 44s52.167 23.5 81.5 31.5s61 12 95 12
c69.333 0 129.833 -13.167 181.5 -39.5s94.834 -62 129.501 -107s60.5 -97.333 77.5 -157s25.5 -122.5 25.5 -188.5c0 -70.667 -11.333 -136.334 -34 -197.001s-55 -113.334 -97 -158.001s-93 -79.834 -153 -105.501s-127.333 -38.5 -202 -38.5
c-78 0 -148.333 14.5 -211 43.5s-115.834 69.167 -159.501 120.5s-77.334 112.166 -101.001 182.499s-35.5 147.166 -35.5 230.499v107c0 115.333 15.667 222.166 47 320.499s78 183.333 140 255s139 127.667 231 168s198.333 60.5 319 60.5h37zM603 748.004
c-50 0 -94.1699 -13.332 -132.503 -39.999s-67.166 -61 -86.499 -103v-82c0 -53.333 5.5 -100 16.5 -140s26.5 -73.167 46.5 -99.5s43.667 -46.166 71 -59.499s57 -20 89 -20c32.667 0 62.334 6.83301 89.001 20.5s49.334 32.5 68.001 56.5s33 52.5 43 85.5
s15 69.167 15 108.5s-5 75.666 -15 108.999s-24.333 62.166 -43 86.499s-41.5 43.333 -68.5 57s-57.833 20.5 -92.5 20.5z" />
    <glyph glyph-name="seven" unicode="7" 
d="M1092 1301l-567 -1301h-293l568 1229h-731v227h1023v-155z" />
    <glyph glyph-name="eight" unicode="8" 
d="M1055 1069c0 -70.667 -17.833 -133.503 -53.5 -188.503s-84.5 -98.833 -146.5 -131.5c70.667 -33.333 126.834 -80 168.501 -140s62.5 -130.333 62.5 -211c0 -68.667 -12.5 -129 -37.5 -181s-59.333 -95.5 -103 -130.5s-95.167 -61.5 -154.5 -79.5s-123.333 -27 -192 -27
c-69.333 0 -133.833 9 -193.5 27s-111.5 44.5 -155.5 79.5s-78.5 78.5 -103.5 130.5s-37.5 112.333 -37.5 181c0 40 5.5 77.833 16.5 113.5s26.5 68.334 46.5 98.001s44.167 56.334 72.5 80.001s60.166 43.834 95.499 60.501c-62 32 -110.667 75.5 -146 130.5
s-53 117.833 -53 188.5c0 66 11.333 124.167 34 174.5s54.167 92.833 94.5 127.5s88.333 60.834 144 78.501s116.5 26.5 182.5 26.5s127 -8.83301 183 -26.5s104.5 -43.834 145.5 -78.501s73 -77.167 96 -127.5s34.5 -108.5 34.5 -174.5zM807 416.997
c0 33.333 -4.99805 63.333 -14.998 90s-24.167 49.5 -42.5 68.5s-40.333 33.5 -66 43.5s-54.5 15 -86.5 15s-60.833 -5 -86.5 -15s-47.5 -24.5 -65.5 -43.5s-32 -41.833 -42 -68.5s-15 -56.667 -15 -90c0 -66.667 19 -119 57 -157s89.333 -57 154 -57
c30.667 0 58.667 4.83301 84 14.5s47.166 23.834 65.499 42.501s32.666 41.167 42.999 67.5s15.5 56.166 15.5 89.499zM778.002 1056c0 29.333 -4.33008 56.001 -12.9971 80.001s-20.834 44.5 -36.501 61.5s-34.667 30.167 -57 39.5s-47.5 14 -75.5 14
c-56.667 0 -100.334 -17.333 -131.001 -52s-46 -82.334 -46 -143.001c0 -29.333 4 -56.166 12 -80.499s19.833 -45.166 35.5 -62.499s34.667 -30.833 57 -40.5s47.5 -14.5 75.5 -14.5s53 4.83301 75 14.5s40.667 23.167 56 40.5s27.166 38.166 35.499 62.499
s12.5 51.166 12.5 80.499z" />
    <glyph glyph-name="nine" unicode="9" 
d="M332 221c74.667 0 139.335 8.00098 194.002 24.001s100.5 39.167 137.5 69.5s65.667 67.333 86 111s33.5 93.167 39.5 148.5c-28 -28 -64 -52 -108 -72s-97.333 -30 -160 -30c-69.333 0 -130.333 12.667 -183 38s-96.834 60 -132.501 104s-62.667 95.833 -81 155.5
s-27.5 123.834 -27.5 192.501c0 70.667 11.167 137.167 33.5 199.5s54.5 116.833 96.5 163.5s92.833 83.5 152.5 110.5s126.834 40.5 201.501 40.5c76 0 144.333 -14.667 205 -44s112.167 -70.333 154.5 -123s74.666 -115.334 96.999 -188.001s33.5 -152.334 33.5 -239.001
v-96c0 -116 -14.333 -222.667 -43 -320s-73 -181.5 -133 -252.5s-136.333 -126.333 -229 -166s-203.334 -59.5 -332.001 -59.5h-21v233h19zM587.001 687.001c25.333 0 48.8301 3.66406 70.4971 10.9971s41.334 17.5 59.001 30.5s33 28.333 46 46s23.5 36.834 31.5 57.501v99
c0 53.333 -5.5 100 -16.5 140s-26.167 73.333 -45.5 100s-42 46.667 -68 60s-54 20 -84 20c-32.667 0 -61.834 -7.83301 -87.501 -23.5s-47.167 -36.667 -64.5 -63s-30.666 -56.666 -39.999 -90.999s-14 -70.166 -14 -107.499s4.33301 -73 13 -107
s21.834 -63.667 39.501 -89s39.834 -45.5 66.501 -60.5s58 -22.5 94 -22.5z" />
    <glyph glyph-name="colon" unicode=":" 
d="M436 161c0 26 4.33301 50.167 13 72.5s21.334 41.666 38.001 57.999s37 29.333 61 39s51 14.5 81 14.5s57 -4.83301 81 -14.5s44.167 -22.667 60.5 -39s29 -35.666 38 -57.999s13.5 -46.5 13.5 -72.5c0 -25.333 -4.5 -49 -13.5 -71s-21.667 -41.167 -38 -57.5
s-36.5 -29.166 -60.5 -38.499s-51 -14 -81 -14s-57 4.66699 -81 14s-44.333 22.166 -61 38.499s-29.334 35.5 -38.001 57.5s-13 45.667 -13 71zM436 987c0 26 4.33301 50.167 13 72.5s21.334 41.666 38.001 57.999s37 29.333 61 39s51 14.5 81 14.5s57 -4.83301 81 -14.5
s44.167 -22.667 60.5 -39s29 -35.666 38 -57.999s13.5 -46.5 13.5 -72.5c0 -25.333 -4.5 -49 -13.5 -71s-21.667 -41.167 -38 -57.5s-36.5 -29.166 -60.5 -38.499s-51 -14 -81 -14s-57 4.66699 -81 14s-44.333 22.166 -61 38.499s-29.334 35.5 -38.001 57.5
s-13 45.667 -13 71z" />
    <glyph glyph-name="semicolon" unicode=";" 
d="M475 987c0 26 4.33301 50.167 13 72.5s21.334 41.666 38.001 57.999s37 29.333 61 39s51 14.5 81 14.5s57 -4.83301 81 -14.5s44.167 -22.667 60.5 -39s29 -35.666 38 -57.999s13.5 -46.5 13.5 -72.5c0 -25.333 -4.5 -49 -13.5 -71s-21.667 -41.167 -38 -57.5
s-36.5 -29.166 -60.5 -38.499s-51 -14 -81 -14s-57 4.66699 -81 14s-44.333 22.166 -61 38.499s-29.334 35.5 -38.001 57.5s-13 45.667 -13 71zM786 22c0 -38 -5.16699 -77.002 -15.5 -117.002s-24.5 -78.667 -42.5 -116s-39.5 -72.666 -64.5 -105.999
s-51.833 -63 -80.5 -89l-147 76c12.667 24 24.5 48.333 35.5 73s20.5 50.667 28.5 78s14.333 56.333 19 87s7 64.334 7 101.001v234h261z" />
    <glyph glyph-name="less" unicode="&#x3c;" 
d="M493 647l-68 -25l68 -24l548 -183v-271l-885 367v225l885 367v-270z" />
    <glyph glyph-name="equal" unicode="=" 
d="M1104 717h-946v228h946v-228zM1104 286h-946v227h946v-227z" />
    <glyph glyph-name="greater" unicode="&#x3e;" 
d="M161 834v269l900 -366v-227l-900 -367v270l573 192l61 20l-60 20z" />
    <glyph glyph-name="question" unicode="?" 
d="M499 442c0 46 1.16895 85.002 3.50195 117.002s7.83301 60.833 16.5 86.5s21.667 49.334 39 71.001s41.666 44.834 72.999 69.501c22.667 20.667 45.334 42.5 68.001 65.5s43.167 46.667 61.5 71s33.166 49.166 44.499 74.499s17 50.666 17 75.999
c0 60.667 -16.333 105 -49 133s-80.334 42 -143.001 42c-24 0 -47.333 -3.16699 -70 -9.5s-42.834 -16.5 -60.501 -30.5s-32 -32 -43 -54s-16.833 -48.333 -17.5 -79h-279c0.666992 68 13.334 127.167 38.001 177.5s58 92.166 100 125.499s91.333 58.166 148 74.499
s118 24.5 184 24.5c74 0 140.333 -8.33301 199 -25s108.167 -41.5 148.5 -74.5s71.166 -73.833 92.499 -122.5s32 -105 32 -169c0 -47.333 -8 -90.5 -24 -129.5s-36.667 -75.333 -62 -109s-54.166 -65.667 -86.499 -96l-97.5 -88.5c-20 -20 -35.667 -37.667 -47 -53
s-19.5 -31 -24.5 -47s-8.16699 -33.5 -9.5 -52.5s-2 -41.833 -2 -68.5h-250zM458.002 139.002c0 22 3.66699 42.5 11 61.5s18 35.5 32 49.5s31 24.833 51 32.5s42.667 11.5 68 11.5c24.667 0 47.167 -3.83301 67.5 -11.5s37.5 -18.5 51.5 -32.5s24.833 -30.5 32.5 -49.5
s11.5 -39.5 11.5 -61.5c0 -21.333 -3.83301 -41.333 -11.5 -60s-18.5 -34.667 -32.5 -48s-31.167 -23.833 -51.5 -31.5s-42.833 -11.5 -67.5 -11.5c-25.333 0 -48 3.83301 -68 11.5s-37 18.167 -51 31.5s-24.667 29.333 -32 48s-11 38.667 -11 60z" />
    <glyph glyph-name="at" unicode="@" 
d="M1170 823c-2 -62.667 -9.00391 -124.837 -21.0039 -186.504s-29.833 -117 -53.5 -166s-53.834 -88.667 -90.501 -119s-80.667 -45.5 -132 -45.5c-34 0 -64.833 8.5 -92.5 25.5s-49.5 41.5 -65.5 73.5c-21.333 -30 -46.166 -53.667 -74.499 -71s-59.166 -26 -92.499 -26
c-40 0 -75 9 -105 27s-54.333 43.833 -73 77.5s-31.5 74.167 -38.5 121.5s-7.83301 100 -2.5 158c7.33301 68 20.5 129.333 39.5 184s43.5 101.5 73.5 140.5s65.333 69 106 90s86.334 31.5 137.001 31.5c52 0 94.5 -7.66699 127.5 -23s59.833 -33 80.5 -53l-43 -527
c-1.33301 -19.333 -0.833008 -34.333 1.5 -45s6 -18.667 11 -24s10.833 -8.66602 17.5 -9.99902s13.334 -2 20.001 -2c17.333 0 33.166 9 47.499 27s26.833 43 37.5 75s18.834 70.167 24.501 114.5s8.5 92.833 8.5 145.5c2.66699 81.333 -3.16602 151.833 -17.499 211.5
s-36.833 108.834 -67.5 147.501s-69 67.334 -115 86.001s-99 28 -159 28c-68 0 -129.167 -15.167 -183.5 -45.5s-100.666 -72.5 -138.999 -126.5s-68.5 -118.167 -90.5 -192.5s-34.333 -155.833 -37 -244.5c-3.33301 -89.333 2.83398 -167.333 18.501 -234
s40 -122.167 73 -166.5s74.667 -77.5 125 -99.5s108.166 -33 173.499 -33c20.667 0 42 1.33301 64 4s43.5 6.5 64.5 11.5s41 10.833 60 17.5s36.167 14 51.5 22l32 -135c-17.333 -12.667 -37.166 -23.667 -59.499 -33s-45.833 -17.166 -70.5 -23.499
s-49.334 -11 -74.001 -14s-48.334 -4.5 -71.001 -4.5c-97.333 0 -181.333 16 -252 48s-129 77.667 -175 137s-79.5 131.5 -100.5 216.5s-29.833 180.5 -26.5 286.5c3.33301 105.333 20.833 204.333 52.5 297s75 173.5 130 242.5s120.167 123.333 195.5 163
s158.333 59.5 249 59.5c78.667 0 149.667 -14.833 213 -44.5s116.833 -71.667 160.5 -126s76.5 -119.5 98.5 -195.5s31.667 -160.333 29 -253zM501.996 691.997c-4 -76.667 2.16699 -134.333 18.5 -173s40.833 -58 73.5 -58c16 0 32.333 4.16699 49 12.5
s32.667 24.5 48 48.5c0 2 0.166992 4.16699 0.5 6.5s0.5 4.5 0.5 6.5l38 447c-10 2 -20.333 3 -31 3c-58 0 -102.833 -25 -134.5 -75s-52.5 -122.667 -62.5 -218z" />
    <glyph glyph-name="A" unicode="A" 
d="M847 304h-437l-86 -304h-296l477 1456h255l468 -1456h-296zM479 543h302l-149 536z" />
    <glyph glyph-name="B" unicode="B" 
d="M129 0l0.000976562 1456h489c79.333 0 151.5 -8 216.5 -24s120.5 -40.333 166.5 -73s81.5 -74 106.5 -124s37.5 -109 37.5 -177c-0.666992 -68 -18.834 -129 -54.501 -183s-88.167 -95 -157.5 -123c42 -10.667 78.333 -26.667 109 -48s56.167 -46.5 76.5 -75.5
s35.333 -60.667 45 -95s14.5 -69.833 14.5 -106.5c0 -70 -12 -131.667 -36 -185s-58.333 -98 -103 -134s-99 -63 -163 -81s-136 -27 -216 -27h-531zM411.001 642l0.000976562 -415h250c76.667 0.666992 135.167 19.5 175.5 56.5s60.5 85.5 60.5 145.5
c0.666992 66.667 -17.333 118.667 -54 156s-93.334 56.333 -170.001 57h-262zM411.002 845l209 -0.000976562c78 0.666992 138 17 180 49s63.333 79 64 141c0 68 -21 116.833 -63 146.5s-102.667 44.834 -182 45.501h-208v-382z" />
    <glyph glyph-name="C" unicode="C" 
d="M1142 456c-4.66699 -73.333 -20.499 -139.335 -47.499 -198.002s-63.167 -108.667 -108.5 -150s-99.333 -73.166 -162 -95.499s-132 -33.5 -208 -33.5c-86 0 -162.333 15.833 -229 47.5s-122.667 76 -168 133s-80 125.5 -104 205.5s-36 168 -36 264v196
c0 96.667 12.667 185 38 265s61.333 148.667 108 206s103.167 101.833 169.5 133.5s140.833 47.5 223.5 47.5c80 0 151.167 -11.333 213.5 -34s115.5 -55 159.5 -97s78.667 -93.333 104 -154s41.333 -129 48 -205h-280c-2.66699 43.333 -9.16699 81.333 -19.5 114
s-25.333 59.834 -45 81.501s-44.334 38 -74.001 49s-65.167 16.5 -106.5 16.5c-43.333 0 -81 -9.33301 -113 -28s-58.5 -46 -79.5 -82s-36.5 -80.167 -46.5 -132.5s-15 -111.833 -15 -178.5v-198c0 -143.333 20.167 -249.333 60.5 -318s104.166 -103 191.499 -103
c73.333 0 131.333 19.5 174 58.5s66.334 102.167 71.001 189.5h281z" />
    <glyph glyph-name="D" unicode="D" 
d="M125 0l0.00195312 1456h377c96.667 0 184.167 -16.5 262.5 -49.5s145.333 -79 201 -138s98.667 -129.5 129 -211.5s45.5 -172 45.5 -270v-120c0 -98 -15.167 -187.833 -45.5 -269.5s-72.833 -152 -127.5 -211s-120.334 -104.833 -197.001 -137.5
s-161.334 -49 -254.001 -49h-391zM408.002 1228v-1002h108c52.667 0 99.834 10 141.501 30s77 49 106 87s51.167 84.167 66.5 138.5s23 116.166 23 185.499v122c0 65.333 -7.5 124.833 -22.5 178.5s-37.333 99.834 -67 138.501s-66.334 68.667 -110.001 90
s-94.167 32 -151.5 32h-94z" />
    <glyph glyph-name="E" unicode="E" 
d="M1027 638h-598v-411h699v-227h-981v1456h978v-229h-696v-367h598v-222z" />
    <glyph glyph-name="F" unicode="F" 
d="M1055 603h-624v-603h-282v1456h984v-229h-702v-396h624v-228z" />
    <glyph glyph-name="G" unicode="G" 
d="M1132 170c-18 -22 -42.6641 -44.3359 -73.9971 -67.0029s-68.5 -43.167 -111.5 -61.5s-91.167 -33.166 -144.5 -44.499s-110.666 -17 -171.999 -17c-82.667 0 -157.334 14.667 -224.001 44s-123.667 71.666 -171 126.999s-83.833 123.166 -109.5 203.499
s-38.5 171.5 -38.5 273.5v198c0 102 13.5 193.167 40.5 273.5s64.333 148.5 112 204.5s103.667 98.667 168 128s134.166 44 209.499 44c82 0 153.5 -10.333 214.5 -31s112.5 -50.5 154.5 -89.5s74.833 -86.5 98.5 -142.5s39.167 -119 46.5 -189h-274
c-9.33301 74.667 -31.833 130.834 -67.5 168.501s-90.834 56.5 -165.501 56.5c-36 0 -69.333 -9.16699 -100 -27.5s-57.334 -45.166 -80.001 -80.499s-40.667 -79.166 -54 -131.499s-20 -112.833 -20 -181.5v-200c0.666992 -136 23.334 -240.167 68.001 -312.5
s113 -108.833 205 -109.5c22 0 43.667 1.66699 65 5s41.333 8 60 14s35.167 12.833 49.5 20.5s25.166 15.834 32.499 24.501l1 264h-241v210h521z" />
    <glyph glyph-name="H" unicode="H" 
d="M1092 0h-278v631h-412v-631h-279v1456h279v-597h412v597h278v-1456z" />
    <glyph glyph-name="I" unicode="I" 
d="M193 1456h842v-227h-284v-1003h284v-226h-842v226h277v1003h-277v227z" />
    <glyph glyph-name="J" unicode="J" 
d="M818 1456l281 0.000976562l1 -1009c-0.666992 -69.333 -13.834 -132.5 -39.501 -189.5s-60.834 -106.167 -105.501 -147.5s-97.167 -73.333 -157.5 -96s-125.166 -34 -194.499 -34c-73.333 0 -140 9.33301 -200 28s-111.5 46.5 -154.5 83.5s-76.5 83.5 -100.5 139.5
s-36.333 121.667 -37 197h282c0.666992 -78 18 -134.5 52 -169.5s86.667 -52.5 158 -52.5c32 0 61.333 6.16699 88 18.5s49.334 29.166 68.001 50.499s33.167 46.833 43.5 76.5s15.5 61.5 15.5 95.5v1009z" />
    <glyph glyph-name="K" unicode="K" 
d="M565 598l-154 -169v-429h-282v1456h282v-667l132 178l354 489h344l-490 -644l508 -812h-334z" />
    <glyph glyph-name="L" unicode="L" 
d="M432 227h682v-227h-964v1456h282v-1229z" />
    <glyph glyph-name="M" unicode="M" 
d="M476 1456l138 -547l157 547h349v-1456h-258v431l12 681l-191 -632h-139l-171 605l12 -654v-431h-258v1456h349z" />
    <glyph glyph-name="N" unicode="N" 
d="M1091 0h-280l-405 939v-939h-283v1456h283l402 -935l1 935h282v-1456z" />
    <glyph glyph-name="O" unicode="O" 
d="M1147 621c0 -93.333 -12.333 -179.33 -37 -257.997s-60.334 -146.334 -107.001 -203.001s-103.5 -100.834 -170.5 -132.501s-142.5 -47.5 -226.5 -47.5s-158.667 15.833 -224 47.5s-120.333 76 -165 133s-78.667 124.667 -102 203s-35 164.166 -35 257.499v212
c0 93.333 11.667 179.333 35 258s57.333 146.5 102 203.5s99.5 101.5 164.5 133.5s139.5 48 223.5 48c84.667 0 160.5 -16 227.5 -48s123.833 -76.5 170.5 -133.5s82.334 -124.833 107.001 -203.5s37 -164.667 37 -258v-212zM862 835.003
c0 59.333 -4.83008 114.001 -14.4971 164.001s-24.834 93 -45.501 129s-47.167 64.167 -79.5 84.5s-71.5 30.5 -117.5 30.5c-45.333 0 -83.333 -10.167 -114 -30.5s-55.334 -48.5 -74.001 -84.5s-32 -79 -40 -129s-12 -104.667 -12 -164v-214c0 -58.667 4 -113 12 -163
s21.333 -93.333 40 -130s43.334 -65.334 74.001 -86.001s69 -31 115 -31c45.333 0 84.166 10.333 116.499 31s58.666 49.167 78.999 85.5s35.5 79.5 45.5 129.5s15 104.667 15 164v214z" />
    <glyph glyph-name="P" unicode="P" 
d="M430 534v-534.002h-281v1456h498c79.333 0 151 -11.5 215 -34.5s118.5 -55 163.5 -96s79.667 -90.167 104 -147.5s36.5 -121 36.5 -191c0 -65.333 -12.167 -125.666 -36.5 -180.999s-59 -103.166 -104 -143.499s-99.5 -71.833 -163.5 -94.5s-135.667 -34 -215 -34h-217z
M430 761.998h217c40 0 74.667 6 104 18s53.833 28.333 73.5 49s34.334 44.5 44.001 71.5s14.5 55.167 14.5 84.5c0 34 -4.83301 65.667 -14.5 95s-24.334 55 -44.001 77s-44.167 39.333 -73.5 52s-64 19 -104 19h-217v-466z" />
    <glyph glyph-name="Q" unicode="Q" 
d="M1156 577c-0.666992 -89.333 -16.168 -173.5 -46.501 -252.5s-74.833 -146.5 -133.5 -202.5l241 -218l-181 -161l-277 256c-23.333 -6 -47.166 -10.667 -71.499 -14s-49.5 -5 -75.5 -5c-84 0 -158.667 16.167 -224 48.5s-120.5 76 -165.5 131s-79.167 118.5 -102.5 190.5
s-35 147.667 -35 227v252c0 94 11.667 180.5 35 259.5s57.5 147.167 102.5 204.5s100.167 102.166 165.5 134.499s140 48.5 224 48.5c84.667 0 160.667 -16.167 228 -48.5s124.333 -77.166 171 -134.499s82.5 -125.5 107.5 -204.5s37.5 -165.5 37.5 -259.5v-252z
M870.999 831c0 60 -4.83301 115.164 -14.5 165.497s-24.834 93.833 -45.501 130.5s-47.334 65.167 -80.001 85.5s-72.334 30.5 -119.001 30.5c-46 0 -84.5 -10.333 -115.5 -31s-55.833 -49.167 -74.5 -85.5s-32 -79.666 -40 -129.999s-12 -105.5 -12 -165.5v-254
c0 -45.333 4 -89.833 12 -133.5s21.333 -82.667 40 -117s43.5 -62.166 74.5 -83.499s69.5 -32 115.5 -32c46.667 0 86.334 10.5 119.001 31.5s59.334 48.833 80.001 83.5s35.834 73.834 45.501 117.501s14.5 88.167 14.5 133.5v254z" />
    <glyph glyph-name="R" unicode="R" 
d="M625 544l-212.999 0.000976562v-544h-281v1456h488c80.667 0 153.667 -9.5 219 -28.5s121.166 -46.833 167.499 -83.5s82 -82.334 107 -137.001s37.5 -118 37.5 -190c0 -52 -6.16699 -98.833 -18.5 -140.5s-30 -79 -53 -112s-50.667 -61.833 -83 -86.5
s-68.5 -46 -108.5 -64l313 -601v-13h-301zM412.001 772.001h208c79.333 0 140.5 20.167 183.5 60.5s64.5 95.5 64.5 165.5c0 72.667 -21 129.167 -63 169.5s-104 60.5 -186 60.5h-207v-456z" />
    <glyph glyph-name="S" unicode="S" 
d="M887 380c0 26 -4.5 50.334 -13.5 73.001s-24.333 43.834 -46 63.501s-50 37.667 -85 54s-78.5 31.5 -130.5 45.5c-63.333 17.333 -123.833 39 -181.5 65s-108.5 57.333 -152.5 94s-79.167 79.334 -105.5 128.001s-39.5 104.667 -39.5 168c0 61.333 13 117 39 167
s62 92.667 108 128s100.333 62.5 163 81.5s130.667 28.5 204 28.5c76 0 145.5 -11 208.5 -33s117.167 -52.833 162.5 -92.5s80.666 -86.834 105.999 -141.501s38 -114.667 38 -180h-274c-1.33301 32.667 -7.16602 62.667 -17.499 90s-25.666 50.833 -45.999 70.5
s-45.666 35 -75.999 46s-65.833 16.5 -106.5 16.5c-37.333 0 -70.5 -4.5 -99.5 -13.5s-53.5 -21.667 -73.5 -38s-35.167 -35.666 -45.5 -57.999s-15.5 -46.5 -15.5 -72.5c0 -27.333 6.83301 -52 20.5 -74s33.5 -41.833 59.5 -59.5s57.5 -33.834 94.5 -48.501
s78.833 -28.334 125.5 -41.001c66.667 -19.333 128 -43 184 -71s104.167 -61.167 144.5 -99.5s71.666 -82 93.999 -131s33.5 -103.5 33.5 -163.5c0 -64 -12.833 -120.833 -38.5 -170.5s-61.167 -91.667 -106.5 -126s-99.333 -60.333 -162 -78s-131 -26.5 -205 -26.5
c-46 0 -91.833 4.16699 -137.5 12.5s-89.334 21.166 -131.001 38.499s-80.5 39 -116.5 65s-67.167 56.333 -93.5 91s-47 74 -62 118s-22.5 92.667 -22.5 146h276c1.33301 -44 9 -81.667 23 -113s33.5 -57 58.5 -77s55 -34.667 90 -44s73.5 -14 115.5 -14
c37.333 0 70.5 4.33301 99.5 13s53.5 20.667 73.5 36s35.333 33.833 46 55.5s16 45.5 16 71.5z" />
    <glyph glyph-name="T" unicode="T" 
d="M1201 1227h-449v-1227h-282v1227h-443v229h1174v-229z" />
    <glyph glyph-name="U" unicode="U" 
d="M1101 1456l0.99707 -965c0 -81.333 -11.167 -153.666 -33.5 -216.999s-54.666 -116.833 -96.999 -160.5s-94 -76.834 -155 -99.501s-130.5 -34 -208.5 -34c-73.333 0 -139.5 11.333 -198.5 34s-109.5 55.667 -151.5 99s-74.5 96.833 -97.5 160.5
s-34.5 136.167 -34.5 217.5l1 965h281l1 -965c0.666992 -94 17.834 -165 51.501 -213s82.834 -72 147.501 -72c68.667 0 121.167 24 157.5 72s54.833 119 55.5 213l1 965h279z" />
    <glyph glyph-name="V" unicode="V" 
d="M613 407l275 1049h310l-441 -1456h-286l-440 1456h310z" />
    <glyph glyph-name="W" unicode="W" 
d="M843 579l106 877h258l-202 -1456h-254l-138 860l-133 -860h-254l-200 1456h257l104 -871l124 871h201z" />
    <glyph glyph-name="X" unicode="X" 
d="M624 934l259 522h330l-410 -722l420 -734h-328l-267 530l-266 -530h-332l420 734l-409 722h328z" />
    <glyph glyph-name="Y" unicode="Y" 
d="M628 785l287 671h309l-458 -952l-1 -504h-280l-1 516l-451 940h308z" />
    <glyph glyph-name="Z" unicode="Z" 
d="M431 227h722v-227h-1064v172l706 1055h-704v229h1044l1 -167z" />
    <glyph glyph-name="bracketleft" unicode="[" 
d="M847 1475h-170v-1595h170v-215h-447v2025h447v-215z" />
    <glyph glyph-name="backslash" unicode="\" 
d="M240 1456h260l545 -1581h-260z" />
    <glyph glyph-name="bracketright" unicode="]" 
d="M400 1690h448v-2025h-448v215h171v1595h-171v215z" />
    <glyph glyph-name="asciicircum" unicode="^" 
d="M437 687h-224l319 769h201l318 -769h-223l-176 454l-21 84l-21 -84z" />
    <glyph glyph-name="underscore" unicode="_" 
d="M1060 -217h-912v217h912v-217z" />
    <glyph glyph-name="grave" unicode="`" 
d="M894 1199h-219l-264 279h306z" />
    <glyph glyph-name="a" unicode="a" 
d="M817 0c-6.66699 13.333 -12.333 28.6699 -17 46.0029s-8.66699 35.666 -12 54.999c-15.333 -16.667 -33 -32.334 -53 -47.001s-42.167 -27.5 -66.5 -38.5s-51.166 -19.667 -80.499 -26s-61 -9.5 -95 -9.5c-55.333 0 -106.166 8 -152.499 24s-86.166 38.333 -119.499 67
s-59.333 62.834 -78 102.501s-28 82.834 -28 129.501c0 114 42.5 202.167 127.5 264.5s211.833 93.5 380.5 93.5h155v64c0 52 -17 93.167 -51 123.5s-83 45.5 -147 45.5c-56.667 0 -98 -12.167 -124 -36.5s-39 -56.833 -39 -97.5h-278c0 46 10.167 89.667 30.5 131
s50 77.666 89 108.999s86.667 56.166 143 74.499s120.833 27.5 193.5 27.5c65.333 0 126.166 -8 182.499 -24s105.166 -39.667 146.499 -71s73.666 -70.833 96.999 -118.5s35 -102.834 35 -165.501v-464c0 -58 3.66699 -106 11 -144s18 -70.667 32 -98v-17h-282z
M552.001 195.004c28 0 54 3.33105 78 9.99805s45.667 15.334 65 26.001s36 22.834 50 36.501s25 27.5 33 41.5v186h-142c-43.333 0 -80.333 -4.16699 -111 -12.5s-55.667 -20 -75 -35s-33.666 -33 -42.999 -54s-14 -43.833 -14 -68.5c0 -37.333 13.167 -68.333 39.5 -93
s66.166 -37 119.499 -37z" />
    <glyph glyph-name="b" unicode="b" 
d="M1116 530c0 -80.667 -8.83594 -154.667 -26.5029 -222s-44.167 -125.333 -79.5 -174s-79.333 -86.5 -132 -113.5s-114 -40.5 -184 -40.5c-63.333 0 -118.166 11.833 -164.499 35.5s-86.166 56.834 -119.499 99.501l-13 -115h-250v1536h278v-552
c32 37.333 69.833 66.333 113.5 87s94.834 31 153.501 31c70.667 0 132.5 -13.667 185.5 -41s97.167 -65.333 132.5 -114s61.833 -106.834 79.5 -174.501s26.5 -141.5 26.5 -221.5v-21zM837.997 551c0 44 -3.33105 85.6641 -9.99805 124.997s-18.167 73.833 -34.5 103.5
s-38.5 53.167 -66.5 70.5s-63 26 -105 26c-50.667 0 -91.834 -10.667 -123.501 -32s-56.167 -50.666 -73.5 -87.999v-431c17.333 -37.333 41.833 -66.666 73.5 -87.999s73.5 -32 125.5 -32c42 0 76.667 8.16699 104 24.5s49.166 39 65.499 68s27.833 63.333 34.5 103
s10 82.834 10 129.501v21z" />
    <glyph glyph-name="c" unicode="c" 
d="M620 202c27.333 0 53.3291 4.00391 77.9961 12.0039s46.334 19.333 65.001 34s33.167 32.334 43.5 53.001s14.833 43.667 13.5 69h262c1.33301 -56 -10.167 -108 -34.5 -156s-57.5 -89.333 -99.5 -124s-90.833 -61.834 -146.5 -81.501s-114.5 -29.5 -176.5 -29.5
c-84 0 -157.667 14.167 -221 42.5s-116.166 67.166 -158.499 116.499s-74.333 107.166 -96 173.499s-32.5 137.5 -32.5 213.5v30c0 76 10.667 147.167 32 213.5s53.333 124.166 96 173.499s95.5 88.333 158.5 117s136.167 43 219.5 43c66.667 0 128.334 -10 185.001 -30
s105.5 -48.167 146.5 -84.5s72.833 -80.333 95.5 -132s33.334 -109.5 32.001 -173.5h-262c1.33301 26.667 -2.66699 52 -12 76s-23 44.667 -41 62s-39.667 31.166 -65 41.499s-53 15.5 -83 15.5c-44 0 -80.333 -9 -109 -27s-51.5 -42 -68.5 -72s-29 -64.333 -36 -103
s-10.5 -78.667 -10.5 -120v-30c0 -42 3.33301 -82.5 10 -121.5s18.5 -73.333 35.5 -103s40 -53.5 69 -71.5s65.833 -27 110.5 -27z" />
    <glyph glyph-name="d" unicode="d" 
d="M112 549c0 82 9.49902 156.997 28.499 224.997s46.833 126.333 83.5 175s81.167 86.334 133.5 113.001s112.166 40 179.499 40c56.667 0 106.5 -10.167 149.5 -30.5s81.167 -49.166 114.5 -86.499v551h279v-1536h-251l-14 113c-34 -42 -74 -74.667 -120 -98
s-99.333 -35 -160 -35c-66 0 -125.167 13.833 -177.5 41.5s-96.666 65.834 -132.999 114.501s-64.166 106.5 -83.499 173.5s-29 139.833 -29 218.5v21zM389.999 527.997c0 -45.333 3.83301 -87.499 11.5 -126.499s20.167 -73 37.5 -102s39.666 -51.833 66.999 -68.5
s60.666 -25 99.999 -25c48 0 87.833 10.333 119.5 31s56.834 49 75.501 85v438c-18.667 36.667 -43.667 65.167 -75 85.5s-70.666 30.5 -117.999 30.5c-39.333 0 -72.833 -8.5 -100.5 -25.5s-50.167 -40.333 -67.5 -70s-30 -64.334 -38 -104.001s-12 -82.167 -12 -127.5v-21
z" />
    <glyph glyph-name="e" unicode="e" 
d="M666 -20c-83.333 0 -158.998 13.6719 -226.998 41.0049s-126.333 64.5 -175 111.5s-86.167 102.333 -112.5 166s-39.5 131.834 -39.5 204.501v40c0 82.667 13 158.167 39 226.5s62.333 127.166 109 176.499s102 87.666 166 114.999s133.667 41 209 41
c78 0 147.5 -12.833 208.5 -38.5s112.667 -61.834 155 -108.501s74.5 -102.834 96.5 -168.501s33 -138.167 33 -217.5v-118h-734c5.33301 -36.667 16.166 -70.167 32.499 -100.5s37.166 -56.5 62.499 -78.5s54.333 -39 87 -51s68.334 -18 107.001 -18
c27.333 0 54.5 2.66699 81.5 8s52.833 13.166 77.5 23.499s47.667 23.166 69 38.499s40 33.333 56 54l139 -150c-17.333 -24.667 -39.833 -48.834 -67.5 -72.501s-60.334 -44.667 -98.001 -63s-79.5 -33.166 -125.5 -44.499s-95.667 -17 -149 -17zM633.002 877.005
c-31.333 0 -60 -5.49902 -86 -16.499s-48.833 -26.833 -68.5 -47.5s-36.167 -45.334 -49.5 -74.001s-23.333 -60.667 -30 -96h456v22c-1.33301 29.333 -7 57 -17 83s-24.333 48.5 -43 67.5s-41.5 34 -68.5 45s-58.167 16.5 -93.5 16.5z" />
    <glyph glyph-name="f" unicode="f" 
d="M410 0l-0.000976562 877.002h-284v205h284v59c0 71.333 11.333 134.333 34 189s55 100.667 97 138s93 65.5 153 84.5s127 28.5 201 28.5c23.333 0 45.833 -0.833008 67.5 -2.5s42.834 -3.83398 63.501 -6.50098s41.5 -5.66699 62.5 -9s42.833 -7 65.5 -11l-18 -218
c-25.333 5.33301 -54 10 -86 14s-69.667 6 -113 6c-86.667 0 -149.667 -18.333 -189 -55s-59 -89.334 -59 -158.001v-59h390v-205h-390v-877h-279z" />
    <glyph glyph-name="g" unicode="g" 
d="M113 549c0 82 10.1699 156.993 30.5029 224.993s49.5 126.333 87.5 175s84 86.334 138 113.001s115 40 183 40c63.333 0 117.666 -10.667 162.999 -32s84 -51.666 116 -90.999l11 103h253v-1047c0 -73.333 -12.5 -138.666 -37.5 -195.999s-60 -105.666 -105 -144.999
s-99 -69.166 -162 -89.499s-132.5 -30.5 -208.5 -30.5c-32.667 0 -67.667 3.33301 -105 10s-74.333 17 -111 31s-71.334 31.833 -104.001 53.5s-60.667 47.5 -84 77.5l125 169c35.333 -40 75.333 -70.5 120 -91.5s93 -31.5 145 -31.5c78 0 138.833 20.833 182.5 62.5
s65.5 100.834 65.5 177.501v62c-32.667 -36 -70.834 -64 -114.501 -84s-94.167 -30 -151.5 -30c-67.333 0 -127.833 13.833 -181.5 41.5s-99.5 65.834 -137.5 114.501s-67.167 106.5 -87.5 173.5s-30.5 139.833 -30.5 218.5v21zM392.003 527.993
c0 -45.333 4.49805 -87.499 13.498 -126.499s22.833 -73 41.5 -102s42.334 -51.833 71.001 -68.5s62.667 -25 102 -25c48.667 0 88.834 9.33301 120.501 28s56.834 44.667 75.501 78v458c-18.667 34 -43.834 60.167 -75.501 78.5s-71.167 27.5 -118.5 27.5
c-39.333 0 -73.333 -8.5 -102 -25.5s-52.5 -40.333 -71.5 -70s-33.167 -64.334 -42.5 -104.001s-14 -82.167 -14 -127.5v-21z" />
    <glyph glyph-name="h" unicode="h" 
d="M419 933c36 52.667 79.833 94 131.5 124s109.5 45 173.5 45c56.667 0 108.667 -8.5 156 -25.5s88 -43.5 122 -79.5s60.5 -82.167 79.5 -138.5s28.5 -124.166 28.5 -203.499v-655h-278v657c0 38.667 -4.83301 72 -14.5 100s-23.5 50.667 -41.5 68
s-39.667 30.166 -65 38.499s-54 12.5 -86 12.5c-46.667 0 -87.167 -8.33301 -121.5 -25s-62.5 -40 -84.5 -70v-781h-278v1536h278v-603z" />
    <glyph glyph-name="i" unicode="i" 
d="M215 1082h589v-856h293v-226h-882v226h308v629h-308v227zM503 1359c0 21.333 3.83301 41.168 11.5 59.501s18.5 34 32.5 47s30.833 23.167 50.5 30.5s41.5 11 65.5 11c49.333 0 88.5 -13.833 117.5 -41.5s43.5 -63.167 43.5 -106.5s-14.5 -78.833 -43.5 -106.5
s-68.167 -41.5 -117.5 -41.5c-24 0 -45.833 3.66699 -65.5 11s-36.5 17.5 -50.5 30.5s-24.833 28.667 -32.5 47s-11.5 38.166 -11.5 59.499z" />
    <glyph glyph-name="j" unicode="j" 
d="M307 1082l553.999 0.000976562v-1107c0 -72 -10.333 -133.833 -31 -185.5s-50.667 -94.334 -90 -128.001s-87.333 -58.5 -144 -74.5s-121.334 -24 -194.001 -24c-30 0 -60.333 1.16699 -91 3.5s-60 6.83301 -88 13.5l14 226c8 -2 19.167 -3.83301 33.5 -5.5s29 -3 44 -4
s29.333 -1.66699 43 -2s23.834 -0.5 30.501 -0.5c26.667 0 51.834 3 75.501 9s44 16 61 30s30.5 32.5 40.5 55.5s15 51.833 15 86.5v880h-273v227zM560.999 1359c0 21.333 3.83301 41.168 11.5 59.501s18.334 34 32.001 47s30.334 23.167 50.001 30.5s41.5 11 65.5 11
c49.333 0 88.5 -13.833 117.5 -41.5s43.5 -63.167 43.5 -106.5s-14.5 -78.833 -43.5 -106.5s-68.167 -41.5 -117.5 -41.5c-24 0 -45.833 3.66699 -65.5 11s-36.334 17.5 -50.001 30.5s-24.334 28.667 -32.001 47s-11.5 38.166 -11.5 59.499z" />
    <glyph glyph-name="k" unicode="k" 
d="M548 447l-126 -117v-330h-278v1536h278v-878l84 96l299 328h334l-408 -451l465 -631h-341z" />
    <glyph glyph-name="l" unicode="l" 
d="M199 1536h605v-1310h310v-226h-915v226h324v1083h-324v227z" />
    <glyph glyph-name="m" unicode="m" 
d="M314 1082l7.99707 -130.999c20.667 46.667 49.167 83.5 85.5 110.5s80.5 40.5 132.5 40.5c87.333 0 144.333 -38.333 171 -115c21.333 36 48.5 64.167 81.5 84.5s72.833 30.5 119.5 30.5c32.667 0 63.167 -6 91.5 -18s53 -31.167 74 -57.5s37.333 -60.333 49 -102
s17.5 -92.5 17.5 -152.5v-772h-253v773c0 20.667 -2.16699 37.667 -6.5 51s-10.166 23.833 -17.499 31.5s-15.833 13 -25.5 16s-19.5 4.5 -29.5 4.5c-19.333 0 -35.666 -4.5 -48.999 -13.5s-23.666 -21.167 -30.999 -36.5v-826h-245v774c0 20.667 -2 37.667 -6 51
s-9.5 23.666 -16.5 30.999s-15.167 12.5 -24.5 15.5s-19.333 4.5 -30 4.5c-21.333 0 -38.5 -6 -51.5 -18s-23.167 -28 -30.5 -48v-810h-253v1082h239z" />
    <glyph glyph-name="n" unicode="n" 
d="M393 1082l17 -150.001c38.667 54 85.667 95.833 141 125.5s116.666 44.5 183.999 44.5c54.667 0 104.667 -8 150 -24s84.5 -41.5 117.5 -76.5s58.667 -80 77 -135s27.5 -121.833 27.5 -200.5v-666h-278v662c0 42.667 -4.83301 77.834 -14.5 105.501
s-23.5 49.5 -41.5 65.5s-39.667 27.167 -65 33.5s-54 9.5 -86 9.5c-47.333 0 -87.666 -9.5 -120.999 -28.5s-60.333 -45.167 -81 -78.5v-769h-279v1082h252z" />
    <glyph glyph-name="o" unicode="o" 
d="M103 551c0 78.667 11.333 151.5 34 218.5s55.834 125.167 99.501 174.5s97 88 160 116s135.167 42 216.5 42s153.666 -14 216.999 -42s116.833 -66.667 160.5 -116s76.834 -107.5 99.501 -174.5s34 -139.833 34 -218.5v-21c0 -79.333 -11.333 -152.5 -34 -219.5
s-55.667 -125.167 -99 -174.5s-96.666 -87.833 -159.999 -115.5s-135.333 -41.5 -216 -41.5c-81.333 0 -153.833 13.833 -217.5 41.5s-117.334 66.167 -161.001 115.5s-76.834 107.5 -99.501 174.5s-34 140.167 -34 219.5v21zM381 530
c0 -45.333 4.33105 -87.833 12.998 -127.5s22.334 -74.334 41.001 -104.001s42.834 -53.167 72.501 -70.5s65.5 -26 107.5 -26c40.667 0 75.667 8.66699 105 26s53.166 40.833 71.499 70.5s31.833 64.334 40.5 104.001s13 82.167 13 127.5v21c0 44 -4.33301 85.667 -13 125
s-22.167 74 -40.5 104s-42.166 53.667 -71.499 71s-65 26 -107 26c-41.333 0 -76.666 -8.66699 -105.999 -26s-53.333 -41 -72 -71s-32.334 -64.667 -41.001 -104s-13 -81 -13 -125v-21z" />
    <glyph glyph-name="p" unicode="p" 
d="M1113 531c0 -78.667 -9.16602 -151.668 -27.499 -219.001s-45.333 -125.5 -81 -174.5s-79.834 -87.5 -132.501 -115.5s-113 -42 -181 -42c-58 0 -109 10 -153 30s-82.333 48 -115 84v-510h-278v1498h257l10 -106c33.333 40 72.666 71 117.999 93s98.333 33 159 33
c68.667 0 129.334 -13.167 182.001 -39.5s97 -63.666 133 -111.999s63.167 -106.333 81.5 -174s27.5 -142.5 27.5 -224.5v-21zM835.001 551.999c0 45.333 -4.16602 87.832 -12.499 127.499s-21.333 74 -39 103s-40.334 51.833 -68.001 68.5s-61.167 25 -100.5 25
c-48.667 0 -88.5 -9.5 -119.5 -28.5s-55.167 -45.833 -72.5 -80.5v-452c17.333 -34 41.5 -61.167 72.5 -81.5s71.5 -30.5 121.5 -30.5c39.333 0 72.833 8.66699 100.5 26s50.167 41 67.5 71s30 64.833 38 104.5s12 81.834 12 126.501v21z" />
    <glyph glyph-name="q" unicode="q" 
d="M113 550c0 82 9.33301 157 28 225s46.167 126.167 82.5 174.5s81 85.833 134 112.5s113.833 40 182.5 40c61.333 0 114.833 -11.333 160.5 -34s85.167 -54.667 118.5 -96l17 110h245v-1498h-279v508c-32.667 -36 -70.667 -63.667 -114 -83s-93.333 -29 -150 -29
c-68 0 -128.333 13.833 -181 41.5s-97 66 -133 115s-63.5 107 -82.5 174s-28.5 139.833 -28.5 218.5v21zM391 529c0 -44.667 4.00098 -86.666 12.001 -125.999s20.667 -73.833 38 -103.5s39.833 -53.167 67.5 -70.5s61.167 -26 100.5 -26c48.667 0 88.5 9.66699 119.5 29
s55.5 46 73.5 80v460c-18 33.333 -42.5 59.166 -73.5 77.499s-70.167 27.5 -117.5 27.5c-39.333 0 -72.833 -8.5 -100.5 -25.5s-50.334 -40.167 -68.001 -69.5s-30.667 -63.833 -39 -103.5s-12.5 -82.5 -12.5 -128.5v-21z" />
    <glyph glyph-name="r" unicode="r" 
d="M918 1102c42 0 80.833 -2.83203 116.5 -8.49902s64.5 -11.834 86.5 -18.501l-41 -277c-36.667 8.66699 -74.167 15.167 -112.5 19.5s-74.833 6.5 -109.5 6.5c-78 0 -140.5 -15 -187.5 -45s-82.167 -73 -105.5 -129v-650h-278v1082h259l13 -177
c44 61.333 96.667 109.5 158 144.5s128.333 52.5 201 52.5z" />
    <glyph glyph-name="s" unicode="s" 
d="M839 297c0 16.667 -3.83301 31.332 -11.5 43.999s-21.334 24.5 -41.001 35.5s-45.834 21.167 -78.501 30.5s-74 18.666 -124 27.999c-63.333 12.667 -121.166 28.5 -173.499 47.5s-97.166 42 -134.499 69s-66.5 58.167 -87.5 93.5s-31.5 76 -31.5 122
c0 44.667 10.667 87.334 32 128.001s52 76.334 92 107.001s88.667 55 146 73s122 27 194 27c75.333 0 143 -8.83301 203 -26.5s110.833 -42 152.5 -73s73.5 -67.833 95.5 -110.5s33 -89 33 -139h-278c0 42 -17 77.167 -51 105.5s-85.667 42.5 -155 42.5
c-64.667 0 -113.5 -11.667 -146.5 -35s-49.5 -52 -49.5 -86c0 -16 3.33301 -30.833 10 -44.5s18.5 -26 35.5 -37s40.167 -21 69.5 -30s66.666 -16.833 111.999 -23.5c65.333 -10.667 126 -24.334 182 -41.001s104.333 -38.167 145 -64.5s72.5 -58.333 95.5 -96
s34.5 -82.5 34.5 -134.5c0 -48 -11.5 -92.167 -34.5 -132.5s-55.667 -75.166 -98 -104.499s-93.5 -52.166 -153.5 -68.499s-127 -24.5 -201 -24.5c-81.333 0 -153.166 10.667 -215.499 32s-114.5 49.166 -156.5 83.499s-73.833 73.333 -95.5 117s-32.5 87.5 -32.5 131.5h265
c2 -29.333 10 -54.5 24 -75.5s32 -38 54 -51s47.167 -22.5 75.5 -28.5s57.5 -9 87.5 -9c68.667 0 121 11 157 33s54 50.333 54 85z" />
    <glyph glyph-name="t" unicode="t" 
d="M651 1347l-0.000976562 -265.001h404v-205h-404v-465c0 -39.333 4.5 -72.166 13.5 -98.499s21.833 -47.333 38.5 -63s36.834 -26.834 60.501 -33.501s50.167 -10 79.5 -10c21.333 0 43.166 1 65.499 3s43.666 4.5 63.999 7.5s39.333 6.16699 57 9.5
s32.834 6.66602 45.501 9.99902l27 -191c-19.333 -11.333 -42 -21.166 -68 -29.499s-53.667 -15.166 -83 -20.499s-59.833 -9.5 -91.5 -12.5s-62.834 -4.5 -93.501 -4.5c-59.333 0 -113.166 7.83301 -161.499 23.5s-89.666 40 -123.999 73s-60.833 75 -79.5 126
s-28 112.167 -28 183.5v492h-247v205h247v265h278z" />
    <glyph glyph-name="u" unicode="u" 
d="M831 152c-36.667 -54 -80.835 -96.333 -132.502 -127s-108.167 -46 -169.5 -46c-56 0 -107.333 8.66699 -154 26s-86.667 44.833 -120 82.5s-59.166 85.667 -77.499 144s-27.5 128.5 -27.5 210.5v640h278v-642c0 -44 3.16699 -81 9.5 -111s16.5 -54.167 30.5 -72.5
s32.333 -31.5 55 -39.5s50.334 -12 83.001 -12c55.333 0 100.333 10.5 135 31.5s61 49.833 79 86.5v759h279v-1082h-252z" />
    <glyph glyph-name="v" unicode="v" 
d="M601 321l14 -78l14 75l238 764h290l-411 -1082h-261l-413 1082h290z" />
    <glyph glyph-name="w" unicode="w" 
d="M833 339l94 743h255l-194 -1082h-244l-142 688l-137 -688h-244l-194 1082h254l94 -746l136 746h186z" />
    <glyph glyph-name="x" unicode="x" 
d="M636 744l238 338h299l-363 -531l376 -551h-300l-249 354l-247 -354h-301l376 551l-362 531h299z" />
    <glyph glyph-name="y" unicode="y" 
d="M602 454l31.998 -115.999l288 744h307l-549 -1244c-12 -27.333 -27.5 -57 -46.5 -89s-42.833 -61.667 -71.5 -89s-63.5 -50.333 -104.5 -69s-89.5 -28 -145.5 -28c-13.333 0 -25.666 0.5 -36.999 1.5s-22.333 2.33301 -33 4s-21.167 3.66699 -31.5 6
s-21.5 5.16602 -33.5 8.49902l34 212c11.333 0 25.833 -0.5 43.5 -1.5s31.834 -1.5 42.501 -1.5c22 0 41.5 6.66699 58.5 20s31.5 28 43.5 44s21.667 30.667 29 44s12.333 20 15 20l67 126l-458 1036h304z" />
    <glyph glyph-name="z" unicode="z" 
d="M498 223h637v-223h-1017v172l606 684h-592v226h978v-167z" />
    <glyph glyph-name="braceleft" unicode="{" 
d="M940 -360c-44 0 -84.0039 6.66211 -120.004 19.9951s-68.167 31.333 -96.5 54s-52.666 49.334 -72.999 80.001s-37.333 63.334 -51 98.001s-23.667 70.167 -30 106.5s-9.5 72.166 -9.5 107.499v163c0 88.667 -20.667 152.334 -62 191.001s-104.333 58 -189 58v200
c84.667 0 147.667 19.333 189 58s62 103 62 193v163c0 34.667 2.83301 70.334 8.5 107.001s14.834 72.334 27.501 107.001s28.834 67.167 48.501 97.5s43.667 56.833 72 79.5s61 40.667 98 54s78.833 20 125.5 20l34 -157c-40.667 1.33301 -72 -7.16699 -94 -25.5
s-38 -42.5 -48 -72.5s-15.833 -63.5 -17.5 -100.5s-2.5 -73.5 -2.5 -109.5v-163c0 -79.333 -19.5 -149.666 -58.5 -210.999s-99.5 -108 -181.5 -140c82.667 -32 143.334 -78.333 182.001 -139s58 -130.667 58 -210v-163c0 -36 2.16699 -72.5 6.5 -109.5
s12.5 -70.5 24.5 -100.5s28.5 -54.167 49.5 -72.5s48.167 -26.833 81.5 -25.5z" />
    <glyph glyph-name="bar" unicode="|" 
d="M707 -410h-174v1866h174v-1866z" />
    <glyph glyph-name="braceright" unicode="}" 
d="M332 -202c32.667 -1.33301 59.5 7.17188 80.5 25.5049s37.5 42.5 49.5 72.5s20.333 63.5 25 100.5s7 73.5 7 109.5v163c0 38.667 4.5 75.334 13.5 110.001s22.833 67 41.5 97s42.167 56.833 70.5 80.5s62.166 43.834 101.499 60.501c-78 33.333 -135.333 81 -172 143
s-55 131.667 -55 209v163c0 36 -0.833008 72.5 -2.5 109.5s-7.5 70.5 -17.5 100.5s-26 54.167 -48 72.5s-53.333 26.833 -94 25.5l34 157c46.667 0 88.5 -6.66699 125.5 -20s69.5 -31.333 97.5 -54s52 -49.167 72 -79.5s36.333 -62.833 49 -97.5
s21.834 -70.334 27.501 -107.001s8.5 -72.334 8.5 -107.001v-163c0 -90 20.5 -154.333 61.5 -193s104.167 -58 189.5 -58v-200c-85.333 0 -148.5 -19.333 -189.5 -58s-61.5 -102.334 -61.5 -191.001v-163c0 -34.667 -3.33301 -70.334 -10 -107.001
s-16.667 -72.334 -30 -107.001s-30.333 -67.334 -51 -98.001s-45 -57.334 -73 -80.001s-60 -40.667 -96 -54s-76 -20 -120 -20z" />
    <glyph glyph-name="asciitilde" unicode="~" 
d="M1144 752c0 -54 -7.5 -104.001 -22.5 -150.001s-36 -85.5 -63 -118.5s-59.5 -58.833 -97.5 -77.5s-79.667 -28 -125 -28c-29.333 0 -56.833 2.66699 -82.5 8s-50.834 13.5 -75.501 24.5s-49 24.833 -73 41.5s-48.667 36.667 -74 60c-32.667 26.667 -64 47.334 -94 62.001
s-60.667 22 -92 22c-18 0 -35.333 -4.5 -52 -13.5s-31.5 -21 -44.5 -36s-23.333 -32.167 -31 -51.5s-11.5 -39.333 -11.5 -60l-180 22c0 54 7.33301 103.5 22 148.5s35.5 83.667 62.5 116s59.333 57.5 97 75.5s79.167 27 124.5 27c58 0 111.5 -11.333 160.5 -34
s98.167 -55.667 147.5 -99c32.667 -28 63.834 -49 93.501 -63s59.5 -21 89.5 -21c18 0 35 4.66699 51 14s30 21.666 42 36.999s21.667 32.833 29 52.5s11 39.834 11 60.501z" />
    <glyph glyph-name="nonbreakingspace" unicode="&#xa0;" 
 />
    <glyph glyph-name="exclamdown" unicode="&#xa1;" 
d="M514 565h253l16 -945h-286zM807 947c0 -21.333 -3.83301 -41.333 -11.5 -60s-18.667 -34.667 -33 -48s-31.5 -23.833 -51.5 -31.5s-42.333 -11.5 -67 -11.5c-25.333 0 -48 3.83301 -68 11.5s-37 18.167 -51 31.5s-24.667 29.333 -32 48s-11 38.667 -11 60
c0 22 3.66699 42.5 11 61.5s18 35.5 32 49.5s31 25 51 33s42.667 12 68 12c24.667 0 47 -4 67 -12s37.167 -19 51.5 -33s25.333 -30.5 33 -49.5s11.5 -39.5 11.5 -61.5z" />
    <glyph glyph-name="cent" unicode="&#xa2;" 
d="M645 202c27.333 0 53.333 4.00293 78 12.0029s46.334 19.333 65.001 34s33.167 32.334 43.5 53.001s14.833 43.667 13.5 69h262c1.33301 -49.333 -7.33398 -95.333 -26.001 -138s-44.5 -80.834 -77.5 -114.501s-72 -61.667 -117 -84s-93.167 -37.833 -144.5 -46.5v-232
h-200v233c-66 12 -124 34 -174 66s-91.667 71.667 -125 119s-58.5 101 -75.5 161s-25.5 123.667 -25.5 191v30c0 67.333 8.5 131 25.5 191s42.167 113.667 75.5 161s75 87.166 125 119.499s108 54.5 174 66.5v225h200v-223c54 -8.66699 103.667 -24.5 149 -47.5
s84.166 -52.333 116.499 -88s57.333 -76.834 75 -123.501s25.834 -98 24.501 -154h-262c1.33301 26.667 -2.66699 52 -12 76s-23 44.667 -41 62s-39.667 31.166 -65 41.499s-53 15.5 -83 15.5c-44 0 -80.333 -9 -109 -27s-51.5 -42 -68.5 -72s-29 -64.333 -36 -103
s-10.5 -78.667 -10.5 -120v-30c0 -42 3.33301 -82.5 10 -121.5s18.5 -73.333 35.5 -103s40 -53.5 69 -71.5s65.833 -27 110.5 -27z" />
    <glyph glyph-name="sterling" unicode="&#xa3;" 
d="M560 585l6 -154.002c0 -41.333 -4.83301 -79 -14.5 -113s-25.834 -64.667 -48.501 -92h670v-226h-1055v226h89c16 4 28.833 12.5 38.5 25.5s17.334 28.5 23.001 46.5s9.33398 37.5 11.001 58.5s2.5 41.5 2.5 61.5l-5 167h-162v221h155l-7 234
c0 68.667 11 130.167 33 184.5s53 100 93 137s87.833 65.333 143.5 85s116.834 29.5 183.501 29.5c71.333 0 134.666 -9.83301 189.999 -29.5s101.833 -47.5 139.5 -83.5s66.334 -79.333 86.001 -130s29.5 -107 29.5 -169h-269c0 34 -4.83301 62.833 -14.5 86.5
s-22.834 42.834 -39.501 57.501s-35.834 25.167 -57.501 31.5s-44.5 9.5 -68.5 9.5s-46.333 -4.5 -67 -13.5s-38.5 -22.167 -53.5 -39.5s-26.833 -39.166 -35.5 -65.499s-13 -56.5 -13 -90.5l9 -234h310v-221h-302z" />
    <glyph glyph-name="currency" unicode="&#xa4;" 
d="M904 78c-40.667 -32 -85.665 -56.332 -134.998 -72.999s-101 -25 -155 -25s-105.5 8.33301 -154.5 25s-94.167 40.334 -135.5 71.001l-100 -102l-141 144l108 110c-23.333 40 -41.333 83.667 -54 131s-19 97 -19 149c0 55.333 7.16699 107.666 21.5 156.999
s34.166 94.666 59.499 135.999l-116 119l141 144l114 -117c40 28 83.167 49.5 129.5 64.5s95.166 22.5 146.499 22.5s100.333 -7.66699 147 -23s90 -37 130 -65l116 119l142 -145l-120 -123c25.333 -41.333 44.833 -86.333 58.5 -135s20.5 -100 20.5 -154
c0 -52 -6.16699 -101.167 -18.5 -147.5s-29.833 -89.5 -52.5 -129.5l112 -113l-142 -145zM304.002 508.001c0 -48 8 -92.667 24 -134s38 -77.166 66 -107.499s60.833 -54.333 98.5 -72s78.167 -26.5 121.5 -26.5c42.667 0 82.834 8.83301 120.501 26.5s70.5 41.667 98.5 72
s50 66.166 66 107.499s24 86 24 134s-8 92.5 -24 133.5s-38 76.5 -66 106.5s-60.833 53.667 -98.5 71s-77.834 26 -120.501 26c-43.333 0 -83.833 -8.66699 -121.5 -26s-70.5 -41 -98.5 -71s-50 -65.5 -66 -106.5s-24 -85.5 -24 -133.5z" />
    <glyph glyph-name="yen" unicode="&#xa5;" 
d="M623 837l292 619h309l-383 -714h250v-166h-331v-124h331v-165h-331v-287h-281v287h-343v165h343v124h-343v166h269l-384 714h310z" />
    <glyph glyph-name="brokenbar" unicode="&#xa6;" 
d="M488 -270v795h253v-795h-253zM741 698h-253v758h253v-758z" />
    <glyph glyph-name="section" unicode="&#xa7;" 
d="M1169 475c0 -62.667 -13.999 -116.501 -41.999 -161.501s-68 -81.833 -120 -110.5c44 -33.333 77.333 -72.833 100 -118.5s34 -101.834 34 -168.501c0 -60 -12.167 -113.167 -36.5 -159.5s-58.833 -85.333 -103.5 -117s-98.5 -55.667 -161.5 -72
s-133.5 -24.5 -211.5 -24.5c-67.333 0 -133.5 6.83301 -198.5 20.5s-123 36.667 -174 69s-92 75.333 -123 129s-46.5 120.5 -46.5 200.5l278 1c0 -39.333 7.66699 -71.5 23 -96.5s35.5 -44.833 60.5 -59.5s53.333 -24.834 85 -30.501s63.5 -8.5 95.5 -8.5
c76.667 0 135.167 13.333 175.5 40s60.5 62.334 60.5 107.001c0 22 -4.66699 41.667 -14 59s-25.5 33.5 -48.5 48.5s-53.667 29.667 -92 44s-86.5 29.833 -144.5 46.5c-74.667 20 -141.334 41.833 -200.001 65.5s-108.5 51.834 -149.5 84.501s-72.333 71 -94 115
s-32.5 96.333 -32.5 157c0 61.333 14.167 114.833 42.5 160.5s68.5 83.167 120.5 112.5c-44 34 -77.5 73.833 -100.5 119.5s-34.5 101.834 -34.5 168.501c0 57.333 12.167 109.5 36.5 156.5s59 87 104 120s99.333 58.5 163 76.5s134.5 27 212.5 27
c80 0 152 -9.33301 216 -28s118.167 -46.167 162.5 -82.5s78.5 -81.166 102.5 -134.499s36 -114.333 36 -183h-279c0 28.667 -5 55.334 -15 80.001s-25 46.167 -45 64.5s-44.833 32.833 -74.5 43.5s-64.167 16 -103.5 16c-41.333 0 -77 -4.16699 -107 -12.5
s-54.667 -19.5 -74 -33.5s-33.5 -30.333 -42.5 -49s-13.5 -38.334 -13.5 -59.001c0 -25.333 4.16699 -47 12.5 -65s23.5 -34.5 45.5 -49.5s52.167 -29.167 90.5 -42.5s87.5 -28 147.5 -44c76 -20 143.667 -41.833 203 -65.5s109.333 -51.834 150 -84.501s71.5 -71 92.5 -115
s31.5 -96.333 31.5 -157zM594.001 662.999c-52 14 -100.001 29.002 -144.001 45.002c-29.333 -14 -50.666 -33.833 -63.999 -59.5s-20 -54.834 -20 -87.501c0 -26.667 4.16699 -49.5 12.5 -68.5s23.5 -36.5 45.5 -52.5s52.167 -31.167 90.5 -45.5s87.5 -30.5 147.5 -48.5
l75 -21.5c24 -7 47.333 -14.5 70 -22.5c28.667 15.333 50.667 35.666 66 60.999s23 54 23 86c0 24 -4.83301 45.333 -14.5 64s-26.167 36.334 -49.5 53.001s-54.333 32.667 -93 48s-87 31.666 -145 48.999z" />
    <glyph glyph-name="dieresis" unicode="&#xa8;" 
d="M265 1365c0 17.333 3.33301 33.666 10 48.999s16 28.666 28 39.999s26.333 20.166 43 26.499s35 9.5 55 9.5s38.333 -3.16699 55 -9.5s31 -15.166 43 -26.499s21.333 -24.666 28 -39.999s10 -31.666 10 -48.999s-3.33301 -33.666 -10 -48.999s-16 -28.5 -28 -39.5
s-26.333 -19.667 -43 -26s-35 -9.5 -55 -9.5s-38.333 3.16699 -55 9.5s-31 15 -43 26s-21.333 24.167 -28 39.5s-10 31.666 -10 48.999zM745 1365c0 17.333 3.33301 33.666 10 48.999s16 28.5 28 39.5s26.333 19.667 43 26s35 9.5 55 9.5s38.333 -3.16699 55 -9.5
s31 -15 43 -26s21.333 -24.167 28 -39.5s10 -31.666 10 -48.999c0 -18 -3.33301 -34.667 -10 -50s-16 -28.666 -28 -39.999s-26.333 -20.166 -43 -26.499s-35 -9.5 -55 -9.5s-38.333 3.16699 -55 9.5s-31 15.166 -43 26.499s-21.333 24.666 -28 39.999s-10 32 -10 50z" />
    <glyph glyph-name="copyright" unicode="&#xa9;" 
d="M862 442c0 -79.333 -22.499 -138.333 -67.499 -177s-106.167 -58 -183.5 -58c-40 0 -76.167 7 -108.5 21s-59.833 33.667 -82.5 59s-40 55.666 -52 90.999s-18 74.666 -18 117.999v90c0 42.667 6 81.834 18 117.501s29.333 66.334 52 92.001s50.167 45.667 82.5 60
s68.5 21.5 108.5 21.5c78 0 139.5 -19.833 184.5 -59.5s67.5 -98.834 67.5 -177.501h-117c0 48 -11.333 82.5 -34 103.5s-56.334 31.5 -101.001 31.5c-24 0 -45 -4.66699 -63 -14s-33.167 -22.333 -45.5 -39s-21.5 -36.5 -27.5 -59.5s-9 -48.167 -9 -75.5v-91
c0 -28 3 -53.5 9 -76.5s15.167 -42.667 27.5 -59s27.5 -29.166 45.5 -38.499s39 -14 63 -14c44.667 0 78.167 10 100.5 30s33.5 54.667 33.5 104h117zM180.001 542c0 -66 11.5 -127.667 34.5 -185s54.5 -107.166 94.5 -149.499s86.833 -75.5 140.5 -99.5
s111.167 -36 172.5 -36c60.667 0 117.667 12 171 36s100 57.167 140 99.5s71.5 92.166 94.5 149.499s34.5 119 34.5 185s-11.5 127.333 -34.5 184s-54.5 106 -94.5 148s-86.667 74.833 -140 98.5s-110.333 35.5 -171 35.5c-61.333 0 -118.833 -11.833 -172.5 -35.5
s-100.5 -56.5 -140.5 -98.5s-71.5 -91.333 -94.5 -148s-34.5 -118 -34.5 -184zM89.001 542c0 78.667 14 152.167 42 220.5s66.167 127.666 114.5 177.999s104.833 89.833 169.5 118.5s133.667 43 207 43s142.333 -14.333 207 -43s121 -68.167 169 -118.5
s86 -109.666 114 -177.999s42 -141.833 42 -220.5c0 -79.333 -14 -153.166 -42 -221.499s-66 -127.833 -114 -178.5s-104.333 -90.334 -169 -119.001s-133.667 -43 -207 -43s-142.333 14.333 -207 43s-121.167 68.334 -169.5 119.001s-86.5 110.167 -114.5 178.5
s-42 142.166 -42 221.499z" />
    <glyph glyph-name="ordfeminine" unicode="&#xaa;" 
d="M765 705c-10 28.667 -17.0029 59.998 -21.0029 93.998c-9.33301 -14 -20.833 -27.5 -34.5 -40.5s-29.667 -24.5 -48 -34.5s-39.166 -18 -62.499 -24s-49 -9 -77 -9c-40 0 -75.5 5.33301 -106.5 16s-57 26 -78 46s-37 44 -48 72s-16.5 59.333 -16.5 94
c0 74 27.833 131 83.5 171s138.167 60 247.5 60h137v51c0 41.333 -9.5 72.833 -28.5 94.5s-48.167 32.5 -87.5 32.5c-43.333 0 -77.166 -8.5 -101.499 -25.5s-36.5 -41.5 -36.5 -73.5l-173 14c0 34 7.33301 65.167 22 93.5s35.667 52.833 63 73.5s60 36.834 98 48.501
s80.667 17.5 128 17.5c43.333 0 82.833 -5.83301 118.5 -17.5s66.334 -29 92.001 -52s45.5 -51.667 59.5 -86s21 -74.5 21 -120.5v-314c0 -32.667 2 -63.667 6 -93s10.667 -58.666 20 -87.999h-177zM564.997 834.998c17.333 0 35.334 2.83398 54.001 8.50098
s36.167 13 52.5 22s30.666 19.167 42.999 30.5s21.166 22.666 26.499 33.999v103h-136c-26 0 -48.667 -3 -68 -9s-35.666 -14 -48.999 -24s-23.333 -21.667 -30 -35s-10 -27.333 -10 -42c0 -28 9.5 -49.667 28.5 -65s48.5 -23 88.5 -23z" />
    <glyph glyph-name="guillemotleft" unicode="&#xab;" 
d="M408 492l242 -399h-181l-282 390v19l282 390h181zM787 492l242 -399h-181l-282 390v19l282 390h181z" />
    <glyph glyph-name="logicalnot" unicode="&#xac;" 
d="M1020 374h-200v260h-635v171h835v-431z" />
    <glyph glyph-name="uni00AD" unicode="&#xad;" 
d="M1115 530h-833v225h833v-225z" />
    <glyph glyph-name="registered" unicode="&#xae;" 
d="M88 541c0 79.333 14 153.166 42 221.499s66 127.666 114 177.999s104.333 89.833 169 118.5s133.667 43 207 43s142.333 -14.333 207 -43s121 -68.167 169 -118.5s86 -109.666 114 -177.999s42 -142.166 42 -221.499s-14 -153.166 -42 -221.499s-66 -127.833 -114 -178.5
s-104.333 -90.334 -169 -119.001s-133.667 -43 -207 -43s-142.333 14.333 -207 43s-121 68.334 -169 119.001s-86 110.167 -114 178.5s-42 142.166 -42 221.499zM179 541c0 -66 11.5 -127.5 34.5 -184.5s54.5 -106.5 94.5 -148.5s86.833 -75 140.5 -99
s110.834 -36 171.501 -36s117.834 12 171.501 36s100.5 57 140.5 99s71.5 91.5 94.5 148.5s34.5 118.5 34.5 184.5s-11.5 127.5 -34.5 184.5s-54.5 106.5 -94.5 148.5s-86.833 74.833 -140.5 98.5s-110.834 35.5 -171.501 35.5s-117.834 -11.833 -171.501 -35.5
s-100.5 -56.5 -140.5 -98.5s-71.5 -91.5 -94.5 -148.5s-34.5 -118.5 -34.5 -184.5zM512 484v-252h-113v637h211c74 0 133.167 -16 177.5 -48s66.5 -80.333 66.5 -145c0 -37.333 -11.667 -69 -35 -95s-57 -46.667 -101 -62l146 -287h-116l-117 252h-119zM512 585h114
c14.667 0 29 2 43 6s26.333 9.66699 37 17s19.167 16.333 25.5 27s9.5 23 9.5 37c0 36.667 -9.66699 62 -29 76s-53.333 21 -102 21h-98v-184z" />
    <glyph glyph-name="macron" unicode="&#xaf;" 
d="M1003 1292h-730v164h730v-164z" />
    <glyph glyph-name="macron" unicode="&#x2c9;" 
d="M1003 1292h-730v164h730v-164z" />
    <glyph glyph-name="degree" unicode="&#xb0;" 
d="M357 1202c0 37.333 7.16699 72.5 21.5 105.5s33.833 62 58.5 87s53.334 44.833 86.001 59.5s67.667 22 105 22c36 0 70.167 -7.33301 102.5 -22s60.5 -34.5 84.5 -59.5s43 -54 57 -87s21 -68.167 21 -105.5c0 -38 -7 -73.333 -21 -106s-33 -61.334 -57 -86.001
s-52.167 -44 -84.5 -58s-66.5 -21 -102.5 -21c-37.333 0 -72.333 7 -105 21s-61.334 33.333 -86.001 58s-44.167 53.334 -58.5 86.001s-21.5 68 -21.5 106zM502 1202c0 -18 3.33301 -34.5 10 -49.5s15.834 -28 27.501 -39s25 -19.667 40 -26s31.167 -9.5 48.5 -9.5
c16.667 0 32.5 3 47.5 9s27.833 14.5 38.5 25.5s19.167 24.167 25.5 39.5s9.5 32 9.5 50s-3.16699 34.833 -9.5 50.5s-14.833 29.334 -25.5 41.001s-23.5 20.667 -38.5 27s-30.833 9.5 -47.5 9.5c-17.333 0 -33.5 -3.16699 -48.5 -9.5s-28.333 -15.333 -40 -27
s-20.834 -25.334 -27.501 -41.001s-10 -32.5 -10 -50.5z" />
    <glyph glyph-name="plusminus" unicode="&#xb1;" 
d="M732 933h331v-232h-331v-370h-245v370h-340v232h340v351h245v-351zM1031 0h-860v227h860v-227z" />
    <glyph glyph-name="twosuperior" unicode="&#xb2;" 
d="M934 667l-617.999 0.000976562v134l287 259c38 33.333 65.167 64.166 81.5 92.499s24.5 50.5 24.5 66.5c0 26 -8.16699 47 -24.5 63s-40.5 24 -72.5 24c-38 0 -66.333 -11.167 -85 -33.5s-28 -48.5 -28 -78.5h-201c0 37.333 7 72.5 21 105.5s34.333 62 61 87
s58.667 44.667 96 59s79.666 21.5 126.999 21.5c98 0 173.833 -21.5 227.5 -64.5s80.5 -103.833 80.5 -182.5c0 -29.333 -4.5 -56 -13.5 -80s-22.5 -47.667 -40.5 -71s-40.333 -47 -67 -71s-58 -50.333 -94 -79l-117 -93h355v-159z" />
    <glyph glyph-name="threesuperior" unicode="&#xb3;" 
d="M515 1135l88.0049 0.000976562c40 0 69.333 8.16699 88 24.5s28 38.166 28 65.499c0 10 -2 19.667 -6 29s-10.167 17.833 -18.5 25.5s-19.333 13.834 -33 18.501s-30.5 7 -50.5 7c-29.333 0 -54 -5.66699 -74 -17s-30 -27 -30 -47h-201c0 36.667 8.16699 69 24.5 97
s38.166 51.5 65.499 70.5s59 33.333 95 43s74 14.5 114 14.5c46.667 0 89.334 -4.83301 128.001 -14.5s71.667 -24 99 -43s48.666 -42.667 63.999 -71s23 -60.833 23 -97.5c0 -40.667 -12 -75.334 -36 -104.001s-57 -50.667 -99 -66
c47.333 -12.667 84.166 -33.5 110.499 -62.5s39.5 -69.167 39.5 -120.5c0 -37.333 -8.33301 -70.333 -25 -99s-39.834 -52.834 -69.501 -72.501s-64.5 -34.667 -104.5 -45s-83.333 -15.5 -130 -15.5c-37.333 0 -74.5 4.33301 -111.5 13s-70.333 22.834 -100 42.501
s-53.834 45 -72.501 76s-28 68.833 -28 113.5h202c0 -22.667 10.833 -42.5 32.5 -59.5s51.5 -25.5 89.5 -25.5c40.667 0 70 9 88 27s27 39 27 63c0 35.333 -11.333 60 -34 74s-54.334 21 -95.001 21h-88v135z" />
    <glyph glyph-name="acute" unicode="&#xb4;" 
d="M569 1478h306l-277 -279h-216z" />
    <glyph glyph-name="mu" unicode="&#xb5;" 
d="M450 1082l0.000976562 -620.001c0 -53.333 4.5 -96.666 13.5 -129.999s21.667 -59.5 38 -78.5s35.833 -31.833 58.5 -38.5s47.667 -10 75 -10c54 0 97.833 9.5 131.5 28.5s59.5 45.5 77.5 79.5v769h279v-1082h-259l-6 72c-28.667 -30 -61.834 -53 -99.501 -69
s-80.5 -24 -128.5 -24c-71.333 0 -131.333 16 -180 48v-443h-278v1498h278z" />
    <glyph glyph-name="paragraph" unicode="&#xb6;" 
d="M791 0v520h-83c-79.333 0 -149.666 11.667 -210.999 35s-112.833 55.833 -154.5 97.5s-73.167 91.167 -94.5 148.5s-32 119.666 -32 186.999c0 66.667 10.667 128.667 32 186s52.833 106.833 94.5 148.5s93.167 74.334 154.5 98.001s131.666 35.5 210.999 35.5h299v-1456
h-216z" />
    <glyph glyph-name="periodcentered" unicode="&#xb7;" 
d="M494 701c0 21.333 3.66699 41.166 11 59.499s17.833 34.166 31.5 47.499s30.334 23.833 50.001 31.5s41.5 11.5 65.5 11.5s45.833 -3.83301 65.5 -11.5s36.334 -18.167 50.001 -31.5s24.167 -29.166 31.5 -47.499s11 -38.166 11 -59.499s-3.66699 -41 -11 -59
s-17.833 -33.667 -31.5 -47s-30.334 -23.833 -50.001 -31.5s-41.5 -11.5 -65.5 -11.5s-45.833 3.83301 -65.5 11.5s-36.334 18.167 -50.001 31.5s-24.167 29 -31.5 47s-11 37.667 -11 59z" />
    <glyph glyph-name="cedilla" unicode="&#xb8;" 
d="M676 5l-10.999 -56c18.667 -3.33301 37 -8.83301 55 -16.5s34 -18.334 48 -32.001s25.333 -30.667 34 -51s13 -44.833 13 -73.5c0 -35.333 -7.33301 -67.333 -22 -96s-36.5 -53.167 -65.5 -73.5s-64.833 -36.166 -107.5 -47.499s-92.334 -17 -149.001 -17l-7 160
c34 0 62.333 6.33301 85 19s34 34 34 64c0 28 -11.5 47.333 -34.5 58s-59.833 17.667 -110.5 21l31 141h207z" />
    <glyph glyph-name="onesuperior" unicode="&#xb9;" 
d="M784 659h-199v553l-191 -43v156l371 120h19v-786z" />
    <glyph glyph-name="ordmasculine" unicode="&#xba;" 
d="M266 1141c0 48.667 8.00098 93.5 24.001 134.5s39 76.333 69 106s66.333 52.834 109 69.501s90.667 25 144 25c54 0 102.333 -8.33301 145 -25s79 -39.834 109 -69.501s53 -65 69 -106s24 -85.833 24 -134.5v-117c0 -48.667 -8 -93.5 -24 -134.5
s-38.833 -76.167 -68.5 -105.5s-65.834 -52.333 -108.501 -69s-90.667 -25 -144 -25s-101.5 8.33301 -144.5 25s-79.5 39.667 -109.5 69s-53.167 64.5 -69.5 105.5s-24.5 85.833 -24.5 134.5v117zM441.001 1024c0 -27.333 3.5 -52.333 10.5 -75s17.667 -42.5 32 -59.5
s32.333 -30.167 54 -39.5s47.167 -14 76.5 -14c28.667 0 53.667 4.66699 75 14s39 22.5 53 39.5s24.5 36.833 31.5 59.5s10.5 47.667 10.5 75v117c0 26.667 -3.5 51.334 -10.5 74.001s-17.667 42.334 -32 59.001s-32.333 29.834 -54 39.501s-46.834 14.5 -75.501 14.5
s-53.667 -4.83301 -75 -14.5s-39.166 -22.834 -53.499 -39.501s-25 -36.334 -32 -59.001s-10.5 -47.334 -10.5 -74.001v-117z" />
    <glyph glyph-name="guillemotright" unicode="&#xbb;" 
d="M408 926l283 -390v-19l-283 -390h-181l241 399l-241 400h181zM785 926l283 -390v-19l-283 -390h-181l241 399l-241 400h181z" />
    <glyph glyph-name="onequarter" unicode="&#xbc;" 
d="M416.418 751h-179.104v497.714l-171.905 -38.7012v140.403l333.909 108.003h17.1006v-707.419zM425 235l-131 67l511 938l131 -67zM1087.92 290.708h81.9023v-146.704h-81.9023v-144.004h-181.805v144.004h-311.409l-9.90039 117.903l321.31 446.412v1.7998h181.805
v-419.411zM757.611 290.708h148.505v193.505l-10.8008 -17.1006z" />
    <glyph glyph-name="onehalf" unicode="&#xbd;" 
d="M356 235l-131 67l511 938l131 -67zM375.418 752h-179.104v497.714l-171.905 -38.7012v140.403l333.909 108.003h17.1006v-707.419zM1206.72 0h-556.214v120.604l258.307 233.106c34.2012 30.001 58.6523 57.752 73.3525 83.2529s22.0498 45.4512 22.0498 59.8516
c0 23.4004 -7.34961 42.3008 -22.0498 56.7012s-36.4512 21.6006 -65.252 21.6006c-34.2012 0 -59.7021 -10.0498 -76.502 -30.1504c-16.8008 -20.1006 -25.2012 -43.6514 -25.2012 -70.6523h-180.904c0 33.6006 6.2998 65.252 18.9004 94.9531
c12.6006 29.7002 30.9014 55.8008 54.9023 78.3018s52.8018 40.2012 86.4023 53.1016s71.7012 19.3506 114.302 19.3506c88.2021 0 156.454 -19.3506 204.756 -58.0518s72.4521 -93.4521 72.4521 -164.254c0 -26.4014 -4.0498 -50.4023 -12.1504 -72.0029
s-20.251 -42.9014 -36.4512 -63.9023s-36.3008 -42.3018 -60.3018 -63.9023s-52.2021 -45.3008 -84.6035 -71.1006l-105.303 -83.7031h319.509v-143.104z" />
    <glyph glyph-name="threequarters" unicode="&#xbe;" 
d="M509 235l-131 67l511 938l131 -67zM1135.92 290.708h81.9023v-146.704h-81.9023v-144.004h-181.805v144.004h-311.409l-9.90039 117.903l321.31 446.412v1.7998h181.805v-419.411zM805.611 290.708h148.505v193.505l-10.8008 -17.1006zM233.013 1166.11
l79.2021 0.00195312c36.001 0 62.4014 7.35059 79.2012 22.0508s25.2002 34.3506 25.2002 58.9512c0 9.00098 -1.7998 17.7012 -5.39941 26.1016c-3.60059 8.39941 -9.15039 16.0498 -16.6504 22.9502c-7.50098 6.90039 -17.4014 12.4502 -29.7012 16.6504
s-27.4502 6.2998 -45.4512 6.2998c-26.4004 0 -48.6006 -5.09961 -66.6016 -15.2998s-27.001 -24.3008 -27.001 -42.3018h-180.905c0 33.001 7.35059 62.1016 22.0508 87.3018s34.3506 46.3506 58.9512 63.4512s53.1016 30.001 85.5029 38.7012
s66.6025 13.0508 102.604 13.0508c42.001 0 80.4023 -4.35059 115.203 -13.0508c34.8018 -8.7002 64.5029 -21.6006 89.1035 -38.7012s43.8008 -38.4014 57.6006 -63.9023c13.8008 -25.501 20.7012 -54.752 20.7012 -87.7529
c0 -36.6006 -10.8008 -67.8018 -32.4014 -93.6025s-51.3018 -45.6016 -89.1025 -59.4023c42.6016 -11.3994 75.7529 -30.1494 99.4531 -56.25s35.5508 -62.252 35.5508 -108.453c0 -33.6006 -7.5 -63.3018 -22.501 -89.1025
c-15 -25.8008 -35.8506 -47.5518 -62.5518 -65.252c-26.7002 -17.7002 -58.0508 -31.2002 -94.0518 -40.5s-75.002 -13.9502 -117.003 -13.9502c-33.6006 0 -67.0518 3.90039 -100.353 11.7002s-63.3018 20.5498 -90.002 38.25
c-26.7012 17.7002 -48.4521 40.501 -65.252 68.4023c-16.8008 27.9004 -25.2012 61.9512 -25.2012 102.152h181.805c0 -20.4004 9.75 -38.251 29.251 -53.5508c19.501 -15.3008 46.3516 -22.9512 80.5527 -22.9512c36.6006 0 63.001 8.10059 79.2012 24.3008
s24.3008 35.1006 24.3008 56.7012c0 31.8008 -10.2002 54.002 -30.6016 66.6025c-20.4004 12.6006 -48.9014 18.9004 -85.502 18.9004h-79.2021v121.503z" />
    <glyph glyph-name="questiondown" unicode="&#xbf;" 
d="M791 639c0 -45.333 -0.833984 -84.1621 -2.50098 -116.495s-6.5 -61 -14.5 -86s-20.5 -48.167 -37.5 -69.5s-41.5 -44 -73.5 -68l-64.5 -68.5c-21.667 -23.667 -41.167 -48 -58.5 -73s-31.5 -50.667 -42.5 -77s-16.5 -53.5 -16.5 -81.5c0 -55.333 14.333 -96.5 43 -123.5
s68 -40.5 118 -40.5c23.333 0 45.5 3.16699 66.5 9.5s39.5 16.166 55.5 29.499s28.833 30.666 38.5 51.999s14.834 47 15.501 77h279c-1.33301 -67.333 -13.666 -125.833 -36.999 -175.5s-55 -90.834 -95 -123.501s-87.333 -57 -142 -73s-113.334 -24 -176.001 -24
c-70 0 -132.5 8.5 -187.5 25.5s-101.5 42 -139.5 75s-67.167 73.833 -87.5 122.5s-30.5 104.667 -30.5 168c0 46.667 7.66699 89.667 23 129s35.5 76.166 60.5 110.499s53.167 66.833 84.5 97.5l94 90c20.667 19.333 36.167 36.333 46.5 51s17.833 29.667 22.5 45
s7.16699 32.166 7.5 50.499s0.833008 40.833 1.5 67.5h249zM537.999 942.004c0 18.667 2.16699 36.167 6.5 52.5s11.5 30.5 21.5 42.5s23.5 21.5 40.5 28.5s38.167 10.5 63.5 10.5s46.666 -3.5 63.999 -10.5s31.166 -16.5 41.499 -28.5s17.833 -26.167 22.5 -42.5
s7 -33.833 7 -52.5c0 -17.333 -2.33301 -33.5 -7 -48.5s-12.167 -28.167 -22.5 -39.5s-24.166 -20.333 -41.499 -27s-38.666 -10 -63.999 -10s-46.5 3.33301 -63.5 10s-30.5 15.667 -40.5 27s-17.167 24.5 -21.5 39.5s-6.5 31.167 -6.5 48.5z" />
    <glyph glyph-name="Agrave" unicode="&#xc0;" 
d="M847 304h-437l-86 -304h-296l477 1456h255l468 -1456h-296zM479 543h302l-149 536zM746 1547h-219l-264 279h306z" />
    <glyph glyph-name="Aacute" unicode="&#xc1;" 
d="M847 304h-437l-86 -304h-296l477 1456h255l468 -1456h-296zM479 543h302l-149 536zM703 1823h306l-277 -279h-216z" />
    <glyph glyph-name="Acircumflex" unicode="&#xc2;" 
d="M847 304h-437l-86 -304h-296l477 1456h255l468 -1456h-296zM479 543h302l-149 536zM1008 1622v-28h-221l-154 127l-153 -127h-217v30l290 241h161z" />
    <glyph glyph-name="Atilde" unicode="&#xc3;" 
d="M847 304h-437l-86 -304h-296l477 1456h255l468 -1456h-296zM479 543h302l-149 536zM997 1861c0 -30 -5.16602 -59.665 -15.499 -88.998s-25 -55.5 -44 -78.5s-41.667 -41.5 -68 -55.5s-55.833 -21 -88.5 -21c-32 0 -59.833 4.5 -83.5 13.5s-46 19 -67 30
s-41.833 21 -62.5 30s-44 13.5 -70 13.5c-24 0 -44.833 -8.66699 -62.5 -26s-26.5 -41.333 -26.5 -72l-140 30c0 29.333 5.16699 58.666 15.5 87.999s24.833 55.666 43.5 78.999s41.167 42.333 67.5 57s55.833 22 88.5 22c26.667 0 51.667 -4.5 75 -13.5
s46.166 -19 68.499 -30s44.833 -21 67.5 -30s46.667 -13.5 72 -13.5c24 0 45 8.5 63 25.5s27 40.833 27 71.5z" />
    <glyph glyph-name="Adieresis" unicode="&#xc4;" 
d="M847 304h-437l-86 -304h-296l477 1456h255l468 -1456h-296zM479 543h302l-149 536zM252 1714c0 17.333 3.33301 33.666 10 48.999s16 28.666 28 39.999s26.333 20.166 43 26.499s35 9.5 55 9.5s38.333 -3.16699 55 -9.5s31 -15.166 43 -26.499s21.333 -24.666 28 -39.999
s10 -31.666 10 -48.999s-3.33301 -33.666 -10 -48.999s-16 -28.5 -28 -39.5s-26.333 -19.667 -43 -26s-35 -9.5 -55 -9.5s-38.333 3.16699 -55 9.5s-31 15 -43 26s-21.333 24.167 -28 39.5s-10 31.666 -10 48.999zM732 1714c0 17.333 3.33301 33.666 10 48.999
s16 28.5 28 39.5s26.333 19.667 43 26s35 9.5 55 9.5s38.333 -3.16699 55 -9.5s31 -15 43 -26s21.333 -24.167 28 -39.5s10 -31.666 10 -48.999c0 -18 -3.33301 -34.667 -10 -50s-16 -28.666 -28 -39.999s-26.333 -20.166 -43 -26.499s-35 -9.5 -55 -9.5
s-38.333 3.16699 -55 9.5s-31 15.166 -43 26.499s-21.333 24.666 -28 39.999s-10 32 -10 50z" />
    <glyph glyph-name="Aring" unicode="&#xc5;" 
d="M847 304h-437l-86 -304h-296l477 1456h255l468 -1456h-296zM479 543h302l-149 536zM421 1732c0 28 5.5 54 16.5 78s26.167 44.667 45.5 62s42 31 68 41s53.667 15 83 15s56.666 -5 81.999 -15s47.333 -23.667 66 -41s33.334 -38 44.001 -62s16 -50 16 -78
s-5.33301 -53.833 -16 -77.5s-25.334 -44 -44.001 -61s-40.667 -30.167 -66 -39.5s-52.666 -14 -81.999 -14s-57 4.66699 -83 14s-48.667 22.5 -68 39.5s-34.5 37.333 -45.5 61s-16.5 49.5 -16.5 77.5zM535 1732c0 -29.333 9.5 -53 28.5 -71s42.5 -27 70.5 -27
s50.833 9 68.5 27s26.5 41.667 26.5 71c0 30 -8.83301 54.167 -26.5 72.5s-40.5 27.5 -68.5 27.5s-51.5 -9.16699 -70.5 -27.5s-28.5 -42.5 -28.5 -72.5z" />
    <glyph glyph-name="AE" unicode="&#xc6;" 
d="M1177 0h-536v334h-217l-94 -334h-282l479 1456h629v-228h-248v-366h217v-227h-217v-409h269v-226zM641 574v532l-150 -532h150z" />
    <glyph glyph-name="Ccedilla" unicode="&#xc7;" 
d="M1142 456c-4.66699 -73.333 -20.499 -139.335 -47.499 -198.002s-63.167 -108.667 -108.5 -150s-99.333 -73.166 -162 -95.499s-132 -33.5 -208 -33.5c-86 0 -162.333 15.833 -229 47.5s-122.667 76 -168 133s-80 125.5 -104 205.5s-36 168 -36 264v196
c0 96.667 12.667 185 38 265s61.333 148.667 108 206s103.167 101.833 169.5 133.5s140.833 47.5 223.5 47.5c80 0 151.167 -11.333 213.5 -34s115.5 -55 159.5 -97s78.667 -93.333 104 -154s41.333 -129 48 -205h-280c-2.66699 43.333 -9.16699 81.333 -19.5 114
s-25.333 59.834 -45 81.501s-44.334 38 -74.001 49s-65.167 16.5 -106.5 16.5c-43.333 0 -81 -9.33301 -113 -28s-58.5 -46 -79.5 -82s-36.5 -80.167 -46.5 -132.5s-15 -111.833 -15 -178.5v-198c0 -143.333 20.167 -249.333 60.5 -318s104.166 -103 191.499 -103
c73.333 0 131.333 19.5 174 58.5s66.334 102.167 71.001 189.5h281zM727.001 9.99805l-10.999 -56c18.667 -3.33301 37 -8.83301 55 -16.5s34 -18.334 48 -32.001s25.333 -30.667 34 -51s13 -44.833 13 -73.5c0 -35.333 -7.33301 -67.333 -22 -96s-36.5 -53.167 -65.5 -73.5
s-64.833 -36.166 -107.5 -47.499s-92.334 -17 -149.001 -17l-7 160c34 0 62.333 6.33301 85 19s34 34 34 64c0 28 -11.5 47.333 -34.5 58s-59.833 17.667 -110.5 21l31 141h207z" />
    <glyph glyph-name="Egrave" unicode="&#xc8;" 
d="M1027 638h-598v-411h699v-227h-981v1456h978v-229h-696v-367h598v-222zM755 1538h-219l-264 279h306z" />
    <glyph glyph-name="Eacute" unicode="&#xc9;" 
d="M1027 638h-598v-411h699v-227h-981v1456h978v-229h-696v-367h598v-222zM712 1814h306l-277 -279h-216z" />
    <glyph glyph-name="Ecircumflex" unicode="&#xca;" 
d="M1027 638h-598v-411h699v-227h-981v1456h978v-229h-696v-367h598v-222zM1017 1613v-28h-221l-154 127l-153 -127h-217v30l290 241h161z" />
    <glyph glyph-name="Edieresis" unicode="&#xcb;" 
d="M1027 638h-598v-411h699v-227h-981v1456h978v-229h-696v-367h598v-222zM261 1705c0 17.333 3.33301 33.666 10 48.999s16 28.666 28 39.999s26.333 20.166 43 26.499s35 9.5 55 9.5s38.333 -3.16699 55 -9.5s31 -15.166 43 -26.499s21.333 -24.666 28 -39.999
s10 -31.666 10 -48.999s-3.33301 -33.666 -10 -48.999s-16 -28.5 -28 -39.5s-26.333 -19.667 -43 -26s-35 -9.5 -55 -9.5s-38.333 3.16699 -55 9.5s-31 15 -43 26s-21.333 24.167 -28 39.5s-10 31.666 -10 48.999zM741 1705c0 17.333 3.33301 33.666 10 48.999
s16 28.5 28 39.5s26.333 19.667 43 26s35 9.5 55 9.5s38.333 -3.16699 55 -9.5s31 -15 43 -26s21.333 -24.167 28 -39.5s10 -31.666 10 -48.999c0 -18 -3.33301 -34.667 -10 -50s-16 -28.666 -28 -39.999s-26.333 -20.166 -43 -26.499s-35 -9.5 -55 -9.5
s-38.333 3.16699 -55 9.5s-31 15.166 -43 26.499s-21.333 24.666 -28 39.999s-10 32 -10 50z" />
    <glyph glyph-name="Igrave" unicode="&#xcc;" 
d="M193 1456h842v-227h-284v-1003h284v-226h-842v226h277v1003h-277v227zM713 1547h-219l-264 279h306z" />
    <glyph glyph-name="Iacute" unicode="&#xcd;" 
d="M193 1456h842v-227h-284v-1003h284v-226h-842v226h277v1003h-277v227zM670 1823h306l-277 -279h-216z" />
    <glyph glyph-name="Icircumflex" unicode="&#xce;" 
d="M193 1456h842v-227h-284v-1003h284v-226h-842v226h277v1003h-277v227zM975 1622v-28h-221l-154 127l-153 -127h-217v30l290 241h161z" />
    <glyph glyph-name="Idieresis" unicode="&#xcf;" 
d="M193 1456h842v-227h-284v-1003h284v-226h-842v226h277v1003h-277v227zM219 1714c0 17.333 3.33301 33.666 10 48.999s16 28.666 28 39.999s26.333 20.166 43 26.499s35 9.5 55 9.5s38.333 -3.16699 55 -9.5s31 -15.166 43 -26.499s21.333 -24.666 28 -39.999
s10 -31.666 10 -48.999s-3.33301 -33.666 -10 -48.999s-16 -28.5 -28 -39.5s-26.333 -19.667 -43 -26s-35 -9.5 -55 -9.5s-38.333 3.16699 -55 9.5s-31 15 -43 26s-21.333 24.167 -28 39.5s-10 31.666 -10 48.999zM699 1714c0 17.333 3.33301 33.666 10 48.999
s16 28.5 28 39.5s26.333 19.667 43 26s35 9.5 55 9.5s38.333 -3.16699 55 -9.5s31 -15 43 -26s21.333 -24.167 28 -39.5s10 -31.666 10 -48.999c0 -18 -3.33301 -34.667 -10 -50s-16 -28.666 -28 -39.999s-26.333 -20.166 -43 -26.499s-35 -9.5 -55 -9.5
s-38.333 3.16699 -55 9.5s-31 15.166 -43 26.499s-21.333 24.666 -28 39.999s-10 32 -10 50z" />
    <glyph glyph-name="Eth" unicode="&#xd0;" horiz-adv-x="1259" 
d="M155 0l0.00195312 643h-182v180h182v633h377c96.667 0 184.167 -16.5 262.5 -49.5s145.333 -79 201 -138s98.667 -129.5 129 -211.5s45.5 -172 45.5 -270v-120c0 -98 -15.167 -187.833 -45.5 -269.5s-72.833 -152 -127.5 -211s-120.334 -104.833 -197.001 -137.5
s-161.334 -49 -254.001 -49h-391zM665.002 643h-227v-417h108c52.667 0 99.834 10 141.501 30s77 49 106 87s51.167 84.167 66.5 138.5s23 116.166 23 185.499v122c0 65.333 -7.5 124.833 -22.5 178.5s-37.333 99.834 -67 138.501s-66.334 68.667 -110.001 90
s-94.167 32 -151.5 32h-94v-405h227v-180z" />
    <glyph glyph-name="Ntilde" unicode="&#xd1;" 
d="M1091 0h-280l-405 939v-939h-283v1456h283l402 -935l1 935h282v-1456zM977 1861c0 -30 -5.16602 -59.665 -15.499 -88.998s-25 -55.5 -44 -78.5s-41.667 -41.5 -68 -55.5s-55.833 -21 -88.5 -21c-32 0 -59.833 4.5 -83.5 13.5s-46 19 -67 30s-41.833 21 -62.5 30
s-44 13.5 -70 13.5c-24 0 -44.833 -8.66699 -62.5 -26s-26.5 -41.333 -26.5 -72l-140 30c0 29.333 5.16699 58.666 15.5 87.999s24.833 55.666 43.5 78.999s41.167 42.333 67.5 57s55.833 22 88.5 22c26.667 0 51.667 -4.5 75 -13.5s46.166 -19 68.499 -30
s44.833 -21 67.5 -30s46.667 -13.5 72 -13.5c24 0 45 8.5 63 25.5s27 40.833 27 71.5z" />
    <glyph glyph-name="Ograve" unicode="&#xd2;" 
d="M1147 621c0 -93.333 -12.333 -179.33 -37 -257.997s-60.334 -146.334 -107.001 -203.001s-103.5 -100.834 -170.5 -132.501s-142.5 -47.5 -226.5 -47.5s-158.667 15.833 -224 47.5s-120.333 76 -165 133s-78.667 124.667 -102 203s-35 164.166 -35 257.499v212
c0 93.333 11.667 179.333 35 258s57.333 146.5 102 203.5s99.5 101.5 164.5 133.5s139.5 48 223.5 48c84.667 0 160.5 -16 227.5 -48s123.833 -76.5 170.5 -133.5s82.334 -124.833 107.001 -203.5s37 -164.667 37 -258v-212zM862 835.003
c0 59.333 -4.83008 114.001 -14.4971 164.001s-24.834 93 -45.501 129s-47.167 64.167 -79.5 84.5s-71.5 30.5 -117.5 30.5c-45.333 0 -83.333 -10.167 -114 -30.5s-55.334 -48.5 -74.001 -84.5s-32 -79 -40 -129s-12 -104.667 -12 -164v-214c0 -58.667 4 -113 12 -163
s21.333 -93.333 40 -130s43.334 -65.334 74.001 -86.001s69 -31 115 -31c45.333 0 84.166 10.333 116.499 31s58.666 49.167 78.999 85.5s35.5 79.5 45.5 129.5s15 104.667 15 164v214zM728.003 1568h-219l-264 279h306z" />
    <glyph glyph-name="Oacute" unicode="&#xd3;" 
d="M1147 621c0 -93.333 -12.333 -179.33 -37 -257.997s-60.334 -146.334 -107.001 -203.001s-103.5 -100.834 -170.5 -132.501s-142.5 -47.5 -226.5 -47.5s-158.667 15.833 -224 47.5s-120.333 76 -165 133s-78.667 124.667 -102 203s-35 164.166 -35 257.499v212
c0 93.333 11.667 179.333 35 258s57.333 146.5 102 203.5s99.5 101.5 164.5 133.5s139.5 48 223.5 48c84.667 0 160.5 -16 227.5 -48s123.833 -76.5 170.5 -133.5s82.334 -124.833 107.001 -203.5s37 -164.667 37 -258v-212zM862 835.003
c0 59.333 -4.83008 114.001 -14.4971 164.001s-24.834 93 -45.501 129s-47.167 64.167 -79.5 84.5s-71.5 30.5 -117.5 30.5c-45.333 0 -83.333 -10.167 -114 -30.5s-55.334 -48.5 -74.001 -84.5s-32 -79 -40 -129s-12 -104.667 -12 -164v-214c0 -58.667 4 -113 12 -163
s21.333 -93.333 40 -130s43.334 -65.334 74.001 -86.001s69 -31 115 -31c45.333 0 84.166 10.333 116.499 31s58.666 49.167 78.999 85.5s35.5 79.5 45.5 129.5s15 104.667 15 164v214zM685.003 1844h306l-277 -279h-216z" />
    <glyph glyph-name="Ocircumflex" unicode="&#xd4;" 
d="M1147 621c0 -93.333 -12.333 -179.33 -37 -257.997s-60.334 -146.334 -107.001 -203.001s-103.5 -100.834 -170.5 -132.501s-142.5 -47.5 -226.5 -47.5s-158.667 15.833 -224 47.5s-120.333 76 -165 133s-78.667 124.667 -102 203s-35 164.166 -35 257.499v212
c0 93.333 11.667 179.333 35 258s57.333 146.5 102 203.5s99.5 101.5 164.5 133.5s139.5 48 223.5 48c84.667 0 160.5 -16 227.5 -48s123.833 -76.5 170.5 -133.5s82.334 -124.833 107.001 -203.5s37 -164.667 37 -258v-212zM862 835.003
c0 59.333 -4.83008 114.001 -14.4971 164.001s-24.834 93 -45.501 129s-47.167 64.167 -79.5 84.5s-71.5 30.5 -117.5 30.5c-45.333 0 -83.333 -10.167 -114 -30.5s-55.334 -48.5 -74.001 -84.5s-32 -79 -40 -129s-12 -104.667 -12 -164v-214c0 -58.667 4 -113 12 -163
s21.333 -93.333 40 -130s43.334 -65.334 74.001 -86.001s69 -31 115 -31c45.333 0 84.166 10.333 116.499 31s58.666 49.167 78.999 85.5s35.5 79.5 45.5 129.5s15 104.667 15 164v214zM990.003 1643v-28h-221l-154 127l-153 -127h-217v30l290 241h161z" />
    <glyph glyph-name="Otilde" unicode="&#xd5;" 
d="M1147 621c0 -93.333 -12.333 -179.33 -37 -257.997s-60.334 -146.334 -107.001 -203.001s-103.5 -100.834 -170.5 -132.501s-142.5 -47.5 -226.5 -47.5s-158.667 15.833 -224 47.5s-120.333 76 -165 133s-78.667 124.667 -102 203s-35 164.166 -35 257.499v212
c0 93.333 11.667 179.333 35 258s57.333 146.5 102 203.5s99.5 101.5 164.5 133.5s139.5 48 223.5 48c84.667 0 160.5 -16 227.5 -48s123.833 -76.5 170.5 -133.5s82.334 -124.833 107.001 -203.5s37 -164.667 37 -258v-212zM862 835.003
c0 59.333 -4.83008 114.001 -14.4971 164.001s-24.834 93 -45.501 129s-47.167 64.167 -79.5 84.5s-71.5 30.5 -117.5 30.5c-45.333 0 -83.333 -10.167 -114 -30.5s-55.334 -48.5 -74.001 -84.5s-32 -79 -40 -129s-12 -104.667 -12 -164v-214c0 -58.667 4 -113 12 -163
s21.333 -93.333 40 -130s43.334 -65.334 74.001 -86.001s69 -31 115 -31c45.333 0 84.166 10.333 116.499 31s58.666 49.167 78.999 85.5s35.5 79.5 45.5 129.5s15 104.667 15 164v214zM979.003 1882c0 -30 -5.16602 -59.665 -15.499 -88.998s-25 -55.5 -44 -78.5
s-41.667 -41.5 -68 -55.5s-55.833 -21 -88.5 -21c-32 0 -59.833 4.5 -83.5 13.5s-46 19 -67 30s-41.833 21 -62.5 30s-44 13.5 -70 13.5c-24 0 -44.833 -8.66699 -62.5 -26s-26.5 -41.333 -26.5 -72l-140 30c0 29.333 5.16699 58.666 15.5 87.999s24.833 55.666 43.5 78.999
s41.167 42.333 67.5 57s55.833 22 88.5 22c26.667 0 51.667 -4.5 75 -13.5s46.166 -19 68.499 -30s44.833 -21 67.5 -30s46.667 -13.5 72 -13.5c24 0 45 8.5 63 25.5s27 40.833 27 71.5z" />
    <glyph glyph-name="Odieresis" unicode="&#xd6;" 
d="M1147 621c0 -93.333 -12.333 -179.33 -37 -257.997s-60.334 -146.334 -107.001 -203.001s-103.5 -100.834 -170.5 -132.501s-142.5 -47.5 -226.5 -47.5s-158.667 15.833 -224 47.5s-120.333 76 -165 133s-78.667 124.667 -102 203s-35 164.166 -35 257.499v212
c0 93.333 11.667 179.333 35 258s57.333 146.5 102 203.5s99.5 101.5 164.5 133.5s139.5 48 223.5 48c84.667 0 160.5 -16 227.5 -48s123.833 -76.5 170.5 -133.5s82.334 -124.833 107.001 -203.5s37 -164.667 37 -258v-212zM862 835.003
c0 59.333 -4.83008 114.001 -14.4971 164.001s-24.834 93 -45.501 129s-47.167 64.167 -79.5 84.5s-71.5 30.5 -117.5 30.5c-45.333 0 -83.333 -10.167 -114 -30.5s-55.334 -48.5 -74.001 -84.5s-32 -79 -40 -129s-12 -104.667 -12 -164v-214c0 -58.667 4 -113 12 -163
s21.333 -93.333 40 -130s43.334 -65.334 74.001 -86.001s69 -31 115 -31c45.333 0 84.166 10.333 116.499 31s58.666 49.167 78.999 85.5s35.5 79.5 45.5 129.5s15 104.667 15 164v214zM234.003 1735c0 17.333 3.33301 33.666 10 48.999s16 28.666 28 39.999
s26.333 20.166 43 26.499s35 9.5 55 9.5s38.333 -3.16699 55 -9.5s31 -15.166 43 -26.499s21.333 -24.666 28 -39.999s10 -31.666 10 -48.999s-3.33301 -33.666 -10 -48.999s-16 -28.5 -28 -39.5s-26.333 -19.667 -43 -26s-35 -9.5 -55 -9.5s-38.333 3.16699 -55 9.5
s-31 15 -43 26s-21.333 24.167 -28 39.5s-10 31.666 -10 48.999zM714.003 1735c0 17.333 3.33301 33.666 10 48.999s16 28.5 28 39.5s26.333 19.667 43 26s35 9.5 55 9.5s38.333 -3.16699 55 -9.5s31 -15 43 -26s21.333 -24.167 28 -39.5s10 -31.666 10 -48.999
c0 -18 -3.33301 -34.667 -10 -50s-16 -28.666 -28 -39.999s-26.333 -20.166 -43 -26.499s-35 -9.5 -55 -9.5s-38.333 3.16699 -55 9.5s-31 15.166 -43 26.499s-21.333 24.666 -28 39.999s-10 32 -10 50z" />
    <glyph glyph-name="multiply" unicode="&#xd7;" 
d="M157 371l309 315l-309 315l165 164l307 -313l307 313l165 -164l-309 -315l309 -315l-165 -164l-307 313l-307 -313z" />
    <glyph glyph-name="Oslash" unicode="&#xd8;" 
d="M1152 621c0 -93.333 -12.332 -179.333 -36.999 -258s-60.334 -146.334 -107.001 -203.001s-103.5 -100.834 -170.5 -132.501s-142.5 -47.5 -226.5 -47.5c-57.333 0 -110 7.16699 -158 21.5s-91.667 35.5 -131 63.5l-91 -160h-183l157 278
c-40 56.667 -70 121.834 -90 195.501s-30 154.5 -30 242.5v212c0 93.333 11.667 179.333 35 258s57.333 146.5 102 203.5s99.5 101.5 164.5 133.5s139.5 48 223.5 48c54 0 104.5 -6.66699 151.5 -20s90.167 -32.666 129.5 -57.999l68 120h184l-130 -230
c45.333 -57.333 79.833 -124.5 103.5 -201.5s35.5 -161.5 35.5 -253.5v-212zM867.001 835c-0.666992 30 -2.16699 59 -4.5 87s-6.16602 54.667 -11.499 80l-404 -715c19.333 -24 42.333 -42.667 69 -56s58.334 -20 95.001 -20c45.333 0 84.166 10.333 116.499 31
s58.666 49.167 78.999 85.5s35.5 79.5 45.5 129.5s15 104.667 15 164v214zM370.001 621c0 -23.333 0.667969 -46 2.00098 -68s3.33301 -43.333 6 -64l390 691c-20 20 -43 35.5 -69 46.5s-55.667 16.5 -89 16.5c-45.333 0 -83.333 -10.167 -114 -30.5
s-55.334 -48.5 -74.001 -84.5s-32 -79 -40 -129s-12 -104.667 -12 -164v-214z" />
    <glyph glyph-name="Ugrave" unicode="&#xd9;" 
d="M1101 1456l0.99707 -965c0 -81.333 -11.167 -153.666 -33.5 -216.999s-54.666 -116.833 -96.999 -160.5s-94 -76.834 -155 -99.501s-130.5 -34 -208.5 -34c-73.333 0 -139.5 11.333 -198.5 34s-109.5 55.667 -151.5 99s-74.5 96.833 -97.5 160.5
s-34.5 136.167 -34.5 217.5l1 965h281l1 -965c0.666992 -94 17.834 -165 51.501 -213s82.834 -72 147.501 -72c68.667 0 121.167 24 157.5 72s54.833 119 55.5 213l1 965h279zM735.997 1544h-219l-264 279h306z" />
    <glyph glyph-name="Uacute" unicode="&#xda;" 
d="M1101 1456l0.99707 -965c0 -81.333 -11.167 -153.666 -33.5 -216.999s-54.666 -116.833 -96.999 -160.5s-94 -76.834 -155 -99.501s-130.5 -34 -208.5 -34c-73.333 0 -139.5 11.333 -198.5 34s-109.5 55.667 -151.5 99s-74.5 96.833 -97.5 160.5
s-34.5 136.167 -34.5 217.5l1 965h281l1 -965c0.666992 -94 17.834 -165 51.501 -213s82.834 -72 147.501 -72c68.667 0 121.167 24 157.5 72s54.833 119 55.5 213l1 965h279zM692.997 1820h306l-277 -279h-216z" />
    <glyph glyph-name="Ucircumflex" unicode="&#xdb;" 
d="M1101 1456l0.99707 -965c0 -81.333 -11.167 -153.666 -33.5 -216.999s-54.666 -116.833 -96.999 -160.5s-94 -76.834 -155 -99.501s-130.5 -34 -208.5 -34c-73.333 0 -139.5 11.333 -198.5 34s-109.5 55.667 -151.5 99s-74.5 96.833 -97.5 160.5
s-34.5 136.167 -34.5 217.5l1 965h281l1 -965c0.666992 -94 17.834 -165 51.501 -213s82.834 -72 147.501 -72c68.667 0 121.167 24 157.5 72s54.833 119 55.5 213l1 965h279zM997.997 1619v-28h-221l-154 127l-153 -127h-217v30l290 241h161z" />
    <glyph glyph-name="Udieresis" unicode="&#xdc;" 
d="M1101 1456l0.99707 -965c0 -81.333 -11.167 -153.666 -33.5 -216.999s-54.666 -116.833 -96.999 -160.5s-94 -76.834 -155 -99.501s-130.5 -34 -208.5 -34c-73.333 0 -139.5 11.333 -198.5 34s-109.5 55.667 -151.5 99s-74.5 96.833 -97.5 160.5
s-34.5 136.167 -34.5 217.5l1 965h281l1 -965c0.666992 -94 17.834 -165 51.501 -213s82.834 -72 147.501 -72c68.667 0 121.167 24 157.5 72s54.833 119 55.5 213l1 965h279zM241.997 1711c0 17.333 3.33301 33.666 10 48.999s16 28.666 28 39.999s26.333 20.166 43 26.499
s35 9.5 55 9.5s38.333 -3.16699 55 -9.5s31 -15.166 43 -26.499s21.333 -24.666 28 -39.999s10 -31.666 10 -48.999s-3.33301 -33.666 -10 -48.999s-16 -28.5 -28 -39.5s-26.333 -19.667 -43 -26s-35 -9.5 -55 -9.5s-38.333 3.16699 -55 9.5s-31 15 -43 26
s-21.333 24.167 -28 39.5s-10 31.666 -10 48.999zM721.997 1711c0 17.333 3.33301 33.666 10 48.999s16 28.5 28 39.5s26.333 19.667 43 26s35 9.5 55 9.5s38.333 -3.16699 55 -9.5s31 -15 43 -26s21.333 -24.167 28 -39.5s10 -31.666 10 -48.999
c0 -18 -3.33301 -34.667 -10 -50s-16 -28.666 -28 -39.999s-26.333 -20.166 -43 -26.499s-35 -9.5 -55 -9.5s-38.333 3.16699 -55 9.5s-31 15.166 -43 26.499s-21.333 24.666 -28 39.999s-10 32 -10 50z" />
    <glyph glyph-name="Yacute" unicode="&#xdd;" 
d="M628 785l287 671h309l-458 -952l-1 -504h-280l-1 516l-451 940h308zM697 1823h306l-277 -279h-216z" />
    <glyph glyph-name="Thorn" unicode="&#xde;" 
d="M415 1456v-271.001h227c86 0 162 -11.167 228 -33.5s121.5 -53.166 166.5 -92.499s79.167 -86.5 102.5 -141.5s35 -114.833 35 -179.5c0 -65.333 -11.667 -125.5 -35 -180.5s-57.5 -102.333 -102.5 -142s-100.5 -70.667 -166.5 -93s-142 -33.5 -228 -33.5h-227v-289h-279
v1456h279zM415 960.999v-448.001h227c45.333 0 84 6.16699 116 18.5s58.167 28.833 78.5 49.5s35.166 44.5 44.499 71.5s14 54.833 14 83.5s-4.66699 56.667 -14 84s-24.166 51.333 -44.499 72s-46.5 37.334 -78.5 50.001s-70.667 19 -116 19h-227z" />
    <glyph glyph-name="germandbls" unicode="&#xdf;" 
d="M439 0l-277.007 -0.000976562v1076c0 78.667 11.5 148.334 34.5 209.001s55 111.5 96 152.5s90 72 147 93s119.5 31.5 187.5 31.5c52.667 0 103 -7.5 151 -22.5s90.167 -37.833 126.5 -68.5s65.333 -68.834 87 -114.501s32.5 -99.167 32.5 -160.5
c0 -33.333 -2.66699 -62 -8 -86s-12.166 -45.167 -20.499 -63.5s-17.166 -35 -26.499 -50s-18.166 -30.5 -26.499 -46.5s-15.166 -33.333 -20.499 -52s-8 -40.667 -8 -66c0 -23.333 6.66699 -45.666 20 -66.999s29.833 -42.833 49.5 -64.5l64 -68
c23 -23.667 44.333 -49.334 64 -77.001s36.167 -58.334 49.5 -92.001s20 -71.5 20 -113.5c0 -59.333 -8.83301 -112.166 -26.5 -158.499s-43.5 -85.166 -77.5 -116.499s-75.833 -55.166 -125.5 -71.499s-106.167 -24.5 -169.5 -24.5c-26 0 -52.667 1.33301 -80 4
s-53.666 6.5 -78.999 11.5s-48.666 11 -69.999 18s-39 15.167 -53 24.5l54 221c10.667 -6 23.667 -12.333 39 -19s32.5 -12.667 51.5 -18s39.5 -9.83301 61.5 -13.5s44.667 -5.5 68 -5.5c40.667 0 72.334 12.833 95.001 38.5s34 60.167 34 103.5
c0 27.333 -6.66699 52.166 -20 74.499s-29.833 44 -49.5 65s-41 42.333 -64 64s-44.333 45.5 -64 71.5s-36.167 55.333 -49.5 88s-20 70.667 -20 114c0 29.333 2.83301 55 8.5 77s12.667 42 21 60s17.5 34.833 27.5 50.5s19.167 32 27.5 49s15.333 35.167 21 54.5
s8.5 42 8.5 68c0 24.667 -4.16699 46.834 -12.5 66.501s-19.166 36.334 -32.499 50.001s-28.333 24.167 -45 31.5s-33.334 11 -50.001 11c-23.333 0 -45.5 -5.16699 -66.5 -15.5s-39.167 -26.333 -54.5 -48s-27.5 -49.334 -36.5 -83.001s-13.5 -73.834 -13.5 -120.501v-1072
z" />
    <glyph glyph-name="agrave" unicode="&#xe0;" 
d="M817 0c-6.66699 13.333 -12.333 28.6699 -17 46.0029s-8.66699 35.666 -12 54.999c-15.333 -16.667 -33 -32.334 -53 -47.001s-42.167 -27.5 -66.5 -38.5s-51.166 -19.667 -80.499 -26s-61 -9.5 -95 -9.5c-55.333 0 -106.166 8 -152.499 24s-86.166 38.333 -119.499 67
s-59.333 62.834 -78 102.501s-28 82.834 -28 129.501c0 114 42.5 202.167 127.5 264.5s211.833 93.5 380.5 93.5h155v64c0 52 -17 93.167 -51 123.5s-83 45.5 -147 45.5c-56.667 0 -98 -12.167 -124 -36.5s-39 -56.833 -39 -97.5h-278c0 46 10.167 89.667 30.5 131
s50 77.666 89 108.999s86.667 56.166 143 74.499s120.833 27.5 193.5 27.5c65.333 0 126.166 -8 182.499 -24s105.166 -39.667 146.499 -71s73.666 -70.833 96.999 -118.5s35 -102.834 35 -165.501v-464c0 -58 3.66699 -106 11 -144s18 -70.667 32 -98v-17h-282z
M552.001 195.004c28 0 54 3.33105 78 9.99805s45.667 15.334 65 26.001s36 22.834 50 36.501s25 27.5 33 41.5v186h-142c-43.333 0 -80.333 -4.16699 -111 -12.5s-55.667 -20 -75 -35s-33.666 -33 -42.999 -54s-14 -43.833 -14 -68.5c0 -37.333 13.167 -68.333 39.5 -93
s66.166 -37 119.499 -37zM709.001 1225h-219l-264 279h306z" />
    <glyph glyph-name="aacute" unicode="&#xe1;" 
d="M817 0c-6.66699 13.333 -12.333 28.6699 -17 46.0029s-8.66699 35.666 -12 54.999c-15.333 -16.667 -33 -32.334 -53 -47.001s-42.167 -27.5 -66.5 -38.5s-51.166 -19.667 -80.499 -26s-61 -9.5 -95 -9.5c-55.333 0 -106.166 8 -152.499 24s-86.166 38.333 -119.499 67
s-59.333 62.834 -78 102.501s-28 82.834 -28 129.501c0 114 42.5 202.167 127.5 264.5s211.833 93.5 380.5 93.5h155v64c0 52 -17 93.167 -51 123.5s-83 45.5 -147 45.5c-56.667 0 -98 -12.167 -124 -36.5s-39 -56.833 -39 -97.5h-278c0 46 10.167 89.667 30.5 131
s50 77.666 89 108.999s86.667 56.166 143 74.499s120.833 27.5 193.5 27.5c65.333 0 126.166 -8 182.499 -24s105.166 -39.667 146.499 -71s73.666 -70.833 96.999 -118.5s35 -102.834 35 -165.501v-464c0 -58 3.66699 -106 11 -144s18 -70.667 32 -98v-17h-282z
M552.001 195.004c28 0 54 3.33105 78 9.99805s45.667 15.334 65 26.001s36 22.834 50 36.501s25 27.5 33 41.5v186h-142c-43.333 0 -80.333 -4.16699 -111 -12.5s-55.667 -20 -75 -35s-33.666 -33 -42.999 -54s-14 -43.833 -14 -68.5c0 -37.333 13.167 -68.333 39.5 -93
s66.166 -37 119.499 -37zM666.001 1501h306l-277 -279h-216z" />
    <glyph glyph-name="acircumflex" unicode="&#xe2;" 
d="M817 0c-6.66699 13.333 -12.333 28.6699 -17 46.0029s-8.66699 35.666 -12 54.999c-15.333 -16.667 -33 -32.334 -53 -47.001s-42.167 -27.5 -66.5 -38.5s-51.166 -19.667 -80.499 -26s-61 -9.5 -95 -9.5c-55.333 0 -106.166 8 -152.499 24s-86.166 38.333 -119.499 67
s-59.333 62.834 -78 102.501s-28 82.834 -28 129.501c0 114 42.5 202.167 127.5 264.5s211.833 93.5 380.5 93.5h155v64c0 52 -17 93.167 -51 123.5s-83 45.5 -147 45.5c-56.667 0 -98 -12.167 -124 -36.5s-39 -56.833 -39 -97.5h-278c0 46 10.167 89.667 30.5 131
s50 77.666 89 108.999s86.667 56.166 143 74.499s120.833 27.5 193.5 27.5c65.333 0 126.166 -8 182.499 -24s105.166 -39.667 146.499 -71s73.666 -70.833 96.999 -118.5s35 -102.834 35 -165.501v-464c0 -58 3.66699 -106 11 -144s18 -70.667 32 -98v-17h-282z
M552.001 195.004c28 0 54 3.33105 78 9.99805s45.667 15.334 65 26.001s36 22.834 50 36.501s25 27.5 33 41.5v186h-142c-43.333 0 -80.333 -4.16699 -111 -12.5s-55.667 -20 -75 -35s-33.666 -33 -42.999 -54s-14 -43.833 -14 -68.5c0 -37.333 13.167 -68.333 39.5 -93
s66.166 -37 119.499 -37zM971.001 1300v-28h-221l-154 127l-153 -127h-217v30l290 241h161z" />
    <glyph glyph-name="atilde" unicode="&#xe3;" 
d="M817 0c-6.66699 13.333 -12.333 28.6699 -17 46.0029s-8.66699 35.666 -12 54.999c-15.333 -16.667 -33 -32.334 -53 -47.001s-42.167 -27.5 -66.5 -38.5s-51.166 -19.667 -80.499 -26s-61 -9.5 -95 -9.5c-55.333 0 -106.166 8 -152.499 24s-86.166 38.333 -119.499 67
s-59.333 62.834 -78 102.501s-28 82.834 -28 129.501c0 114 42.5 202.167 127.5 264.5s211.833 93.5 380.5 93.5h155v64c0 52 -17 93.167 -51 123.5s-83 45.5 -147 45.5c-56.667 0 -98 -12.167 -124 -36.5s-39 -56.833 -39 -97.5h-278c0 46 10.167 89.667 30.5 131
s50 77.666 89 108.999s86.667 56.166 143 74.499s120.833 27.5 193.5 27.5c65.333 0 126.166 -8 182.499 -24s105.166 -39.667 146.499 -71s73.666 -70.833 96.999 -118.5s35 -102.834 35 -165.501v-464c0 -58 3.66699 -106 11 -144s18 -70.667 32 -98v-17h-282z
M552.001 195.004c28 0 54 3.33105 78 9.99805s45.667 15.334 65 26.001s36 22.834 50 36.501s25 27.5 33 41.5v186h-142c-43.333 0 -80.333 -4.16699 -111 -12.5s-55.667 -20 -75 -35s-33.666 -33 -42.999 -54s-14 -43.833 -14 -68.5c0 -37.333 13.167 -68.333 39.5 -93
s66.166 -37 119.499 -37zM960.001 1539c0 -30 -5.16602 -59.665 -15.499 -88.998s-25 -55.5 -44 -78.5s-41.667 -41.5 -68 -55.5s-55.833 -21 -88.5 -21c-32 0 -59.833 4.5 -83.5 13.5s-46 19 -67 30s-41.833 21 -62.5 30s-44 13.5 -70 13.5
c-24 0 -44.833 -8.66699 -62.5 -26s-26.5 -41.333 -26.5 -72l-140 30c0 29.333 5.16699 58.666 15.5 87.999s24.833 55.666 43.5 78.999s41.167 42.333 67.5 57s55.833 22 88.5 22c26.667 0 51.667 -4.5 75 -13.5s46.166 -19 68.499 -30s44.833 -21 67.5 -30
s46.667 -13.5 72 -13.5c24 0 45 8.5 63 25.5s27 40.833 27 71.5z" />
    <glyph glyph-name="adieresis" unicode="&#xe4;" 
d="M817 0c-6.66699 13.333 -12.333 28.6699 -17 46.0029s-8.66699 35.666 -12 54.999c-15.333 -16.667 -33 -32.334 -53 -47.001s-42.167 -27.5 -66.5 -38.5s-51.166 -19.667 -80.499 -26s-61 -9.5 -95 -9.5c-55.333 0 -106.166 8 -152.499 24s-86.166 38.333 -119.499 67
s-59.333 62.834 -78 102.501s-28 82.834 -28 129.501c0 114 42.5 202.167 127.5 264.5s211.833 93.5 380.5 93.5h155v64c0 52 -17 93.167 -51 123.5s-83 45.5 -147 45.5c-56.667 0 -98 -12.167 -124 -36.5s-39 -56.833 -39 -97.5h-278c0 46 10.167 89.667 30.5 131
s50 77.666 89 108.999s86.667 56.166 143 74.499s120.833 27.5 193.5 27.5c65.333 0 126.166 -8 182.499 -24s105.166 -39.667 146.499 -71s73.666 -70.833 96.999 -118.5s35 -102.834 35 -165.501v-464c0 -58 3.66699 -106 11 -144s18 -70.667 32 -98v-17h-282z
M552.001 195.004c28 0 54 3.33105 78 9.99805s45.667 15.334 65 26.001s36 22.834 50 36.501s25 27.5 33 41.5v186h-142c-43.333 0 -80.333 -4.16699 -111 -12.5s-55.667 -20 -75 -35s-33.666 -33 -42.999 -54s-14 -43.833 -14 -68.5c0 -37.333 13.167 -68.333 39.5 -93
s66.166 -37 119.499 -37zM215.001 1392c0 17.333 3.33301 33.666 10 48.999s16 28.666 28 39.999s26.333 20.166 43 26.499s35 9.5 55 9.5s38.333 -3.16699 55 -9.5s31 -15.166 43 -26.499s21.333 -24.666 28 -39.999s10 -31.666 10 -48.999s-3.33301 -33.666 -10 -48.999
s-16 -28.5 -28 -39.5s-26.333 -19.667 -43 -26s-35 -9.5 -55 -9.5s-38.333 3.16699 -55 9.5s-31 15 -43 26s-21.333 24.167 -28 39.5s-10 31.666 -10 48.999zM695.001 1392c0 17.333 3.33301 33.666 10 48.999s16 28.5 28 39.5s26.333 19.667 43 26s35 9.5 55 9.5
s38.333 -3.16699 55 -9.5s31 -15 43 -26s21.333 -24.167 28 -39.5s10 -31.666 10 -48.999c0 -18 -3.33301 -34.667 -10 -50s-16 -28.666 -28 -39.999s-26.333 -20.166 -43 -26.499s-35 -9.5 -55 -9.5s-38.333 3.16699 -55 9.5s-31 15.166 -43 26.499
s-21.333 24.666 -28 39.999s-10 32 -10 50z" />
    <glyph glyph-name="aring" unicode="&#xe5;" 
d="M817 0c-6.66699 13.333 -12.333 28.6699 -17 46.0029s-8.66699 35.666 -12 54.999c-15.333 -16.667 -33 -32.334 -53 -47.001s-42.167 -27.5 -66.5 -38.5s-51.166 -19.667 -80.499 -26s-61 -9.5 -95 -9.5c-55.333 0 -106.166 8 -152.499 24s-86.166 38.333 -119.499 67
s-59.333 62.834 -78 102.501s-28 82.834 -28 129.501c0 114 42.5 202.167 127.5 264.5s211.833 93.5 380.5 93.5h155v64c0 52 -17 93.167 -51 123.5s-83 45.5 -147 45.5c-56.667 0 -98 -12.167 -124 -36.5s-39 -56.833 -39 -97.5h-278c0 46 10.167 89.667 30.5 131
s50 77.666 89 108.999s86.667 56.166 143 74.499s120.833 27.5 193.5 27.5c65.333 0 126.166 -8 182.499 -24s105.166 -39.667 146.499 -71s73.666 -70.833 96.999 -118.5s35 -102.834 35 -165.501v-464c0 -58 3.66699 -106 11 -144s18 -70.667 32 -98v-17h-282z
M552.001 195.004c28 0 54 3.33105 78 9.99805s45.667 15.334 65 26.001s36 22.834 50 36.501s25 27.5 33 41.5v186h-142c-43.333 0 -80.333 -4.16699 -111 -12.5s-55.667 -20 -75 -35s-33.666 -33 -42.999 -54s-14 -43.833 -14 -68.5c0 -37.333 13.167 -68.333 39.5 -93
s66.166 -37 119.499 -37zM385.001 1410c0 28 5.5 54 16.5 78s26.167 44.667 45.5 62s42 31 68 41s53.667 15 83 15s56.666 -5 81.999 -15s47.333 -23.667 66 -41s33.334 -38 44.001 -62s16 -50 16 -78s-5.33301 -53.833 -16 -77.5s-25.334 -44 -44.001 -61
s-40.667 -30.167 -66 -39.5s-52.666 -14 -81.999 -14s-57 4.66699 -83 14s-48.667 22.5 -68 39.5s-34.5 37.333 -45.5 61s-16.5 49.5 -16.5 77.5zM499.001 1410c0 -29.333 9.5 -53 28.5 -71s42.5 -27 70.5 -27s50.833 9 68.5 27s26.5 41.667 26.5 71
c0 30 -8.83301 54.167 -26.5 72.5s-40.5 27.5 -68.5 27.5s-51.5 -9.16699 -70.5 -27.5s-28.5 -42.5 -28.5 -72.5z" />
    <glyph glyph-name="ae" unicode="&#xe6;" 
d="M868 -20c-60 0 -112.501 10.3369 -157.501 31.0039s-82.5 50 -112.5 88c-12 -16 -25.833 -31.333 -41.5 -46s-33.334 -27.334 -53.001 -38.001s-41 -19.167 -64 -25.5s-48.167 -9.5 -75.5 -9.5c-51.333 0 -96.666 7.5 -135.999 22.5s-72.5 36.167 -99.5 63.5
s-47.5 60.666 -61.5 99.999s-21 83 -21 131c0 112.667 38 199.334 114 260.001s188.333 91 337 91h3v119c0 35.333 -6.16699 62.5 -18.5 81.5s-32.166 28.5 -59.499 28.5c-31.333 0 -54.5 -7.83301 -69.5 -23.5s-22.5 -41.5 -22.5 -77.5l-261 9
c0 48 7.83301 91.667 23.5 131s38.167 72.666 67.5 99.999s64.833 48.5 106.5 63.5s88.834 22.5 141.501 22.5c96.667 0 174 -25 232 -75c28 24 60.833 42.667 98.5 56s80.5 19.666 128.5 18.999c49.333 0 94.166 -9.33301 134.499 -28s74.666 -45.334 102.999 -80.001
s50.333 -77 66 -127s23.5 -106 23.5 -168v-245h-451v-91c0 -24 3 -45.833 9 -65.5s16 -36.5 30 -50.5s32 -24.833 54 -32.5s49 -11.5 81 -11.5c22.667 0 43 1.5 61 4.5s34.5 6.66699 49.5 11s29.167 9.5 42.5 15.5l41 18l55 -192
c-13.333 -10.667 -30.166 -20.834 -50.499 -30.501s-43.333 -18.167 -69 -25.5s-53.5 -13.166 -83.5 -17.499s-61.667 -6.5 -95 -6.5zM742.999 643.004l195 -0.000976562v112c0 38 -7.16699 67.833 -21.5 89.5s-37.5 32.5 -69.5 32.5
c-22.667 0 -40.834 -4.33301 -54.501 -13s-24.167 -20.667 -31.5 -36s-12.166 -33.666 -14.499 -54.999s-3.5 -44.333 -3.5 -69v-61zM433.999 185.003c11.333 0 22.6689 2.33594 34.002 7.00293s22 11 32 19v253h-1c-28.667 0 -53.834 -4.66699 -75.501 -14
s-40 -21.833 -55 -37.5s-26.333 -33.834 -34 -54.501s-11.5 -42.334 -11.5 -65.001c0 -32.667 9.16699 -58.834 27.5 -78.501s46.166 -29.5 83.499 -29.5z" />
    <glyph glyph-name="ccedilla" unicode="&#xe7;" 
d="M620 202c27.333 0 53.3291 4.00391 77.9961 12.0039s46.334 19.333 65.001 34s33.167 32.334 43.5 53.001s14.833 43.667 13.5 69h262c1.33301 -56 -10.167 -108 -34.5 -156s-57.5 -89.333 -99.5 -124s-90.833 -61.834 -146.5 -81.501s-114.5 -29.5 -176.5 -29.5
c-84 0 -157.667 14.167 -221 42.5s-116.166 67.166 -158.499 116.499s-74.333 107.166 -96 173.499s-32.5 137.5 -32.5 213.5v30c0 76 10.667 147.167 32 213.5s53.333 124.166 96 173.499s95.5 88.333 158.5 117s136.167 43 219.5 43c66.667 0 128.334 -10 185.001 -30
s105.5 -48.167 146.5 -84.5s72.833 -80.333 95.5 -132s33.334 -109.5 32.001 -173.5h-262c1.33301 26.667 -2.66699 52 -12 76s-23 44.667 -41 62s-39.667 31.166 -65 41.499s-53 15.5 -83 15.5c-44 0 -80.333 -9 -109 -27s-51.5 -42 -68.5 -72s-29 -64.333 -36 -103
s-10.5 -78.667 -10.5 -120v-30c0 -42 3.33301 -82.5 10 -121.5s18.5 -73.333 35.5 -103s40 -53.5 69 -71.5s65.833 -27 110.5 -27zM726.996 10.0039l-10.999 -56c18.667 -3.33301 37 -8.83301 55 -16.5s34 -18.334 48 -32.001s25.333 -30.667 34 -51s13 -44.833 13 -73.5
c0 -35.333 -7.33301 -67.333 -22 -96s-36.5 -53.167 -65.5 -73.5s-64.833 -36.166 -107.5 -47.499s-92.334 -17 -149.001 -17l-7 160c34 0 62.333 6.33301 85 19s34 34 34 64c0 28 -11.5 47.333 -34.5 58s-59.833 17.667 -110.5 21l31 141h207z" />
    <glyph glyph-name="egrave" unicode="&#xe8;" 
d="M666 -20c-83.333 0 -158.998 13.6719 -226.998 41.0049s-126.333 64.5 -175 111.5s-86.167 102.333 -112.5 166s-39.5 131.834 -39.5 204.501v40c0 82.667 13 158.167 39 226.5s62.333 127.166 109 176.499s102 87.666 166 114.999s133.667 41 209 41
c78 0 147.5 -12.833 208.5 -38.5s112.667 -61.834 155 -108.501s74.5 -102.834 96.5 -168.501s33 -138.167 33 -217.5v-118h-734c5.33301 -36.667 16.166 -70.167 32.499 -100.5s37.166 -56.5 62.499 -78.5s54.333 -39 87 -51s68.334 -18 107.001 -18
c27.333 0 54.5 2.66699 81.5 8s52.833 13.166 77.5 23.499s47.667 23.166 69 38.499s40 33.333 56 54l139 -150c-17.333 -24.667 -39.833 -48.834 -67.5 -72.501s-60.334 -44.667 -98.001 -63s-79.5 -33.166 -125.5 -44.499s-95.667 -17 -149 -17zM633.002 877.005
c-31.333 0 -60 -5.49902 -86 -16.499s-48.833 -26.833 -68.5 -47.5s-36.167 -45.334 -49.5 -74.001s-23.333 -60.667 -30 -96h456v22c-1.33301 29.333 -7 57 -17 83s-24.333 48.5 -43 67.5s-41.5 34 -68.5 45s-58.167 16.5 -93.5 16.5zM714.002 1226.01h-219l-264 279h306z
" />
    <glyph glyph-name="eacute" unicode="&#xe9;" 
d="M666 -20c-83.333 0 -158.998 13.6719 -226.998 41.0049s-126.333 64.5 -175 111.5s-86.167 102.333 -112.5 166s-39.5 131.834 -39.5 204.501v40c0 82.667 13 158.167 39 226.5s62.333 127.166 109 176.499s102 87.666 166 114.999s133.667 41 209 41
c78 0 147.5 -12.833 208.5 -38.5s112.667 -61.834 155 -108.501s74.5 -102.834 96.5 -168.501s33 -138.167 33 -217.5v-118h-734c5.33301 -36.667 16.166 -70.167 32.499 -100.5s37.166 -56.5 62.499 -78.5s54.333 -39 87 -51s68.334 -18 107.001 -18
c27.333 0 54.5 2.66699 81.5 8s52.833 13.166 77.5 23.499s47.667 23.166 69 38.499s40 33.333 56 54l139 -150c-17.333 -24.667 -39.833 -48.834 -67.5 -72.501s-60.334 -44.667 -98.001 -63s-79.5 -33.166 -125.5 -44.499s-95.667 -17 -149 -17zM633.002 877.005
c-31.333 0 -60 -5.49902 -86 -16.499s-48.833 -26.833 -68.5 -47.5s-36.167 -45.334 -49.5 -74.001s-23.333 -60.667 -30 -96h456v22c-1.33301 29.333 -7 57 -17 83s-24.333 48.5 -43 67.5s-41.5 34 -68.5 45s-58.167 16.5 -93.5 16.5zM671.002 1502.01h306l-277 -279h-216z
" />
    <glyph glyph-name="ecircumflex" unicode="&#xea;" 
d="M666 -20c-83.333 0 -158.998 13.6719 -226.998 41.0049s-126.333 64.5 -175 111.5s-86.167 102.333 -112.5 166s-39.5 131.834 -39.5 204.501v40c0 82.667 13 158.167 39 226.5s62.333 127.166 109 176.499s102 87.666 166 114.999s133.667 41 209 41
c78 0 147.5 -12.833 208.5 -38.5s112.667 -61.834 155 -108.501s74.5 -102.834 96.5 -168.501s33 -138.167 33 -217.5v-118h-734c5.33301 -36.667 16.166 -70.167 32.499 -100.5s37.166 -56.5 62.499 -78.5s54.333 -39 87 -51s68.334 -18 107.001 -18
c27.333 0 54.5 2.66699 81.5 8s52.833 13.166 77.5 23.499s47.667 23.166 69 38.499s40 33.333 56 54l139 -150c-17.333 -24.667 -39.833 -48.834 -67.5 -72.501s-60.334 -44.667 -98.001 -63s-79.5 -33.166 -125.5 -44.499s-95.667 -17 -149 -17zM633.002 877.005
c-31.333 0 -60 -5.49902 -86 -16.499s-48.833 -26.833 -68.5 -47.5s-36.167 -45.334 -49.5 -74.001s-23.333 -60.667 -30 -96h456v22c-1.33301 29.333 -7 57 -17 83s-24.333 48.5 -43 67.5s-41.5 34 -68.5 45s-58.167 16.5 -93.5 16.5zM976.002 1301.01v-28h-221l-154 127
l-153 -127h-217v30l290 241h161z" />
    <glyph glyph-name="edieresis" unicode="&#xeb;" 
d="M666 -20c-83.333 0 -158.998 13.6719 -226.998 41.0049s-126.333 64.5 -175 111.5s-86.167 102.333 -112.5 166s-39.5 131.834 -39.5 204.501v40c0 82.667 13 158.167 39 226.5s62.333 127.166 109 176.499s102 87.666 166 114.999s133.667 41 209 41
c78 0 147.5 -12.833 208.5 -38.5s112.667 -61.834 155 -108.501s74.5 -102.834 96.5 -168.501s33 -138.167 33 -217.5v-118h-734c5.33301 -36.667 16.166 -70.167 32.499 -100.5s37.166 -56.5 62.499 -78.5s54.333 -39 87 -51s68.334 -18 107.001 -18
c27.333 0 54.5 2.66699 81.5 8s52.833 13.166 77.5 23.499s47.667 23.166 69 38.499s40 33.333 56 54l139 -150c-17.333 -24.667 -39.833 -48.834 -67.5 -72.501s-60.334 -44.667 -98.001 -63s-79.5 -33.166 -125.5 -44.499s-95.667 -17 -149 -17zM633.002 877.005
c-31.333 0 -60 -5.49902 -86 -16.499s-48.833 -26.833 -68.5 -47.5s-36.167 -45.334 -49.5 -74.001s-23.333 -60.667 -30 -96h456v22c-1.33301 29.333 -7 57 -17 83s-24.333 48.5 -43 67.5s-41.5 34 -68.5 45s-58.167 16.5 -93.5 16.5zM220.002 1393.01
c0 17.333 3.33301 33.666 10 48.999s16 28.666 28 39.999s26.333 20.166 43 26.499s35 9.5 55 9.5s38.333 -3.16699 55 -9.5s31 -15.166 43 -26.499s21.333 -24.666 28 -39.999s10 -31.666 10 -48.999s-3.33301 -33.666 -10 -48.999s-16 -28.5 -28 -39.5
s-26.333 -19.667 -43 -26s-35 -9.5 -55 -9.5s-38.333 3.16699 -55 9.5s-31 15 -43 26s-21.333 24.167 -28 39.5s-10 31.666 -10 48.999zM700.002 1393.01c0 17.333 3.33301 33.666 10 48.999s16 28.5 28 39.5s26.333 19.667 43 26s35 9.5 55 9.5s38.333 -3.16699 55 -9.5
s31 -15 43 -26s21.333 -24.167 28 -39.5s10 -31.666 10 -48.999c0 -18 -3.33301 -34.667 -10 -50s-16 -28.666 -28 -39.999s-26.333 -20.166 -43 -26.499s-35 -9.5 -55 -9.5s-38.333 3.16699 -55 9.5s-31 15.166 -43 26.499s-21.333 24.666 -28 39.999s-10 32 -10 50z" />
    <glyph glyph-name="igrave" unicode="&#xec;" 
d="M199 1082h605v-856h310v-226h-915v226h324v629h-324v227zM780 1199h-219l-264 279h306z" />
    <glyph glyph-name="iacute" unicode="&#xed;" 
d="M199 1082h605v-856h310v-226h-915v226h324v629h-324v227zM737 1476h306l-277 -279h-216z" />
    <glyph glyph-name="icircumflex" unicode="&#xee;" 
d="M199 1082h605v-856h310v-226h-915v226h324v629h-324v227zM1042 1274v-28h-221l-154 127l-153 -127h-217v30l290 241h161z" />
    <glyph glyph-name="idieresis" unicode="&#xef;" 
d="M199 1082h605v-856h310v-226h-915v226h324v629h-324v227zM285 1366c0 17.333 3.33301 33.666 10 48.999s16 28.666 28 39.999s26.333 20.166 43 26.499s35 9.5 55 9.5s38.333 -3.16699 55 -9.5s31 -15.166 43 -26.499s21.333 -24.666 28 -39.999s10 -31.666 10 -48.999
s-3.33301 -33.666 -10 -48.999s-16 -28.5 -28 -39.5s-26.333 -19.667 -43 -26s-35 -9.5 -55 -9.5s-38.333 3.16699 -55 9.5s-31 15 -43 26s-21.333 24.167 -28 39.5s-10 31.666 -10 48.999zM765 1366c0 17.333 3.33301 33.666 10 48.999s16 28.5 28 39.5
s26.333 19.667 43 26s35 9.5 55 9.5s38.333 -3.16699 55 -9.5s31 -15 43 -26s21.333 -24.167 28 -39.5s10 -31.666 10 -48.999c0 -18 -3.33301 -34.667 -10 -50s-16 -28.666 -28 -39.999s-26.333 -20.166 -43 -26.499s-35 -9.5 -55 -9.5s-38.333 3.16699 -55 9.5
s-31 15.166 -43 26.499s-21.333 24.666 -28 39.999s-10 32 -10 50z" />
    <glyph glyph-name="eth" unicode="&#xf0;" 
d="M899 1264c63.333 -76.667 112.833 -166.665 148.5 -269.998s53.5 -219 53.5 -347v-68c0 -90 -13.833 -172 -41.5 -246s-65.834 -137.167 -114.501 -189.5s-106.167 -92.833 -172.5 -121.5s-137.833 -43 -214.5 -43c-77.333 0 -148 12.667 -212 38
s-118.833 60.166 -164.5 104.499s-81 96.166 -106 155.499s-37.5 123 -37.5 191c0 74.667 11.5 142.667 34.5 204s55.667 113.833 98 157.5s93.833 77.5 154.5 101.5s129 36 205 36c50 0 97.5 -7.66699 142.5 -23s85.5 -37 121.5 -65c-14 52.667 -32.333 100 -55 142
s-48.667 79.333 -78 112l-242 -133l-78 112l211 117c-22 14.667 -44.667 27.667 -68 39s-46.666 21.333 -69.999 30l88 217c111.333 -28 210.333 -78 297 -150l199 110l78 -113zM822 661.002c-10.667 12.667 -24.498 24.666 -41.498 35.999s-37 21.333 -60 30
s-49.167 15.5 -78.5 20.5s-62 7.5 -98 7.5s-68 -8 -96 -24s-51.833 -37.167 -71.5 -63.5s-34.667 -56.833 -45 -91.5s-15.5 -70.667 -15.5 -108c0 -36 5.5 -70 16.5 -102s27 -60.167 48 -84.5s46.667 -43.666 77 -57.999s65.166 -21.5 104.499 -21.5
c40 0 76.167 8.83301 108.5 26.5s59.666 42 81.999 73s39.5 68 51.5 111s18 90.167 18 141.5v95v12z" />
    <glyph glyph-name="ntilde" unicode="&#xf1;" 
d="M393 1082l17 -150.001c38.667 54 85.667 95.833 141 125.5s116.666 44.5 183.999 44.5c54.667 0 104.667 -8 150 -24s84.5 -41.5 117.5 -76.5s58.667 -80 77 -135s27.5 -121.833 27.5 -200.5v-666h-278v662c0 42.667 -4.83301 77.834 -14.5 105.501
s-23.5 49.5 -41.5 65.5s-39.667 27.167 -65 33.5s-54 9.5 -86 9.5c-47.333 0 -87.666 -9.5 -120.999 -28.5s-60.333 -45.167 -81 -78.5v-769h-279v1082h252zM971 1539c0 -30 -5.16602 -59.665 -15.499 -88.998s-25 -55.5 -44 -78.5s-41.667 -41.5 -68 -55.5
s-55.833 -21 -88.5 -21c-32 0 -59.833 4.5 -83.5 13.5s-46 19 -67 30s-41.833 21 -62.5 30s-44 13.5 -70 13.5c-24 0 -44.833 -8.66699 -62.5 -26s-26.5 -41.333 -26.5 -72l-140 30c0 29.333 5.16699 58.666 15.5 87.999s24.833 55.666 43.5 78.999s41.167 42.333 67.5 57
s55.833 22 88.5 22c26.667 0 51.667 -4.5 75 -13.5s46.166 -19 68.499 -30s44.833 -21 67.5 -30s46.667 -13.5 72 -13.5c24 0 45 8.5 63 25.5s27 40.833 27 71.5z" />
    <glyph glyph-name="ograve" unicode="&#xf2;" 
d="M103 551c0 78.667 11.333 151.5 34 218.5s55.834 125.167 99.501 174.5s97 88 160 116s135.167 42 216.5 42s153.666 -14 216.999 -42s116.833 -66.667 160.5 -116s76.834 -107.5 99.501 -174.5s34 -139.833 34 -218.5v-21c0 -79.333 -11.333 -152.5 -34 -219.5
s-55.667 -125.167 -99 -174.5s-96.666 -87.833 -159.999 -115.5s-135.333 -41.5 -216 -41.5c-81.333 0 -153.833 13.833 -217.5 41.5s-117.334 66.167 -161.001 115.5s-76.834 107.5 -99.501 174.5s-34 140.167 -34 219.5v21zM381 530
c0 -45.333 4.33105 -87.833 12.998 -127.5s22.334 -74.334 41.001 -104.001s42.834 -53.167 72.501 -70.5s65.5 -26 107.5 -26c40.667 0 75.667 8.66699 105 26s53.166 40.833 71.499 70.5s31.833 64.334 40.5 104.001s13 82.167 13 127.5v21c0 44 -4.33301 85.667 -13 125
s-22.167 74 -40.5 104s-42.166 53.667 -71.499 71s-65 26 -107 26c-41.333 0 -76.666 -8.66699 -105.999 -26s-53.333 -41 -72 -71s-32.334 -64.667 -41.001 -104s-13 -81 -13 -125v-21zM732.998 1225h-219l-264 279h306z" />
    <glyph glyph-name="oacute" unicode="&#xf3;" 
d="M103 551c0 78.667 11.333 151.5 34 218.5s55.834 125.167 99.501 174.5s97 88 160 116s135.167 42 216.5 42s153.666 -14 216.999 -42s116.833 -66.667 160.5 -116s76.834 -107.5 99.501 -174.5s34 -139.833 34 -218.5v-21c0 -79.333 -11.333 -152.5 -34 -219.5
s-55.667 -125.167 -99 -174.5s-96.666 -87.833 -159.999 -115.5s-135.333 -41.5 -216 -41.5c-81.333 0 -153.833 13.833 -217.5 41.5s-117.334 66.167 -161.001 115.5s-76.834 107.5 -99.501 174.5s-34 140.167 -34 219.5v21zM381 530
c0 -45.333 4.33105 -87.833 12.998 -127.5s22.334 -74.334 41.001 -104.001s42.834 -53.167 72.501 -70.5s65.5 -26 107.5 -26c40.667 0 75.667 8.66699 105 26s53.166 40.833 71.499 70.5s31.833 64.334 40.5 104.001s13 82.167 13 127.5v21c0 44 -4.33301 85.667 -13 125
s-22.167 74 -40.5 104s-42.166 53.667 -71.499 71s-65 26 -107 26c-41.333 0 -76.666 -8.66699 -105.999 -26s-53.333 -41 -72 -71s-32.334 -64.667 -41.001 -104s-13 -81 -13 -125v-21zM689.998 1501h306l-277 -279h-216z" />
    <glyph glyph-name="ocircumflex" unicode="&#xf4;" 
d="M103 551c0 78.667 11.333 151.5 34 218.5s55.834 125.167 99.501 174.5s97 88 160 116s135.167 42 216.5 42s153.666 -14 216.999 -42s116.833 -66.667 160.5 -116s76.834 -107.5 99.501 -174.5s34 -139.833 34 -218.5v-21c0 -79.333 -11.333 -152.5 -34 -219.5
s-55.667 -125.167 -99 -174.5s-96.666 -87.833 -159.999 -115.5s-135.333 -41.5 -216 -41.5c-81.333 0 -153.833 13.833 -217.5 41.5s-117.334 66.167 -161.001 115.5s-76.834 107.5 -99.501 174.5s-34 140.167 -34 219.5v21zM381 530
c0 -45.333 4.33105 -87.833 12.998 -127.5s22.334 -74.334 41.001 -104.001s42.834 -53.167 72.501 -70.5s65.5 -26 107.5 -26c40.667 0 75.667 8.66699 105 26s53.166 40.833 71.499 70.5s31.833 64.334 40.5 104.001s13 82.167 13 127.5v21c0 44 -4.33301 85.667 -13 125
s-22.167 74 -40.5 104s-42.166 53.667 -71.499 71s-65 26 -107 26c-41.333 0 -76.666 -8.66699 -105.999 -26s-53.333 -41 -72 -71s-32.334 -64.667 -41.001 -104s-13 -81 -13 -125v-21zM994.998 1300v-28h-221l-154 127l-153 -127h-217v30l290 241h161z" />
    <glyph glyph-name="otilde" unicode="&#xf5;" 
d="M103 551c0 78.667 11.333 151.5 34 218.5s55.834 125.167 99.501 174.5s97 88 160 116s135.167 42 216.5 42s153.666 -14 216.999 -42s116.833 -66.667 160.5 -116s76.834 -107.5 99.501 -174.5s34 -139.833 34 -218.5v-21c0 -79.333 -11.333 -152.5 -34 -219.5
s-55.667 -125.167 -99 -174.5s-96.666 -87.833 -159.999 -115.5s-135.333 -41.5 -216 -41.5c-81.333 0 -153.833 13.833 -217.5 41.5s-117.334 66.167 -161.001 115.5s-76.834 107.5 -99.501 174.5s-34 140.167 -34 219.5v21zM381 530
c0 -45.333 4.33105 -87.833 12.998 -127.5s22.334 -74.334 41.001 -104.001s42.834 -53.167 72.501 -70.5s65.5 -26 107.5 -26c40.667 0 75.667 8.66699 105 26s53.166 40.833 71.499 70.5s31.833 64.334 40.5 104.001s13 82.167 13 127.5v21c0 44 -4.33301 85.667 -13 125
s-22.167 74 -40.5 104s-42.166 53.667 -71.499 71s-65 26 -107 26c-41.333 0 -76.666 -8.66699 -105.999 -26s-53.333 -41 -72 -71s-32.334 -64.667 -41.001 -104s-13 -81 -13 -125v-21zM983.998 1539c0 -30 -5.16602 -59.665 -15.499 -88.998s-25 -55.5 -44 -78.5
s-41.667 -41.5 -68 -55.5s-55.833 -21 -88.5 -21c-32 0 -59.833 4.5 -83.5 13.5s-46 19 -67 30s-41.833 21 -62.5 30s-44 13.5 -70 13.5c-24 0 -44.833 -8.66699 -62.5 -26s-26.5 -41.333 -26.5 -72l-140 30c0 29.333 5.16699 58.666 15.5 87.999s24.833 55.666 43.5 78.999
s41.167 42.333 67.5 57s55.833 22 88.5 22c26.667 0 51.667 -4.5 75 -13.5s46.166 -19 68.499 -30s44.833 -21 67.5 -30s46.667 -13.5 72 -13.5c24 0 45 8.5 63 25.5s27 40.833 27 71.5z" />
    <glyph glyph-name="odieresis" unicode="&#xf6;" 
d="M103 551c0 78.667 11.333 151.5 34 218.5s55.834 125.167 99.501 174.5s97 88 160 116s135.167 42 216.5 42s153.666 -14 216.999 -42s116.833 -66.667 160.5 -116s76.834 -107.5 99.501 -174.5s34 -139.833 34 -218.5v-21c0 -79.333 -11.333 -152.5 -34 -219.5
s-55.667 -125.167 -99 -174.5s-96.666 -87.833 -159.999 -115.5s-135.333 -41.5 -216 -41.5c-81.333 0 -153.833 13.833 -217.5 41.5s-117.334 66.167 -161.001 115.5s-76.834 107.5 -99.501 174.5s-34 140.167 -34 219.5v21zM381 530
c0 -45.333 4.33105 -87.833 12.998 -127.5s22.334 -74.334 41.001 -104.001s42.834 -53.167 72.501 -70.5s65.5 -26 107.5 -26c40.667 0 75.667 8.66699 105 26s53.166 40.833 71.499 70.5s31.833 64.334 40.5 104.001s13 82.167 13 127.5v21c0 44 -4.33301 85.667 -13 125
s-22.167 74 -40.5 104s-42.166 53.667 -71.499 71s-65 26 -107 26c-41.333 0 -76.666 -8.66699 -105.999 -26s-53.333 -41 -72 -71s-32.334 -64.667 -41.001 -104s-13 -81 -13 -125v-21zM238.998 1392c0 17.333 3.33301 33.666 10 48.999s16 28.666 28 39.999
s26.333 20.166 43 26.499s35 9.5 55 9.5s38.333 -3.16699 55 -9.5s31 -15.166 43 -26.499s21.333 -24.666 28 -39.999s10 -31.666 10 -48.999s-3.33301 -33.666 -10 -48.999s-16 -28.5 -28 -39.5s-26.333 -19.667 -43 -26s-35 -9.5 -55 -9.5s-38.333 3.16699 -55 9.5
s-31 15 -43 26s-21.333 24.167 -28 39.5s-10 31.666 -10 48.999zM718.998 1392c0 17.333 3.33301 33.666 10 48.999s16 28.5 28 39.5s26.333 19.667 43 26s35 9.5 55 9.5s38.333 -3.16699 55 -9.5s31 -15 43 -26s21.333 -24.167 28 -39.5s10 -31.666 10 -48.999
c0 -18 -3.33301 -34.667 -10 -50s-16 -28.666 -28 -39.999s-26.333 -20.166 -43 -26.499s-35 -9.5 -55 -9.5s-38.333 3.16699 -55 9.5s-31 15.166 -43 26.499s-21.333 24.666 -28 39.999s-10 32 -10 50z" />
    <glyph glyph-name="divide" unicode="&#xf7;" 
d="M1132 573h-1024v227h1024v-227zM465 1089c0 40.667 13.667 74.334 41 101.001s64.333 40 111 40c47.333 0 84.666 -13.333 111.999 -40s41 -60.334 41 -101.001s-13.667 -74.334 -41 -101.001s-64.666 -40 -111.999 -40c-46.667 0 -83.667 13.333 -111 40
s-41 60.334 -41 101.001zM463 278c0 20 3.5 38.667 10.5 56s17.167 32.333 30.5 45s29.333 22.667 48 30s39.667 11 63 11c47.333 0 84.666 -13.5 111.999 -40.5s41 -60.833 41 -101.5s-13.667 -74.334 -41 -101.001s-64.666 -40 -111.999 -40
c-46.667 0 -83.667 13.333 -111 40s-41 60.334 -41 101.001z" />
    <glyph glyph-name="oslash" unicode="&#xf8;" 
d="M103 551c0 78.667 11.3311 151.5 33.998 218.5s55.834 125.167 99.501 174.5s97 88 160 116s135.167 42 216.5 42c69.333 0 133 -10.667 191 -32l71 145h157l-104 -213c64 -49.333 112.667 -112.833 146 -190.5s50 -164.5 50 -260.5v-21
c0 -79.333 -11.333 -152.5 -34 -219.5s-55.667 -125.167 -99 -174.5s-96.666 -87.833 -159.999 -115.5s-135.333 -41.5 -216 -41.5c-62.667 0 -121 8.66699 -175 26l-71 -146h-157l102 208c-68.667 48 -121 112.167 -157 192.5s-54 170.5 -54 270.5v21zM380.998 530
c0 -44 3.83301 -85.168 11.5 -123.501s20.167 -72.166 37.5 -101.499l271 555c-26 11.333 -55.333 17 -88 17c-41.333 0 -76.666 -8.66699 -105.999 -26s-53.333 -41 -72 -71s-32.334 -64.667 -41.001 -104s-13 -81 -13 -125v-21zM844.998 550.999
c0 38 -3.16602 74.166 -9.49902 108.499s-16.166 65.5 -29.499 93.5l-264 -540c23.333 -7.33301 47.666 -11 72.999 -11c40.667 0 75.667 8.66699 105 26s53.166 40.833 71.499 70.5s31.833 64.334 40.5 104.001s13 82.167 13 127.5v21z" />
    <glyph glyph-name="ugrave" unicode="&#xf9;" 
d="M831 152c-36.667 -54 -80.835 -96.333 -132.502 -127s-108.167 -46 -169.5 -46c-56 0 -107.333 8.66699 -154 26s-86.667 44.833 -120 82.5s-59.166 85.667 -77.499 144s-27.5 128.5 -27.5 210.5v640h278v-642c0 -44 3.16699 -81 9.5 -111s16.5 -54.167 30.5 -72.5
s32.333 -31.5 55 -39.5s50.334 -12 83.001 -12c55.333 0 100.333 10.5 135 31.5s61 49.833 79 86.5v759h279v-1082h-252zM734.999 1204h-219l-264 279h306z" />
    <glyph glyph-name="uacute" unicode="&#xfa;" 
d="M831 152c-36.667 -54 -80.835 -96.333 -132.502 -127s-108.167 -46 -169.5 -46c-56 0 -107.333 8.66699 -154 26s-86.667 44.833 -120 82.5s-59.166 85.667 -77.499 144s-27.5 128.5 -27.5 210.5v640h278v-642c0 -44 3.16699 -81 9.5 -111s16.5 -54.167 30.5 -72.5
s32.333 -31.5 55 -39.5s50.334 -12 83.001 -12c55.333 0 100.333 10.5 135 31.5s61 49.833 79 86.5v759h279v-1082h-252zM691.999 1480h306l-277 -279h-216z" />
    <glyph glyph-name="ucircumflex" unicode="&#xfb;" 
d="M831 152c-36.667 -54 -80.835 -96.333 -132.502 -127s-108.167 -46 -169.5 -46c-56 0 -107.333 8.66699 -154 26s-86.667 44.833 -120 82.5s-59.166 85.667 -77.499 144s-27.5 128.5 -27.5 210.5v640h278v-642c0 -44 3.16699 -81 9.5 -111s16.5 -54.167 30.5 -72.5
s32.333 -31.5 55 -39.5s50.334 -12 83.001 -12c55.333 0 100.333 10.5 135 31.5s61 49.833 79 86.5v759h279v-1082h-252zM996.999 1279v-28h-221l-154 127l-153 -127h-217v30l290 241h161z" />
    <glyph glyph-name="udieresis" unicode="&#xfc;" 
d="M831 152c-36.667 -54 -80.835 -96.333 -132.502 -127s-108.167 -46 -169.5 -46c-56 0 -107.333 8.66699 -154 26s-86.667 44.833 -120 82.5s-59.166 85.667 -77.499 144s-27.5 128.5 -27.5 210.5v640h278v-642c0 -44 3.16699 -81 9.5 -111s16.5 -54.167 30.5 -72.5
s32.333 -31.5 55 -39.5s50.334 -12 83.001 -12c55.333 0 100.333 10.5 135 31.5s61 49.833 79 86.5v759h279v-1082h-252zM240.999 1371c0 17.333 3.33301 33.666 10 48.999s16 28.666 28 39.999s26.333 20.166 43 26.499s35 9.5 55 9.5s38.333 -3.16699 55 -9.5
s31 -15.166 43 -26.499s21.333 -24.666 28 -39.999s10 -31.666 10 -48.999s-3.33301 -33.666 -10 -48.999s-16 -28.5 -28 -39.5s-26.333 -19.667 -43 -26s-35 -9.5 -55 -9.5s-38.333 3.16699 -55 9.5s-31 15 -43 26s-21.333 24.167 -28 39.5s-10 31.666 -10 48.999z
M720.999 1371c0 17.333 3.33301 33.666 10 48.999s16 28.5 28 39.5s26.333 19.667 43 26s35 9.5 55 9.5s38.333 -3.16699 55 -9.5s31 -15 43 -26s21.333 -24.167 28 -39.5s10 -31.666 10 -48.999c0 -18 -3.33301 -34.667 -10 -50s-16 -28.666 -28 -39.999
s-26.333 -20.166 -43 -26.499s-35 -9.5 -55 -9.5s-38.333 3.16699 -55 9.5s-31 15.166 -43 26.499s-21.333 24.666 -28 39.999s-10 32 -10 50z" />
    <glyph glyph-name="yacute" unicode="&#xfd;" 
d="M602 454l31.998 -115.999l288 744h307l-549 -1244c-12 -27.333 -27.5 -57 -46.5 -89s-42.833 -61.667 -71.5 -89s-63.5 -50.333 -104.5 -69s-89.5 -28 -145.5 -28c-13.333 0 -25.666 0.5 -36.999 1.5s-22.333 2.33301 -33 4s-21.167 3.66699 -31.5 6
s-21.5 5.16602 -33.5 8.49902l34 212c11.333 0 25.833 -0.5 43.5 -1.5s31.834 -1.5 42.501 -1.5c22 0 41.5 6.66699 58.5 20s31.5 28 43.5 44s21.667 30.667 29 44s12.333 20 15 20l67 126l-458 1036h304zM715.998 1480h306l-277 -279h-216z" />
    <glyph glyph-name="thorn" unicode="&#xfe;" 
d="M1113 531c0 -78.667 -9.16992 -151.668 -27.5029 -219.001s-45.333 -125.5 -81 -174.5s-79.667 -87.5 -132 -115.5s-112.5 -42 -180.5 -42c-58.667 0 -110 10 -154 30s-82.333 48.333 -115 85v-511h-278v1959h278v-556c32.667 36.667 70.834 65 114.501 85
s94.5 30 152.5 30c68.667 0 129.334 -13.167 182.001 -39.5s96.834 -63.666 132.501 -111.999s62.667 -106.333 81 -174s27.5 -142.5 27.5 -224.5v-21zM834.997 551.999c0 45.333 -4.16797 87.832 -12.501 127.499s-21.166 74 -38.499 103s-40 51.833 -68 68.5
s-61.333 25 -100 25c-48.667 0 -88.667 -9.5 -120 -28.5s-55.666 -46.167 -72.999 -81.5v-450c17.333 -34.667 41.666 -62.167 72.999 -82.5s72 -30.5 122 -30.5c39.333 0 72.833 8.66699 100.5 26s50.167 41 67.5 71s29.833 64.833 37.5 104.5s11.5 81.834 11.5 126.501v21
z" />
    <glyph glyph-name="ydieresis" unicode="&#xff;" 
d="M602 454l31.998 -115.999l288 744h307l-549 -1244c-12 -27.333 -27.5 -57 -46.5 -89s-42.833 -61.667 -71.5 -89s-63.5 -50.333 -104.5 -69s-89.5 -28 -145.5 -28c-13.333 0 -25.666 0.5 -36.999 1.5s-22.333 2.33301 -33 4s-21.167 3.66699 -31.5 6
s-21.5 5.16602 -33.5 8.49902l34 212c11.333 0 25.833 -0.5 43.5 -1.5s31.834 -1.5 42.501 -1.5c22 0 41.5 6.66699 58.5 20s31.5 28 43.5 44s21.667 30.667 29 44s12.333 20 15 20l67 126l-458 1036h304zM264.998 1371c0 17.333 3.33301 33.666 10 48.999
s16 28.666 28 39.999s26.333 20.166 43 26.499s35 9.5 55 9.5s38.333 -3.16699 55 -9.5s31 -15.166 43 -26.499s21.333 -24.666 28 -39.999s10 -31.666 10 -48.999s-3.33301 -33.666 -10 -48.999s-16 -28.5 -28 -39.5s-26.333 -19.667 -43 -26s-35 -9.5 -55 -9.5
s-38.333 3.16699 -55 9.5s-31 15 -43 26s-21.333 24.167 -28 39.5s-10 31.666 -10 48.999zM744.998 1371c0 17.333 3.33301 33.666 10 48.999s16 28.5 28 39.5s26.333 19.667 43 26s35 9.5 55 9.5s38.333 -3.16699 55 -9.5s31 -15 43 -26s21.333 -24.167 28 -39.5
s10 -31.666 10 -48.999c0 -18 -3.33301 -34.667 -10 -50s-16 -28.666 -28 -39.999s-26.333 -20.166 -43 -26.499s-35 -9.5 -55 -9.5s-38.333 3.16699 -55 9.5s-31 15.166 -43 26.499s-21.333 24.666 -28 39.999s-10 32 -10 50z" />
    <glyph glyph-name="Amacron" unicode="&#x100;" 
d="M847 304h-437l-86 -304h-296l477 1456h255l468 -1456h-296zM479 543h302l-149 536zM1001 1614h-730v164h730v-164z" />
    <glyph glyph-name="amacron" unicode="&#x101;" 
d="M817 0c-6.66699 13.333 -12.333 28.6699 -17 46.0029s-8.66699 35.666 -12 54.999c-15.333 -16.667 -33 -32.334 -53 -47.001s-42.167 -27.5 -66.5 -38.5s-51.166 -19.667 -80.499 -26s-61 -9.5 -95 -9.5c-55.333 0 -106.166 8 -152.499 24s-86.166 38.333 -119.499 67
s-59.333 62.834 -78 102.501s-28 82.834 -28 129.501c0 114 42.5 202.167 127.5 264.5s211.833 93.5 380.5 93.5h155v64c0 52 -17 93.167 -51 123.5s-83 45.5 -147 45.5c-56.667 0 -98 -12.167 -124 -36.5s-39 -56.833 -39 -97.5h-278c0 46 10.167 89.667 30.5 131
s50 77.666 89 108.999s86.667 56.166 143 74.499s120.833 27.5 193.5 27.5c65.333 0 126.166 -8 182.499 -24s105.166 -39.667 146.499 -71s73.666 -70.833 96.999 -118.5s35 -102.834 35 -165.501v-464c0 -58 3.66699 -106 11 -144s18 -70.667 32 -98v-17h-282z
M552.001 195.004c28 0 54 3.33105 78 9.99805s45.667 15.334 65 26.001s36 22.834 50 36.501s25 27.5 33 41.5v186h-142c-43.333 0 -80.333 -4.16699 -111 -12.5s-55.667 -20 -75 -35s-33.666 -33 -42.999 -54s-14 -43.833 -14 -68.5c0 -37.333 13.167 -68.333 39.5 -93
s66.166 -37 119.499 -37zM964.001 1292h-730v164h730v-164z" />
    <glyph glyph-name="Abreve" unicode="&#x102;" 
d="M847 304h-437l-86 -304h-296l477 1456h255l468 -1456h-296zM479 543h302l-149 536zM974 1857c0 -43.333 -7.83105 -83 -23.498 -119s-38.334 -66.833 -68.001 -92.5s-65.5 -45.667 -107.5 -60s-89 -21.5 -141 -21.5c-52.667 0 -100 7.16699 -142 21.5
s-77.833 34.333 -107.5 60s-52.334 56.5 -68.001 92.5s-23.5 75.667 -23.5 119h200c0 -17.333 2.5 -34.166 7.5 -50.499s13.167 -30.666 24.5 -42.999s25.833 -22.166 43.5 -29.499s39.5 -11 65.5 -11c25.333 0 46.833 3.66699 64.5 11s32 17.166 43 29.499
s19 26.666 24 42.999s7.5 33.166 7.5 50.499h201z" />
    <glyph glyph-name="abreve" unicode="&#x103;" 
d="M817 0c-6.66699 13.333 -12.333 28.6699 -17 46.0029s-8.66699 35.666 -12 54.999c-15.333 -16.667 -33 -32.334 -53 -47.001s-42.167 -27.5 -66.5 -38.5s-51.166 -19.667 -80.499 -26s-61 -9.5 -95 -9.5c-55.333 0 -106.166 8 -152.499 24s-86.166 38.333 -119.499 67
s-59.333 62.834 -78 102.501s-28 82.834 -28 129.501c0 114 42.5 202.167 127.5 264.5s211.833 93.5 380.5 93.5h155v64c0 52 -17 93.167 -51 123.5s-83 45.5 -147 45.5c-56.667 0 -98 -12.167 -124 -36.5s-39 -56.833 -39 -97.5h-278c0 46 10.167 89.667 30.5 131
s50 77.666 89 108.999s86.667 56.166 143 74.499s120.833 27.5 193.5 27.5c65.333 0 126.166 -8 182.499 -24s105.166 -39.667 146.499 -71s73.666 -70.833 96.999 -118.5s35 -102.834 35 -165.501v-464c0 -58 3.66699 -106 11 -144s18 -70.667 32 -98v-17h-282z
M552.001 195.004c28 0 54 3.33105 78 9.99805s45.667 15.334 65 26.001s36 22.834 50 36.501s25 27.5 33 41.5v186h-142c-43.333 0 -80.333 -4.16699 -111 -12.5s-55.667 -20 -75 -35s-33.666 -33 -42.999 -54s-14 -43.833 -14 -68.5c0 -37.333 13.167 -68.333 39.5 -93
s66.166 -37 119.499 -37zM938.001 1535c0 -43.333 -7.83105 -83 -23.498 -119s-38.334 -66.833 -68.001 -92.5s-65.5 -45.667 -107.5 -60s-89 -21.5 -141 -21.5c-52.667 0 -100 7.16699 -142 21.5s-77.833 34.333 -107.5 60s-52.334 56.5 -68.001 92.5
s-23.5 75.667 -23.5 119h200c0 -17.333 2.5 -34.166 7.5 -50.499s13.167 -30.666 24.5 -42.999s25.833 -22.166 43.5 -29.499s39.5 -11 65.5 -11c25.333 0 46.833 3.66699 64.5 11s32 17.166 43 29.499s19 26.666 24 42.999s7.5 33.166 7.5 50.499h201z" />
    <glyph glyph-name="Aogonek" unicode="&#x104;" 
d="M760 1456l468.003 -1456h-69c-30 -12 -55 -24.667 -75 -38s-36 -27.333 -48 -42s-20.5 -30.167 -25.5 -46.5s-7.5 -33.5 -7.5 -51.5c0 -19.333 5 -35.5 15 -48.5s27.333 -19.5 52 -19.5c19.333 0 35.666 2.33301 48.999 7s24.666 9 33.999 13l47 -154
c-18.667 -10 -42.834 -19.833 -72.501 -29.5s-67.5 -14.5 -113.5 -14.5c-30.667 0 -59.5 4.5 -86.5 13.5s-50.5 22.167 -70.5 39.5s-35.833 38.833 -47.5 64.5s-17.5 55.5 -17.5 89.5c0 40.667 11.333 81.167 34 121.5s56.667 76.833 102 109.5l-81 290h-437l-86 -304h-296
l477 1456h255zM479.003 543h302l-149 536z" />
    <glyph glyph-name="aogonek" unicode="&#x105;" 
d="M812 10c-5.33301 12.667 -9.83008 26.6699 -13.4971 42.0029s-7.16699 31.666 -10.5 48.999c-15.333 -16.667 -33 -32.334 -53 -47.001s-42.167 -27.5 -66.5 -38.5s-51.166 -19.667 -80.499 -26s-61 -9.5 -95 -9.5c-55.333 0 -106.166 8 -152.499 24
s-86.166 38.333 -119.499 67s-59.333 62.834 -78 102.501s-28 82.834 -28 129.501c0 114 42.5 202.167 127.5 264.5s211.833 93.5 380.5 93.5h155v64c0 52 -17 93.167 -51 123.5s-83 45.5 -147 45.5c-56.667 0 -98 -12.167 -124 -36.5s-39 -56.833 -39 -97.5h-278
c0 46 10.167 89.667 30.5 131s50 77.666 89 108.999s86.667 56.166 143 74.499s120.833 27.5 193.5 27.5c65.333 0 126.166 -8 182.499 -24s105.166 -39.667 146.499 -71s73.666 -70.833 96.999 -118.5s35 -102.834 35 -165.501v-464c0 -58 3.66699 -106 11 -144
s18 -70.667 32 -98v-17h-51c-30 -12 -55 -24.667 -75 -38s-36 -27.333 -48 -42s-20.5 -30.167 -25.5 -46.5s-7.5 -33.5 -7.5 -51.5c0 -19.333 5 -35.5 15 -48.5s27.333 -19.5 52 -19.5c19.333 0 35.666 2.33301 48.999 7s24.666 9 33.999 13l47 -154
c-18.667 -10 -42.834 -19.833 -72.501 -29.5s-67.5 -14.5 -113.5 -14.5c-30.667 0 -59.5 4.5 -86.5 13.5s-50.5 22.167 -70.5 39.5s-35.833 38.833 -47.5 64.5s-17.5 55.5 -17.5 89.5c0 40 11 79.833 33 119.5s54.667 75.5 98 107.5zM552.003 195.003
c28 0 54 3.33105 78 9.99805s45.667 15.334 65 26.001s36 22.834 50 36.501s25 27.5 33 41.5v186h-142c-43.333 0 -80.333 -4.16699 -111 -12.5s-55.667 -20 -75 -35s-33.666 -33 -42.999 -54s-14 -43.833 -14 -68.5c0 -37.333 13.167 -68.333 39.5 -93
s66.166 -37 119.499 -37z" />
    <glyph glyph-name="Cacute" unicode="&#x106;" 
d="M1142 456c-4.66699 -73.333 -20.499 -139.335 -47.499 -198.002s-63.167 -108.667 -108.5 -150s-99.333 -73.166 -162 -95.499s-132 -33.5 -208 -33.5c-86 0 -162.333 15.833 -229 47.5s-122.667 76 -168 133s-80 125.5 -104 205.5s-36 168 -36 264v196
c0 96.667 12.667 185 38 265s61.333 148.667 108 206s103.167 101.833 169.5 133.5s140.833 47.5 223.5 47.5c80 0 151.167 -11.333 213.5 -34s115.5 -55 159.5 -97s78.667 -93.333 104 -154s41.333 -129 48 -205h-280c-2.66699 43.333 -9.16699 81.333 -19.5 114
s-25.333 59.834 -45 81.501s-44.334 38 -74.001 49s-65.167 16.5 -106.5 16.5c-43.333 0 -81 -9.33301 -113 -28s-58.5 -46 -79.5 -82s-36.5 -80.167 -46.5 -132.5s-15 -111.833 -15 -178.5v-198c0 -143.333 20.167 -249.333 60.5 -318s104.166 -103 191.499 -103
c73.333 0 131.333 19.5 174 58.5s66.334 102.167 71.001 189.5h281zM753.001 1822h306l-277 -279h-216z" />
    <glyph glyph-name="cacute" unicode="&#x107;" 
d="M620 202c27.333 0 53.3291 4.00391 77.9961 12.0039s46.334 19.333 65.001 34s33.167 32.334 43.5 53.001s14.833 43.667 13.5 69h262c1.33301 -56 -10.167 -108 -34.5 -156s-57.5 -89.333 -99.5 -124s-90.833 -61.834 -146.5 -81.501s-114.5 -29.5 -176.5 -29.5
c-84 0 -157.667 14.167 -221 42.5s-116.166 67.166 -158.499 116.499s-74.333 107.166 -96 173.499s-32.5 137.5 -32.5 213.5v30c0 76 10.667 147.167 32 213.5s53.333 124.166 96 173.499s95.5 88.333 158.5 117s136.167 43 219.5 43c66.667 0 128.334 -10 185.001 -30
s105.5 -48.167 146.5 -84.5s72.833 -80.333 95.5 -132s33.334 -109.5 32.001 -173.5h-262c1.33301 26.667 -2.66699 52 -12 76s-23 44.667 -41 62s-39.667 31.166 -65 41.499s-53 15.5 -83 15.5c-44 0 -80.333 -9 -109 -27s-51.5 -42 -68.5 -72s-29 -64.333 -36 -103
s-10.5 -78.667 -10.5 -120v-30c0 -42 3.33301 -82.5 10 -121.5s18.5 -73.333 35.5 -103s40 -53.5 69 -71.5s65.833 -27 110.5 -27zM697.996 1501h306l-277 -279h-216z" />
    <glyph glyph-name="Ccircumflex" unicode="&#x108;" 
d="M1142 456c-4.66699 -73.333 -20.499 -139.335 -47.499 -198.002s-63.167 -108.667 -108.5 -150s-99.333 -73.166 -162 -95.499s-132 -33.5 -208 -33.5c-86 0 -162.333 15.833 -229 47.5s-122.667 76 -168 133s-80 125.5 -104 205.5s-36 168 -36 264v196
c0 96.667 12.667 185 38 265s61.333 148.667 108 206s103.167 101.833 169.5 133.5s140.833 47.5 223.5 47.5c80 0 151.167 -11.333 213.5 -34s115.5 -55 159.5 -97s78.667 -93.333 104 -154s41.333 -129 48 -205h-280c-2.66699 43.333 -9.16699 81.333 -19.5 114
s-25.333 59.834 -45 81.501s-44.334 38 -74.001 49s-65.167 16.5 -106.5 16.5c-43.333 0 -81 -9.33301 -113 -28s-58.5 -46 -79.5 -82s-36.5 -80.167 -46.5 -132.5s-15 -111.833 -15 -178.5v-198c0 -143.333 20.167 -249.333 60.5 -318s104.166 -103 191.499 -103
c73.333 0 131.333 19.5 174 58.5s66.334 102.167 71.001 189.5h281zM1058 1621v-28h-221l-154 127l-153 -127h-217v30l290 241h161z" />
    <glyph glyph-name="ccircumflex" unicode="&#x109;" 
d="M620 202c27.333 0 53.3291 4.00391 77.9961 12.0039s46.334 19.333 65.001 34s33.167 32.334 43.5 53.001s14.833 43.667 13.5 69h262c1.33301 -56 -10.167 -108 -34.5 -156s-57.5 -89.333 -99.5 -124s-90.833 -61.834 -146.5 -81.501s-114.5 -29.5 -176.5 -29.5
c-84 0 -157.667 14.167 -221 42.5s-116.166 67.166 -158.499 116.499s-74.333 107.166 -96 173.499s-32.5 137.5 -32.5 213.5v30c0 76 10.667 147.167 32 213.5s53.333 124.166 96 173.499s95.5 88.333 158.5 117s136.167 43 219.5 43c66.667 0 128.334 -10 185.001 -30
s105.5 -48.167 146.5 -84.5s72.833 -80.333 95.5 -132s33.334 -109.5 32.001 -173.5h-262c1.33301 26.667 -2.66699 52 -12 76s-23 44.667 -41 62s-39.667 31.166 -65 41.499s-53 15.5 -83 15.5c-44 0 -80.333 -9 -109 -27s-51.5 -42 -68.5 -72s-29 -64.333 -36 -103
s-10.5 -78.667 -10.5 -120v-30c0 -42 3.33301 -82.5 10 -121.5s18.5 -73.333 35.5 -103s40 -53.5 69 -71.5s65.833 -27 110.5 -27zM1003 1300v-28h-221l-154 127l-153 -127h-217v30l290 241h161z" />
    <glyph glyph-name="uni010A" unicode="&#x10a;" 
d="M1142 456c-4.66699 -73.333 -20.499 -139.335 -47.499 -198.002s-63.167 -108.667 -108.5 -150s-99.333 -73.166 -162 -95.499s-132 -33.5 -208 -33.5c-86 0 -162.333 15.833 -229 47.5s-122.667 76 -168 133s-80 125.5 -104 205.5s-36 168 -36 264v196
c0 96.667 12.667 185 38 265s61.333 148.667 108 206s103.167 101.833 169.5 133.5s140.833 47.5 223.5 47.5c80 0 151.167 -11.333 213.5 -34s115.5 -55 159.5 -97s78.667 -93.333 104 -154s41.333 -129 48 -205h-280c-2.66699 43.333 -9.16699 81.333 -19.5 114
s-25.333 59.834 -45 81.501s-44.334 38 -74.001 49s-65.167 16.5 -106.5 16.5c-43.333 0 -81 -9.33301 -113 -28s-58.5 -46 -79.5 -82s-36.5 -80.167 -46.5 -132.5s-15 -111.833 -15 -178.5v-198c0 -143.333 20.167 -249.333 60.5 -318s104.166 -103 191.499 -103
c73.333 0 131.333 19.5 174 58.5s66.334 102.167 71.001 189.5h281zM531.001 1727c0 40.667 13.333 74.167 40 100.5s63.334 39.5 110.001 39.5s83.334 -13.167 110.001 -39.5s40 -59.833 40 -100.5c0 -40 -13.333 -73.167 -40 -99.5s-63.334 -39.5 -110.001 -39.5
s-83.334 13.167 -110.001 39.5s-40 59.5 -40 99.5z" />
    <glyph glyph-name="uni010B" unicode="&#x10b;" 
d="M620 202c27.333 0 53.3291 4.00391 77.9961 12.0039s46.334 19.333 65.001 34s33.167 32.334 43.5 53.001s14.833 43.667 13.5 69h262c1.33301 -56 -10.167 -108 -34.5 -156s-57.5 -89.333 -99.5 -124s-90.833 -61.834 -146.5 -81.501s-114.5 -29.5 -176.5 -29.5
c-84 0 -157.667 14.167 -221 42.5s-116.166 67.166 -158.499 116.499s-74.333 107.166 -96 173.499s-32.5 137.5 -32.5 213.5v30c0 76 10.667 147.167 32 213.5s53.333 124.166 96 173.499s95.5 88.333 158.5 117s136.167 43 219.5 43c66.667 0 128.334 -10 185.001 -30
s105.5 -48.167 146.5 -84.5s72.833 -80.333 95.5 -132s33.334 -109.5 32.001 -173.5h-262c1.33301 26.667 -2.66699 52 -12 76s-23 44.667 -41 62s-39.667 31.166 -65 41.499s-53 15.5 -83 15.5c-44 0 -80.333 -9 -109 -27s-51.5 -42 -68.5 -72s-29 -64.333 -36 -103
s-10.5 -78.667 -10.5 -120v-30c0 -42 3.33301 -82.5 10 -121.5s18.5 -73.333 35.5 -103s40 -53.5 69 -71.5s65.833 -27 110.5 -27zM475.996 1406c0 40.667 13.333 74.167 40 100.5s63.334 39.5 110.001 39.5s83.334 -13.167 110.001 -39.5s40 -59.833 40 -100.5
c0 -40 -13.333 -73.167 -40 -99.5s-63.334 -39.5 -110.001 -39.5s-83.334 13.167 -110.001 39.5s-40 59.5 -40 99.5z" />
    <glyph glyph-name="Ccaron" unicode="&#x10c;" 
d="M1142 456c-4.66699 -73.333 -20.499 -139.335 -47.499 -198.002s-63.167 -108.667 -108.5 -150s-99.333 -73.166 -162 -95.499s-132 -33.5 -208 -33.5c-86 0 -162.333 15.833 -229 47.5s-122.667 76 -168 133s-80 125.5 -104 205.5s-36 168 -36 264v196
c0 96.667 12.667 185 38 265s61.333 148.667 108 206s103.167 101.833 169.5 133.5s140.833 47.5 223.5 47.5c80 0 151.167 -11.333 213.5 -34s115.5 -55 159.5 -97s78.667 -93.333 104 -154s41.333 -129 48 -205h-280c-2.66699 43.333 -9.16699 81.333 -19.5 114
s-25.333 59.834 -45 81.501s-44.334 38 -74.001 49s-65.167 16.5 -106.5 16.5c-43.333 0 -81 -9.33301 -113 -28s-58.5 -46 -79.5 -82s-36.5 -80.167 -46.5 -132.5s-15 -111.833 -15 -178.5v-198c0 -143.333 20.167 -249.333 60.5 -318s104.166 -103 191.499 -103
c73.333 0 131.333 19.5 174 58.5s66.334 102.167 71.001 189.5h281zM682.001 1739l147 126h237v-19l-296 -253h-175l-296 252v20h237z" />
    <glyph glyph-name="ccaron" unicode="&#x10d;" 
d="M620 202c27.333 0 53.3291 4.00391 77.9961 12.0039s46.334 19.333 65.001 34s33.167 32.334 43.5 53.001s14.833 43.667 13.5 69h262c1.33301 -56 -10.167 -108 -34.5 -156s-57.5 -89.333 -99.5 -124s-90.833 -61.834 -146.5 -81.501s-114.5 -29.5 -176.5 -29.5
c-84 0 -157.667 14.167 -221 42.5s-116.166 67.166 -158.499 116.499s-74.333 107.166 -96 173.499s-32.5 137.5 -32.5 213.5v30c0 76 10.667 147.167 32 213.5s53.333 124.166 96 173.499s95.5 88.333 158.5 117s136.167 43 219.5 43c66.667 0 128.334 -10 185.001 -30
s105.5 -48.167 146.5 -84.5s72.833 -80.333 95.5 -132s33.334 -109.5 32.001 -173.5h-262c1.33301 26.667 -2.66699 52 -12 76s-23 44.667 -41 62s-39.667 31.166 -65 41.499s-53 15.5 -83 15.5c-44 0 -80.333 -9 -109 -27s-51.5 -42 -68.5 -72s-29 -64.333 -36 -103
s-10.5 -78.667 -10.5 -120v-30c0 -42 3.33301 -82.5 10 -121.5s18.5 -73.333 35.5 -103s40 -53.5 69 -71.5s65.833 -27 110.5 -27zM627.996 1418l147 126h237v-19l-296 -253h-175l-296 252v20h237z" />
    <glyph glyph-name="Dcaron" unicode="&#x10e;" 
d="M125 0l0.00195312 1456h377c96.667 0 184.167 -16.5 262.5 -49.5s145.333 -79 201 -138s98.667 -129.5 129 -211.5s45.5 -172 45.5 -270v-120c0 -98 -15.167 -187.833 -45.5 -269.5s-72.833 -152 -127.5 -211s-120.334 -104.833 -197.001 -137.5
s-161.334 -49 -254.001 -49h-391zM408.002 1228v-1002h108c52.667 0 99.834 10 141.501 30s77 49 106 87s51.167 84.167 66.5 138.5s23 116.166 23 185.499v122c0 65.333 -7.5 124.833 -22.5 178.5s-37.333 99.834 -67 138.501s-66.334 68.667 -110.001 90
s-94.167 32 -151.5 32h-94zM538.002 1731l147 126h237v-19l-296 -253h-175l-296 252v20h237z" />
    <glyph glyph-name="dcaron" unicode="&#x10f;" horiz-adv-x="1379" 
d="M112 549c0 82 9.49902 156.997 28.499 224.997s46.833 126.333 83.5 175s81.167 86.334 133.5 113.001s112.166 40 179.499 40c56.667 0 106.5 -10.167 149.5 -30.5s81.167 -49.166 114.5 -86.499v551h279v-1536h-251l-14 113c-34 -42 -74 -74.667 -120 -98
s-99.333 -35 -160 -35c-66 0 -125.167 13.833 -177.5 41.5s-96.666 65.834 -132.999 114.501s-64.166 106.5 -83.499 173.5s-29 139.833 -29 218.5v21zM389.999 527.997c0 -45.333 3.83301 -87.499 11.5 -126.499s20.167 -73 37.5 -102s39.666 -51.833 66.999 -68.5
s60.666 -25 99.999 -25c48 0 87.833 10.333 119.5 31s56.834 49 75.501 85v438c-18.667 36.667 -43.667 65.167 -75 85.5s-70.666 30.5 -117.999 30.5c-39.333 0 -72.833 -8.5 -100.5 -25.5s-50.167 -40.333 -67.5 -70s-30 -64.334 -38 -104.001s-12 -82.167 -12 -127.5v-21
zM1568 1387c0 -34 -4.66602 -69.168 -13.999 -105.501s-22.333 -71.666 -39 -105.999s-36 -67 -58 -98s-46 -58.167 -72 -81.5l-127 79c25.333 43.333 46.166 90 62.499 140s24.5 107.333 24.5 172v173h223v-173z" />
    <glyph glyph-name="Dcroat" unicode="&#x110;" horiz-adv-x="1259" 
d="M155 0l0.00195312 643h-182v180h182v633h377c96.667 0 184.167 -16.5 262.5 -49.5s145.333 -79 201 -138s98.667 -129.5 129 -211.5s45.5 -172 45.5 -270v-120c0 -98 -15.167 -187.833 -45.5 -269.5s-72.833 -152 -127.5 -211s-120.334 -104.833 -197.001 -137.5
s-161.334 -49 -254.001 -49h-391zM665.002 643h-227v-417h108c52.667 0 99.834 10 141.501 30s77 49 106 87s51.167 84.167 66.5 138.5s23 116.166 23 185.499v122c0 65.333 -7.5 124.833 -22.5 178.5s-37.333 99.834 -67 138.501s-66.334 68.667 -110.001 90
s-94.167 32 -151.5 32h-94v-405h227v-180z" />
    <glyph glyph-name="dcroat" unicode="&#x111;" horiz-adv-x="1259" 
d="M1249 1220l-169.001 -0.00292969v-1220h-251l-14 113c-34 -42 -74 -74.667 -120 -98s-99.333 -35 -160 -35c-66 0 -125.167 13.833 -177.5 41.5s-96.666 65.834 -132.999 114.501s-64.166 106.5 -83.499 173.5s-29 139.833 -29 218.5v21c0 82 9.5 157 28.5 225
s46.833 126.333 83.5 175s81.167 86.334 133.5 113.001s112.166 40 179.499 40c56.667 0 106.5 -10.167 149.5 -30.5s81.167 -49.166 114.5 -86.499v235h-244v180h244v136h279v-136h169v-180zM389.999 527.997c0 -45.333 3.83301 -87.499 11.5 -126.499
s20.167 -73 37.5 -102s39.666 -51.833 66.999 -68.5s60.666 -25 99.999 -25c48 0 87.833 10.333 119.5 31s56.834 49 75.501 85v438c-18.667 36.667 -43.667 65.167 -75 85.5s-70.666 30.5 -117.999 30.5c-39.333 0 -72.833 -8.5 -100.5 -25.5s-50.167 -40.333 -67.5 -70
s-30 -64.334 -38 -104.001s-12 -82.167 -12 -127.5v-21z" />
    <glyph glyph-name="Emacron" unicode="&#x112;" 
d="M1027 638h-598v-411h699v-227h-981v1456h978v-229h-696v-367h598v-222zM1009 1605h-730v164h730v-164z" />
    <glyph glyph-name="emacron" unicode="&#x113;" 
d="M666 -20c-83.333 0 -158.998 13.6719 -226.998 41.0049s-126.333 64.5 -175 111.5s-86.167 102.333 -112.5 166s-39.5 131.834 -39.5 204.501v40c0 82.667 13 158.167 39 226.5s62.333 127.166 109 176.499s102 87.666 166 114.999s133.667 41 209 41
c78 0 147.5 -12.833 208.5 -38.5s112.667 -61.834 155 -108.501s74.5 -102.834 96.5 -168.501s33 -138.167 33 -217.5v-118h-734c5.33301 -36.667 16.166 -70.167 32.499 -100.5s37.166 -56.5 62.499 -78.5s54.333 -39 87 -51s68.334 -18 107.001 -18
c27.333 0 54.5 2.66699 81.5 8s52.833 13.166 77.5 23.499s47.667 23.166 69 38.499s40 33.333 56 54l139 -150c-17.333 -24.667 -39.833 -48.834 -67.5 -72.501s-60.334 -44.667 -98.001 -63s-79.5 -33.166 -125.5 -44.499s-95.667 -17 -149 -17zM633.002 877.005
c-31.333 0 -60 -5.49902 -86 -16.499s-48.833 -26.833 -68.5 -47.5s-36.167 -45.334 -49.5 -74.001s-23.333 -60.667 -30 -96h456v22c-1.33301 29.333 -7 57 -17 83s-24.333 48.5 -43 67.5s-41.5 34 -68.5 45s-58.167 16.5 -93.5 16.5zM969.002 1293.01h-730v164h730v-164z
" />
    <glyph glyph-name="Ebreve" unicode="&#x114;" 
d="M1027 638h-598v-411h699v-227h-981v1456h978v-229h-696v-367h598v-222zM983 1848c0 -43.333 -7.83105 -83 -23.498 -119s-38.334 -66.833 -68.001 -92.5s-65.5 -45.667 -107.5 -60s-89 -21.5 -141 -21.5c-52.667 0 -100 7.16699 -142 21.5s-77.833 34.333 -107.5 60
s-52.334 56.5 -68.001 92.5s-23.5 75.667 -23.5 119h200c0 -17.333 2.5 -34.166 7.5 -50.499s13.167 -30.666 24.5 -42.999s25.833 -22.166 43.5 -29.499s39.5 -11 65.5 -11c25.333 0 46.833 3.66699 64.5 11s32 17.166 43 29.499s19 26.666 24 42.999
s7.5 33.166 7.5 50.499h201z" />
    <glyph glyph-name="ebreve" unicode="&#x115;" 
d="M666 -20c-83.333 0 -158.998 13.6719 -226.998 41.0049s-126.333 64.5 -175 111.5s-86.167 102.333 -112.5 166s-39.5 131.834 -39.5 204.501v40c0 82.667 13 158.167 39 226.5s62.333 127.166 109 176.499s102 87.666 166 114.999s133.667 41 209 41
c78 0 147.5 -12.833 208.5 -38.5s112.667 -61.834 155 -108.501s74.5 -102.834 96.5 -168.501s33 -138.167 33 -217.5v-118h-734c5.33301 -36.667 16.166 -70.167 32.499 -100.5s37.166 -56.5 62.499 -78.5s54.333 -39 87 -51s68.334 -18 107.001 -18
c27.333 0 54.5 2.66699 81.5 8s52.833 13.166 77.5 23.499s47.667 23.166 69 38.499s40 33.333 56 54l139 -150c-17.333 -24.667 -39.833 -48.834 -67.5 -72.501s-60.334 -44.667 -98.001 -63s-79.5 -33.166 -125.5 -44.499s-95.667 -17 -149 -17zM633.002 877.005
c-31.333 0 -60 -5.49902 -86 -16.499s-48.833 -26.833 -68.5 -47.5s-36.167 -45.334 -49.5 -74.001s-23.333 -60.667 -30 -96h456v22c-1.33301 29.333 -7 57 -17 83s-24.333 48.5 -43 67.5s-41.5 34 -68.5 45s-58.167 16.5 -93.5 16.5zM943.002 1536.01
c0 -43.333 -7.83105 -83 -23.498 -119s-38.334 -66.833 -68.001 -92.5s-65.5 -45.667 -107.5 -60s-89 -21.5 -141 -21.5c-52.667 0 -100 7.16699 -142 21.5s-77.833 34.333 -107.5 60s-52.334 56.5 -68.001 92.5s-23.5 75.667 -23.5 119h200
c0 -17.333 2.5 -34.166 7.5 -50.499s13.167 -30.666 24.5 -42.999s25.833 -22.166 43.5 -29.499s39.5 -11 65.5 -11c25.333 0 46.833 3.66699 64.5 11s32 17.166 43 29.499s19 26.666 24 42.999s7.5 33.166 7.5 50.499h201z" />
    <glyph glyph-name="Edotaccent" unicode="&#x116;" 
d="M1027 638h-598v-411h699v-227h-981v1456h978v-229h-696v-367h598v-222zM490 1719c0 40.667 13.333 74.167 40 100.5s63.334 39.5 110.001 39.5s83.334 -13.167 110.001 -39.5s40 -59.833 40 -100.5c0 -40 -13.333 -73.167 -40 -99.5s-63.334 -39.5 -110.001 -39.5
s-83.334 13.167 -110.001 39.5s-40 59.5 -40 99.5z" />
    <glyph glyph-name="edotaccent" unicode="&#x117;" 
d="M666 -20c-83.333 0 -158.998 13.6719 -226.998 41.0049s-126.333 64.5 -175 111.5s-86.167 102.333 -112.5 166s-39.5 131.834 -39.5 204.501v40c0 82.667 13 158.167 39 226.5s62.333 127.166 109 176.499s102 87.666 166 114.999s133.667 41 209 41
c78 0 147.5 -12.833 208.5 -38.5s112.667 -61.834 155 -108.501s74.5 -102.834 96.5 -168.501s33 -138.167 33 -217.5v-118h-734c5.33301 -36.667 16.166 -70.167 32.499 -100.5s37.166 -56.5 62.499 -78.5s54.333 -39 87 -51s68.334 -18 107.001 -18
c27.333 0 54.5 2.66699 81.5 8s52.833 13.166 77.5 23.499s47.667 23.166 69 38.499s40 33.333 56 54l139 -150c-17.333 -24.667 -39.833 -48.834 -67.5 -72.501s-60.334 -44.667 -98.001 -63s-79.5 -33.166 -125.5 -44.499s-95.667 -17 -149 -17zM633.002 877.005
c-31.333 0 -60 -5.49902 -86 -16.499s-48.833 -26.833 -68.5 -47.5s-36.167 -45.334 -49.5 -74.001s-23.333 -60.667 -30 -96h456v22c-1.33301 29.333 -7 57 -17 83s-24.333 48.5 -43 67.5s-41.5 34 -68.5 45s-58.167 16.5 -93.5 16.5zM450.002 1407.01
c0 40.667 13.333 74.167 40 100.5s63.334 39.5 110.001 39.5s83.334 -13.167 110.001 -39.5s40 -59.833 40 -100.5c0 -40 -13.333 -73.167 -40 -99.5s-63.334 -39.5 -110.001 -39.5s-83.334 13.167 -110.001 39.5s-40 59.5 -40 99.5z" />
    <glyph glyph-name="Eogonek" unicode="&#x118;" 
d="M1027 638h-597.998v-411h699v-227h-125c-30 -12 -55 -24.667 -75 -38s-36 -27.333 -48 -42s-20.5 -30.167 -25.5 -46.5s-7.5 -33.5 -7.5 -51.5c0 -19.333 5 -35.5 15 -48.5s27.333 -19.5 52 -19.5c19.333 0 35.666 2.33301 48.999 7s24.666 9 33.999 13l47 -154
c-18.667 -10 -42.834 -19.833 -72.501 -29.5s-67.5 -14.5 -113.5 -14.5c-30.667 0 -59.5 4.5 -86.5 13.5s-50.5 22.167 -70.5 39.5s-35.833 38.833 -47.5 64.5s-17.5 55.5 -17.5 89.5c0 38 9.83301 75.667 29.5 113s48.834 72 87.501 104h-606v1456h978v-229h-696v-367h598
v-222z" />
    <glyph glyph-name="eogonek" unicode="&#x119;" 
d="M898 23c-30 -12 -54.9941 -24.6592 -74.9941 -37.9922s-36 -27.333 -48 -42s-20.5 -30.167 -25.5 -46.5s-7.5 -33.5 -7.5 -51.5c0 -19.333 5 -35.5 15 -48.5s27.333 -19.5 52 -19.5c19.333 0 35.666 2.33301 48.999 7s24.666 9 33.999 13l47 -154
c-18.667 -10 -42.834 -19.833 -72.501 -29.5s-67.5 -14.5 -113.5 -14.5c-30.667 0 -59.5 4.5 -86.5 13.5s-50.5 22.167 -70.5 39.5s-35.833 38.833 -47.5 64.5s-17.5 55.5 -17.5 89.5c0 30 6.16699 60 18.5 90s30.833 59 55.5 87
c-74.667 6.66699 -142.334 24.667 -203.001 54s-112.5 67.166 -155.5 113.499s-76.167 99.666 -99.5 159.999s-35 124.5 -35 192.5v40c0 82.667 13 158.167 39 226.5s62.333 127.166 109 176.499s102 87.666 166 114.999s133.667 41 209 41c78 0 147.5 -12.833 208.5 -38.5
s112.667 -61.834 155 -108.501s74.5 -102.834 96.5 -168.501s33 -138.167 33 -217.5v-118h-734c5.33301 -36.667 16.166 -70.167 32.499 -100.5s37.166 -56.5 62.499 -78.5s54.333 -39 87 -51s68.334 -18 107.001 -18c27.333 0 54.5 2.66699 81.5 8
s52.833 13.166 77.5 23.499s47.667 23.166 69 38.499s40 33.333 56 54l139 -150c-17.333 -24.667 -39.833 -48.834 -67.5 -72.501s-60.334 -44.667 -98.001 -63s-79.5 -33.166 -125.5 -44.499s-95.667 -17 -149 -17c-20.667 0 -41 1 -61 3c36 38.667 82.667 72 140 100z
M633.006 877.008c-31.333 0 -60 -5.49902 -86 -16.499s-48.833 -26.833 -68.5 -47.5s-36.167 -45.334 -49.5 -74.001s-23.333 -60.667 -30 -96h456v22c-1.33301 29.333 -7 57 -17 83s-24.333 48.5 -43 67.5s-41.5 34 -68.5 45s-58.167 16.5 -93.5 16.5z" />
    <glyph glyph-name="Ecaron" unicode="&#x11a;" 
d="M1027 638h-598v-411h699v-227h-981v1456h978v-229h-696v-367h598v-222zM641 1731l147 126h237v-19l-296 -253h-175l-296 252v20h237z" />
    <glyph glyph-name="ecaron" unicode="&#x11b;" 
d="M666 -20c-83.333 0 -158.998 13.6719 -226.998 41.0049s-126.333 64.5 -175 111.5s-86.167 102.333 -112.5 166s-39.5 131.834 -39.5 204.501v40c0 82.667 13 158.167 39 226.5s62.333 127.166 109 176.499s102 87.666 166 114.999s133.667 41 209 41
c78 0 147.5 -12.833 208.5 -38.5s112.667 -61.834 155 -108.501s74.5 -102.834 96.5 -168.501s33 -138.167 33 -217.5v-118h-734c5.33301 -36.667 16.166 -70.167 32.499 -100.5s37.166 -56.5 62.499 -78.5s54.333 -39 87 -51s68.334 -18 107.001 -18
c27.333 0 54.5 2.66699 81.5 8s52.833 13.166 77.5 23.499s47.667 23.166 69 38.499s40 33.333 56 54l139 -150c-17.333 -24.667 -39.833 -48.834 -67.5 -72.501s-60.334 -44.667 -98.001 -63s-79.5 -33.166 -125.5 -44.499s-95.667 -17 -149 -17zM633.002 877.005
c-31.333 0 -60 -5.49902 -86 -16.499s-48.833 -26.833 -68.5 -47.5s-36.167 -45.334 -49.5 -74.001s-23.333 -60.667 -30 -96h456v22c-1.33301 29.333 -7 57 -17 83s-24.333 48.5 -43 67.5s-41.5 34 -68.5 45s-58.167 16.5 -93.5 16.5zM601.002 1419.01l147 126h237v-19
l-296 -253h-175l-296 252v20h237z" />
    <glyph glyph-name="Gcircumflex" unicode="&#x11c;" 
d="M1132 170c-18 -22 -42.6641 -44.3359 -73.9971 -67.0029s-68.5 -43.167 -111.5 -61.5s-91.167 -33.166 -144.5 -44.499s-110.666 -17 -171.999 -17c-82.667 0 -157.334 14.667 -224.001 44s-123.667 71.666 -171 126.999s-83.833 123.166 -109.5 203.499
s-38.5 171.5 -38.5 273.5v198c0 102 13.5 193.167 40.5 273.5s64.333 148.5 112 204.5s103.667 98.667 168 128s134.166 44 209.499 44c82 0 153.5 -10.333 214.5 -31s112.5 -50.5 154.5 -89.5s74.833 -86.5 98.5 -142.5s39.167 -119 46.5 -189h-274
c-9.33301 74.667 -31.833 130.834 -67.5 168.501s-90.834 56.5 -165.501 56.5c-36 0 -69.333 -9.16699 -100 -27.5s-57.334 -45.166 -80.001 -80.499s-40.667 -79.166 -54 -131.499s-20 -112.833 -20 -181.5v-200c0.666992 -136 23.334 -240.167 68.001 -312.5
s113 -108.833 205 -109.5c22 0 43.667 1.66699 65 5s41.333 8 60 14s35.167 12.833 49.5 20.5s25.166 15.834 32.499 24.501l1 264h-241v210h521zM1029 1621v-28h-221l-154 127l-153 -127h-217v30l290 241h161z" />
    <glyph glyph-name="gcircumflex" unicode="&#x11d;" 
d="M113 549c0 82 10.1699 156.993 30.5029 224.993s49.5 126.333 87.5 175s84 86.334 138 113.001s115 40 183 40c63.333 0 117.666 -10.667 162.999 -32s84 -51.666 116 -90.999l11 103h253v-1047c0 -73.333 -12.5 -138.666 -37.5 -195.999s-60 -105.666 -105 -144.999
s-99 -69.166 -162 -89.499s-132.5 -30.5 -208.5 -30.5c-32.667 0 -67.667 3.33301 -105 10s-74.333 17 -111 31s-71.334 31.833 -104.001 53.5s-60.667 47.5 -84 77.5l125 169c35.333 -40 75.333 -70.5 120 -91.5s93 -31.5 145 -31.5c78 0 138.833 20.833 182.5 62.5
s65.5 100.834 65.5 177.501v62c-32.667 -36 -70.834 -64 -114.501 -84s-94.167 -30 -151.5 -30c-67.333 0 -127.833 13.833 -181.5 41.5s-99.5 65.834 -137.5 114.501s-67.167 106.5 -87.5 173.5s-30.5 139.833 -30.5 218.5v21zM392.003 527.993
c0 -45.333 4.49805 -87.499 13.498 -126.499s22.833 -73 41.5 -102s42.334 -51.833 71.001 -68.5s62.667 -25 102 -25c48.667 0 88.834 9.33301 120.501 28s56.834 44.667 75.501 78v458c-18.667 34 -43.834 60.167 -75.501 78.5s-71.167 27.5 -118.5 27.5
c-39.333 0 -73.333 -8.5 -102 -25.5s-52.5 -40.333 -71.5 -70s-33.167 -64.334 -42.5 -104.001s-14 -82.167 -14 -127.5v-21zM974.001 1299.99v-28h-221l-154 127l-153 -127h-217v30l290 241h161z" />
    <glyph glyph-name="Gbreve" unicode="&#x11e;" 
d="M1132 170c-18 -22 -42.6641 -44.3359 -73.9971 -67.0029s-68.5 -43.167 -111.5 -61.5s-91.167 -33.166 -144.5 -44.499s-110.666 -17 -171.999 -17c-82.667 0 -157.334 14.667 -224.001 44s-123.667 71.666 -171 126.999s-83.833 123.166 -109.5 203.499
s-38.5 171.5 -38.5 273.5v198c0 102 13.5 193.167 40.5 273.5s64.333 148.5 112 204.5s103.667 98.667 168 128s134.166 44 209.499 44c82 0 153.5 -10.333 214.5 -31s112.5 -50.5 154.5 -89.5s74.833 -86.5 98.5 -142.5s39.167 -119 46.5 -189h-274
c-9.33301 74.667 -31.833 130.834 -67.5 168.501s-90.834 56.5 -165.501 56.5c-36 0 -69.333 -9.16699 -100 -27.5s-57.334 -45.166 -80.001 -80.499s-40.667 -79.166 -54 -131.499s-20 -112.833 -20 -181.5v-200c0.666992 -136 23.334 -240.167 68.001 -312.5
s113 -108.833 205 -109.5c22 0 43.667 1.66699 65 5s41.333 8 60 14s35.167 12.833 49.5 20.5s25.166 15.834 32.499 24.501l1 264h-241v210h521zM995.003 1856c0 -43.333 -7.83105 -83 -23.498 -119s-38.334 -66.833 -68.001 -92.5s-65.5 -45.667 -107.5 -60
s-89 -21.5 -141 -21.5c-52.667 0 -100 7.16699 -142 21.5s-77.833 34.333 -107.5 60s-52.334 56.5 -68.001 92.5s-23.5 75.667 -23.5 119h200c0 -17.333 2.5 -34.166 7.5 -50.499s13.167 -30.666 24.5 -42.999s25.833 -22.166 43.5 -29.499s39.5 -11 65.5 -11
c25.333 0 46.833 3.66699 64.5 11s32 17.166 43 29.499s19 26.666 24 42.999s7.5 33.166 7.5 50.499h201z" />
    <glyph glyph-name="gbreve" unicode="&#x11f;" 
d="M113 549c0 82 10.1699 156.993 30.5029 224.993s49.5 126.333 87.5 175s84 86.334 138 113.001s115 40 183 40c63.333 0 117.666 -10.667 162.999 -32s84 -51.666 116 -90.999l11 103h253v-1047c0 -73.333 -12.5 -138.666 -37.5 -195.999s-60 -105.666 -105 -144.999
s-99 -69.166 -162 -89.499s-132.5 -30.5 -208.5 -30.5c-32.667 0 -67.667 3.33301 -105 10s-74.333 17 -111 31s-71.334 31.833 -104.001 53.5s-60.667 47.5 -84 77.5l125 169c35.333 -40 75.333 -70.5 120 -91.5s93 -31.5 145 -31.5c78 0 138.833 20.833 182.5 62.5
s65.5 100.834 65.5 177.501v62c-32.667 -36 -70.834 -64 -114.501 -84s-94.167 -30 -151.5 -30c-67.333 0 -127.833 13.833 -181.5 41.5s-99.5 65.834 -137.5 114.501s-67.167 106.5 -87.5 173.5s-30.5 139.833 -30.5 218.5v21zM392.003 527.993
c0 -45.333 4.49805 -87.499 13.498 -126.499s22.833 -73 41.5 -102s42.334 -51.833 71.001 -68.5s62.667 -25 102 -25c48.667 0 88.834 9.33301 120.501 28s56.834 44.667 75.501 78v458c-18.667 34 -43.834 60.167 -75.501 78.5s-71.167 27.5 -118.5 27.5
c-39.333 0 -73.333 -8.5 -102 -25.5s-52.5 -40.333 -71.5 -70s-33.167 -64.334 -42.5 -104.001s-14 -82.167 -14 -127.5v-21zM941.001 1534.99c0 -43.333 -7.83105 -83 -23.498 -119s-38.334 -66.833 -68.001 -92.5s-65.5 -45.667 -107.5 -60s-89 -21.5 -141 -21.5
c-52.667 0 -100 7.16699 -142 21.5s-77.833 34.333 -107.5 60s-52.334 56.5 -68.001 92.5s-23.5 75.667 -23.5 119h200c0 -17.333 2.5 -34.166 7.5 -50.499s13.167 -30.666 24.5 -42.999s25.833 -22.166 43.5 -29.499s39.5 -11 65.5 -11c25.333 0 46.833 3.66699 64.5 11
s32 17.166 43 29.499s19 26.666 24 42.999s7.5 33.166 7.5 50.499h201z" />
    <glyph glyph-name="uni0120" unicode="&#x120;" 
d="M1132 170c-18 -22 -42.6641 -44.3359 -73.9971 -67.0029s-68.5 -43.167 -111.5 -61.5s-91.167 -33.166 -144.5 -44.499s-110.666 -17 -171.999 -17c-82.667 0 -157.334 14.667 -224.001 44s-123.667 71.666 -171 126.999s-83.833 123.166 -109.5 203.499
s-38.5 171.5 -38.5 273.5v198c0 102 13.5 193.167 40.5 273.5s64.333 148.5 112 204.5s103.667 98.667 168 128s134.166 44 209.499 44c82 0 153.5 -10.333 214.5 -31s112.5 -50.5 154.5 -89.5s74.833 -86.5 98.5 -142.5s39.167 -119 46.5 -189h-274
c-9.33301 74.667 -31.833 130.834 -67.5 168.501s-90.834 56.5 -165.501 56.5c-36 0 -69.333 -9.16699 -100 -27.5s-57.334 -45.166 -80.001 -80.499s-40.667 -79.166 -54 -131.499s-20 -112.833 -20 -181.5v-200c0.666992 -136 23.334 -240.167 68.001 -312.5
s113 -108.833 205 -109.5c22 0 43.667 1.66699 65 5s41.333 8 60 14s35.167 12.833 49.5 20.5s25.166 15.834 32.499 24.501l1 264h-241v210h521zM502.003 1727c0 40.667 13.333 74.167 40 100.5s63.334 39.5 110.001 39.5s83.334 -13.167 110.001 -39.5
s40 -59.833 40 -100.5c0 -40 -13.333 -73.167 -40 -99.5s-63.334 -39.5 -110.001 -39.5s-83.334 13.167 -110.001 39.5s-40 59.5 -40 99.5z" />
    <glyph glyph-name="uni0121" unicode="&#x121;" 
d="M113 549c0 82 10.1699 156.993 30.5029 224.993s49.5 126.333 87.5 175s84 86.334 138 113.001s115 40 183 40c63.333 0 117.666 -10.667 162.999 -32s84 -51.666 116 -90.999l11 103h253v-1047c0 -73.333 -12.5 -138.666 -37.5 -195.999s-60 -105.666 -105 -144.999
s-99 -69.166 -162 -89.499s-132.5 -30.5 -208.5 -30.5c-32.667 0 -67.667 3.33301 -105 10s-74.333 17 -111 31s-71.334 31.833 -104.001 53.5s-60.667 47.5 -84 77.5l125 169c35.333 -40 75.333 -70.5 120 -91.5s93 -31.5 145 -31.5c78 0 138.833 20.833 182.5 62.5
s65.5 100.834 65.5 177.501v62c-32.667 -36 -70.834 -64 -114.501 -84s-94.167 -30 -151.5 -30c-67.333 0 -127.833 13.833 -181.5 41.5s-99.5 65.834 -137.5 114.501s-67.167 106.5 -87.5 173.5s-30.5 139.833 -30.5 218.5v21zM392.003 527.993
c0 -45.333 4.49805 -87.499 13.498 -126.499s22.833 -73 41.5 -102s42.334 -51.833 71.001 -68.5s62.667 -25 102 -25c48.667 0 88.834 9.33301 120.501 28s56.834 44.667 75.501 78v458c-18.667 34 -43.834 60.167 -75.501 78.5s-71.167 27.5 -118.5 27.5
c-39.333 0 -73.333 -8.5 -102 -25.5s-52.5 -40.333 -71.5 -70s-33.167 -64.334 -42.5 -104.001s-14 -82.167 -14 -127.5v-21zM448.001 1405.99c0 40.667 13.333 74.167 40 100.5s63.334 39.5 110.001 39.5s83.334 -13.167 110.001 -39.5s40 -59.833 40 -100.5
c0 -40 -13.333 -73.167 -40 -99.5s-63.334 -39.5 -110.001 -39.5s-83.334 13.167 -110.001 39.5s-40 59.5 -40 99.5z" />
    <glyph glyph-name="Gcommaaccent" unicode="&#x122;" 
d="M1132 170c-18 -22 -42.6641 -44.3359 -73.9971 -67.0029s-68.5 -43.167 -111.5 -61.5s-91.167 -33.166 -144.5 -44.499s-110.666 -17 -171.999 -17c-82.667 0 -157.334 14.667 -224.001 44s-123.667 71.666 -171 126.999s-83.833 123.166 -109.5 203.499
s-38.5 171.5 -38.5 273.5v198c0 102 13.5 193.167 40.5 273.5s64.333 148.5 112 204.5s103.667 98.667 168 128s134.166 44 209.499 44c82 0 153.5 -10.333 214.5 -31s112.5 -50.5 154.5 -89.5s74.833 -86.5 98.5 -142.5s39.167 -119 46.5 -189h-274
c-9.33301 74.667 -31.833 130.834 -67.5 168.501s-90.834 56.5 -165.501 56.5c-36 0 -69.333 -9.16699 -100 -27.5s-57.334 -45.166 -80.001 -80.499s-40.667 -79.166 -54 -131.499s-20 -112.833 -20 -181.5v-200c0.666992 -136 23.334 -240.167 68.001 -312.5
s113 -108.833 205 -109.5c22 0 43.667 1.66699 65 5s41.333 8 60 14s35.167 12.833 49.5 20.5s25.166 15.834 32.499 24.501l1 264h-241v210h521zM765.003 -141.003c0 -28.667 -3.16699 -58.834 -9.5 -90.501s-15.666 -63 -27.999 -94s-28 -60.667 -47 -89
s-41.5 -53.5 -67.5 -75.5l-113 76c25.333 42 44.166 84.833 56.499 128.5s18.5 90.834 18.5 141.501v72h190v-69z" />
    <glyph glyph-name="gcommaaccent" unicode="&#x123;" 
d="M113 549c0 82 10.1699 156.993 30.5029 224.993s49.5 126.333 87.5 175s84 86.334 138 113.001s115 40 183 40c63.333 0 117.666 -10.667 162.999 -32s84 -51.666 116 -90.999l11 103h253v-1047c0 -73.333 -12.5 -138.666 -37.5 -195.999s-60 -105.666 -105 -144.999
s-99 -69.166 -162 -89.499s-132.5 -30.5 -208.5 -30.5c-32.667 0 -67.667 3.33301 -105 10s-74.333 17 -111 31s-71.334 31.833 -104.001 53.5s-60.667 47.5 -84 77.5l125 169c35.333 -40 75.333 -70.5 120 -91.5s93 -31.5 145 -31.5c78 0 138.833 20.833 182.5 62.5
s65.5 100.834 65.5 177.501v62c-32.667 -36 -70.834 -64 -114.501 -84s-94.167 -30 -151.5 -30c-67.333 0 -127.833 13.833 -181.5 41.5s-99.5 65.834 -137.5 114.501s-67.167 106.5 -87.5 173.5s-30.5 139.833 -30.5 218.5v21zM392.003 527.993
c0 -45.333 4.49805 -87.499 13.498 -126.499s22.833 -73 41.5 -102s42.334 -51.833 71.001 -68.5s62.667 -25 102 -25c48.667 0 88.834 9.33301 120.501 28s56.834 44.667 75.501 78v458c-18.667 34 -43.834 60.167 -75.501 78.5s-71.167 27.5 -118.5 27.5
c-39.333 0 -73.333 -8.5 -102 -25.5s-52.5 -40.333 -71.5 -70s-33.167 -64.334 -42.5 -104.001s-14 -82.167 -14 -127.5v-21zM483.001 1392.99c0 34.667 3.66602 68.335 10.999 101.002s17.5 63 30.5 91s28.333 53.167 46 75.5s36.834 40.5 57.501 54.5l145 -78
c-18 -32.667 -33.667 -70.334 -47 -113.001s-20 -90.334 -20 -143.001l-2 -124h-221v136z" />
    <glyph glyph-name="Hcircumflex" unicode="&#x124;" 
d="M1092 0h-278v631h-412v-631h-279v1456h279v-597h412v597h278v-1456zM981 1613v-28h-221l-154 127l-153 -127h-217v30l290 241h161z" />
    <glyph glyph-name="hcircumflex" unicode="&#x125;" 
d="M419 933c36 52.667 79.833 94 131.5 124s109.5 45 173.5 45c56.667 0 108.667 -8.5 156 -25.5s88 -43.5 122 -79.5s60.5 -82.167 79.5 -138.5s28.5 -124.166 28.5 -203.499v-655h-278v657c0 38.667 -4.83301 72 -14.5 100s-23.5 50.667 -41.5 68
s-39.667 30.166 -65 38.499s-54 12.5 -86 12.5c-46.667 0 -87.167 -8.33301 -121.5 -25s-62.5 -40 -84.5 -70v-781h-278v1536h278v-603zM949 1717v-28h-221l-154 127l-153 -127h-217v30l290 241h161z" />
    <glyph glyph-name="Hbar" unicode="&#x126;" 
d="M1041 1218h199v-171h-199v-1047h-278v631h-412v-631h-279v1047h-49v171h49v238h279v-238h412v238h278v-238zM351 859h412v188h-412v-188z" />
    <glyph glyph-name="hbar" unicode="&#x127;" horiz-adv-x="1259" 
d="M703 1216h-254v-283c36 52.667 79.833 94 131.5 124s109.5 45 173.5 45c56.667 0 108.667 -8.5 156 -25.5s88 -43.5 122 -79.5s60.5 -82.167 79.5 -138.5s28.5 -124.166 28.5 -203.499v-655h-278v657c0 38.667 -4.83301 72 -14.5 100s-23.5 50.667 -41.5 68
s-39.667 30.166 -65 38.499s-54 12.5 -86 12.5c-46.667 0 -87.167 -8.33301 -121.5 -25s-62.5 -40 -84.5 -70v-781h-278v1216h-160v180h160v140h278v-140h254v-180z" />
    <glyph glyph-name="Itilde" unicode="&#x128;" 
d="M193 1456h842v-227h-284v-1003h284v-226h-842v226h277v1003h-277v227zM964 1861c0 -30 -5.16602 -59.665 -15.499 -88.998s-25 -55.5 -44 -78.5s-41.667 -41.5 -68 -55.5s-55.833 -21 -88.5 -21c-32 0 -59.833 4.5 -83.5 13.5s-46 19 -67 30s-41.833 21 -62.5 30
s-44 13.5 -70 13.5c-24 0 -44.833 -8.66699 -62.5 -26s-26.5 -41.333 -26.5 -72l-140 30c0 29.333 5.16699 58.666 15.5 87.999s24.833 55.666 43.5 78.999s41.167 42.333 67.5 57s55.833 22 88.5 22c26.667 0 51.667 -4.5 75 -13.5s46.166 -19 68.499 -30
s44.833 -21 67.5 -30s46.667 -13.5 72 -13.5c24 0 45 8.5 63 25.5s27 40.833 27 71.5z" />
    <glyph glyph-name="itilde" unicode="&#x129;" 
d="M199 1082h605v-856h310v-226h-915v226h324v629h-324v227zM1031 1513c0 -30 -5.16602 -59.665 -15.499 -88.998s-25 -55.5 -44 -78.5s-41.667 -41.5 -68 -55.5s-55.833 -21 -88.5 -21c-32 0 -59.833 4.5 -83.5 13.5s-46 19 -67 30s-41.833 21 -62.5 30s-44 13.5 -70 13.5
c-24 0 -44.833 -8.66699 -62.5 -26s-26.5 -41.333 -26.5 -72l-140 30c0 29.333 5.16699 58.666 15.5 87.999s24.833 55.666 43.5 78.999s41.167 42.333 67.5 57s55.833 22 88.5 22c26.667 0 51.667 -4.5 75 -13.5s46.166 -19 68.499 -30s44.833 -21 67.5 -30
s46.667 -13.5 72 -13.5c24 0 45 8.5 63 25.5s27 40.833 27 71.5z" />
    <glyph glyph-name="Imacron" unicode="&#x12a;" 
d="M193 1456h842v-227h-284v-1003h284v-226h-842v226h277v1003h-277v227zM968 1614h-730v164h730v-164z" />
    <glyph glyph-name="imacron" unicode="&#x12b;" 
d="M199 1082h605v-856h310v-226h-915v226h324v629h-324v227zM1034 1267h-730v164h730v-164z" />
    <glyph glyph-name="Ibreve" unicode="&#x12c;" 
d="M193 1456h842v-227h-284v-1003h284v-226h-842v226h277v1003h-277v227zM942 1857c0 -43.333 -7.83105 -83 -23.498 -119s-38.334 -66.833 -68.001 -92.5s-65.5 -45.667 -107.5 -60s-89 -21.5 -141 -21.5c-52.667 0 -100 7.16699 -142 21.5s-77.833 34.333 -107.5 60
s-52.334 56.5 -68.001 92.5s-23.5 75.667 -23.5 119h200c0 -17.333 2.5 -34.166 7.5 -50.499s13.167 -30.666 24.5 -42.999s25.833 -22.166 43.5 -29.499s39.5 -11 65.5 -11c25.333 0 46.833 3.66699 64.5 11s32 17.166 43 29.499s19 26.666 24 42.999
s7.5 33.166 7.5 50.499h201z" />
    <glyph glyph-name="ibreve" unicode="&#x12d;" 
d="M199 1082h605v-856h310v-226h-915v226h324v629h-324v227zM1008 1509c0 -43.333 -7.83105 -83 -23.498 -119s-38.334 -66.833 -68.001 -92.5s-65.5 -45.667 -107.5 -60s-89 -21.5 -141 -21.5c-52.667 0 -100 7.16699 -142 21.5s-77.833 34.333 -107.5 60
s-52.334 56.5 -68.001 92.5s-23.5 75.667 -23.5 119h200c0 -17.333 2.5 -34.166 7.5 -50.499s13.167 -30.666 24.5 -42.999s25.833 -22.166 43.5 -29.499s39.5 -11 65.5 -11c25.333 0 46.833 3.66699 64.5 11s32 17.166 43 29.499s19 26.666 24 42.999
s7.5 33.166 7.5 50.499h201z" />
    <glyph glyph-name="Iogonek" unicode="&#x12e;" 
d="M193 1456h842.002v-227h-284v-1003h284v-226h-258c-30 -12 -55 -24.667 -75 -38s-36 -27.333 -48 -42s-20.5 -30.167 -25.5 -46.5s-7.5 -33.5 -7.5 -51.5c0 -19.333 5 -35.5 15 -48.5s27.333 -19.5 52 -19.5c19.333 0 35.666 2.33301 48.999 7s24.666 9 33.999 13
l47 -154c-18.667 -10 -42.834 -19.833 -72.501 -29.5s-67.5 -14.5 -113.5 -14.5c-30.667 0 -59.5 4.5 -86.5 13.5s-50.5 22.167 -70.5 39.5s-35.833 38.833 -47.5 64.5s-17.5 55.5 -17.5 89.5c0 38 9.83301 75.667 29.5 113s48.834 72 87.501 104h-334v226h277v1003h-277
v227z" />
    <glyph glyph-name="iogonek" unicode="&#x12f;" 
d="M215 1082h589.002v-856h293v-226h-333c-30 -12 -55 -24.667 -75 -38s-36 -27.333 -48 -42s-20.5 -30.167 -25.5 -46.5s-7.5 -33.5 -7.5 -51.5c0 -19.333 5 -35.5 15 -48.5s27.333 -19.5 52 -19.5c19.333 0 35.666 2.33301 48.999 7s24.666 9 33.999 13l47 -154
c-18.667 -10 -42.834 -19.833 -72.501 -29.5s-67.5 -14.5 -113.5 -14.5c-30.667 0 -59.5 4.5 -86.5 13.5s-50.5 22.167 -70.5 39.5s-35.833 38.833 -47.5 64.5s-17.5 55.5 -17.5 89.5c0 38 9.83301 75.667 29.5 113s48.834 72 87.501 104h-299v226h308v629h-308v227z
M503.002 1359c0 21.333 3.83301 41.168 11.5 59.501s18.5 34 32.5 47s30.833 23.167 50.5 30.5s41.5 11 65.5 11c49.333 0 88.5 -13.833 117.5 -41.5s43.5 -63.167 43.5 -106.5s-14.5 -78.833 -43.5 -106.5s-68.167 -41.5 -117.5 -41.5c-24 0 -45.833 3.66699 -65.5 11
s-36.5 17.5 -50.5 30.5s-24.833 28.667 -32.5 47s-11.5 38.166 -11.5 59.499z" />
    <glyph glyph-name="Idotaccent" unicode="&#x130;" 
d="M193 1456h842v-227h-284v-1003h284v-226h-842v226h277v1003h-277v227zM449 1728c0 40.667 13.333 74.167 40 100.5s63.334 39.5 110.001 39.5s83.334 -13.167 110.001 -39.5s40 -59.833 40 -100.5c0 -40 -13.333 -73.167 -40 -99.5s-63.334 -39.5 -110.001 -39.5
s-83.334 13.167 -110.001 39.5s-40 59.5 -40 99.5z" />
    <glyph glyph-name="dotlessi" unicode="&#x131;" 
d="M199 1082h605v-856h310v-226h-915v226h324v629h-324v227z" />
    <glyph glyph-name="IJ" unicode="&#x132;" 
d="M326 0h-200v1456h200v-1456zM902 1456l200.002 -0.00195312v-1134c0 -53.333 -6.83301 -101.166 -20.5 -143.499s-34.667 -78.166 -63 -107.499s-64 -51.666 -107 -66.999s-93.5 -23 -151.5 -23c-48 0 -92.333 6.83301 -133 20.5s-75.834 34.5 -105.501 62.5
s-52.667 63.333 -69 106s-24.5 93 -24.5 151h200c0 -62.667 12 -108.334 36 -137.001s56 -43 96 -43c27.333 0 50.166 4.16699 68.499 12.5s33 20.333 44 36s18.667 34.667 23 57s6.5 47.5 6.5 75.5v1134z" />
    <glyph glyph-name="ij" unicode="&#x133;" 
d="M688 1082l416.002 -0.00195312v-1088c0 -69.333 -9.5 -130.666 -28.5 -183.999s-46.833 -98 -83.5 -134s-81.334 -63.333 -134.001 -82s-112.667 -28 -180 -28c-38 0 -73.667 1.16699 -107 3.5s-68.333 6.83301 -105 13.5l14 167c11.333 -2 25.5 -3.83301 42.5 -5.5
s34.5 -3 52.5 -4s35 -1.66699 51 -2s28.667 -0.5 38 -0.5c33.333 0 64.666 4 93.999 12s54.833 21.833 76.5 41.5s38.667 45.834 51 78.501s18.5 74 18.5 124v918h-216v170zM81.002 1082h429v-912h225v-170h-660v170h235v742h-229v170zM297.002 1360
c0 31.333 9.66699 57.666 29 78.999s48 32 86 32s66.833 -10.667 86.5 -32s29.5 -47.666 29.5 -78.999c0 -30.667 -9.83301 -56.5 -29.5 -77.5s-48.5 -31.5 -86.5 -31.5s-66.667 10.5 -86 31.5s-29 46.833 -29 77.5zM880.002 1361c0 31.333 9.66699 57.666 29 78.999
s48 32 86 32s66.833 -10.667 86.5 -32s29.5 -47.666 29.5 -78.999c0 -30.667 -9.83301 -56.5 -29.5 -77.5s-48.5 -31.5 -86.5 -31.5s-66.667 10.5 -86 31.5s-29 46.833 -29 77.5z" />
    <glyph glyph-name="Jcircumflex" unicode="&#x134;" 
d="M818 1456l281 0.000976562l1 -1009c-0.666992 -69.333 -13.834 -132.5 -39.501 -189.5s-60.834 -106.167 -105.501 -147.5s-97.167 -73.333 -157.5 -96s-125.166 -34 -194.499 -34c-73.333 0 -140 9.33301 -200 28s-111.5 46.5 -154.5 83.5s-76.5 83.5 -100.5 139.5
s-36.333 121.667 -37 197h282c0.666992 -78 18 -134.5 52 -169.5s86.667 -52.5 158 -52.5c32 0 61.333 6.16699 88 18.5s49.334 29.166 68.001 50.499s33.167 46.833 43.5 76.5s15.5 61.5 15.5 95.5v1009zM1344 1610v-28h-221l-154 127l-153 -127h-217v30l290 241h161z" />
    <glyph glyph-name="jcircumflex" unicode="&#x135;" 
d="M310 1082l554.006 0.000976562v-1107c0 -72 -10.333 -133.833 -31 -185.5s-50.5 -94.334 -89.5 -128.001s-86.833 -58.5 -143.5 -74.5s-121.334 -24 -194.001 -24c-30 0 -60.333 1.16699 -91 3.5s-60.334 6.83301 -89.001 13.5l14 226c8 -2 19.167 -3.83301 33.5 -5.5
s29.166 -3 44.499 -4s29.666 -1.66699 42.999 -2s23.666 -0.5 30.999 -0.5c26.667 0 51.667 3 75 9s43.666 16 60.999 30s31 32.5 41 55.5s15 51.833 15 86.5v880h-274v227zM1109.01 1260v-28h-221l-154 127l-153 -127h-217v30l290 241h161z" />
    <glyph glyph-name="Kcommaaccent" unicode="&#x136;" 
d="M565 598l-154 -169v-429h-282v1456h282v-667l132 178l354 489h344l-490 -644l508 -812h-334zM713 -151c0 -28.667 -3.16699 -58.834 -9.5 -90.501s-15.666 -63 -27.999 -94s-28 -60.667 -47 -89s-41.5 -53.5 -67.5 -75.5l-113 76c25.333 42 44.166 84.833 56.499 128.5
s18.5 90.834 18.5 141.501v72h190v-69z" />
    <glyph glyph-name="kcommaaccent" unicode="&#x137;" 
d="M548 447l-126 -117v-330h-278v1536h278v-878l84 96l299 328h334l-408 -451l465 -631h-341zM691 -150c0 -28.667 -3.16699 -58.834 -9.5 -90.501s-15.666 -63 -27.999 -94s-28 -60.667 -47 -89s-41.5 -53.5 -67.5 -75.5l-113 76c25.333 42 44.166 84.833 56.499 128.5
s18.5 90.834 18.5 141.501v72h190v-69z" />
    <glyph glyph-name="kgreenlandic" unicode="&#x138;" 
d="M604 427l-167 -141v-286h-278v1082h278v-474l107 127l295 347h349l-386 -448l405 -634h-356z" />
    <glyph glyph-name="Lacute" unicode="&#x139;" 
d="M432 227h682v-227h-964v1456h282v-1229zM366 1794h306l-277 -279h-216z" />
    <glyph glyph-name="lacute" unicode="&#x13a;" 
d="M199 1536h605v-1310h310v-226h-915v226h324v1083h-324v227zM733 1893h306l-277 -279h-216z" />
    <glyph glyph-name="Lcommaaccent" unicode="&#x13b;" 
d="M432 227h682v-227h-964v1456h282v-1229zM718 -128c0 -28.667 -3.16699 -58.834 -9.5 -90.501s-15.666 -63 -27.999 -94s-28 -60.667 -47 -89s-41.5 -53.5 -67.5 -75.5l-113 76c25.333 42 44.166 84.833 56.499 128.5s18.5 90.834 18.5 141.501v72h190v-69z" />
    <glyph glyph-name="lcommaaccent" unicode="&#x13c;" 
d="M199 1536h605v-1310h310v-226h-915v226h324v1083h-324v227zM770 -127c0 -28.667 -3.16699 -58.834 -9.5 -90.501s-15.666 -63 -27.999 -94s-28 -60.667 -47 -89s-41.5 -53.5 -67.5 -75.5l-113 76c25.333 42 44.166 84.833 56.499 128.5s18.5 90.834 18.5 141.501v72h190
v-69z" />
    <glyph glyph-name="Lcaron" unicode="&#x13d;" 
d="M432 227h682v-227h-964v1456h282v-1229zM1030 1284c0 -34 -4.66602 -69.168 -13.999 -105.501s-22.333 -71.666 -39 -105.999s-36 -67 -58 -98s-46 -58.167 -72 -81.5l-127 79c25.333 43.333 46.166 90 62.499 140s24.5 107.333 24.5 172v173h223v-173z" />
    <glyph glyph-name="lcaron" unicode="&#x13e;" horiz-adv-x="1379" 
d="M199 1536h605v-1310h310v-226h-915v226h324v1083h-324v227zM1275 1368c0 -34 -4.66602 -69.168 -13.999 -105.501s-22.333 -71.666 -39 -105.999s-36 -67 -58 -98s-46 -58.167 -72 -81.5l-127 79c25.333 43.333 46.166 90 62.499 140s24.5 107.333 24.5 172v173h223v-173
z" />
    <glyph glyph-name="Ldot" unicode="&#x13f;" 
d="M432 227h682v-227h-964v1456h282v-1229zM614 816c0 40.667 13.333 74.167 40 100.5s63.334 39.5 110.001 39.5s83.334 -13.167 110.001 -39.5s40 -59.833 40 -100.5c0 -40 -13.333 -73.167 -40 -99.5s-63.334 -39.5 -110.001 -39.5s-83.334 13.167 -110.001 39.5
s-40 59.5 -40 99.5z" />
    <glyph glyph-name="ldot" unicode="&#x140;" horiz-adv-x="1449" 
d="M199 1536h605v-1310h310v-226h-915v226h324v1083h-324v227zM896 812c0 40.667 13.333 74.167 40 100.5s63.334 39.5 110.001 39.5s83.334 -13.167 110.001 -39.5s40 -59.833 40 -100.5c0 -40 -13.333 -73.167 -40 -99.5s-63.334 -39.5 -110.001 -39.5
s-83.334 13.167 -110.001 39.5s-40 59.5 -40 99.5z" />
    <glyph glyph-name="Lslash" unicode="&#x141;" 
d="M461 886l232 68v-195l-232 -68v-464h682v-227h-964v609l-128 -37v195l128 37v652h282v-570z" />
    <glyph glyph-name="lslash" unicode="&#x142;" 
d="M818 1019l281 125v-195l-281 -125v-598h310v-226h-915v226h324v474l-312 -138v195l312 138v414h-324v227h605v-517z" />
    <glyph glyph-name="Nacute" unicode="&#x143;" 
d="M1091 0h-280l-405 939v-939h-283v1456h283l402 -935l1 935h282v-1456zM683 1823h306l-277 -279h-216z" />
    <glyph glyph-name="nacute" unicode="&#x144;" 
d="M393 1082l17 -150.001c38.667 54 85.667 95.833 141 125.5s116.666 44.5 183.999 44.5c54.667 0 104.667 -8 150 -24s84.5 -41.5 117.5 -76.5s58.667 -80 77 -135s27.5 -121.833 27.5 -200.5v-666h-278v662c0 42.667 -4.83301 77.834 -14.5 105.501
s-23.5 49.5 -41.5 65.5s-39.667 27.167 -65 33.5s-54 9.5 -86 9.5c-47.333 0 -87.666 -9.5 -120.999 -28.5s-60.333 -45.167 -81 -78.5v-769h-279v1082h252zM677 1501h306l-277 -279h-216z" />
    <glyph glyph-name="Ncommaaccent" unicode="&#x145;" 
d="M1091 0h-280l-405 939v-939h-283v1456h283l402 -935l1 935h282v-1456zM718 -135c0 -28.667 -3.16699 -58.834 -9.5 -90.501s-15.666 -63 -27.999 -94s-28 -60.667 -47 -89s-41.5 -53.5 -67.5 -75.5l-113 76c25.333 42 44.166 84.833 56.499 128.5
s18.5 90.834 18.5 141.501v72h190v-69z" />
    <glyph glyph-name="ncommaaccent" unicode="&#x146;" 
d="M393 1082l17 -150.001c38.667 54 85.667 95.833 141 125.5s116.666 44.5 183.999 44.5c54.667 0 104.667 -8 150 -24s84.5 -41.5 117.5 -76.5s58.667 -80 77 -135s27.5 -121.833 27.5 -200.5v-666h-278v662c0 42.667 -4.83301 77.834 -14.5 105.501
s-23.5 49.5 -41.5 65.5s-39.667 27.167 -65 33.5s-54 9.5 -86 9.5c-47.333 0 -87.666 -9.5 -120.999 -28.5s-60.333 -45.167 -81 -78.5v-769h-279v1082h252zM715 -128.001c0 -28.667 -3.16699 -58.834 -9.5 -90.501s-15.666 -63 -27.999 -94s-28 -60.667 -47 -89
s-41.5 -53.5 -67.5 -75.5l-113 76c25.333 42 44.166 84.833 56.499 128.5s18.5 90.834 18.5 141.501v72h190v-69z" />
    <glyph glyph-name="Ncaron" unicode="&#x147;" 
d="M1091 0h-280l-405 939v-939h-283v1456h283l402 -935l1 935h282v-1456zM613 1740l147 126h237v-19l-296 -253h-175l-296 252v20h237z" />
    <glyph glyph-name="ncaron" unicode="&#x148;" 
d="M393 1082l17 -150.001c38.667 54 85.667 95.833 141 125.5s116.666 44.5 183.999 44.5c54.667 0 104.667 -8 150 -24s84.5 -41.5 117.5 -76.5s58.667 -80 77 -135s27.5 -121.833 27.5 -200.5v-666h-278v662c0 42.667 -4.83301 77.834 -14.5 105.501
s-23.5 49.5 -41.5 65.5s-39.667 27.167 -65 33.5s-54 9.5 -86 9.5c-47.333 0 -87.666 -9.5 -120.999 -28.5s-60.333 -45.167 -81 -78.5v-769h-279v1082h252zM607 1418l147 126h237v-19l-296 -253h-175l-296 252v20h237z" />
    <glyph glyph-name="napostrophe" unicode="&#x149;" 
d="M393 1082l17 -150.001c38.667 54 85.667 95.833 141 125.5s116.666 44.5 183.999 44.5c54.667 0 104.667 -8 150 -24s84.5 -41.5 117.5 -76.5s58.667 -80 77 -135s27.5 -121.833 27.5 -200.5v-666h-278v662c0 42.667 -4.83301 77.834 -14.5 105.501
s-23.5 49.5 -41.5 65.5s-39.667 27.167 -65 33.5s-54 9.5 -86 9.5c-47.333 0 -87.666 -9.5 -120.999 -28.5s-60.333 -45.167 -81 -78.5v-769h-279v1082h252zM156 1384c0 -34 -4.66602 -69.168 -13.999 -105.501s-22.333 -71.666 -39 -105.999s-36 -67 -58 -98
s-46 -58.167 -72 -81.5l-127 79c25.333 43.333 46.166 90 62.499 140s24.5 107.333 24.5 172v173h223v-173z" />
    <glyph glyph-name="Eng" unicode="&#x14a;" 
d="M1095 1456l-0.00390625 -1495c0 -64 -8.66699 -120.833 -26 -170.5s-42.166 -91.334 -74.499 -125.001s-71.666 -59.167 -117.999 -76.5s-98.833 -26 -157.5 -26c-25.333 0 -48.666 1.16699 -69.999 3.5s-44.666 6.83301 -69.999 13.5l14 222
c14.667 -4 30.5 -6.83301 47.5 -8.5s34.167 -2.5 51.5 -2.5c38.667 0 68.667 14.5 90 43.5s32 71.167 32 126.5v39l-385 881v-881h-281v1456h281l385 -882v882h281z" />
    <glyph glyph-name="eng" unicode="&#x14b;" 
d="M407 1082l12.999 -152.001c35.333 54 79 96.167 131 126.5s111.333 45.5 178 45.5c52.667 0 100.5 -8 143.5 -24s79.833 -41.5 110.5 -76.5s54.5 -80.333 71.5 -136s25.5 -123.167 25.5 -202.5v-703c0 -64 -8.66699 -120.833 -26 -170.5s-42.166 -91.167 -74.499 -124.5
s-71.666 -58.666 -117.999 -75.999s-98.5 -26 -156.5 -26c-24.667 0 -47.834 1.16699 -69.501 3.5s-44.834 6.83301 -69.501 13.5l14 224c14.667 -4 30.667 -7 48 -9s34.666 -3 51.999 -3c38 0 67.5 14 88.5 42s31.5 70 31.5 126v702c0 40 -3.83301 73.667 -11.5 101
s-18.667 49.333 -33 66s-32.166 28.667 -53.499 36s-46 11 -74 11c-46 0 -85.667 -8.16699 -119 -24.5s-60.666 -38.833 -81.999 -67.5v-784h-278v1082h258z" />
    <glyph glyph-name="Omacron" unicode="&#x14c;" 
d="M1147 621c0 -93.333 -12.333 -179.33 -37 -257.997s-60.334 -146.334 -107.001 -203.001s-103.5 -100.834 -170.5 -132.501s-142.5 -47.5 -226.5 -47.5s-158.667 15.833 -224 47.5s-120.333 76 -165 133s-78.667 124.667 -102 203s-35 164.166 -35 257.499v212
c0 93.333 11.667 179.333 35 258s57.333 146.5 102 203.5s99.5 101.5 164.5 133.5s139.5 48 223.5 48c84.667 0 160.5 -16 227.5 -48s123.833 -76.5 170.5 -133.5s82.334 -124.833 107.001 -203.5s37 -164.667 37 -258v-212zM862 835.003
c0 59.333 -4.83008 114.001 -14.4971 164.001s-24.834 93 -45.501 129s-47.167 64.167 -79.5 84.5s-71.5 30.5 -117.5 30.5c-45.333 0 -83.333 -10.167 -114 -30.5s-55.334 -48.5 -74.001 -84.5s-32 -79 -40 -129s-12 -104.667 -12 -164v-214c0 -58.667 4 -113 12 -163
s21.333 -93.333 40 -130s43.334 -65.334 74.001 -86.001s69 -31 115 -31c45.333 0 84.166 10.333 116.499 31s58.666 49.167 78.999 85.5s35.5 79.5 45.5 129.5s15 104.667 15 164v214zM983.003 1635h-730v164h730v-164z" />
    <glyph glyph-name="omacron" unicode="&#x14d;" 
d="M103 551c0 78.667 11.333 151.5 34 218.5s55.834 125.167 99.501 174.5s97 88 160 116s135.167 42 216.5 42s153.666 -14 216.999 -42s116.833 -66.667 160.5 -116s76.834 -107.5 99.501 -174.5s34 -139.833 34 -218.5v-21c0 -79.333 -11.333 -152.5 -34 -219.5
s-55.667 -125.167 -99 -174.5s-96.666 -87.833 -159.999 -115.5s-135.333 -41.5 -216 -41.5c-81.333 0 -153.833 13.833 -217.5 41.5s-117.334 66.167 -161.001 115.5s-76.834 107.5 -99.501 174.5s-34 140.167 -34 219.5v21zM381 530
c0 -45.333 4.33105 -87.833 12.998 -127.5s22.334 -74.334 41.001 -104.001s42.834 -53.167 72.501 -70.5s65.5 -26 107.5 -26c40.667 0 75.667 8.66699 105 26s53.166 40.833 71.499 70.5s31.833 64.334 40.5 104.001s13 82.167 13 127.5v21c0 44 -4.33301 85.667 -13 125
s-22.167 74 -40.5 104s-42.166 53.667 -71.499 71s-65 26 -107 26c-41.333 0 -76.666 -8.66699 -105.999 -26s-53.333 -41 -72 -71s-32.334 -64.667 -41.001 -104s-13 -81 -13 -125v-21zM987.998 1292h-730v164h730v-164z" />
    <glyph glyph-name="Obreve" unicode="&#x14e;" 
d="M1147 621c0 -93.333 -12.333 -179.33 -37 -257.997s-60.334 -146.334 -107.001 -203.001s-103.5 -100.834 -170.5 -132.501s-142.5 -47.5 -226.5 -47.5s-158.667 15.833 -224 47.5s-120.333 76 -165 133s-78.667 124.667 -102 203s-35 164.166 -35 257.499v212
c0 93.333 11.667 179.333 35 258s57.333 146.5 102 203.5s99.5 101.5 164.5 133.5s139.5 48 223.5 48c84.667 0 160.5 -16 227.5 -48s123.833 -76.5 170.5 -133.5s82.334 -124.833 107.001 -203.5s37 -164.667 37 -258v-212zM862 835.003
c0 59.333 -4.83008 114.001 -14.4971 164.001s-24.834 93 -45.501 129s-47.167 64.167 -79.5 84.5s-71.5 30.5 -117.5 30.5c-45.333 0 -83.333 -10.167 -114 -30.5s-55.334 -48.5 -74.001 -84.5s-32 -79 -40 -129s-12 -104.667 -12 -164v-214c0 -58.667 4 -113 12 -163
s21.333 -93.333 40 -130s43.334 -65.334 74.001 -86.001s69 -31 115 -31c45.333 0 84.166 10.333 116.499 31s58.666 49.167 78.999 85.5s35.5 79.5 45.5 129.5s15 104.667 15 164v214zM957.003 1878c0 -43.333 -7.83105 -83 -23.498 -119s-38.334 -66.833 -68.001 -92.5
s-65.5 -45.667 -107.5 -60s-89 -21.5 -141 -21.5c-52.667 0 -100 7.16699 -142 21.5s-77.833 34.333 -107.5 60s-52.334 56.5 -68.001 92.5s-23.5 75.667 -23.5 119h200c0 -17.333 2.5 -34.166 7.5 -50.499s13.167 -30.666 24.5 -42.999s25.833 -22.166 43.5 -29.499
s39.5 -11 65.5 -11c25.333 0 46.833 3.66699 64.5 11s32 17.166 43 29.499s19 26.666 24 42.999s7.5 33.166 7.5 50.499h201z" />
    <glyph glyph-name="obreve" unicode="&#x14f;" 
d="M103 551c0 78.667 11.333 151.5 34 218.5s55.834 125.167 99.501 174.5s97 88 160 116s135.167 42 216.5 42s153.666 -14 216.999 -42s116.833 -66.667 160.5 -116s76.834 -107.5 99.501 -174.5s34 -139.833 34 -218.5v-21c0 -79.333 -11.333 -152.5 -34 -219.5
s-55.667 -125.167 -99 -174.5s-96.666 -87.833 -159.999 -115.5s-135.333 -41.5 -216 -41.5c-81.333 0 -153.833 13.833 -217.5 41.5s-117.334 66.167 -161.001 115.5s-76.834 107.5 -99.501 174.5s-34 140.167 -34 219.5v21zM381 530
c0 -45.333 4.33105 -87.833 12.998 -127.5s22.334 -74.334 41.001 -104.001s42.834 -53.167 72.501 -70.5s65.5 -26 107.5 -26c40.667 0 75.667 8.66699 105 26s53.166 40.833 71.499 70.5s31.833 64.334 40.5 104.001s13 82.167 13 127.5v21c0 44 -4.33301 85.667 -13 125
s-22.167 74 -40.5 104s-42.166 53.667 -71.499 71s-65 26 -107 26c-41.333 0 -76.666 -8.66699 -105.999 -26s-53.333 -41 -72 -71s-32.334 -64.667 -41.001 -104s-13 -81 -13 -125v-21zM961.998 1535c0 -43.333 -7.83105 -83 -23.498 -119s-38.334 -66.833 -68.001 -92.5
s-65.5 -45.667 -107.5 -60s-89 -21.5 -141 -21.5c-52.667 0 -100 7.16699 -142 21.5s-77.833 34.333 -107.5 60s-52.334 56.5 -68.001 92.5s-23.5 75.667 -23.5 119h200c0 -17.333 2.5 -34.166 7.5 -50.499s13.167 -30.666 24.5 -42.999s25.833 -22.166 43.5 -29.499
s39.5 -11 65.5 -11c25.333 0 46.833 3.66699 64.5 11s32 17.166 43 29.499s19 26.666 24 42.999s7.5 33.166 7.5 50.499h201z" />
    <glyph glyph-name="Ohungarumlaut" unicode="&#x150;" 
d="M1147 621c0 -93.333 -12.333 -179.33 -37 -257.997s-60.334 -146.334 -107.001 -203.001s-103.5 -100.834 -170.5 -132.501s-142.5 -47.5 -226.5 -47.5s-158.667 15.833 -224 47.5s-120.333 76 -165 133s-78.667 124.667 -102 203s-35 164.166 -35 257.499v212
c0 93.333 11.667 179.333 35 258s57.333 146.5 102 203.5s99.5 101.5 164.5 133.5s139.5 48 223.5 48c84.667 0 160.5 -16 227.5 -48s123.833 -76.5 170.5 -133.5s82.334 -124.833 107.001 -203.5s37 -164.667 37 -258v-212zM862 835.003
c0 59.333 -4.83008 114.001 -14.4971 164.001s-24.834 93 -45.501 129s-47.167 64.167 -79.5 84.5s-71.5 30.5 -117.5 30.5c-45.333 0 -83.333 -10.167 -114 -30.5s-55.334 -48.5 -74.001 -84.5s-32 -79 -40 -129s-12 -104.667 -12 -164v-214c0 -58.667 4 -113 12 -163
s21.333 -93.333 40 -130s43.334 -65.334 74.001 -86.001s69 -31 115 -31c45.333 0 84.166 10.333 116.499 31s58.666 49.167 78.999 85.5s35.5 79.5 45.5 129.5s15 104.667 15 164v214zM904.003 1888h273l-306 -265h-212zM537.003 1888h261l-258 -265h-206z" />
    <glyph glyph-name="ohungarumlaut" unicode="&#x151;" 
d="M103 551c0 78.667 11.333 151.5 34 218.5s55.834 125.167 99.501 174.5s97 88 160 116s135.167 42 216.5 42s153.666 -14 216.999 -42s116.833 -66.667 160.5 -116s76.834 -107.5 99.501 -174.5s34 -139.833 34 -218.5v-21c0 -79.333 -11.333 -152.5 -34 -219.5
s-55.667 -125.167 -99 -174.5s-96.666 -87.833 -159.999 -115.5s-135.333 -41.5 -216 -41.5c-81.333 0 -153.833 13.833 -217.5 41.5s-117.334 66.167 -161.001 115.5s-76.834 107.5 -99.501 174.5s-34 140.167 -34 219.5v21zM381 530
c0 -45.333 4.33105 -87.833 12.998 -127.5s22.334 -74.334 41.001 -104.001s42.834 -53.167 72.501 -70.5s65.5 -26 107.5 -26c40.667 0 75.667 8.66699 105 26s53.166 40.833 71.499 70.5s31.833 64.334 40.5 104.001s13 82.167 13 127.5v21c0 44 -4.33301 85.667 -13 125
s-22.167 74 -40.5 104s-42.166 53.667 -71.499 71s-65 26 -107 26c-41.333 0 -76.666 -8.66699 -105.999 -26s-53.333 -41 -72 -71s-32.334 -64.667 -41.001 -104s-13 -81 -13 -125v-21zM908.998 1545h273l-306 -265h-212zM541.998 1545h261l-258 -265h-206z" />
    <glyph glyph-name="OE" unicode="&#x152;" 
d="M1190 0l-421 -0.00390625c-42 -5.33301 -85.333 -10.166 -130 -14.499s-90.667 -6.5 -138 -6.5c-62 0 -119.333 10.333 -172 31s-98.167 52.334 -136.5 95.001s-68.166 96.5 -89.499 161.5s-32 141.5 -32 229.5v464c0 88 10.667 164.5 32 229.5s51 118.833 89 161.5
s83.167 74.334 135.5 95.001s109.5 31 171.5 31c47.333 0 93.666 -2.16699 138.999 -6.5s89 -9.16602 131 -14.499h410v-217h-347v-374h296v-217h-296v-416h358v-232zM501 210.996c30.667 0 61.002 1 91.002 3v1042c-15.333 1.33301 -30.833 2.33301 -46.5 3
s-31.167 1 -46.5 1c-29.333 0 -55.5 -4.5 -78.5 -13.5s-42.5 -24.833 -58.5 -47.5s-28.333 -53.167 -37 -91.5s-13 -86.833 -13 -145.5v-466c0 -56 4.33301 -102.5 13 -139.5s21.167 -66.167 37.5 -87.5s36.166 -36.333 59.499 -45s49.666 -13 78.999 -13z" />
    <glyph glyph-name="oe" unicode="&#x153;" 
d="M38 641c0 72 7.99902 136.499 23.999 193.499s39.5 105.333 70.5 145s69.167 70 114.5 91s97 31.5 155 31.5c47.333 0 90 -7.5 128 -22.5s71.667 -36.5 101 -64.5c27.333 28.667 59 50.5 95 65.5s76.333 22.167 121 21.5c53.333 0 101 -10.333 143 -31
s77.5 -49.667 106.5 -87s51 -82.5 66 -135.5s22.5 -111.833 22.5 -176.5v-218h-420v-34c0 -70 13.333 -123.667 40 -161s69.334 -56 128.001 -56c17.333 0 32.666 1 45.999 3s25.666 4.83301 36.999 8.5s22.166 8 32.499 13l32.5 16.5l60 -180
c-24.667 -23.333 -56.667 -43.166 -96 -59.499s-85.666 -24.5 -138.999 -24.5c-109.333 0 -197.666 31.667 -264.999 95c-29.333 -31.333 -63.666 -55 -102.999 -71s-84 -24 -134 -24c-58.667 0 -110.667 10.333 -156 31s-83.5 50.667 -114.5 90s-54.667 87.5 -71 144.5
s-24.5 121.833 -24.5 194.5v201zM298.999 439.999c0 -77.333 7.16895 -136.167 21.502 -176.5s42.166 -60.5 83.499 -60.5c40.667 0 68.167 20 82.5 60s21.5 99 21.5 177v201c0 37.333 -1.66699 70.666 -5 99.999s-9 54 -17 74s-18.833 35.333 -32.5 46
s-30.834 16 -51.501 16c-20 0 -36.5 -5.33301 -49.5 -16s-23.5 -26 -31.5 -46s-13.667 -44.667 -17 -74s-5 -62.666 -5 -99.999v-201zM847.001 876.998c-19.333 0 -34.333 -5.16699 -45 -15.5s-18.834 -25.166 -24.501 -44.499s-9.16699 -43.333 -10.5 -72
s-2 -61.334 -2 -98.001h163v85c0 44.667 -6.16699 80 -18.5 106s-33.166 39 -62.499 39z" />
    <glyph glyph-name="Racute" unicode="&#x154;" 
d="M625 544l-212.999 0.000976562v-544h-281v1456h488c80.667 0 153.667 -9.5 219 -28.5s121.166 -46.833 167.499 -83.5s82 -82.334 107 -137.001s37.5 -118 37.5 -190c0 -52 -6.16699 -98.833 -18.5 -140.5s-30 -79 -53 -112s-50.667 -61.833 -83 -86.5
s-68.5 -46 -108.5 -64l313 -601v-13h-301zM412.001 772.001h208c79.333 0 140.5 20.167 183.5 60.5s64.5 95.5 64.5 165.5c0 72.667 -21 129.167 -63 169.5s-104 60.5 -186 60.5h-207v-456zM664.001 1811h306l-277 -279h-216z" />
    <glyph glyph-name="racute" unicode="&#x155;" 
d="M918 1102c42 0 80.833 -2.83203 116.5 -8.49902s64.5 -11.834 86.5 -18.501l-41 -277c-36.667 8.66699 -74.167 15.167 -112.5 19.5s-74.833 6.5 -109.5 6.5c-78 0 -140.5 -15 -187.5 -45s-82.167 -73 -105.5 -129v-650h-278v1082h259l13 -177
c44 61.333 96.667 109.5 158 144.5s128.333 52.5 201 52.5zM650 1501h306l-277 -279h-216z" />
    <glyph glyph-name="Rcommaaccent" unicode="&#x156;" 
d="M625 544l-212.999 0.000976562v-544h-281v1456h488c80.667 0 153.667 -9.5 219 -28.5s121.166 -46.833 167.499 -83.5s82 -82.334 107 -137.001s37.5 -118 37.5 -190c0 -52 -6.16699 -98.833 -18.5 -140.5s-30 -79 -53 -112s-50.667 -61.833 -83 -86.5
s-68.5 -46 -108.5 -64l313 -601v-13h-301zM412.001 772.001h208c79.333 0 140.5 20.167 183.5 60.5s64.5 95.5 64.5 165.5c0 72.667 -21 129.167 -63 169.5s-104 60.5 -186 60.5h-207v-456zM707.001 -127.999c0 -28.667 -3.16699 -58.834 -9.5 -90.501
s-15.666 -63 -27.999 -94s-28 -60.667 -47 -89s-41.5 -53.5 -67.5 -75.5l-113 76c25.333 42 44.166 84.833 56.499 128.5s18.5 90.834 18.5 141.501v72h190v-69z" />
    <glyph glyph-name="rcommaaccent" unicode="&#x157;" 
d="M918 1102c42 0 80.833 -2.83203 116.5 -8.49902s64.5 -11.834 86.5 -18.501l-41 -277c-36.667 8.66699 -74.167 15.167 -112.5 19.5s-74.833 6.5 -109.5 6.5c-78 0 -140.5 -15 -187.5 -45s-82.167 -73 -105.5 -129v-650h-278v1082h259l13 -177
c44 61.333 96.667 109.5 158 144.5s128.333 52.5 201 52.5zM532 -127.999c0 -28.667 -3.16699 -58.834 -9.5 -90.501s-15.666 -63 -27.999 -94s-28 -60.667 -47 -89s-41.5 -53.5 -67.5 -75.5l-113 76c25.333 42 44.166 84.833 56.499 128.5s18.5 90.834 18.5 141.501v72h190
v-69z" />
    <glyph glyph-name="Rcaron" unicode="&#x158;" 
d="M625 544l-212.999 0.000976562v-544h-281v1456h488c80.667 0 153.667 -9.5 219 -28.5s121.166 -46.833 167.499 -83.5s82 -82.334 107 -137.001s37.5 -118 37.5 -190c0 -52 -6.16699 -98.833 -18.5 -140.5s-30 -79 -53 -112s-50.667 -61.833 -83 -86.5
s-68.5 -46 -108.5 -64l313 -601v-13h-301zM412.001 772.001h208c79.333 0 140.5 20.167 183.5 60.5s64.5 95.5 64.5 165.5c0 72.667 -21 129.167 -63 169.5s-104 60.5 -186 60.5h-207v-456zM594.001 1728l147 126h237v-19l-296 -253h-175l-296 252v20h237z" />
    <glyph glyph-name="rcaron" unicode="&#x159;" 
d="M918 1102c42 0 80.833 -2.83203 116.5 -8.49902s64.5 -11.834 86.5 -18.501l-41 -277c-36.667 8.66699 -74.167 15.167 -112.5 19.5s-74.833 6.5 -109.5 6.5c-78 0 -140.5 -15 -187.5 -45s-82.167 -73 -105.5 -129v-650h-278v1082h259l13 -177
c44 61.333 96.667 109.5 158 144.5s128.333 52.5 201 52.5zM580 1418l147 126h237v-19l-296 -253h-175l-296 252v20h237z" />
    <glyph glyph-name="Sacute" unicode="&#x15a;" 
d="M887 380c0 26 -4.5 50.334 -13.5 73.001s-24.333 43.834 -46 63.501s-50 37.667 -85 54s-78.5 31.5 -130.5 45.5c-63.333 17.333 -123.833 39 -181.5 65s-108.5 57.333 -152.5 94s-79.167 79.334 -105.5 128.001s-39.5 104.667 -39.5 168c0 61.333 13 117 39 167
s62 92.667 108 128s100.333 62.5 163 81.5s130.667 28.5 204 28.5c76 0 145.5 -11 208.5 -33s117.167 -52.833 162.5 -92.5s80.666 -86.834 105.999 -141.501s38 -114.667 38 -180h-274c-1.33301 32.667 -7.16602 62.667 -17.499 90s-25.666 50.833 -45.999 70.5
s-45.666 35 -75.999 46s-65.833 16.5 -106.5 16.5c-37.333 0 -70.5 -4.5 -99.5 -13.5s-53.5 -21.667 -73.5 -38s-35.167 -35.666 -45.5 -57.999s-15.5 -46.5 -15.5 -72.5c0 -27.333 6.83301 -52 20.5 -74s33.5 -41.833 59.5 -59.5s57.5 -33.834 94.5 -48.501
s78.833 -28.334 125.5 -41.001c66.667 -19.333 128 -43 184 -71s104.167 -61.167 144.5 -99.5s71.666 -82 93.999 -131s33.5 -103.5 33.5 -163.5c0 -64 -12.833 -120.833 -38.5 -170.5s-61.167 -91.667 -106.5 -126s-99.333 -60.333 -162 -78s-131 -26.5 -205 -26.5
c-46 0 -91.833 4.16699 -137.5 12.5s-89.334 21.166 -131.001 38.499s-80.5 39 -116.5 65s-67.167 56.333 -93.5 91s-47 74 -62 118s-22.5 92.667 -22.5 146h276c1.33301 -44 9 -81.667 23 -113s33.5 -57 58.5 -77s55 -34.667 90 -44s73.5 -14 115.5 -14
c37.333 0 70.5 4.33301 99.5 13s53.5 20.667 73.5 36s35.333 33.833 46 55.5s16 45.5 16 71.5zM716 1844h306l-277 -279h-216z" />
    <glyph glyph-name="sacute" unicode="&#x15b;" 
d="M839 297c0 16.667 -3.83301 31.332 -11.5 43.999s-21.334 24.5 -41.001 35.5s-45.834 21.167 -78.501 30.5s-74 18.666 -124 27.999c-63.333 12.667 -121.166 28.5 -173.499 47.5s-97.166 42 -134.499 69s-66.5 58.167 -87.5 93.5s-31.5 76 -31.5 122
c0 44.667 10.667 87.334 32 128.001s52 76.334 92 107.001s88.667 55 146 73s122 27 194 27c75.333 0 143 -8.83301 203 -26.5s110.833 -42 152.5 -73s73.5 -67.833 95.5 -110.5s33 -89 33 -139h-278c0 42 -17 77.167 -51 105.5s-85.667 42.5 -155 42.5
c-64.667 0 -113.5 -11.667 -146.5 -35s-49.5 -52 -49.5 -86c0 -16 3.33301 -30.833 10 -44.5s18.5 -26 35.5 -37s40.167 -21 69.5 -30s66.666 -16.833 111.999 -23.5c65.333 -10.667 126 -24.334 182 -41.001s104.333 -38.167 145 -64.5s72.5 -58.333 95.5 -96
s34.5 -82.5 34.5 -134.5c0 -48 -11.5 -92.167 -34.5 -132.5s-55.667 -75.166 -98 -104.499s-93.5 -52.166 -153.5 -68.499s-127 -24.5 -201 -24.5c-81.333 0 -153.166 10.667 -215.499 32s-114.5 49.166 -156.5 83.499s-73.833 73.333 -95.5 117s-32.5 87.5 -32.5 131.5h265
c2 -29.333 10 -54.5 24 -75.5s32 -38 54 -51s47.167 -22.5 75.5 -28.5s57.5 -9 87.5 -9c68.667 0 121 11 157 33s54 50.333 54 85zM661 1501h306l-277 -279h-216z" />
    <glyph glyph-name="Scircumflex" unicode="&#x15c;" 
d="M887 380c0 26 -4.5 50.334 -13.5 73.001s-24.333 43.834 -46 63.501s-50 37.667 -85 54s-78.5 31.5 -130.5 45.5c-63.333 17.333 -123.833 39 -181.5 65s-108.5 57.333 -152.5 94s-79.167 79.334 -105.5 128.001s-39.5 104.667 -39.5 168c0 61.333 13 117 39 167
s62 92.667 108 128s100.333 62.5 163 81.5s130.667 28.5 204 28.5c76 0 145.5 -11 208.5 -33s117.167 -52.833 162.5 -92.5s80.666 -86.834 105.999 -141.501s38 -114.667 38 -180h-274c-1.33301 32.667 -7.16602 62.667 -17.499 90s-25.666 50.833 -45.999 70.5
s-45.666 35 -75.999 46s-65.833 16.5 -106.5 16.5c-37.333 0 -70.5 -4.5 -99.5 -13.5s-53.5 -21.667 -73.5 -38s-35.167 -35.666 -45.5 -57.999s-15.5 -46.5 -15.5 -72.5c0 -27.333 6.83301 -52 20.5 -74s33.5 -41.833 59.5 -59.5s57.5 -33.834 94.5 -48.501
s78.833 -28.334 125.5 -41.001c66.667 -19.333 128 -43 184 -71s104.167 -61.167 144.5 -99.5s71.666 -82 93.999 -131s33.5 -103.5 33.5 -163.5c0 -64 -12.833 -120.833 -38.5 -170.5s-61.167 -91.667 -106.5 -126s-99.333 -60.333 -162 -78s-131 -26.5 -205 -26.5
c-46 0 -91.833 4.16699 -137.5 12.5s-89.334 21.166 -131.001 38.499s-80.5 39 -116.5 65s-67.167 56.333 -93.5 91s-47 74 -62 118s-22.5 92.667 -22.5 146h276c1.33301 -44 9 -81.667 23 -113s33.5 -57 58.5 -77s55 -34.667 90 -44s73.5 -14 115.5 -14
c37.333 0 70.5 4.33301 99.5 13s53.5 20.667 73.5 36s35.333 33.833 46 55.5s16 45.5 16 71.5zM1021 1643v-28h-221l-154 127l-153 -127h-217v30l290 241h161z" />
    <glyph glyph-name="scircumflex" unicode="&#x15d;" 
d="M839 297c0 16.667 -3.83301 31.332 -11.5 43.999s-21.334 24.5 -41.001 35.5s-45.834 21.167 -78.501 30.5s-74 18.666 -124 27.999c-63.333 12.667 -121.166 28.5 -173.499 47.5s-97.166 42 -134.499 69s-66.5 58.167 -87.5 93.5s-31.5 76 -31.5 122
c0 44.667 10.667 87.334 32 128.001s52 76.334 92 107.001s88.667 55 146 73s122 27 194 27c75.333 0 143 -8.83301 203 -26.5s110.833 -42 152.5 -73s73.5 -67.833 95.5 -110.5s33 -89 33 -139h-278c0 42 -17 77.167 -51 105.5s-85.667 42.5 -155 42.5
c-64.667 0 -113.5 -11.667 -146.5 -35s-49.5 -52 -49.5 -86c0 -16 3.33301 -30.833 10 -44.5s18.5 -26 35.5 -37s40.167 -21 69.5 -30s66.666 -16.833 111.999 -23.5c65.333 -10.667 126 -24.334 182 -41.001s104.333 -38.167 145 -64.5s72.5 -58.333 95.5 -96
s34.5 -82.5 34.5 -134.5c0 -48 -11.5 -92.167 -34.5 -132.5s-55.667 -75.166 -98 -104.499s-93.5 -52.166 -153.5 -68.499s-127 -24.5 -201 -24.5c-81.333 0 -153.166 10.667 -215.499 32s-114.5 49.166 -156.5 83.499s-73.833 73.333 -95.5 117s-32.5 87.5 -32.5 131.5h265
c2 -29.333 10 -54.5 24 -75.5s32 -38 54 -51s47.167 -22.5 75.5 -28.5s57.5 -9 87.5 -9c68.667 0 121 11 157 33s54 50.333 54 85zM966 1300v-28h-221l-154 127l-153 -127h-217v30l290 241h161z" />
    <glyph glyph-name="Scedilla" unicode="&#x15e;" 
d="M887 380c0 26 -4.5 50.334 -13.5 73.001s-24.333 43.834 -46 63.501s-50 37.667 -85 54s-78.5 31.5 -130.5 45.5c-63.333 17.333 -123.833 39 -181.5 65s-108.5 57.333 -152.5 94s-79.167 79.334 -105.5 128.001s-39.5 104.667 -39.5 168c0 61.333 13 117 39 167
s62 92.667 108 128s100.333 62.5 163 81.5s130.667 28.5 204 28.5c76 0 145.5 -11 208.5 -33s117.167 -52.833 162.5 -92.5s80.666 -86.834 105.999 -141.501s38 -114.667 38 -180h-274c-1.33301 32.667 -7.16602 62.667 -17.499 90s-25.666 50.833 -45.999 70.5
s-45.666 35 -75.999 46s-65.833 16.5 -106.5 16.5c-37.333 0 -70.5 -4.5 -99.5 -13.5s-53.5 -21.667 -73.5 -38s-35.167 -35.666 -45.5 -57.999s-15.5 -46.5 -15.5 -72.5c0 -27.333 6.83301 -52 20.5 -74s33.5 -41.833 59.5 -59.5s57.5 -33.834 94.5 -48.501
s78.833 -28.334 125.5 -41.001c66.667 -19.333 128 -43 184 -71s104.167 -61.167 144.5 -99.5s71.666 -82 93.999 -131s33.5 -103.5 33.5 -163.5c0 -64 -12.833 -120.833 -38.5 -170.5s-61.167 -91.667 -106.5 -126s-99.333 -60.333 -162 -78s-131 -26.5 -205 -26.5
c-46 0 -91.833 4.16699 -137.5 12.5s-89.334 21.166 -131.001 38.499s-80.5 39 -116.5 65s-67.167 56.333 -93.5 91s-47 74 -62 118s-22.5 92.667 -22.5 146h276c1.33301 -44 9 -81.667 23 -113s33.5 -57 58.5 -77s55 -34.667 90 -44s73.5 -14 115.5 -14
c37.333 0 70.5 4.33301 99.5 13s53.5 20.667 73.5 36s35.333 33.833 46 55.5s16 45.5 16 71.5zM762 -3.99902l-10.999 -56c18.667 -3.33301 37 -8.83301 55 -16.5s34 -18.334 48 -32.001s25.333 -30.667 34 -51s13 -44.833 13 -73.5c0 -35.333 -7.33301 -67.333 -22 -96
s-36.5 -53.167 -65.5 -73.5s-64.833 -36.166 -107.5 -47.499s-92.334 -17 -149.001 -17l-7 160c34 0 62.333 6.33301 85 19s34 34 34 64c0 28 -11.5 47.333 -34.5 58s-59.833 17.667 -110.5 21l31 141h207z" />
    <glyph glyph-name="scedilla" unicode="&#x15f;" 
d="M839 297c0 16.667 -3.83301 31.332 -11.5 43.999s-21.334 24.5 -41.001 35.5s-45.834 21.167 -78.501 30.5s-74 18.666 -124 27.999c-63.333 12.667 -121.166 28.5 -173.499 47.5s-97.166 42 -134.499 69s-66.5 58.167 -87.5 93.5s-31.5 76 -31.5 122
c0 44.667 10.667 87.334 32 128.001s52 76.334 92 107.001s88.667 55 146 73s122 27 194 27c75.333 0 143 -8.83301 203 -26.5s110.833 -42 152.5 -73s73.5 -67.833 95.5 -110.5s33 -89 33 -139h-278c0 42 -17 77.167 -51 105.5s-85.667 42.5 -155 42.5
c-64.667 0 -113.5 -11.667 -146.5 -35s-49.5 -52 -49.5 -86c0 -16 3.33301 -30.833 10 -44.5s18.5 -26 35.5 -37s40.167 -21 69.5 -30s66.666 -16.833 111.999 -23.5c65.333 -10.667 126 -24.334 182 -41.001s104.333 -38.167 145 -64.5s72.5 -58.333 95.5 -96
s34.5 -82.5 34.5 -134.5c0 -48 -11.5 -92.167 -34.5 -132.5s-55.667 -75.166 -98 -104.499s-93.5 -52.166 -153.5 -68.499s-127 -24.5 -201 -24.5c-81.333 0 -153.166 10.667 -215.499 32s-114.5 49.166 -156.5 83.499s-73.833 73.333 -95.5 117s-32.5 87.5 -32.5 131.5h265
c2 -29.333 10 -54.5 24 -75.5s32 -38 54 -51s47.167 -22.5 75.5 -28.5s57.5 -9 87.5 -9c68.667 0 121 11 157 33s54 50.333 54 85zM698 -4.00195l-10.999 -56c18.667 -3.33301 37 -8.83301 55 -16.5s34 -18.334 48 -32.001s25.333 -30.667 34 -51s13 -44.833 13 -73.5
c0 -35.333 -7.33301 -67.333 -22 -96s-36.5 -53.167 -65.5 -73.5s-64.833 -36.166 -107.5 -47.499s-92.334 -17 -149.001 -17l-7 160c34 0 62.333 6.33301 85 19s34 34 34 64c0 28 -11.5 47.333 -34.5 58s-59.833 17.667 -110.5 21l31 141h207z" />
    <glyph glyph-name="Scaron" unicode="&#x160;" 
d="M887 380c0 26 -4.5 50.334 -13.5 73.001s-24.333 43.834 -46 63.501s-50 37.667 -85 54s-78.5 31.5 -130.5 45.5c-63.333 17.333 -123.833 39 -181.5 65s-108.5 57.333 -152.5 94s-79.167 79.334 -105.5 128.001s-39.5 104.667 -39.5 168c0 61.333 13 117 39 167
s62 92.667 108 128s100.333 62.5 163 81.5s130.667 28.5 204 28.5c76 0 145.5 -11 208.5 -33s117.167 -52.833 162.5 -92.5s80.666 -86.834 105.999 -141.501s38 -114.667 38 -180h-274c-1.33301 32.667 -7.16602 62.667 -17.499 90s-25.666 50.833 -45.999 70.5
s-45.666 35 -75.999 46s-65.833 16.5 -106.5 16.5c-37.333 0 -70.5 -4.5 -99.5 -13.5s-53.5 -21.667 -73.5 -38s-35.167 -35.666 -45.5 -57.999s-15.5 -46.5 -15.5 -72.5c0 -27.333 6.83301 -52 20.5 -74s33.5 -41.833 59.5 -59.5s57.5 -33.834 94.5 -48.501
s78.833 -28.334 125.5 -41.001c66.667 -19.333 128 -43 184 -71s104.167 -61.167 144.5 -99.5s71.666 -82 93.999 -131s33.5 -103.5 33.5 -163.5c0 -64 -12.833 -120.833 -38.5 -170.5s-61.167 -91.667 -106.5 -126s-99.333 -60.333 -162 -78s-131 -26.5 -205 -26.5
c-46 0 -91.833 4.16699 -137.5 12.5s-89.334 21.166 -131.001 38.499s-80.5 39 -116.5 65s-67.167 56.333 -93.5 91s-47 74 -62 118s-22.5 92.667 -22.5 146h276c1.33301 -44 9 -81.667 23 -113s33.5 -57 58.5 -77s55 -34.667 90 -44s73.5 -14 115.5 -14
c37.333 0 70.5 4.33301 99.5 13s53.5 20.667 73.5 36s35.333 33.833 46 55.5s16 45.5 16 71.5zM645 1761l147 126h237v-19l-296 -253h-175l-296 252v20h237z" />
    <glyph glyph-name="scaron" unicode="&#x161;" 
d="M839 297c0 16.667 -3.83301 31.332 -11.5 43.999s-21.334 24.5 -41.001 35.5s-45.834 21.167 -78.501 30.5s-74 18.666 -124 27.999c-63.333 12.667 -121.166 28.5 -173.499 47.5s-97.166 42 -134.499 69s-66.5 58.167 -87.5 93.5s-31.5 76 -31.5 122
c0 44.667 10.667 87.334 32 128.001s52 76.334 92 107.001s88.667 55 146 73s122 27 194 27c75.333 0 143 -8.83301 203 -26.5s110.833 -42 152.5 -73s73.5 -67.833 95.5 -110.5s33 -89 33 -139h-278c0 42 -17 77.167 -51 105.5s-85.667 42.5 -155 42.5
c-64.667 0 -113.5 -11.667 -146.5 -35s-49.5 -52 -49.5 -86c0 -16 3.33301 -30.833 10 -44.5s18.5 -26 35.5 -37s40.167 -21 69.5 -30s66.666 -16.833 111.999 -23.5c65.333 -10.667 126 -24.334 182 -41.001s104.333 -38.167 145 -64.5s72.5 -58.333 95.5 -96
s34.5 -82.5 34.5 -134.5c0 -48 -11.5 -92.167 -34.5 -132.5s-55.667 -75.166 -98 -104.499s-93.5 -52.166 -153.5 -68.499s-127 -24.5 -201 -24.5c-81.333 0 -153.166 10.667 -215.499 32s-114.5 49.166 -156.5 83.499s-73.833 73.333 -95.5 117s-32.5 87.5 -32.5 131.5h265
c2 -29.333 10 -54.5 24 -75.5s32 -38 54 -51s47.167 -22.5 75.5 -28.5s57.5 -9 87.5 -9c68.667 0 121 11 157 33s54 50.333 54 85zM591 1418l147 126h237v-19l-296 -253h-175l-296 252v20h237z" />
    <glyph glyph-name="uni0162" unicode="&#x162;" 
d="M1201 1227h-449v-1227h-282v1227h-443v229h1174v-229zM718 18l-10.999 -56c18.667 -3.33301 37 -8.83301 55 -16.5s34 -18.334 48 -32.001s25.333 -30.667 34 -51s13 -44.833 13 -73.5c0 -35.333 -7.33301 -67.333 -22 -96s-36.5 -53.167 -65.5 -73.5
s-64.833 -36.166 -107.5 -47.499s-92.334 -17 -149.001 -17l-7 160c34 0 62.333 6.33301 85 19s34 34 34 64c0 28 -11.5 47.333 -34.5 58s-59.833 17.667 -110.5 21l31 141h207z" />
    <glyph glyph-name="uni0163" unicode="&#x163;" 
d="M651 1347l-0.000976562 -265.001h404v-205h-404v-465c0 -39.333 4.5 -72.166 13.5 -98.499s21.833 -47.333 38.5 -63s36.834 -26.834 60.501 -33.501s50.167 -10 79.5 -10c21.333 0 43.166 1 65.499 3s43.666 4.5 63.999 7.5s39.333 6.16699 57 9.5
s32.834 6.66602 45.501 9.99902l27 -191c-19.333 -11.333 -42 -21.166 -68 -29.499s-53.667 -15.166 -83 -20.499s-59.833 -9.5 -91.5 -12.5s-62.834 -4.5 -93.501 -4.5c-59.333 0 -113.166 7.83301 -161.499 23.5s-89.666 40 -123.999 73s-60.833 75 -79.5 126
s-28 112.167 -28 183.5v492h-247v205h247v265h278zM783.999 4.99902l-10.999 -56c18.667 -3.33301 37 -8.83301 55 -16.5s34 -18.334 48 -32.001s25.333 -30.667 34 -51s13 -44.833 13 -73.5c0 -35.333 -7.33301 -67.333 -22 -96s-36.5 -53.167 -65.5 -73.5
s-64.833 -36.166 -107.5 -47.499s-92.334 -17 -149.001 -17l-7 160c34 0 62.333 6.33301 85 19s34 34 34 64c0 28 -11.5 47.333 -34.5 58s-59.833 17.667 -110.5 21l31 141h207z" />
    <glyph glyph-name="Tcaron" unicode="&#x164;" 
d="M1201 1227h-449v-1227h-282v1227h-443v229h1174v-229zM614 1737l147 126h237v-19l-296 -253h-175l-296 252v20h237z" />
    <glyph glyph-name="tcaron" unicode="&#x165;" horiz-adv-x="1269" 
d="M651 1347l-0.000976562 -265.001h404v-205h-404v-465c0 -39.333 4.5 -72.166 13.5 -98.499s21.833 -47.333 38.5 -63s36.834 -26.834 60.501 -33.501s50.167 -10 79.5 -10c21.333 0 43.166 1 65.499 3s43.666 4.5 63.999 7.5s39.333 6.16699 57 9.5
s32.834 6.66602 45.501 9.99902l27 -191c-19.333 -11.333 -42 -21.166 -68 -29.499s-53.667 -15.166 -83 -20.499s-59.833 -9.5 -91.5 -12.5s-62.834 -4.5 -93.501 -4.5c-59.333 0 -113.166 7.83301 -161.499 23.5s-89.666 40 -123.999 73s-60.833 75 -79.5 126
s-28 112.167 -28 183.5v492h-247v205h247v265h278zM1230 1550c0 -34 -4.66602 -69.168 -13.999 -105.501s-22.333 -71.666 -39 -105.999s-36 -67 -58 -98s-46 -58.167 -72 -81.5l-127 79c25.333 43.333 46.166 90 62.499 140s24.5 107.333 24.5 172v173h223v-173z" />
    <glyph glyph-name="Tbar" unicode="&#x166;" 
d="M933 757h-181v-757h-282v757h-229v180h229v290h-443v229h1174v-229h-449v-290h181v-180z" />
    <glyph glyph-name="tbar" unicode="&#x167;" 
d="M651 1347l-0.000976562 -265.001h404v-205h-404v-158h219v-180h-219v-127c0 -39.333 4.5 -72.166 13.5 -98.499s21.833 -47.333 38.5 -63s36.834 -26.834 60.501 -33.501s50.167 -10 79.5 -10c21.333 0 43.166 1 65.499 3s43.666 4.5 63.999 7.5s39.333 6.16699 57 9.5
s32.834 6.66602 45.501 9.99902l27 -191c-19.333 -11.333 -42 -21.166 -68 -29.499s-53.667 -15.166 -83 -20.499s-59.833 -9.5 -91.5 -12.5s-62.834 -4.5 -93.501 -4.5c-59.333 0 -113.166 7.83301 -161.499 23.5s-89.666 40 -123.999 73s-60.833 75 -79.5 126
s-28 112.167 -28 183.5v154h-195v180h195v158h-247v205h247v265h278z" />
    <glyph glyph-name="Utilde" unicode="&#x168;" 
d="M1101 1456l0.99707 -965c0 -81.333 -11.167 -153.666 -33.5 -216.999s-54.666 -116.833 -96.999 -160.5s-94 -76.834 -155 -99.501s-130.5 -34 -208.5 -34c-73.333 0 -139.5 11.333 -198.5 34s-109.5 55.667 -151.5 99s-74.5 96.833 -97.5 160.5
s-34.5 136.167 -34.5 217.5l1 965h281l1 -965c0.666992 -94 17.834 -165 51.501 -213s82.834 -72 147.501 -72c68.667 0 121.167 24 157.5 72s54.833 119 55.5 213l1 965h279zM986.997 1858c0 -30 -5.16602 -59.665 -15.499 -88.998s-25 -55.5 -44 -78.5
s-41.667 -41.5 -68 -55.5s-55.833 -21 -88.5 -21c-32 0 -59.833 4.5 -83.5 13.5s-46 19 -67 30s-41.833 21 -62.5 30s-44 13.5 -70 13.5c-24 0 -44.833 -8.66699 -62.5 -26s-26.5 -41.333 -26.5 -72l-140 30c0 29.333 5.16699 58.666 15.5 87.999s24.833 55.666 43.5 78.999
s41.167 42.333 67.5 57s55.833 22 88.5 22c26.667 0 51.667 -4.5 75 -13.5s46.166 -19 68.499 -30s44.833 -21 67.5 -30s46.667 -13.5 72 -13.5c24 0 45 8.5 63 25.5s27 40.833 27 71.5z" />
    <glyph glyph-name="utilde" unicode="&#x169;" 
d="M831 152c-36.667 -54 -80.835 -96.333 -132.502 -127s-108.167 -46 -169.5 -46c-56 0 -107.333 8.66699 -154 26s-86.667 44.833 -120 82.5s-59.166 85.667 -77.499 144s-27.5 128.5 -27.5 210.5v640h278v-642c0 -44 3.16699 -81 9.5 -111s16.5 -54.167 30.5 -72.5
s32.333 -31.5 55 -39.5s50.334 -12 83.001 -12c55.333 0 100.333 10.5 135 31.5s61 49.833 79 86.5v759h279v-1082h-252zM985.999 1518c0 -30 -5.16602 -59.665 -15.499 -88.998s-25 -55.5 -44 -78.5s-41.667 -41.5 -68 -55.5s-55.833 -21 -88.5 -21
c-32 0 -59.833 4.5 -83.5 13.5s-46 19 -67 30s-41.833 21 -62.5 30s-44 13.5 -70 13.5c-24 0 -44.833 -8.66699 -62.5 -26s-26.5 -41.333 -26.5 -72l-140 30c0 29.333 5.16699 58.666 15.5 87.999s24.833 55.666 43.5 78.999s41.167 42.333 67.5 57s55.833 22 88.5 22
c26.667 0 51.667 -4.5 75 -13.5s46.166 -19 68.499 -30s44.833 -21 67.5 -30s46.667 -13.5 72 -13.5c24 0 45 8.5 63 25.5s27 40.833 27 71.5z" />
    </font>
</defs>
</svg>
