<?xml version="1.0" standalone="no"?>
<!DOCTYPE svg PUBLIC "-//W3C//DTD SVG 1.1//EN" "http://www.w3.org/Graphics/SVG/1.1/DTD/svg11.dtd" >
<svg>
<metadata>
Created by FontForge 20090914 at Thu Jun  7 11:51:12 2018
 By www-data
Copyright 2015 Google Inc. All Rights Reserved.
</metadata>
<defs>
<font id="RobotoMono-Italic" horiz-adv-x="1202" >
  <font-face 
    font-family="Roboto Mono"
    font-weight="400"
    font-style="italic"
    font-stretch="normal"
    units-per-em="2048"
    panose-1="0 0 0 0 0 0 0 0 0 0"
    ascent="1536"
    descent="-512"
    x-height="1082"
    cap-height="1456"
    bbox="-852 -554.996 2021 2163"
    underline-thickness="100"
    underline-position="-100"
    unicode-range="U+0002-U+FFFD"
  />
<missing-glyph 
 />
    <glyph glyph-name=".notdef" 
 />
    <glyph glyph-name="NULL" horiz-adv-x="0" 
 />
    <glyph glyph-name="NULL" horiz-adv-x="0" 
 />
    <glyph glyph-name="uni0002" 
 />
    <glyph glyph-name="uni0009" unicode="&#x9;" 
 />
    <glyph glyph-name="nonmarkingreturn" unicode="&#xd;" 
 />
    <glyph glyph-name="space" unicode=" " 
 />
    <glyph glyph-name="exclam" unicode="!" 
d="M648 471h-182l171 985h182zM384 94c0.666992 32.667 11.1699 59.832 31.5029 81.499s47.166 33.167 80.499 34.5c16 0.666992 31 -1.66602 45 -6.99902s26 -13 36 -23s17.667 -21.833 23 -35.5s8 -28.5 8 -44.5c-0.666992 -32.667 -11.667 -59.167 -33 -79.5
s-48 -31.166 -80 -32.499c-16 -0.666992 -30.833 1.5 -44.5 6.5s-25.334 12.167 -35.001 21.5s-17.334 20.666 -23.001 33.999s-8.5 28 -8.5 44z" />
    <glyph glyph-name="quotedbl" unicode="&#x22;" 
d="M619 1419l-77 -362l-128 -1l61 385l17 104l145 -10zM965 1419l-77 -362h-127l60 377l17 102h147z" />
    <glyph glyph-name="numbersign" unicode="#" 
d="M651 410h-251l-149 -410h-145l150 410h-230l24 137h254l129 354h-249l25 139h274l152 416h145l-153 -416h250l153 416h144l-152 -416h197l-24 -139h-223l-128 -354h217l-24 -137h-242l-149 -410h-145zM449 547h250l129 354h-251z" />
    <glyph glyph-name="dollar" unicode="$" 
d="M844 382c4 36 0.50293 67.6758 -10.4971 95.0088s-27.167 51.5 -48.5 72.5s-46 39.167 -74 54.5s-57 28.666 -87 39.999c-49.333 19.333 -95.333 41.666 -138 66.999s-79.5 55.166 -110.5 89.499s-54.5 73.666 -70.5 117.999s-22 95.5 -18 153.5
s16.833 110.167 38.5 156.5s50.167 86.333 85.5 120s76.666 61 123.999 82s99 34.833 155 41.5l39 220h146l-40 -222c57.333 -11.333 104.666 -31.833 141.999 -61.5s66.666 -65.5 87.999 -107.5s35.666 -88.167 42.999 -138.5s9.33301 -101.833 6 -154.5h-180
c2 34 1 69 -3 105s-13.167 68.667 -27.5 98s-34.5 53.666 -60.5 72.999s-60 29.666 -102 30.999c-37.333 0.666992 -71.833 -4.5 -103.5 -15.5s-59.334 -27 -83.001 -48s-43.167 -46.5 -58.5 -76.5s-25 -63.333 -29 -100c-4 -38 -0.333008 -70.833 11 -98.5
s27.833 -51.834 49.5 -72.501s46.834 -38.667 75.501 -54s58.667 -29 90 -41c48.667 -20 94.167 -42.5 136.5 -67.5s78.666 -54.333 108.999 -88s53.333 -72.5 69 -116.5s21.5 -95 17.5 -153c-4 -61.333 -17.833 -115.5 -41.5 -162.5s-54.667 -87 -93 -120
s-82.666 -59.333 -132.999 -79s-104.166 -32.5 -161.499 -38.5l-35 -192h-146l35 193c-58.667 8.66699 -109 26.167 -151 52.5s-76 59 -102 98s-44.667 83.5 -56 133.5s-15.333 103.333 -12 160h181c-2.66699 -39.333 -0.666992 -76.333 6 -111s19 -65 37 -91
s41.833 -46.833 71.5 -62.5s66.167 -23.834 109.5 -24.501c38.667 -1.33301 75.667 3.16699 111 13.5s67 25.666 95 45.999s51.167 45.833 69.5 76.5s29.833 66 34.5 106z" />
    <glyph glyph-name="percent" unicode="%" 
d="M141 1193c4.66699 39.333 14.835 76.499 30.502 111.499s36.167 65.5 61.5 91.5s55 46.333 89 61s72 21.667 114 21c40 -1.33301 74.833 -9.66602 104.5 -24.999s54.167 -36 73.5 -62s33.166 -56 41.499 -90s11.166 -69.667 8.49902 -107l-7 -77
c-4.66699 -39.333 -14.834 -76.166 -30.501 -110.499s-36 -64.5 -61 -90.5s-54.667 -46.333 -89 -61s-72.166 -21.334 -113.499 -20.001c-40 0.666992 -74.833 8.83398 -104.5 24.501s-54.167 36.5 -73.5 62.5s-33.333 55.667 -42 89s-11.667 68.666 -9 105.999z
M272.001 1115c-1.33301 -18.667 -0.832031 -37.333 1.50098 -56s7.5 -35.667 15.5 -51s19 -28 33 -38s32.333 -15 55 -15s42.5 4.66699 59.5 14s31.167 21.5 42.5 36.5s20.333 32.167 27 51.5s11.334 39 14.001 59l7 79c1.33301 18.667 0.833008 37.5 -1.5 56.5
s-7.5 36.333 -15.5 52s-19 28.5 -33 38.5s-32.333 15.333 -55 16c-23.333 0 -43.333 -4.66699 -60 -14s-30.834 -21.833 -42.501 -37.5s-20.834 -33.167 -27.501 -52.5s-11 -39 -13 -59zM575.002 337c4.66699 39.333 14.834 76.4971 30.501 111.497s36.167 65.5 61.5 91.5
s55.166 46.167 89.499 60.5s72.5 21.166 114.5 20.499c40 -1.33301 74.833 -9.66602 104.5 -24.999s54.167 -36 73.5 -62s33.333 -55.833 42 -89.5s11.667 -69.167 9 -106.5l-8 -78c-4.66699 -39.333 -14.834 -76.333 -30.501 -111s-36 -64.667 -61 -90
s-54.667 -45.333 -89 -60s-72.166 -21.667 -113.499 -21c-40 0.666992 -75 8.83398 -105 24.501s-54.667 36.334 -74 62.001s-33.333 55.334 -42 89.001s-11.667 69.167 -9 106.5zM706.002 257.997c-1.33301 -18.667 -0.666016 -37.3301 2.00098 -55.9971
s8 -35.834 16 -51.501s19 -28.334 33 -38.001s32.333 -14.834 55 -15.501c22.667 0 42.5 4.66699 59.5 14s31.167 21.666 42.5 36.999s20.333 32.666 27 51.999s11.334 39 14.001 59l7 80c1.33301 18.667 0.833008 37.5 -1.5 56.5s-7.33301 36.167 -15 51.5
s-18.5 28 -32.5 38s-32.333 15.333 -55 16c-23.333 0 -43.5 -4.66699 -60.5 -14s-31.333 -21.666 -43 -36.999s-20.834 -32.666 -27.501 -51.999s-11.334 -39 -14.001 -59zM319.002 189.001l-103 65l727 1032l104 -65z" />
    <glyph glyph-name="ampersand" unicode="&#x26;" 
d="M69 366c4 50 15.834 95.3311 35.501 135.998s44.667 78.167 75 112.5s64.5 65.666 102.5 93.999s76.667 54.833 116 79.5l-37 79c-12 26.667 -22.167 53.667 -30.5 81s-14.666 55.166 -18.999 83.499s-5.5 57.5 -3.5 87.5c4 53.333 16.167 102.333 36.5 147
s47.333 82.834 81 114.501s73.334 56 119.001 73s95.834 24.833 150.501 23.5c41.333 -1.33301 79.166 -10 113.499 -26s63.666 -37.5 87.999 -64.5s42.666 -58.5 54.999 -94.5s17.166 -74.667 14.499 -116c-2 -38 -10.333 -72.5 -25 -103.5s-33.167 -59.5 -55.5 -85.5
s-47.333 -50.167 -75 -72.5s-55.834 -43.833 -84.501 -64.5l-114 -87l230 -396c33.333 46.667 60 95 80 145s34.667 103.333 44 160h160c-8.66699 -84.667 -29.5 -163.5 -62.5 -236.5s-79.167 -139.833 -138.5 -200.5l133 -235h-202l-61 108
c-52 -39.333 -107.5 -70.666 -166.5 -93.999s-121.833 -34.333 -188.5 -33c-56 0.666992 -107.667 10.334 -155 29.001s-87.666 44.834 -120.999 78.501s-58.5 74 -75.5 121s-23.5 99.167 -19.5 156.5zM446.001 130.998c50.667 -1.33301 98.5 8.00195 143.5 28.002
s87.833 44 128.5 72l-240 430l-31 -25c-21.333 -16.667 -42.833 -34.834 -64.5 -54.501s-41.667 -40.834 -60 -63.501s-33.833 -46.834 -46.5 -72.501s-21 -52.5 -25 -80.5c-4 -33.333 -2.5 -64.166 4.5 -92.499s19 -52.833 36 -73.5s38.5 -37 64.5 -49s56 -18.333 90 -19z
M485.001 1121c-2.66699 -20 -2.99902 -40.0029 -0.999023 -60.0029s5.5 -39.5 10.5 -58.5s11.333 -37.833 19 -56.5l23.5 -55l128 92c33.333 24.667 62 52.334 86 83.001s38 67.667 42 111c2 18 1.16699 35.833 -2.5 53.5s-10 33.5 -19 47.5s-20.833 25.5 -35.5 34.5
s-32.334 13.5 -53.001 13.5c-28.667 0.666992 -54.5 -4.66602 -77.5 -15.999s-43 -26.666 -60 -45.999s-30.667 -41.5 -41 -66.5s-16.833 -50.5 -19.5 -76.5z" />
    <glyph glyph-name="quotesingle" unicode="'" 
d="M762 1416l-76 -359l-136 -1l61 383l16 105l154 -9z" />
    <glyph glyph-name="parenleft" unicode="(" 
d="M345 587c9.33301 65.333 22.8262 132.496 40.4932 201.496s39.334 137.5 65.001 205.5s55.834 134 90.501 198s73.667 124.333 117 181s91.5 108 144.5 154s111.167 85 174.5 117l27 -124c-73.333 -54 -136.833 -116.5 -190.5 -187.5s-99.5 -146.667 -137.5 -227
s-69 -164.166 -93 -251.499s-42.667 -174.666 -56 -261.999l-2 -15c-7.33301 -48 -13.333 -99.333 -18 -154s-6.66699 -110.667 -6 -168s4.33398 -114.666 11.001 -171.999s18 -112.666 34 -165.999s37.333 -103.5 64 -150.5s60 -88.5 100 -124.5l-47 -112
c-52 36.667 -97.167 80 -135.5 130s-70.666 104.167 -96.999 162.5s-47.166 119.5 -62.499 183.5s-26.166 128.5 -32.499 193.5s-8.66602 129.5 -6.99902 193.5s6.5 125 14.5 183z" />
    <glyph glyph-name="parenright" unicode=")" 
d="M821 585c-9.33301 -65.333 -22.8301 -132.505 -40.4971 -201.505s-39.334 -137.333 -65.001 -205s-55.834 -133.667 -90.501 -198s-73.834 -124.666 -117.501 -180.999s-92 -107.666 -145 -153.999s-111.167 -85.166 -174.5 -116.499l-28 115
c74 54 137.833 116.833 191.5 188.5s99.5 148.334 137.5 230.001s69 166.5 93 254.5s42.667 175.667 56 263l2 15c6.66699 47.333 12.334 98.333 17.001 153s6.66699 110.667 6 168s-4.5 115 -11.5 173s-18.5 113.833 -34.5 167.5s-37.167 103.834 -63.5 150.501
s-59.166 88 -98.499 124l46 112c52.667 -36.667 98.334 -80 137.001 -130s71.167 -104.167 97.5 -162.5s47.166 -119.5 62.499 -183.5s26.166 -128.667 32.499 -194s8.66602 -130 6.99902 -194s-6.5 -125 -14.5 -183z" />
    <glyph glyph-name="asterisk" unicode="*" 
d="M531 686l-350 96l77 170l335 -153l42 425h174l-94 -422l371 148l25 -184l-387 -94l200 -328l-152 -105l-151 364l-259 -351l-133 111z" />
    <glyph glyph-name="plus" unicode="+" 
d="M721 781h395l-32 -184h-395l-78 -451h-181l79 451h-395l33 184h393l74 425h181z" />
    <glyph glyph-name="comma" unicode="," 
d="M530 44c-12.667 -75.333 -38.668 -145.5 -78.001 -210.5s-88.666 -121.5 -147.999 -169.5l-110 65c35.333 46.667 64.5 95.667 87.5 147s39.5 106 49.5 164l32 179h196z" />
    <glyph glyph-name="hyphen" unicode="-" horiz-adv-x="1203" 
d="M947 561h-743l27 152h743z" />
    <glyph glyph-name="period" unicode="." 
d="M398 115c0 20.667 3.50098 40.168 10.501 58.501s16.667 34.166 29 47.499s27.333 23.833 45 31.5s37.167 11.5 58.5 11.5c20.667 0.666992 39.667 -2.33301 57 -9s32.166 -16.334 44.499 -29.001s22 -27.5 29 -44.5s10.5 -35.833 10.5 -56.5
c0 -21.333 -3.66699 -40.666 -11 -57.999s-17.333 -32.5 -30 -45.5s-28 -23.167 -46 -30.5s-37.333 -11 -58 -11c-20 0 -38.5 3.16699 -55.5 9.5s-31.667 15.5 -44 27.5s-22 26.333 -29 43s-10.5 35 -10.5 55z" />
    <glyph glyph-name="slash" unicode="/" 
d="M285 -125h-171l864 1581h170z" />
    <glyph glyph-name="zero" unicode="0" 
d="M1051 559c-11.333 -74.667 -30.168 -147.162 -56.501 -217.495s-61.333 -132.666 -105 -186.999s-97 -97.5 -160 -129.5s-136.833 -47 -221.5 -45c-53.333 1.33301 -100.5 10.166 -141.5 26.499s-76.333 38.166 -106 65.499s-53.834 59.333 -72.501 96
s-32.834 76.167 -42.501 118.5s-15.167 86.5 -16.5 132.5s1 92 7 138l54 341c7.33301 49.333 18 98.166 32 146.499s31.833 94.166 53.5 137.499s47.167 83.333 76.5 120s62.833 68.167 100.5 94.5s79.834 46.666 126.501 60.999s98.334 20.833 155.001 19.5
c54 -1.33301 101.333 -10.166 142 -26.499s75.834 -38.333 105.501 -66s53.834 -59.834 72.501 -96.501s32.667 -76.334 42 -119.001s14.666 -87 15.999 -133s-1 -92 -7 -138zM321.998 602.005l622.001 432c0.666992 38 -2.33301 74.333 -9 109s-18.5 65.334 -35.5 92.001
s-39.667 48 -68 64s-63.833 24.667 -106.5 26c-56.667 2 -105.167 -7.83301 -145.5 -29.5s-74.333 -50.834 -102 -87.501s-49.334 -78.5 -65.001 -125.5s-27.167 -94.833 -34.5 -143.5zM916.999 844.005l-618.999 -428c-0.666992 -37.333 2.5 -73 9.5 -107s19 -64 36 -90
s39.667 -47 68 -63s63.5 -24.667 105.5 -26c56.667 -2 105.167 8 145.5 30s74.166 51.5 101.499 88.5s48.833 79 64.5 126s27.167 94.833 34.5 143.5z" />
    <glyph glyph-name="one" unicode="1" 
d="M648 0h-181l211 1215l-396 -144l32 177l562 208h19z" />
    <glyph glyph-name="two" unicode="2" 
d="M942 0l-926.998 -0.00488281l22 141l538 523l88 86.5c31.333 30.333 60.666 62.5 87.999 96.5s50.833 69.667 70.5 107s32.167 76.666 37.5 117.999c4 34 2.33301 66.167 -5 96.5s-20 56.833 -38 79.5s-40.667 40.834 -68 54.501s-58.666 21.167 -93.999 22.5
c-47.333 1.33301 -89.333 -5.16699 -126 -19.5s-68.5 -34.666 -95.5 -60.999s-48.833 -58 -65.5 -95s-28 -77.5 -34 -121.5l-180 -1c6.66699 66.667 24.334 127.834 53.001 183.501s65.667 103.334 111 143.001s97.5 70.334 156.5 92.001s122.167 31.834 189.5 30.501
c57.333 -1.33301 110.333 -11.5 159 -30.5s90.167 -45.833 124.5 -80.5s60.166 -76.167 77.499 -124.5s23.666 -101.833 18.999 -160.5c-4 -51.333 -17.167 -100.333 -39.5 -147s-49.333 -91 -81 -133s-66.334 -81.667 -104.001 -119l-109.5 -106l-446 -424h703z" />
    <glyph glyph-name="three" unicode="3" 
d="M416 817l119.004 -1.99219c40.667 0 79.834 5.66699 117.501 17s71.5 27.833 101.5 49.5s54.833 48.667 74.5 81s32.167 70.166 37.5 113.499c4 36 3 69.167 -3 99.5s-17.5 56.5 -34.5 78.5s-39 39.167 -66 51.5s-59.5 19.166 -97.5 20.499
c-39.333 0.666992 -75.666 -5 -108.999 -17s-62.833 -29 -88.5 -51s-46.834 -48.5 -63.501 -79.5s-28.334 -65.5 -35.001 -103.5l-179 -1c6.66699 62 24.167 118 52.5 168s64.333 92.5 108 127.5s93.334 61.833 149.001 80.5s113.834 27.667 174.501 27
c60 -1.33301 114.167 -11.833 162.5 -31.5s89 -47 122 -82s57.333 -77.167 73 -126.5s20.834 -104.333 15.501 -165c-3.33301 -40 -13 -76.833 -29 -110.5s-36.5 -64.167 -61.5 -91.5s-53.167 -51.666 -84.5 -72.999s-64.333 -39.666 -99 -54.999
c34 -14.667 63.167 -33.167 87.5 -55.5s43.666 -47.833 57.999 -76.5s24.166 -59.5 29.499 -92.5s6.66602 -67.5 3.99902 -103.5c-6 -67.333 -23.167 -128 -51.5 -182s-65 -100 -110 -138s-96.833 -66.833 -155.5 -86.5s-121 -28.834 -187 -27.501
c-60 1.33301 -115 11.666 -165 30.999s-92.5 46.5 -127.5 81.5s-61.833 77.167 -80.5 126.5s-26.334 104.666 -23.001 165.999l180 -1c-2.66699 -37.333 0.5 -71.333 9.5 -102s23 -57 42 -79s43.167 -39.333 72.5 -52s63 -19.334 101 -20.001
c43.333 -1.33301 83.166 4.5 119.499 17.5s68.166 31.667 95.499 56s49.666 54 66.999 89s28.333 73.833 33 116.5c4.66699 41.333 2 77.666 -8 108.999s-25.667 57.666 -47 78.999s-48 37.666 -80 48.999s-68 17.666 -108 18.999l-140 1z" />
    <glyph glyph-name="four" unicode="4" 
d="M878 489h197l-26 -151h-197l-59 -338h-181l59 338h-644l21 119l799 999h199zM259 489h438l132 723l-39 -58z" />
    <glyph glyph-name="five" unicode="5" 
d="M254 733l197.003 722.998h727l-32 -180h-571l-116 -389c73.333 43.333 152.666 64.333 237.999 63c67.333 -1.33301 124.5 -15.666 171.5 -42.999s84.667 -63.5 113 -108.5s47.833 -96 58.5 -153s13 -115.5 7 -175.5c-6.66699 -70 -23.334 -135.333 -50.001 -196
s-62 -113 -106 -157s-96 -78.333 -156 -103s-126.667 -36 -200 -34c-60 1.33301 -113.833 12 -161.5 32s-88.334 47.833 -122.001 83.5s-59.667 78 -78 127s-28.5 102.833 -30.5 161.5h169c2 -36 8 -69.167 18 -99.5s24.5 -56.833 43.5 -79.5s42.667 -40.5 71 -53.5
s61.5 -20.167 99.5 -21.5c48.667 -1.33301 92 7.33398 130 26.001s70.167 44 96.5 76s47.333 68.667 63 110s26.167 84 31.5 128c4 38.667 3 76.5 -3 113.5s-17.667 70 -35 99s-41 52.833 -71 71.5s-66.667 28.667 -110 30c-48.667 1.33301 -92 -6.16699 -130 -22.5
s-75.667 -38.833 -113 -67.5z" />
    <glyph glyph-name="six" unicode="6" 
d="M960 1458l-17 -166.003h-12c-80 0.666992 -151.333 -10.833 -214 -34.5s-117.667 -56.834 -165 -99.501s-87.833 -93.667 -121.5 -153s-61.834 -124.666 -84.501 -195.999c42.667 44 90.834 79.5 144.501 106.5s111.834 40.167 174.501 39.5
c65.333 -1.33301 121 -15.833 167 -43.5s83 -63.667 111 -108s47.333 -94.5 58 -150.5s13.334 -113 8.00098 -171c-6 -68 -21.833 -132.667 -47.5 -194s-59.834 -115.166 -102.501 -161.499s-93.334 -82.833 -152.001 -109.5s-124.334 -39 -197.001 -37
c-74 2 -136.833 20 -188.5 54s-93.167 77.667 -124.5 131s-52.5 112.666 -63.5 177.999s-12.833 130.333 -5.5 195l12 87c10.667 75.333 26.334 148.333 47.001 219s46.667 136.834 78 198.501s68.5 117.834 111.5 168.501s92.333 94.334 148 131.001s118 65.167 187 85.5
s145.167 30.5 228.5 30.5h20zM629 800.997c-34 1.33301 -66.502 -3.33594 -97.502 -14.0029s-59.667 -25.334 -86 -44.001s-50.166 -40.667 -71.499 -66s-39.666 -52.333 -54.999 -81l-8 -64c-2.66699 -24.667 -4 -51.667 -4 -81s2.33301 -58.5 7 -87.5
s11.834 -57.167 21.501 -84.5s22.5 -51.666 38.5 -72.999s36 -38.666 60 -51.999s52.333 -20.666 85 -21.999c47.333 -1.33301 89.333 7.66699 126 27s68 45.333 94 78s46.667 69.667 62 111s25.333 83 30 125c4 36 3.83301 73.167 -0.5 111.5s-14.333 73.333 -30 105
s-37.334 57.834 -65.001 78.501s-63.167 31.667 -106.5 33z" />
    <glyph glyph-name="seven" unicode="7" 
d="M1180 1342l-791 -1342h-198l786 1294h-761l26 162h956z" />
    <glyph glyph-name="eight" unicode="8" 
d="M1121 1085c-3.33301 -40.667 -12.502 -78.1729 -27.502 -112.506s-34.333 -65.5 -58 -93.5s-50.834 -53.333 -81.501 -76s-63.334 -42.334 -98.001 -59.001c30.667 -18 57.834 -39.333 81.501 -64s43 -51.667 58 -81s25.667 -60.666 32 -93.999
s8.16602 -67.666 5.49902 -102.999c-5.33301 -66 -22.5 -125.5 -51.5 -178.5s-66.167 -97.667 -111.5 -134s-97.166 -64 -155.499 -83s-119.5 -27.833 -183.5 -26.5c-59.333 1.33301 -114.166 11.5 -164.499 30.5s-93.5 46 -129.5 81s-63.167 77.167 -81.5 126.5
s-24.833 105 -19.5 167c4 45.333 14.167 86.833 30.5 124.5s37.833 71.834 64.5 102.501s57.334 57.834 92.001 81.501s72 44.167 112 61.5c-52 36 -90.5 81.333 -115.5 136s-35.167 113.334 -30.5 176.001s19.834 119.5 45.501 170.5s59.334 94.5 101.001 130.5
s89.667 63.333 144 82s112.5 27.334 174.5 26.001c56.667 -1.33301 108.5 -11.666 155.5 -30.999s87 -46 120 -80s57.667 -74.667 74 -122s22.166 -100 17.499 -158zM853.998 405.994c4 36 1.83496 70.1699 -6.49805 102.503s-22 60.5 -41 84.5s-43 43.167 -72 57.5
s-62.5 22.166 -100.5 23.499c-42 0.666992 -81.333 -6 -118 -20s-68.834 -34 -96.501 -60s-50.167 -56.667 -67.5 -92s-28.333 -73.333 -33 -114c-4 -37.333 -2 -71.666 6 -102.999s21.5 -58.333 40.5 -81s43.167 -40.5 72.5 -53.5s63 -19.833 101 -20.5
c41.333 -1.33301 80.166 4.66699 116.499 18s68.5 32.166 96.5 56.499s51 53.666 69 87.999s29 72.166 33 113.499zM938 1082c3.33301 32 1.50195 62.499 -5.49805 91.499s-18.833 54.667 -35.5 77s-37.834 40.166 -63.501 53.499s-55.5 20.333 -89.5 21
c-38 0.666992 -73 -5.66602 -105 -18.999s-60 -31.833 -84 -55.5s-43.333 -51.667 -58 -84s-24 -66.5 -28 -102.5c-3.33301 -32 -1.66602 -62.5 5.00098 -91.5s18.167 -54.333 34.5 -76s37.333 -39 63 -52s55.5 -19.833 89.5 -20.5
c37.333 -0.666992 72.166 5.5 104.499 18.5s60.666 31.333 84.999 55s44 51.334 59 83.001s24.5 65.5 28.5 101.5z" />
    <glyph glyph-name="nine" unicode="9" 
d="M286 163c82 -0.666992 154.17 9.6748 216.503 31.0078s116.833 52.166 163.5 92.499s86.167 89.666 118.5 147.999s59.166 124.5 80.499 198.5c-42 -46.667 -89.833 -83 -143.5 -109s-112.5 -38.333 -176.5 -37c-65.333 1.33301 -120.833 16.166 -166.5 44.499
s-82.5 65.166 -110.5 110.499s-47.167 96.166 -57.5 152.499s-12.833 113.166 -7.5 170.499c6.66699 68 22.667 133.167 48 195.5s59.333 117.166 102 164.499s93.5 84.666 152.5 111.999s125.167 40.333 198.5 39c53.333 -0.666992 100.166 -9.66699 140.499 -27
s75.333 -40.333 105 -69s54 -62.167 73 -100.5s33.5 -79 43.5 -122s15.667 -87.667 17 -134s-0.666992 -91.833 -6 -136.5l-9 -67c-10.667 -76 -25.834 -149.167 -45.501 -219.5s-44.667 -136 -75 -197s-66.5 -116.333 -108.5 -166s-90.667 -92.167 -146 -127.5
s-117.5 -62.833 -186.5 -82.5s-145.5 -29.5 -229.5 -29.5h-23l16 165h16zM582.003 640.009c34.667 -1.33301 67.8311 3.66797 99.498 15.001s60.834 27 87.501 47s50.834 43.167 72.501 69.5s40.167 54.166 55.5 83.499l7 59c2 24.667 3 51.667 3 81s-2.16699 59 -6.5 89
s-11.333 59.167 -21 87.5s-22.5 53.5 -38.5 75.5s-35.833 39.833 -59.5 53.5s-52.167 21.167 -85.5 22.5c-48 1.33301 -90.5 -8.16699 -127.5 -28.5s-68.5 -47.166 -94.5 -80.499s-46.667 -71 -62 -113s-25.333 -84 -30 -126c-4 -35.333 -3.83301 -72.5 0.5 -111.5
s14 -74.833 29 -107.5s36.333 -59.834 64 -81.501s63.167 -33.167 106.5 -34.5z" />
    <glyph glyph-name="colon" unicode=":" 
d="M447 115c0 20.667 3.50098 40.168 10.501 58.501s16.667 34.166 29 47.499s27.333 23.833 45 31.5s37.167 11.5 58.5 11.5c20.667 0.666992 39.667 -2.33301 57 -9s32.166 -16.334 44.499 -29.001s22 -27.5 29 -44.5s10.5 -35.833 10.5 -56.5
c0 -21.333 -3.66699 -40.666 -11 -57.999s-17.333 -32.5 -30 -45.5s-28 -23.167 -46 -30.5s-37.333 -11 -58 -11c-20 0 -38.5 3.16699 -55.5 9.5s-31.667 15.5 -44 27.5s-22 26.333 -29 43s-10.5 35 -10.5 55zM598.001 991.001c0 20.667 3.50098 40.168 10.501 58.501
s16.667 34.166 29 47.499s27.333 23.833 45 31.5s37.167 11.5 58.5 11.5c20.667 0.666992 39.667 -2.33301 57 -9s32.166 -16.334 44.499 -29.001s22 -27.5 29 -44.5s10.5 -35.833 10.5 -56.5c0 -21.333 -3.66699 -40.666 -11 -57.999s-17.333 -32.5 -30 -45.5
s-28 -23.167 -46 -30.5s-37.333 -11 -58 -11c-20 0 -38.5 3.16699 -55.5 9.5s-31.667 15.5 -44 27.5s-22 26.333 -29 43s-10.5 35 -10.5 55z" />
    <glyph glyph-name="semicolon" unicode=";" 
d="M589 991c0 20.667 3.50098 40.168 10.501 58.501s16.667 34.166 29 47.499s27.333 23.833 45 31.5s37.167 11.5 58.5 11.5c20.667 0.666992 39.667 -2.33301 57 -9s32.166 -16.334 44.499 -29.001s22 -27.5 29 -44.5s10.5 -35.833 10.5 -56.5
c0 -21.333 -3.66699 -40.666 -11 -57.999s-17.333 -32.5 -30 -45.5s-28 -23.167 -46 -30.5s-37.333 -11 -58 -11c-20 0 -38.5 3.16699 -55.5 9.5s-31.667 15.5 -44 27.5s-22 26.333 -29 43s-10.5 35 -10.5 55zM658.001 44.001
c-12.667 -75.333 -38.668 -145.5 -78.001 -210.5s-88.666 -121.5 -147.999 -169.5l-110 65c35.333 46.667 64.5 95.667 87.5 147s39.5 106 49.5 164l32 179h196z" />
    <glyph glyph-name="less" unicode="&#x3c;" 
d="M416 663l-65 -20l38 -15l563 -240l-33 -187l-758 379l26 146l889 378l-30 -201z" />
    <glyph glyph-name="equal" unicode="=" 
d="M1066 780h-868l29 161h867zM994 365h-868l29 160h867z" />
    <glyph glyph-name="greater" unicode="&#x3e;" 
d="M226 913l32 183l793 -379l-26 -145l-924 -380l36 201l659 240l71 20l-45 16z" />
    <glyph glyph-name="question" unicode="?" 
d="M470 409c4 42 10.5059 78.835 19.5059 110.502s21 61 36 88s33.833 52.5 56.5 76.5s50 49.667 82 77l81 70c28 24.667 54.167 51 78.5 79s45.166 57.833 62.499 89.5s28.666 65.5 33.999 101.5c4.66699 33.333 3.5 63.166 -3.5 89.499s-18.833 48.666 -35.5 66.999
s-37.834 32.666 -63.501 42.999s-54.834 15.833 -87.501 16.5c-33.333 0.666992 -65 -3.16602 -95 -11.499s-57 -20.833 -81 -37.5s-44.333 -37.667 -61 -63s-28.334 -54.666 -35.001 -87.999l-179 -1c6.66699 59.333 23.667 111.666 51 156.999
s61.833 83.166 103.5 113.499s88.834 53.166 141.501 68.499s107.667 22.333 165 21c56 -1.33301 107.5 -10.333 154.5 -27s86.833 -40.667 119.5 -72s57.167 -69.666 73.5 -114.999s22.166 -97.333 17.499 -156c-4.66699 -52 -17.667 -99.667 -39 -143
s-47.833 -83.5 -79.5 -120.5s-66.334 -71.667 -104.001 -104l-112.5 -93.5c-39.333 -32.667 -67.833 -67.667 -85.5 -105s-30.167 -80.666 -37.5 -129.999zM388.006 94.002c0.666992 32.667 11.168 59.832 31.501 81.499s47.166 33.167 80.499 34.5
c16 0.666992 31 -1.66602 45 -6.99902s26 -13 36 -23s17.667 -21.833 23 -35.5s8 -28.5 8 -44.5c-0.666992 -32.667 -11.667 -59.167 -33 -79.5s-48 -31.166 -80 -32.499c-16 -0.666992 -30.833 1.5 -44.5 6.5s-25.5 12.167 -35.5 21.5s-17.667 20.666 -23 33.999
s-8 28 -8 44z" />
    <glyph glyph-name="at" unicode="@" 
d="M1160 795c-4.66699 -28.667 -10.667 -60.5029 -18 -95.5029s-17 -70.333 -29 -106s-26.5 -70.167 -43.5 -103.5s-37 -62.833 -60 -88.5s-49.333 -46.167 -79 -61.5s-63.167 -22.666 -100.5 -21.999c-40 1.33301 -71.833 12.5 -95.5 33.5s-39.167 50.5 -46.5 88.5
c-13.333 -16 -27.333 -31.333 -42 -46s-30.334 -27.5 -47.001 -38.5s-34.5 -19.833 -53.5 -26.5s-39.5 -10 -61.5 -10c-27.333 0 -50 6.16699 -68 18.5s-32.333 28.333 -43 48s-18.334 42 -23.001 67s-7.5 50.333 -8.5 76s-0.333008 50.5 2 74.5s4.83301 45 7.5 63
c5.33301 34 13 70 23 108s22.667 75.333 38 112s33.666 71.667 54.999 105s45.833 62.5 73.5 87.5s58.667 44.667 93 59s72.5 20.833 114.5 19.5c72.667 -2 130.667 -32.333 174 -91l-118 -505c-2 -12 -3.83301 -25.333 -5.5 -40s-1.5 -28.667 0.5 -42
s6.83301 -24.666 14.5 -33.999s20.167 -14.333 37.5 -15c25.333 -1.33301 47.5 4.5 66.5 17.5s35.667 30.167 50 51.5s26.5 45.666 36.5 72.999s18.333 54.666 25 81.999s11.834 53.5 15.501 78.5l9.50098 62.5c4.66699 38 7.66699 77.333 9 118s-0.5 80.667 -5.5 120
s-13.833 76.833 -26.5 112.5s-30.334 67 -53.001 94s-51.167 48.833 -85.5 65.5s-75.833 25.667 -124.5 27c-56 1.33301 -107.833 -7 -155.5 -25s-91 -43.167 -130 -75.5s-74 -70.333 -105 -114s-58 -89.667 -81 -138s-42.167 -98 -57.5 -149s-27 -99.833 -35 -146.5
c-7.33301 -42 -12.333 -85 -15 -129s-1.66699 -86.833 3 -128.5s13.667 -80.834 27 -117.501s32.5 -69 57.5 -97s56.333 -50.167 94 -66.5s83.167 -24.833 136.5 -25.5c42 0 82.667 5.83301 122 17.5s77 27.167 113 46.5l22 -119c-38 -25.333 -79.333 -43.833 -124 -55.5
s-89.667 -17.167 -135 -16.5c-65.333 0.666992 -122.5 10.667 -171.5 30s-90.667 45.5 -125 78.5s-61.833 71.833 -82.5 116.5s-35.667 92.5 -45 143.5s-13.666 104 -12.999 159s5.33398 109.833 14.001 164.5c9.33301 56.667 23.5 115.334 42.5 176.001
s43 119.834 72 177.501s62.833 112.334 101.5 164.001s82.167 96.667 130.5 135s101 68.333 158 90s118.833 31.834 185.5 30.501c59.333 -1.33301 111.333 -11.833 156 -31.5s82.5 -46 113.5 -79s56 -71.167 75 -114.5s32.833 -89.333 41.5 -138s13 -98.667 13 -150
s-3.66699 -101.333 -11 -150zM476 665.997l-5.00098 -31.5c-2 -13 -3.5 -27.333 -4.5 -43s-1.16699 -31.334 -0.5 -47.001s3 -30 7 -43s10 -23.833 18 -32.5s18.667 -13.334 32 -14.001c19.333 -1.33301 37.166 1.33398 53.499 8.00098s31.333 15.834 45 27.501
s26.334 24.667 38.001 39s22.167 28.833 31.5 43.5l114 450c-8.66699 3.33301 -17 6.16602 -25 8.49902s-16.667 3.83301 -26 4.5c-31.333 2 -59.333 -2.66699 -84 -14s-46.667 -26.666 -66 -45.999s-36.166 -41.833 -50.499 -67.5s-26.5 -52.5 -36.5 -80.5
s-18.333 -56 -25 -84s-12 -54 -16 -78z" />
    <glyph glyph-name="A" unicode="A" 
d="M807 377h-469l-180 -377h-188l709 1456h152l195 -1456h-173zM413 538h375l-76 630z" />
    <glyph glyph-name="B" unicode="B" 
d="M62 0l252.998 1456l409 -1c56 -2 109.5 -11.167 160.5 -27.5s95.667 -40.333 134 -72s67.833 -70.667 88.5 -117s28.334 -100.5 23.001 -162.5c-3.33301 -40.667 -12.833 -77.167 -28.5 -109.5s-35.667 -61.166 -60 -86.499s-52.333 -47.833 -84 -67.5
s-64.834 -36.834 -99.501 -51.501c34.667 -13.333 64.667 -31.5 90 -54.5s46.333 -49 63 -78s28.5 -60.5 35.5 -94.5s9.16699 -69 6.5 -105c-4.66699 -68.667 -22.667 -129.667 -54 -183s-71.166 -98.333 -119.499 -135s-103.166 -64.334 -164.499 -83.001
s-124 -28 -188 -28h-465zM361.998 681.001l-91.002 -524l266 -2c40.667 0.666992 79.834 7.33398 117.501 20.001s71.834 30.5 102.501 53.5s56.167 51.167 76.5 84.5s33.166 71 38.499 113c4.66699 36 2.83398 69.167 -5.49902 99.5s-21.833 56.666 -40.5 78.999
s-42.167 40 -70.5 53s-60.5 20.5 -96.5 22.5zM388.996 835.001l239.999 -2.00195c36.667 0.666992 73 6.33398 109 17.001s68.667 26.334 98 47.001s54 46 74 76s32.333 64.667 37 104c4.66699 36 1.83398 67.5 -8.49902 94.5s-25.833 49.5 -46.5 67.5
s-45.5 31.833 -74.5 41.5s-59.833 15.167 -92.5 16.5l-256 1z" />
    <glyph glyph-name="C" unicode="C" 
d="M1046 440c-13.333 -66 -35.3428 -127.501 -66.0098 -184.501s-68.834 -106.167 -114.501 -147.5s-98 -73.5 -157 -96.5s-123.5 -33.5 -193.5 -31.5c-57.333 1.33301 -108.166 11.5 -152.499 30.5s-82.666 44.333 -114.999 76s-58.833 68.5 -79.5 110.5
s-36.5 86.667 -47.5 134s-17.167 96.166 -18.5 146.499s1.33398 99.833 8.00098 148.5l32 203c8.66699 52.667 21.167 105.334 37.5 158.001s36.666 103.167 60.999 151.5s52.833 93.333 85.5 135s69.834 77.667 111.501 108s87.834 54 138.501 71
s106.334 24.833 167.001 23.5c68.667 -1.33301 128.334 -14.5 179.001 -39.5s93 -58.5 127 -100.5s59.833 -91 77.5 -147s27.834 -116 30.501 -180h-179c-2 40 -7.33301 78.667 -16 116s-22.5 70.666 -41.5 99.999s-43.667 53.166 -74 71.499
s-68.166 28.166 -113.499 29.499c-44 1.33301 -83.833 -5 -119.5 -19s-67.667 -33.167 -96 -57.5s-53 -53.166 -74 -86.499s-39.333 -68.5 -55 -105.5s-28.667 -75 -39 -114s-18.5 -76.5 -24.5 -112.5l-34 -206c-4.66699 -31.333 -8 -65.166 -10 -101.499
s-1.33301 -72.5 2 -108.5s9.83301 -70.833 19.5 -104.5s23.834 -63.667 42.501 -90s42.667 -47.666 72 -63.999s65 -25.166 107 -26.499c48 -2 90.833 5 128.5 21s70.834 38 99.501 66s52.834 61 72.501 99s35.5 78.333 47.5 121z" />
    <glyph glyph-name="D" unicode="D" 
d="M46 0l252 1456l316 -1c96 -2 179.167 -21.5 249.5 -58.5s127.333 -86 171 -147s73.667 -131.833 90 -212.5s18.833 -166 7.5 -256l-15 -107c-14.667 -96 -42.167 -185 -82.5 -267s-91.833 -153.167 -154.5 -213.5s-135.667 -107.666 -219 -141.999
s-175.333 -51.5 -276 -51.5h-339zM456 1304l-199.999 -1153l133 -1c78 0.666992 148 14.667 210 42s116 64.5 162 111.5s83.667 102.333 113 166s50 131.834 62 204.501l16 110c8.66699 64 9.5 126.5 2.5 187.5s-23.833 115.667 -50.5 164s-63.834 87.666 -111.501 117.999
s-108.167 46.833 -181.5 49.5z" />
    <glyph glyph-name="E" unicode="E" 
d="M959 673h-589l-90 -516h688l-28 -157h-868l253 1456h860l-28 -158h-679l-81 -468h590z" />
    <glyph glyph-name="F" unicode="F" 
d="M963 643h-588l-112 -643h-182l252 1456h869l-28 -158h-685l-87 -498h588z" />
    <glyph glyph-name="G" unicode="G" 
d="M1020 191c-63.333 -69.333 -136.833 -122.507 -220.5 -159.507s-173.167 -53.833 -268.5 -50.5c-57.333 2 -108.666 12.833 -153.999 32.5s-84.833 45.667 -118.5 78s-61.834 70 -84.501 113s-40.167 88.667 -52.5 137s-19.666 98.333 -21.999 150
s-0.166016 102.167 6.50098 151.5l26 169c8.66699 52.667 21.334 105.834 38.001 159.501s37.5 105.334 62.5 155.001s54.167 96 87.5 139s71.166 80.333 113.499 112s89.166 56.334 140.499 74.001s107.666 25.834 168.999 24.501
c65.333 -1.33301 123.5 -13.666 174.5 -36.999s94 -55 129 -95s61.833 -87 80.5 -141s28.667 -112.333 30 -175h-177c-2.66699 38 -9 74.333 -19 109s-24.667 65.334 -44 92.001s-44.166 47.834 -74.499 63.501s-66.833 24.167 -109.5 25.5
c-44.667 1.33301 -85 -5.16699 -121 -19.5s-68.333 -34 -97 -59s-54.167 -54.5 -76.5 -88.5s-41.5 -69.833 -57.5 -107.5s-29.5 -76.167 -40.5 -115.5s-19.5 -77.333 -25.5 -114l-28 -172c-4.66699 -32.667 -7.33398 -67.5 -8.00098 -104.5s1.5 -73.667 6.5 -110
s13.333 -71.333 25 -105s27.667 -63.667 48 -90s45.333 -48 75 -65s65.5 -26.5 107.5 -28.5c56.667 -3.33301 111.5 2.5 164.5 17.5s99.833 43.5 140.5 85.5l57 327h-287l27 156h459z" />
    <glyph glyph-name="H" unicode="H" 
d="M951 0h-171l117 673h-578l-117 -673h-170l253 1456h170l-109 -626h578l109 626h171z" />
    <glyph glyph-name="I" unicode="I" 
d="M317 1456h855l-29 -161h-338l-197 -1135h339l-28 -160h-855l28 160h331l197 1135h-332z" />
    <glyph glyph-name="J" unicode="J" 
d="M979 1456l185.001 0.00390625l-173 -1013c-10 -66 -30.333 -127.333 -61 -184s-69.167 -106 -115.5 -148s-99.5 -74.667 -159.5 -98s-124 -34.333 -192 -33c-64.667 1.33301 -121.667 13.5 -171 36.5s-90.833 54.333 -124.5 94s-59.334 86.167 -77.001 139.5
s-26.834 110.666 -27.501 171.999l182 -1c-1.33301 -37.333 2.33398 -72.833 11.001 -106.5s22.334 -63.5 41.001 -89.5s42.667 -47 72 -63s64.666 -24.333 105.999 -25c44 -1.33301 84.5 6.16699 121.5 22.5s69.833 38.666 98.5 66.999s52.5 61.166 71.5 98.499
s32.167 76.666 39.5 117.999z" />
    <glyph glyph-name="K" unicode="K" 
d="M528 674l-197 -191l-84 -483h-185l253 1456h185l-123 -700l158 165l507 535h234l-614 -646l381 -810h-207z" />
    <glyph glyph-name="L" unicode="L" 
d="M296 157h691l-28 -157h-871l252 1456h181z" />
    <glyph glyph-name="M" unicode="M" 
d="M511 1456l103 -726l374 726h228l-252 -1456h-176l102 590l116 582l-389 -767h-105l-107 772l-91 -605l-99 -572h-176l253 1456h219z" />
    <glyph glyph-name="N" unicode="N" 
d="M950 0h-178l-362 1096l-193 -1096h-183l253 1456h178l362 -1094l193 1094h183z" />
    <glyph glyph-name="O" unicode="O" 
d="M1097 645c-8.66699 -51.333 -20.835 -103.501 -36.502 -156.501s-35.334 -104.333 -59.001 -154s-51.5 -96.5 -83.5 -140.5s-68.5 -82 -109.5 -114s-86.667 -57 -137 -75s-105.5 -26.333 -165.5 -25c-57.333 1.33301 -107.833 12.166 -151.5 32.499
s-81.167 47.166 -112.5 80.499s-57 72 -77 116s-35 90.333 -45 139s-15.5 98.334 -16.5 149.001s1.83301 99.667 8.5 147l26 166c8.66699 51.333 20.834 103.5 36.501 156.5s35.334 104.333 59.001 154s51.667 96.5 84 140.5s69 82.167 110 114.5s86.667 57.5 137 75.5
s105.5 26.333 165.5 25c58 -1.33301 108.833 -12.166 152.5 -32.499s81.167 -47.166 112.5 -80.499s56.833 -72 76.5 -116s34.334 -90.5 44.001 -139.5s15 -99 16 -150s-1.83301 -100.167 -8.5 -147.5zM943.999 813.999c4 30.667 7.16797 64.0039 9.50098 100.004
s2 72.167 -1 108.5s-9.16699 71.666 -18.5 105.999s-23.166 64.833 -41.499 91.5s-41.666 48.334 -69.999 65.001s-63.166 25.667 -104.499 27c-43.333 1.33301 -82.5 -5.16699 -117.5 -19.5s-66.333 -34.333 -94 -60s-52 -55.334 -73 -89.001
s-39.167 -69.334 -54.5 -107.001s-28 -75.834 -38 -114.501s-18 -75.334 -24 -110.001l-28 -169c-4 -30 -7 -63 -9 -99s-1.33301 -72.333 2 -109s9.66602 -72.334 18.999 -107.001s23.333 -65.5 42 -92.5s42.167 -49 70.5 -66s63.166 -26.167 104.499 -27.5
c43.333 -1.33301 82.666 5.16699 117.999 19.5s66.666 34.333 93.999 60s51.333 55.5 72 89.5s38.5 69.833 53.5 107.5s27.5 75.834 37.5 114.501s18 75.667 24 111z" />
    <glyph glyph-name="P" unicode="P" 
d="M363 584l-101.998 -584h-180l252 1456l447 -1c61.333 -2 117.833 -13.5 169.5 -34.5s95.667 -50.167 132 -87.5s63.666 -81.833 81.999 -133.5s24.833 -109.167 19.5 -172.5c-6 -70 -24.333 -132.5 -55 -187.5s-70.167 -101.5 -118.5 -139.5s-103.333 -67 -165 -87
s-125.834 -30 -192.501 -30zM389.002 736l267.999 -2c44 0 85.667 6.83301 125 20.5s74.5 33 105.5 58s56.667 55.5 77 91.5s33.166 76.333 38.499 121c4.66699 38 2.83398 73.5 -5.49902 106.5s-22.333 61.833 -42 86.5s-44.667 44.5 -75 59.5s-65.166 23.5 -104.499 25.5
l-288 1z" />
    <glyph glyph-name="Q" unicode="Q" 
d="M1113 664c-9.33301 -56 -22.3311 -111.504 -38.998 -166.504s-37.834 -107.5 -63.501 -157.5s-56.167 -97 -91.5 -141s-76.333 -83.333 -123 -118l207 -214l-135 -113l-235 243c-21.333 -5.33301 -42.833 -9.33301 -64.5 -12s-43.5 -3.66699 -65.5 -3
c-59.333 1.33301 -111.333 12.333 -156 33s-82.834 48.167 -114.501 82.5s-57.5 74.166 -77.5 119.499s-35 93 -45 143s-15.333 101 -16 153s2.33301 102 9 150l20 128c8.66699 52.667 21.167 106.334 37.5 161.001s36.666 107.5 60.999 158.5s53 99.167 86 144.5
s70.667 84.5 113 117.5s89.333 58.833 141 77.5s108.5 27.334 170.5 26.001c59.333 -1.33301 111.5 -12.5 156.5 -33.5s83.5 -48.667 115.5 -83s58 -74.166 78 -119.499s34.833 -93.166 44.5 -143.499s14.834 -101.666 15.501 -153.999s-2.33301 -102.833 -9 -151.5z
M953.002 793.996c4.66699 32 8.16895 66.668 10.502 104.001s2.16602 75 -0.500977 113s-8.66699 74.833 -18 110.5s-23.333 67.334 -42 95.001s-43 50.167 -73 67.5s-66.667 26.666 -110 27.999c-45.333 1.33301 -86.166 -5.5 -122.499 -20.5s-69 -35.667 -98 -62
s-54.333 -57 -76 -92s-40.334 -72 -56.001 -111s-28.667 -78.5 -39 -118.5s-18.5 -78.333 -24.5 -115l-21 -131c-4.66699 -31.333 -8.16699 -65.833 -10.5 -103.5s-2 -75.5 1 -113.5s9.16699 -74.833 18.5 -110.5s23.5 -67.5 42.5 -95.5s43.333 -50.833 73 -68.5
s66.167 -27.167 109.5 -28.5c46 -1.33301 87.333 5.33398 124 20.001s69.334 35.167 98.001 61.5s53.667 57.166 75 92.499s39.666 72.5 54.999 111.5s28.166 78.667 38.499 119s18.5 79.166 24.5 116.499z" />
    <glyph glyph-name="R" unicode="R" 
d="M640 594l-285.997 0.000976562l-103 -594h-180l253 1456l403 -1c63.333 -2 121.666 -13 174.999 -33s98.666 -48.167 135.999 -84.5s65.5 -80.666 84.5 -132.999s25.833 -111.5 20.5 -177.5c-4 -50 -15.333 -95.333 -34 -136s-42.834 -77.334 -72.501 -110.001
s-63.667 -61.334 -102 -86.001s-79.5 -46 -123.5 -64l195 -618l-2 -13h-191zM380.003 746.001l230.001 -1.99902c42.667 0 84 6.5 124 19.5s75.833 31.667 107.5 56s58.167 54.166 79.5 89.499s34.666 75.333 39.999 120c4.66699 40.667 2.5 77.5 -6.5 110.5
s-24 61.333 -45 85s-47.333 42.167 -79 55.5s-67.5 21 -107.5 23l-246 1z" />
    <glyph glyph-name="S" unicode="S" 
d="M871 376c4.66699 40.667 -0.34375 75.4971 -15.0107 104.497s-34.834 54 -60.501 75s-55 38.833 -88 53.5s-65.167 28 -96.5 40c-47.333 18 -94.333 39.333 -141 64s-88.167 53.834 -124.5 87.501s-65.166 72.667 -86.499 117s-30.333 95.5 -27 153.5
c4 63.333 21.333 120.333 52 171s69.834 93.667 117.501 129s100.834 62 159.501 80s117.667 26.333 177 25c62.667 -1.33301 120.334 -13.333 173.001 -36s97.834 -53.5 135.501 -92.5s66.834 -85 87.501 -138s30 -110.833 28 -173.5h-184
c-2 38.667 -8.16699 74.834 -18.5 108.501s-25.666 63.167 -45.999 88.5s-45.666 45.5 -75.999 60.5s-66.5 23.167 -108.5 24.5c-36 0.666992 -71.667 -4.5 -107 -15.5s-67.333 -27 -96 -48s-52.5 -46.667 -71.5 -77s-30.5 -64.833 -34.5 -103.5s1.5 -71.667 16.5 -99
s35.333 -50.833 61 -70.5s54.334 -36.5 86.001 -50.5s62.5 -26.333 92.5 -37c49.333 -18 97.833 -39.833 145.5 -65.5s89.834 -56.167 126.501 -91.5s65.5 -76.166 86.5 -122.499s29.5 -99.5 25.5 -159.5c-4.66699 -65.333 -23 -123.166 -55 -173.499
s-72.333 -92.333 -121 -126s-103 -58.834 -163 -75.501s-120 -24.334 -180 -23.001c-64 0.666992 -123.833 11.834 -179.5 33.501s-104.334 51.667 -146.001 90s-74.167 84.5 -97.5 138.5s-34.333 113.667 -33 179h183c2 -42 9.83301 -80.167 23.5 -114.5
s32.334 -63.833 56.001 -88.5s52.334 -44.167 86.001 -58.5s71.834 -21.833 114.501 -22.5c37.333 -0.666992 74.333 3.83301 111 13.5s70 24.5 100 44.5s55 45.167 75 75.5s32.333 65.5 37 105.5z" />
    <glyph glyph-name="T" unicode="T" 
d="M1243 1298h-436l-225 -1298h-176l225 1298h-437l28 158h1049z" />
    <glyph glyph-name="U" unicode="U" 
d="M1205 1456l-166.995 -985.002c-10 -66.667 -30.333 -130 -61 -190s-69.334 -112.5 -116.001 -157.5s-100.334 -80.5 -161.001 -106.5s-126.334 -38.333 -197.001 -37c-66.667 1.33301 -125.667 15.833 -177 43.5s-93.833 64 -127.5 109s-57.834 96.667 -72.501 155
s-18.334 118.833 -11.001 181.5l170 987h172l-165 -987c-4.66699 -39.333 -4 -78.333 2 -117s18 -73.667 36 -105s42.167 -57.166 72.5 -77.499s67.833 -31.166 112.5 -32.499c47.333 -1.33301 90.5 7.16699 129.5 25.5s73 43.166 102 74.499s52.833 67.333 71.5 108
s32 82.334 40 125.001l172 986h175z" />
    <glyph glyph-name="V" unicode="V" 
d="M542 300l514 1156h198l-673 -1456h-157l-219 1456h188z" />
    <glyph glyph-name="W" unicode="W" 
d="M835 396l274 1060h174l-400 -1456h-184l-9 1093l-354 -1093h-187l56 1456h170l-58 -1055l345 1055h158z" />
    <glyph glyph-name="X" unicode="X" 
d="M646 886l393 570h223l-530 -731l302 -725h-201l-220 581l-404 -581h-224l543 743l-294 713h201z" />
    <glyph glyph-name="Y" unicode="Y" 
d="M602 726l448 730h215l-605 -924l-95 -532h-168l94 554l-279 902h196z" />
    <glyph glyph-name="Z" unicode="Z" 
d="M252 157h727l-25 -157h-935l21 153l877 1145h-686l26 158h896l-21 -150z" />
    <glyph glyph-name="bracketleft" unicode="[" 
d="M940 1512h-214l-261 -1672h215l-24 -152h-386l309 1976h386z" />
    <glyph glyph-name="backslash" unicode="\" 
d="M376 1456h155l316 -1581h-155z" />
    <glyph glyph-name="bracketright" unicode="]" 
d="M559 1664h386l-309 -1976h-386l24 152h215l261 1672h-215z" />
    <glyph glyph-name="asciicircum" unicode="^" 
d="M409 677h-177l446 779h125l174 -779h-158l-108 486l-1 69l-28 -70z" />
    <glyph glyph-name="underscore" unicode="_" 
d="M910 -151h-890l26 151h891z" />
    <glyph glyph-name="grave" unicode="`" 
d="M880 1215h-134l-199 266h204z" />
    <glyph glyph-name="a" unicode="a" 
d="M764 0c-5.33301 20 -7.99902 39.665 -7.99902 58.998s1 39 3 59c-47.333 -42 -98.833 -75.667 -154.5 -101s-115.834 -37.333 -180.501 -36c-45.333 0.666992 -88.166 8.33398 -128.499 23.001s-75.333 35.334 -105 62.001s-52.667 59 -69 97s-23.166 81 -20.499 129
c2.66699 46.667 12.167 88 28.5 124s37.5 67.5 63.5 94.5s56 49.833 90 68.5s70.167 33.834 108.5 45.501s78 20 119 25s81.5 7.5 121.5 7.5l206 -1l13 86c4 34 1.5 64 -7.5 90s-22.833 48 -41.5 66s-41.5 31.667 -68.5 41s-56.833 14.333 -89.5 15
c-28.667 0.666992 -56.834 -2.33301 -84.501 -9s-53 -17 -76 -31s-42.833 -31.833 -59.5 -53.5s-28.334 -47.5 -35.001 -77.5l-181 -1c6 54.667 23.667 102.167 53 142.5s65.5 73.833 108.5 100.5s90.167 46.5 141.5 59.5s101.666 19.167 150.999 18.5
c54.667 -1.33301 105.667 -10 153 -26s87.833 -39.5 121.5 -70.5s59.167 -68.833 76.5 -113.5s23 -96 17 -154l-84 -503c-6 -36.667 -9.16699 -73.334 -9.5 -110.001s3.83398 -73 12.501 -109l-2 -17h-183zM459.001 139.998c64 -1.33301 123.67 13.168 179.003 43.501
s101.666 70.833 138.999 121.5l39 220l-155 1c-36.667 0 -75.834 -2.33301 -117.501 -7s-80.834 -14.334 -117.501 -29.001s-68 -35.667 -94 -63s-41.667 -63.333 -47 -108c-3.33301 -28.667 -1.33301 -54 6 -76s19 -40.5 35 -55.5s35.333 -26.5 58 -34.5
s47.667 -12.333 75 -13z" />
    <glyph glyph-name="b" unicode="b" 
d="M1047 535c-6 -44.667 -15.1611 -89.5 -27.4941 -134.5s-28.166 -88.167 -47.499 -129.5s-42.333 -80 -69 -116s-57.334 -67.333 -92.001 -94s-73.334 -47.334 -116.001 -62.001s-89.667 -21.334 -141 -20.001c-58.667 1.33301 -112.667 13.5 -162 36.5
s-90.333 59.167 -123 108.5l-36 -124h-168l267 1536h181l-108 -571c41.333 46 87.666 80.667 138.999 104s108.333 34.333 171 33c48.667 -1.33301 91.5 -10 128.5 -26s68.667 -37.5 95 -64.5s47.666 -58.167 63.999 -93.5s28.666 -73.166 36.999 -113.499
s13.166 -81.666 14.499 -123.999s-0.333984 -83.833 -5.00098 -124.5zM869.006 557c4.66699 40.667 6.16797 83.499 4.50098 128.499s-9.5 86.5 -23.5 124.5s-36 69.667 -66 95s-71 38.666 -123 39.999c-31.333 0.666992 -60.333 -3 -87 -11s-51.5 -19.5 -74.5 -34.5
s-44.333 -32.833 -64 -53.5s-37.834 -43 -54.501 -67l-82 -476c18 -50 45.333 -90 82 -120s82.667 -45.667 138 -47s103.333 9.83398 144 33.501s75 54.834 103 93.501s50 82 66 130s27.333 95.667 34 143z" />
    <glyph glyph-name="c" unicode="c" 
d="M533 129c32.667 -0.666992 64.998 3.82812 96.998 13.4951s61.167 23.667 87.5 42s48.833 40.666 67.5 66.999s31.667 55.833 39 88.5l171 1c-6 -55.333 -24 -105.5 -54 -150.5s-67 -83.333 -111 -115s-92.667 -56 -146 -73s-106.333 -24.833 -159 -23.5
c-76 2 -140.667 18.333 -194 49s-96.333 70.834 -129 120.501s-55 106.5 -67 170.5s-14.667 130 -8 198l5 43c6 48.667 16.667 96 32 142s34.833 89.333 58.5 130s51.334 77.834 83.001 111.501s67.167 62.5 106.5 86.5s82 42.333 128 55s95 18.334 147 17.001
c56 -1.33301 107.667 -12 155 -32s87.833 -47.167 121.5 -81.5s59.5 -75.333 77.5 -123s25.667 -99.834 23 -156.501l-170 1c1.33301 33.333 -2.66699 64.333 -12 93s-23.5 53.834 -42.5 75.501s-42.167 38.834 -69.5 51.501s-58.333 19.667 -93 21
c-55.333 2 -104.166 -8.16699 -146.499 -30.5s-78.5 -52.166 -108.5 -89.499s-54.167 -79.666 -72.5 -126.999s-30.833 -95.333 -37.5 -144l-5 -42c-3.33301 -28.667 -5 -58 -5 -88s2.5 -59.167 7.5 -87.5s12.833 -55.333 23.5 -81s25 -48 43 -67s39.833 -34.5 65.5 -46.5
s56.167 -18.333 91.5 -19z" />
    <glyph glyph-name="d" unicode="d" 
d="M126 543c5.33301 44.667 14.333 89.667 27 135s29 89 49 131s43.833 81 71.5 117s59 67.333 94 94s74.167 47.334 117.5 62.001s90.666 21.334 141.999 20.001c54 -1.33301 104.333 -12 151 -32s87 -52 121 -96l104 562h181l-267 -1536h-164l19 114
c-42 -44.667 -88.833 -78.5 -140.5 -101.5s-108.5 -33.833 -170.5 -32.5c-46.667 1.33301 -88.167 10.166 -124.5 26.499s-67.666 38.166 -93.999 65.499s-48 58.833 -65 94.5s-30.167 73.334 -39.5 113.001s-15 80.167 -17 121.5s-1 81.666 3 120.999zM304 522
c-3.33301 -26.667 -4.99805 -54.668 -4.99805 -84.001s2.16699 -58.166 6.5 -86.499s11.166 -55.166 20.499 -80.499s22.333 -47.833 39 -67.5s37.334 -35.5 62.001 -47.5s54 -18.333 88 -19c59.333 -2 111.166 11.667 155.499 41s83.166 67 116.499 113l87 505
c-19.333 46 -46.833 82.167 -82.5 108.5s-79.167 40.166 -130.5 41.499c-56 2 -104.667 -9 -146 -33s-76.333 -55.5 -105 -94.5s-51.5 -82.667 -68.5 -131s-28.5 -96.5 -34.5 -144.5z" />
    <glyph glyph-name="e" unicode="e" 
d="M540 -20c-73.333 1.33301 -137.827 16.3301 -193.494 44.9971s-101.5 66.667 -137.5 114s-61.833 102 -77.5 164s-20.5 127.667 -14.5 197l5 43c5.33301 47.333 15.666 94.166 30.999 140.499s35.166 90.5 59.499 132.5s52.666 80.667 84.999 116s68.333 65.833 108 91.5
s82.667 45.5 129 59.5s95.166 20.333 146.499 19c74.667 -2 137.667 -18.167 189 -48.5s92 -70.166 122 -119.499s50 -105.5 60 -168.5s10.667 -127.833 2 -194.5l-13 -83h-745c-5.33301 -44 -3.83301 -87 4.5 -129s23.166 -79.667 44.499 -113s49.666 -60.333 84.999 -81
s77.333 -31.667 126 -33c62.667 -2 120.5 10.333 173.5 37s100.833 62 143.5 106l104 -88c-24.667 -34.667 -53.5 -65.167 -86.5 -91.5s-68.5 -48.166 -106.5 -65.499s-77.667 -30.166 -119 -38.499s-83 -12.166 -125 -11.499zM672.006 949.997
c-46.667 2 -88.667 -5.83398 -126 -23.501s-70.5 -41.167 -99.5 -70.5s-54.167 -63 -75.5 -101s-39 -76.333 -53 -115l564 -2l4 18c6 36.667 5.66699 72.334 -1 107.001s-19.334 65.667 -38.001 93s-42.667 49.5 -72 66.5s-63.666 26.167 -102.999 27.5z" />
    <glyph glyph-name="f" unicode="f" horiz-adv-x="1203" 
d="M332 0l163.002 938.999h-290l26 143h288l11 76c8.66699 64 25.834 122.167 51.501 174.5s58.667 97 99 134s87.666 65.333 141.999 85s114.833 29.167 181.5 28.5c43.333 -0.666992 85.833 -5 127.5 -13s83.5 -17.333 125.5 -28l-37 -152
c-32.667 11.333 -65.834 20.333 -99.501 27s-67.834 10.334 -102.501 11.001c-43.333 0.666992 -82.333 -5 -117 -17s-65 -29.5 -91 -52.5s-47.167 -51 -63.5 -84s-27.833 -70.5 -34.5 -112.5l-11 -77h405l-25 -143h-404l-163 -939h-182z" />
    <glyph glyph-name="g" unicode="g" 
d="M127 543c6 44.667 15.1621 89.8281 27.4951 135.495s28.5 89.5 48.5 131.5s43.5 81 70.5 117s58.167 67.333 93.5 94s74.5 47.334 117.5 62.001s90.5 21.334 142.5 20.001c56.667 -1.33301 109.167 -13.166 157.5 -35.499s88.5 -57.166 120.5 -104.499l35 119h166
l-180 -1059c-9.33301 -67.333 -28.166 -129 -56.499 -185s-64.666 -103.833 -108.999 -143.5s-95.666 -70.334 -153.999 -92.001s-122.5 -31.5 -192.5 -29.5c-36 0.666992 -71.667 5.33398 -107 14.001s-69 21 -101 37s-61.667 35.5 -89 58.5s-51.333 49.5 -72 79.5l103 111
c31.333 -44.667 68.5 -80.334 111.5 -107.001s92.5 -40.667 148.5 -42c46 -1.33301 87.833 4.83398 125.5 18.501s70.667 33.167 99 58.5s52 56 71 92s32.833 75.667 41.5 119l20 95c-42 -42 -88 -74 -138 -96s-105.333 -32.333 -166 -31
c-47.333 1.33301 -89.166 10.166 -125.499 26.499s-67.666 38 -93.999 65s-48 58.333 -65 94s-30 73.334 -39 113.001s-14.5 80.334 -16.5 122.001s-0.666992 82.167 4 121.5zM304.995 521.994c-3.33301 -26.667 -4.99902 -54.667 -4.99902 -84s2 -58 6 -86
s10.833 -54.833 20.5 -80.5s22.834 -48.334 39.501 -68.001s37.167 -35.5 61.5 -47.5s53.833 -18.667 88.5 -20c60 -1.33301 112.167 12.834 156.5 42.501s83.166 68.167 116.499 115.5l85 499c-18.667 47.333 -45.834 84.333 -81.501 111s-79.5 40.667 -131.5 42
c-56 2 -104.667 -9 -146 -33s-76.166 -55.5 -104.499 -94.5s-50.833 -82.667 -67.5 -131s-28.334 -96.5 -35.001 -144.5z" />
    <glyph glyph-name="h" unicode="h" 
d="M396 920c22 26.667 45.8359 51.3301 71.5029 73.9971s53 42 82 58s59.667 28.5 92 37.5s66.5 13.167 102.5 12.5c61.333 -1.33301 112.666 -13.666 153.999 -36.999s74 -54.333 98 -93s40 -83.167 48 -133.5s9 -102.833 3 -157.5l-114 -681h-181l115 684
c4 35.333 4 68.5 0 99.5s-13.333 58.333 -28 82s-34.834 42.334 -60.501 56.001s-58.167 21.167 -97.5 22.5c-30.667 0.666992 -59.834 -2.83301 -87.501 -10.5s-54 -18.667 -79 -33s-48.667 -31.166 -71 -50.499s-42.833 -40.333 -61.5 -63l-137 -787h-181l267 1536h181z
" />
    <glyph glyph-name="i" unicode="i" 
d="M280 1082h538l-160 -922h343l-29 -160h-880l29 160h356l132 761h-357zM663 1363c0.666992 32 10.999 58.4971 30.999 79.4971s46 32.167 78 33.5c16 0.666992 30.5 -1.66602 43.5 -6.99902s24.333 -12.666 34 -21.999s17 -20.666 22 -33.999s7.5 -28 7.5 -44
c0 -32 -10 -57.833 -30 -77.5s-46 -30.167 -78 -31.5c-31.333 -1.33301 -57.166 7.5 -77.499 26.5s-30.5 44.5 -30.5 76.5z" />
    <glyph glyph-name="j" unicode="j" 
d="M373 1082h530.997l-185 -1089c-9.33301 -65.333 -26.666 -124.666 -51.999 -177.999s-58 -98.833 -98 -136.5s-87.167 -66.667 -141.5 -87s-115.166 -30.5 -182.499 -30.5c-36 0 -71.167 1.5 -105.5 4.5s-69.166 7.16699 -104.499 12.5l26 154
c30 -5.33301 59.833 -9.16602 89.5 -11.499s59.5 -3.83301 89.5 -4.5c43.333 -0.666992 82.166 5.66602 116.499 18.999s63.833 32.166 88.5 56.499s44.834 53.5 60.501 87.5s26.5 71.667 32.5 113l158 929h-351zM747.997 1364c0 32 9.83301 58.333 29.5 79
s45.5 31.667 77.5 33c16 0.666992 30.667 -1.5 44 -6.5s24.833 -12.333 34.5 -22s17.167 -21 22.5 -34s8 -27.5 8 -43.5c-0.666992 -32 -11 -58 -31 -78s-46 -30.667 -78 -32s-58 7.66699 -78 27s-29.667 45 -29 77z" />
    <glyph glyph-name="k" unicode="k" 
d="M474 503l-163 -137l-63 -366h-182l267 1536h182l-162 -930l133 123l402 353h236l-514 -460l376 -622h-215z" />
    <glyph glyph-name="l" unicode="l" 
d="M359 1536h538l-239 -1376h343l-29 -160h-880l29 160h356l211 1215h-358z" />
    <glyph glyph-name="m" unicode="m" 
d="M334 1083l-20.0039 -103c28 38 60 68 96 90s78 32.667 126 32c20.667 0 40.334 -2.16699 59.001 -6.5s35.834 -11.166 51.501 -20.499s29.334 -21.333 41.001 -36s20.5 -32 26.5 -52c28 34.667 59.667 62.5 95 83.5s76.333 31.5 123 31.5
c42 -0.666992 77 -9.33398 105 -26.001s49.833 -38.834 65.5 -66.501s26 -59 31 -94s5.83301 -70.833 2.5 -107.5l-135 -808h-172l136 811c2 18.667 2 36.167 0 52.5s-6.5 30.666 -13.5 42.999s-17.333 22 -31 29s-30.834 10.5 -51.501 10.5c-36 0 -67.333 -10 -94 -30
s-44.667 -47.333 -54 -82l-142 -834h-172l137 812c2 18 2.16699 34.833 0.5 50.5s-6 29.5 -13 41.5s-16.833 21.667 -29.5 29s-29 11.333 -49 12c-33.333 0.666992 -61.666 -6.16602 -84.999 -20.499s-43.666 -35.166 -60.999 -62.499l-149 -862h-172l187 1082z" />
    <glyph glyph-name="n" unicode="n" 
d="M413 1083l-22.998 -161c22 26.667 46 51.334 72 74.001s53.667 42 83 58s60.333 28.167 93 36.5s67 12.166 103 11.499c60.667 -1.33301 111.667 -13.333 153 -36s74.166 -52.834 98.499 -90.501s40.666 -81.5 48.999 -131.5s9.5 -102.333 3.5 -157l-115 -687h-181
l115 684c4 36.667 4.16699 70.667 0.5 102s-12.667 58.666 -27 81.999s-34.5 41.833 -60.5 55.5s-59 20.834 -99 21.501c-31.333 0.666992 -61.166 -3.16602 -89.499 -11.499s-54.833 -20 -79.5 -35s-47.834 -33 -69.501 -54s-41.5 -43.5 -59.5 -67.5l-135 -777h-181
l188 1082z" />
    <glyph glyph-name="o" unicode="o" 
d="M110 544c6 48.667 16.502 96.499 31.502 143.499s34.167 91.333 57.5 133s50.833 80 82.5 115s67 65 106 90s81.667 44.333 128 58s96.166 19.834 149.499 18.501c76 -2 140.833 -18.833 194.5 -50.5s96.834 -73 129.501 -124s55.167 -109 67.5 -174
s14.833 -131.5 7.5 -199.5l-2 -23c-9.33301 -72.667 -28.833 -142.667 -58.5 -210s-68.167 -126.5 -115.5 -177.5s-103.166 -91.5 -167.499 -121.5s-135.833 -44 -214.5 -42c-75.333 2 -139.833 18.5 -193.5 49.5s-96.834 71.833 -129.501 122.5s-55.334 108 -68.001 172
s-15.334 130 -8.00098 198zM288.002 521.999c-3.33301 -28 -4.83398 -57.001 -4.50098 -87.001s3 -59.333 8 -88s12.833 -56 23.5 -82s25 -48.833 43 -68.5s39.833 -35.5 65.5 -47.5s55.834 -18.667 90.501 -20c55.333 -2 104.333 9 147 33s79.167 55.333 109.5 94
s54.5 82.167 72.5 130.5s30.667 96.5 38 144.5l2 22c4.66699 42 5.5 86 2.5 132s-12.833 88.5 -29.5 127.5s-41 71.333 -73 97s-74 39.5 -126 41.5c-56 2 -105.333 -9.16699 -148 -33.5s-79 -56.166 -109 -95.499s-54 -83.5 -72 -132.5s-30.333 -97.5 -37 -145.5z" />
    <glyph glyph-name="p" unicode="p" 
d="M1043 536c-8 -66.667 -23.8271 -133.5 -47.4941 -200.5s-55.667 -127.167 -96 -180.5s-89.5 -96.333 -147.5 -129s-125.333 -48.334 -202 -47.001c-54.667 1.33301 -106.334 11.833 -155.001 31.5s-90.667 51.167 -126 94.5l-97 -521h-181l260 1498l164 1l-19 -119
c42 46 89.167 80.833 141.5 104.5s110.166 34.834 173.499 33.501c49.333 -1.33301 92.333 -10 129 -26s68.167 -37.5 94.5 -64.5s47.666 -58.167 63.999 -93.5s28.666 -73 36.999 -113s13.166 -81.167 14.499 -123.5s-0.333984 -83.833 -5.00098 -124.5zM864.006 557
c4.66699 40.667 5.83105 83.501 3.49805 128.501s-11.166 86.5 -26.499 124.5s-38.333 69.667 -69 95s-72 38.666 -124 39.999c-56.667 1.33301 -106.667 -11.834 -150 -39.501s-81.666 -63.5 -114.999 -107.5l-91 -523c40 -93.333 111 -141.666 213 -144.999
c56 -1.33301 104.833 10 146.5 34s77 55.667 106 95s52 83.333 69 132s28.833 97 35.5 145z" />
    <glyph glyph-name="q" unicode="q" 
d="M127 543c6 46 15.334 91.832 28.001 137.499s29 89.5 49 131.5s43.667 81 71 117s58.666 67 93.999 93s74.833 46.167 118.5 60.5s91.834 20.833 144.501 19.5c54 -1.33301 104.5 -12 151.5 -32s87.5 -52 121.5 -96l32 108h168l-260 -1498h-181l98 514
c-42 -39.333 -87.5 -69.166 -136.5 -89.499s-102.5 -29.833 -160.5 -28.5c-48 1.33301 -90.333 10 -127 26s-68.334 37.5 -95.001 64.5s-48.667 58.167 -66 93.5s-30.5 72.833 -39.5 112.5s-14.5 80.5 -16.5 122.5s-0.666992 83 4 123zM305.001 521.999
c-3.33301 -26.667 -5.00293 -54.832 -5.00293 -84.499s2.16699 -58.834 6.5 -87.501s11.333 -56 21 -82s22.834 -49 39.501 -69s37.334 -36.167 62.001 -48.5s54.334 -18.833 89.001 -19.5c28 -0.666992 54.333 2.5 79 9.5s48 16.833 70 29.5s42.667 27.834 62 45.501
s37.666 37.167 54.999 58.5l94 536c-21.333 44 -49.666 78.167 -84.999 102.5s-77.333 37.166 -126 38.499c-56 2 -105.167 -9.16699 -147.5 -33.5s-78 -56.333 -107 -96s-52.167 -84 -69.5 -133s-29 -97.5 -35 -145.5z" />
    <glyph glyph-name="r" unicode="r" 
d="M931 1104c32 -0.666992 64 -2.83496 96 -6.50195s63.333 -11.167 94 -22.5l-46 -180c-32 7.33301 -64 13.333 -96 18s-64.333 7.33398 -97 8.00098c-84 0.666992 -156 -18.666 -216 -57.999s-110 -95.333 -150 -168l-120 -695h-181l187 1082h172l-30 -172
c25.333 29.333 52.333 56 81 80s59 44.5 91 61.5s65.833 30 101.5 39s73.5 13.5 113.5 13.5z" />
    <glyph glyph-name="s" unicode="s" 
d="M818 294c4 30.667 -1 56 -15 76s-32.5 36.333 -55.5 49s-48.167 22.834 -75.5 30.501s-52 14.167 -74 19.5c-40 10 -81.667 22.333 -125 37s-83 33.667 -119 57s-65.167 52.5 -87.5 87.5s-32.5 77.5 -30.5 127.5c1.33301 36.667 8.83301 70.167 22.5 100.5
s31.5 57.666 53.5 81.999s47.5 45.5 76.5 63.5s59.667 32.833 92 44.5s65.333 20.334 99 26.001s66.834 8.16699 99.501 7.5c50.667 -1.33301 99.5 -9.33301 146.5 -24s88.167 -36.167 123.5 -64.5s63.333 -63.333 84 -105s30.667 -90.167 30 -145.5l-179 1
c0 30 -5.66699 56.333 -17 79s-26.833 41.834 -46.5 57.501s-42.334 27.5 -68.001 35.5s-52.5 12.333 -80.5 13c-26.667 0.666992 -54.167 -2 -82.5 -8s-54.833 -15.5 -79.5 -28.5s-45.667 -30 -63 -51s-28 -46.5 -32 -76.5s0.833008 -54.5 14.5 -73.5
s31.5 -34.167 53.5 -45.5s46.167 -20.333 72.5 -27s50.5 -12.334 72.5 -17.001c27.333 -6.66699 55.666 -14.334 84.999 -23.001s58 -19 86 -31s54.5 -25.833 79.5 -41.5s46.5 -34 64.5 -55s32 -45.167 42 -72.5s14.333 -58 13 -92c-2.66699 -58 -18.667 -108 -48 -150
s-66 -76.167 -110 -102.5s-92.667 -45.666 -146 -57.999s-105.333 -17.833 -156 -16.5c-53.333 0.666992 -104.833 8.66699 -154.5 24s-93.834 37.833 -132.501 67.5s-69.5 66.334 -92.5 110.001s-33.833 94.5 -32.5 152.5l180 -1
c0.666992 -34.667 7.33398 -64.667 20.001 -90s29.667 -46.166 51 -62.499s46.333 -28.666 75 -36.999s59.334 -12.5 92.001 -12.5c26.667 -0.666992 55 1.66602 85 6.99902s58.333 14.166 85 26.499s49.5 29.166 68.5 50.499s30.833 47.666 35.5 78.999z" />
    <glyph glyph-name="t" unicode="t" 
d="M724 1344l-46.0029 -262.002h400l-25 -143h-400l-98 -589c-3.33301 -29.333 -3.16602 -56.666 0.500977 -81.999s11.167 -47.333 22.5 -66s27.5 -33.667 48.5 -45s47.5 -17.333 79.5 -18c36.667 -1.33301 73.167 1.33398 109.5 8.00098s72.5 14 108.5 22l17 -133
c-42 -23.333 -88.667 -38.666 -140 -45.999s-100.666 -10.333 -147.999 -9c-54 0.666992 -99.667 11.167 -137 31.5s-67.333 47.333 -90 81s-38.167 72.667 -46.5 117s-10.166 91.166 -5.49902 140.499l98 588h-276l25 143h275l46 262h182z" />
    <glyph glyph-name="u" unicode="u" 
d="M780 149c-42.667 -52.667 -91.667 -94.3301 -147 -124.997s-118 -45.334 -188 -44.001c-64.667 1.33301 -117.5 15.5 -158.5 42.5s-72.667 62.167 -95 105.5s-36.333 92.166 -42 146.499s-5.5 109.166 0.5 164.499l108 643h181l-107 -646
c-4 -33.333 -6.33301 -67.5 -7 -102.5s3.83301 -66.833 13.5 -95.5s25.834 -52.334 48.501 -71.001s55 -28.667 97 -30c66.667 -2 125.667 11.833 177 41.5s94.666 71.834 129.999 126.501l135 777h182l-188 -1082h-163z" />
    <glyph glyph-name="v" unicode="v" 
d="M524 266l5 -68l29 69l422 815h192l-598 -1082h-138l-262 1082l174 1z" />
    <glyph glyph-name="w" unicode="w" 
d="M291 381l-6 -138l55 159l284 680h117l47 -702l-2 -154l53 158l239 698h164l-411 -1082h-142l-50 673l3 154l-58 -174l-273 -653h-143l-36 1082h156z" />
    <glyph glyph-name="x" unicode="x" 
d="M609 682l343 400h224l-483 -543l312 -539h-196l-226 411l-354 -411h-223l495 555l-303 527h197z" />
    <glyph glyph-name="y" unicode="y" 
d="M516 375l20.999 -119.998l464 827h211l-748 -1250c-20 -34.667 -42.667 -68.334 -68 -101.001s-53.5 -61.834 -84.5 -87.501s-65 -46 -102 -61s-77.167 -22.5 -120.5 -22.5c-19.333 0 -38.833 1.83301 -58.5 5.5l-58.5 10.5l41 153c14.667 -1.33301 29.334 -3 44.001 -5
s29 -3 43 -3c26 0.666992 50 7 72 19s42 27 60 45s34.333 37.833 49 59.5l41 61.5l103 156l-271 1020h193z" />
    <glyph glyph-name="z" unicode="z" 
d="M321 151h663l-25 -151h-898l23 144l743 785h-612l24 153h855l-22 -139z" />
    <glyph glyph-name="braceleft" unicode="{" 
d="M812 -365c-59.333 4 -109.667 20.498 -151 49.498s-74.333 65.5 -99 109.5s-41.5 92.667 -50.5 146s-10.833 106.333 -5.5 159l22 170c4.66699 42.667 4 80.5 -2 113.5s-17.833 61 -35.5 84s-41.5 40.833 -71.5 53.5s-67 20 -111 22l15 144
c92 1.33301 164.833 24.5 218.5 69.5s87.167 113.833 100.5 206.5l22 170c8 61.333 22.833 119.5 44.5 174.5s50.5 103.5 86.5 145.5s79.333 76.167 130 102.5s109 41.5 175 45.5l10 -117c-48.667 -3.33301 -88.667 -15.666 -120 -36.999s-56.833 -48.5 -76.5 -81.5
s-34.5 -69.833 -44.5 -110.5s-17.667 -81.334 -23 -122.001l-22 -170c-11.333 -87.333 -40.666 -159.5 -87.999 -216.5s-111 -102.5 -191 -136.5c32 -17.333 59.333 -38.166 82 -62.499s40.667 -51.166 54 -80.499s22.166 -60.833 26.499 -94.5s4.83301 -68.167 1.5 -103.5
l-21 -170c-4 -33.333 -6.33301 -69.333 -7 -108s3.5 -74.834 12.5 -108.501s24.667 -62.667 47 -87s54.5 -39.166 96.5 -44.499z" />
    <glyph glyph-name="bar" unicode="|" 
d="M513 -398h-146l290 1854h146z" />
    <glyph glyph-name="braceright" unicode="}" 
d="M178 -252c44.667 2.66699 82.4971 15.3311 113.497 37.998s56.833 50.834 77.5 84.501s36.667 70.667 48 111s20 79.5 26 117.5l22 169c11.333 86.667 40.333 158.5 87 215.5s110 102.167 190 135.5c-32 17.333 -59.167 38.333 -81.5 63s-40.166 51.834 -53.499 81.501
s-22.166 61.334 -26.499 95.001s-4.83301 68.167 -1.5 103.5l22 171c2.66699 24 5.16699 48.667 7.5 74s3 50.333 2 75s-4 48.334 -9 71.001s-13.5 42.834 -25.5 60.501s-28 32.5 -48 44.5s-45 19.667 -75 23l29 114c60 -4 110.5 -20.333 151.5 -49
s73.5 -64.834 97.5 -108.501s39.833 -92.167 47.5 -145.5s8.5 -106.666 2.5 -159.999l-21 -171c-9.33301 -86 3.16699 -151.833 37.5 -197.5s95.166 -70.5 182.499 -74.5l-15 -144c-92 -2.66699 -165 -26.334 -219 -71.001s-87.333 -113.334 -100 -206.001l-22 -169
c-8 -60.667 -23.167 -118.334 -45.5 -173.001s-51.666 -103.167 -87.999 -145.5s-79.666 -76.833 -129.999 -103.5s-107.833 -42 -172.5 -46z" />
    <glyph glyph-name="asciitilde" unicode="~" 
d="M1158 742c-4 -43.333 -14.0039 -85.5029 -30.0039 -126.503s-37.667 -77.5 -65 -109.5s-60 -57.667 -98 -77s-80.667 -28.666 -128 -27.999c-30 0 -58.333 3.83301 -85 11.5s-52.167 17.834 -76.5 30.501s-47.666 27.5 -69.999 44.5s-44.166 35.167 -65.499 54.5
c-13.333 12 -27.333 23.833 -42 35.5s-30 22.334 -46 32.001s-32.833 17.334 -50.5 23.001s-35.834 8.5 -54.501 8.5c-26.667 0 -50.667 -5.33301 -72 -16s-39.666 -24.5 -54.999 -41.5s-28.166 -36.5 -38.499 -58.5s-17.833 -45 -22.5 -69l-131 17
c4.66699 43.333 15.5 85 32.5 125s39.333 75.333 67 106s60.334 55 98.001 73s80.167 26.667 127.5 26c58.667 -0.666992 112.5 -14.5 161.5 -41.5s94.5 -59.833 136.5 -98.5l42.5 -37c14.333 -12 29.5 -22.667 45.5 -32s32.833 -16.833 50.5 -22.5s36.167 -8.5 55.5 -8.5
c26.667 0 50.834 5.66699 72.501 17s40.5 26.166 56.5 44.499s29.167 39 39.5 62s18.166 46.5 23.499 70.5z" />
    <glyph glyph-name="nonbreakingspace" unicode="&#xa0;" 
 />
    <glyph glyph-name="exclamdown" unicode="&#xa1;" 
d="M508 611h181l-171 -983h-181zM775 993c-1.33301 -32.667 -12.5 -59.334 -33.5 -80.001s-47.5 -31.667 -79.5 -33c-16 -0.666992 -30.833 1.5 -44.5 6.5s-25.5 12.333 -35.5 22s-17.667 21.167 -23 34.5s-8 28 -8 44c0.666992 33.333 11.167 60.833 31.5 82.5
s47.166 33.167 80.499 34.5c16.667 0.666992 31.834 -1.66602 45.501 -6.99902s25.5 -13 35.5 -23s17.667 -22 23 -36s8 -29 8 -45z" />
    <glyph glyph-name="cent" unicode="&#xa2;" 
d="M537 129c32.667 -0.666992 64.999 3.8291 96.999 13.4961s61.167 23.667 87.5 42s48.833 40.666 67.5 66.999s31.667 55.833 39 88.5l171 1c-6 -50 -21.5 -96 -46.5 -138s-56.333 -78.5 -94 -109.5s-79.834 -56 -126.501 -75s-94 -31.167 -142 -36.5l-39 -227h-181
l42 242c-54 15.333 -100.167 40 -138.5 74s-69 74.333 -92 121s-38.667 97.834 -47 153.501s-9.5 112.834 -3.5 171.501l5 43c8 66 24.5 129.167 49.5 189.5s57.333 114.666 97 162.999s86.334 88.833 140.001 121.5s113.5 53.667 179.5 63l39 221h181l-40 -228
c44 -10 84 -26.333 120 -49s66.667 -50.5 92 -83.5s44.5 -70.5 57.5 -112.5s18.5 -87.333 16.5 -136l-170 1c1.33301 33.333 -2.66699 64.333 -12 93s-23.5 53.834 -42.5 75.501s-42.167 38.834 -69.5 51.501s-58.333 19.667 -93 21
c-55.333 2 -104.166 -8.16699 -146.499 -30.5s-78.5 -52.166 -108.5 -89.499s-54.167 -79.666 -72.5 -126.999s-30.833 -95.333 -37.5 -144l-5 -42c-3.33301 -28.667 -5 -58 -5 -88s2.5 -59.167 7.5 -87.5s12.833 -55.333 23.5 -81s25 -48 43 -67s39.833 -34.5 65.5 -46.5
s56.167 -18.333 91.5 -19z" />
    <glyph glyph-name="sterling" unicode="&#xa3;" 
d="M454 626l-29.999 -224.996c-6.66699 -47.333 -18.5 -92 -35.5 -134s-40.833 -81.333 -71.5 -118l720 2l-27 -151h-1001l27 150l65 -1c24 9.33301 44.333 23.166 61 41.499s30.5 39.166 41.5 62.499s19.667 47.833 26 73.5s11.166 50.167 14.499 73.5l30 226h-160l26 152
h156l33 260c8 64.667 25.833 124 53.5 178s63.167 100.5 106.5 139.5s93.333 69.167 150 90.5s118 31.333 184 30c58 -1.33301 109.167 -11.833 153.5 -31.5s81.5 -46.5 111.5 -80.5s52 -74.333 66 -121s19.667 -98.334 17 -155.001l-182 1
c2 33.333 -0.166992 64.333 -6.5 93s-17.5 53.5 -33.5 74.5s-36.833 37.5 -62.5 49.5s-56.167 18.667 -91.5 20c-40.667 1.33301 -77.5 -5.83398 -110.5 -21.501s-61.5 -37 -85.5 -64s-43.5 -58 -58.5 -93s-25.167 -70.833 -30.5 -107.5l-34 -262h311l-27 -152h-306z" />
    <glyph glyph-name="currency" unicode="&#xa4;" 
d="M825 82c-46 -32 -93.999 -57.3311 -143.999 -75.998s-103.333 -27.334 -160 -26.001c-50.667 0.666992 -99.167 9.66699 -145.5 27s-89.166 42.666 -128.499 75.999l-120 -109l-111 144l128 108c-14 46 -23.167 92.5 -27.5 139.5s-3.5 94.5 2.5 142.5
c16 117.333 61.667 222.333 137 315l-96 129l142 128l90 -121c44 28 89.833 50.167 137.5 66.5s97.834 24.166 150.501 23.499c48 -0.666992 94.167 -9 138.5 -25s85.166 -39 122.499 -69l141 126l112 -146l-142 -121c15.333 -47.333 25.666 -95.333 30.999 -144
s4.66602 -98 -2.00098 -148c-7.33301 -55.333 -21.5 -107.666 -42.5 -156.999s-47.833 -96.333 -80.5 -141l92 -124l-143 -127zM287.001 506.002c-5.33301 -41.333 -4.00098 -82.668 3.99902 -124.001s22.333 -79 43 -113s47.834 -62 81.501 -84s73.5 -33.667 119.5 -35
c50.667 -1.33301 97.667 8.66699 141 30s81.5 49.666 114.5 84.999s60 75.666 81 120.999s34.5 91.333 40.5 138c4.66699 40.667 3.16699 81.834 -4.5 123.501s-21.667 79.334 -42 113.001s-47.166 61.5 -80.499 83.5s-73 33.667 -119 35
c-50.667 1.33301 -97.834 -8.5 -141.501 -29.5s-82.167 -49.167 -115.5 -84.5s-60.5 -75.666 -81.5 -120.999s-34.5 -91.333 -40.5 -138z" />
    <glyph glyph-name="yen" unicode="&#xa5;" 
d="M621 780l475 676h218l-533 -720h303l-22 -121l-367 3l-6 -7l-34 -165h379l-22 -120h-376l-57 -326h-181l57 326h-369l21 120h368l30 169h-369l21 121h313l-284 720h195z" />
    <glyph glyph-name="brokenbar" unicode="&#xa6;" 
d="M344 -270l138 791h181l-138 -791h-181zM693 698h-181l132 758h181z" />
    <glyph glyph-name="section" unicode="&#xa7;" 
d="M1077 439c-3.33301 -36 -11.1621 -68.502 -23.4951 -97.502s-28.666 -55.167 -48.999 -78.5s-43.833 -44.166 -70.5 -62.499s-55.334 -34.833 -86.001 -49.5c37.333 -37.333 62.833 -78.833 76.5 -124.5s18.5 -94.5 14.5 -146.5c-5.33301 -67.333 -24.333 -125 -57 -173
s-73.5 -87.167 -122.5 -117.5s-103.667 -52.5 -164 -66.5s-120.5 -20.333 -180.5 -19c-66.667 1.33301 -128.334 11.333 -185.001 30s-105.334 46 -146.001 82s-71.667 80.667 -93 134s-30.333 115.333 -27 186l185 2c-3.33301 -44 1 -83.333 13 -118s30 -64 54 -88
s53.667 -42.333 89 -55s74.666 -19.334 117.999 -20.001c35.333 -0.666992 71.5 3 108.5 11s71.333 20.833 103 38.5s58.5 40.667 80.5 69s35.667 62.166 41 101.499c3.33301 26.667 1.5 50.334 -5.5 71.001s-17.667 39.167 -32 55.5s-31.5 30.666 -51.5 42.999
s-41.167 23.333 -63.5 33s-44.833 18.167 -67.5 25.5l-64 21c-52 17.333 -102.5 37 -151.5 59s-92 48.833 -129 80.5s-65.833 70 -86.5 115s-28.334 99.167 -23.001 162.5c2.66699 34.667 10.334 66.5 23.001 95.5s28.834 55.167 48.501 78.5s42.5 44.333 68.5 63
s54.333 35.334 85 50.001c-36 38 -60.333 80 -73 126s-17 94.667 -13 146c3.33301 44 13.166 84 29.499 120s37.333 68 63 96s55 52.167 88 72.5s68.333 37 106 50s76.667 22.333 117 28s80.166 8.16699 119.499 7.5c66.667 -1.33301 126.834 -11.833 180.501 -31.5
s98.834 -47.667 135.501 -84s64.167 -81 82.5 -134s25.5 -113.5 21.5 -181.5h-180c2.66699 40.667 -0.833008 77.834 -10.5 111.501s-25.167 62.834 -46.5 87.501s-48 44 -80 58s-69 21.667 -111 23c-36 0.666992 -72.5 -2.83301 -109.5 -10.5
s-71.167 -20.334 -102.5 -38.001s-57.833 -40.667 -79.5 -69s-35.5 -62.5 -41.5 -102.5c-4 -28 -2.66699 -52.667 4 -74s16.834 -40.166 30.501 -56.499s30.167 -30.5 49.5 -42.5s40.166 -22.667 62.499 -32s45.166 -17.666 68.499 -24.999l67 -21
c51.333 -17.333 101.666 -36.833 150.999 -58.5s92.666 -48.334 129.999 -80.001s66.333 -70 87 -115s28.667 -98.833 24 -161.5zM607.004 690.998l-75.998 25c-25.333 8.66699 -50.333 17.667 -75 27c-50.667 -14 -93.334 -37 -128.001 -69s-56 -75 -64 -129
c-6 -42.667 -0.833008 -78 15.5 -106s39 -51.333 68 -70s61.667 -34 98 -46l103.5 -34c25.333 -8 50.333 -16.333 75 -25l74 -27c24.667 7.33301 48 16.833 70 28.5s41.833 25.667 59.5 42s32.334 35.166 44.001 56.499s19.5 45.333 23.5 72s2.5 50.667 -4.5 72
s-17.833 40.333 -32.5 57s-32.334 31.334 -53.001 44.001s-42.334 24 -65.001 34s-45.5 18.833 -68.5 26.5z" />
    <glyph glyph-name="dieresis" unicode="&#xa8;" 
d="M399 1369c0 30.667 9.83203 56.1699 29.499 76.5029s45.167 31.166 76.5 32.499c30.667 0.666992 56.334 -8.83301 77.001 -28.5s30.667 -45.167 30 -76.5c-0.666992 -30.667 -11 -56 -31 -76s-45.333 -30.667 -76 -32c-31.333 -0.666992 -57 8.66602 -77 27.999
s-29.667 44.666 -29 75.999zM814.999 1367c0.666992 30.667 10.833 56.335 30.5 77.002s45.167 31.667 76.5 33c31.333 0.666992 57 -8.83301 77 -28.5s30 -45.5 30 -77.5c-0.666992 -30.667 -11 -56 -31 -76s-45.667 -30.667 -77 -32
c-30.667 -0.666992 -56 8.66602 -76 27.999s-30 44.666 -30 75.999z" />
    <glyph glyph-name="copyright" unicode="&#xa9;" 
d="M813 443c-9.33301 -74 -36.334 -132.173 -81.001 -174.506s-105.334 -62.5 -182.001 -60.5c-40.667 0.666992 -75.5 9.33398 -104.5 26.001s-52.5 38.334 -70.5 65.001s-30.833 57.334 -38.5 92.001s-10.5 70.334 -8.5 107.001l8 87c4 38.667 13.167 75.834 27.5 111.501
s33.5 67 57.5 94s52.833 48.333 86.5 64s71.5 23.167 113.5 22.5c74 -1.33301 130 -23 168 -65s55.333 -99.333 52 -172l-109 1c2.66699 42 -4.66602 75.667 -21.999 101s-49 38 -95 38c-27.333 0 -51 -5.66699 -71 -17s-36.833 -26 -50.5 -44s-24.5 -38.5 -32.5 -61.5
s-13.333 -46.5 -16 -70.5l-8 -90c-1.33301 -21.333 -0.833008 -43.166 1.5 -65.499s7.83301 -42.833 16.5 -61.5s21 -34 37 -46s37 -18.333 63 -19c23.333 -0.666992 43.333 2.33301 60 9s31 16 43 28s21.833 26.5 29.5 43.5s13.834 35.833 18.501 56.5zM164.999 533.994
c-6.66699 -57.333 -3.49609 -113.671 9.50391 -169.004s34.667 -104.666 65 -147.999s69.166 -78.666 116.499 -105.999s102 -41.666 164 -42.999c66.667 -2 129.167 10.167 187.5 36.5s109.833 62 154.5 107s81.167 96.833 109.5 155.5s46.166 119.667 53.499 183
c6.66699 57.333 3.33398 113.333 -9.99902 168s-35.333 103.5 -66 146.5s-69.5 77.833 -116.5 104.5s-101.5 40.667 -163.5 42c-44 1.33301 -86.333 -3.66699 -127 -15s-79 -27.666 -115 -48.999s-68.833 -47 -98.5 -77s-55.834 -62.833 -78.501 -98.5
s-41.334 -73.667 -56.001 -114s-24.334 -81.5 -29.001 -123.5zM78.0029 534.989c5.33301 50 16.332 99.0029 32.999 147.003s38.334 93.167 65.001 135.5s57.834 81.166 93.501 116.499s74.667 65.666 117 90.999s87.5 44.833 135.5 58.5s98.333 19.834 151 18.501
c49.333 -0.666992 95.166 -8.5 137.499 -23.5s80.5 -35.167 114.5 -60.5s63.833 -55.333 89.5 -90s46.5 -72.334 62.5 -113.001s27 -83.5 33 -128.5s6.66699 -90.5 2 -136.5c-5.33301 -50.667 -16.333 -100 -33 -148s-38.334 -93.333 -65.001 -136
s-57.667 -81.834 -93 -117.501s-74.166 -66.167 -116.499 -91.5s-87.666 -45 -135.999 -59s-98.833 -20.333 -151.5 -19c-74.667 1.33301 -140.834 18 -198.501 50s-105.5 73.833 -143.5 125.5s-65.5 110.5 -82.5 176.5s-21.833 134 -14.5 204z" />
    <glyph glyph-name="ordfeminine" unicode="&#xaa;" 
d="M781 704c-4 32.667 -5.00195 65.0039 -3.00195 97.0039c-30 -34.667 -64.333 -61.667 -103 -81s-81.334 -29 -128.001 -29c-33.333 0 -63.666 5.16699 -90.999 15.5s-50.666 25 -69.999 44s-34 42 -44 69s-14 57.5 -12 91.5c2 46.667 14.333 85.334 37 116.001
s51 55.167 85 73.5s71.5 31.166 112.5 38.499s81.167 11 120.5 11l138 -1l8 53c2 18 1.83301 35.167 -0.5 51.5s-7.16602 30.5 -14.499 42.5s-17.833 21.5 -31.5 28.5s-30.5 10.833 -50.5 11.5c-38 1.33301 -70.833 -6.33398 -98.5 -23.001s-46.834 -43.667 -57.501 -81
l-156 11c6 40.667 19.167 75.834 39.5 105.501s45.333 54.167 75 73.5s62.834 33.333 99.501 42s74 12.667 112 12c41.333 -0.666992 78 -7.83398 110 -21.501s58.5 -32.5 79.5 -56.5s36.333 -52.833 46 -86.5s12.5 -70.834 8.5 -111.501l-49 -314
c-5.33301 -30.667 -8.5 -60.834 -9.5 -90.501s0.833008 -59.834 5.5 -90.501zM596.998 826.004c37.333 0 73.334 9.33105 108.001 27.998s63 43 85 73l19 110h-129c-19.333 -0.666992 -39.333 -3.16699 -60 -7.5s-40 -11.166 -58 -20.499s-33.333 -21.666 -46 -36.999
s-20.334 -34.333 -23.001 -57c-2 -16 -0.333008 -29.667 5 -41s13 -20.5 23 -27.5s21.667 -12.167 35 -15.5s27 -5 41 -5z" />
    <glyph glyph-name="guillemotleft" unicode="&#xab;" 
d="M362 505l177 -387h-124l-226 387l2 20l348 389h151zM687 505l177 -387h-124l-226 387l2 20l348 389h151z" />
    <glyph glyph-name="logicalnot" unicode="&#xac;" 
d="M950 375h-181l47 264h-627l29 161h806z" />
    <glyph glyph-name="uni00AD" unicode="&#xad;" horiz-adv-x="1203" 
d="M947 561h-743l27 152h743z" />
    <glyph glyph-name="registered" unicode="&#xae;" 
d="M75 533c4.66699 50 15.499 99.001 32.499 147.001s38.667 93.333 65 136s57.333 81.667 93 117s74.667 65.666 117 90.999s87.666 44.833 135.999 58.5s98.833 19.834 151.5 18.501c74.667 -2 140.834 -18.833 198.501 -50.5s105.5 -73.167 143.5 -124.5
s65.333 -109.833 82 -175.5s21.667 -133.5 15 -203.5c-5.33301 -50 -16.333 -99 -33 -147s-38.334 -93.167 -65.001 -135.5s-57.667 -81.333 -93 -117s-74.166 -66.167 -116.499 -91.5s-87.666 -44.833 -135.999 -58.5s-98.833 -19.834 -151.5 -18.501
c-74 2 -139.833 18.833 -197.5 50.5s-105.5 73.167 -143.5 124.5s-65.667 109.833 -83 175.5s-22.333 133.5 -15 203.5zM161.999 532.001c-6.66699 -57.333 -3.33398 -113.503 9.99902 -168.503s35.333 -104 66 -147s69.5 -78 116.5 -105s101.5 -41.167 163.5 -42.5
c44 -1.33301 86.333 3.83398 127 15.501s79 28.167 115 49.5s68.833 47 98.5 77s55.834 63 78.501 99s41.334 74.167 56.001 114.5s24.334 81.5 29.001 123.5c6.66699 57.333 3.5 113.333 -9.5 168s-34.833 103.5 -65.5 146.5s-69.667 78 -117 105s-102 41.167 -164 42.5
c-66.667 2 -129 -10 -187 -36s-109.333 -61.167 -154 -105.5s-81.334 -95.666 -110.001 -153.999s-46.334 -119.166 -53.001 -182.499zM476.999 484.998l-41.001 -253.001h-106l100 635l199 -1c28.667 -0.666992 56 -4.66699 82 -12s48.833 -18.333 68.5 -33
s34.834 -33.5 45.501 -56.5s15 -50.833 13 -83.5c-2 -22 -7.5 -41.667 -16.5 -59s-20.667 -32.5 -35 -45.5s-30.5 -24.167 -48.5 -33.5s-36.333 -17.666 -55 -24.999l95 -286h-103l-77 253h-121zM490.998 581.997l110.998 -0.00195312c14.667 0.666992 29.334 3 44.001 7
s28 9.66699 40 17s22.333 16.833 31 28.5s14.334 25.5 17.001 41.5c3.33301 18.667 2.5 34 -2.5 46s-12.5 21.333 -22.5 28s-22.167 11.334 -36.5 14.001s-29.5 4.33398 -45.5 5.00098l-106 1z" />
    <glyph glyph-name="macron" unicode="&#xaf;" 
d="M1054 1313h-694l23 143h694z" />
    <glyph glyph-name="macron" unicode="&#x2c9;" 
d="M1054 1313h-694l23 143h694z" />
    <glyph glyph-name="degree" unicode="&#xb0;" 
d="M457 1207c2 35.333 10.498 69.4932 25.498 102.493s34.833 62 59.5 87s53.334 44.833 86.001 59.5s67.334 21.667 104.001 21c33.333 -0.666992 63.5 -8.16699 90.5 -22.5s50 -33.166 69 -56.499s33.5 -50 43.5 -80s14 -61 12 -93
c-2 -35.333 -10.333 -69.166 -25 -101.499s-34 -60.666 -58 -84.999s-52 -43.833 -84 -58.5s-66 -21.667 -102 -21c-33.333 0.666992 -64 7.83398 -92 21.501s-51.833 31.834 -71.5 54.501s-34.667 48.834 -45 78.501s-14.5 60.834 -12.5 93.501zM578.998 1209.99
c-1.33301 -16.667 0.333984 -32.333 5.00098 -47s11.834 -27.667 21.501 -39s21.5 -20.333 35.5 -27s29.667 -10 47 -10c18 0 35.167 3.83301 51.5 11.5s30.666 17.667 42.999 30s22.333 26.5 30 42.5s12.167 33 13.5 51c1.33301 16 0 31.667 -4 47s-10.5 29 -19.5 41
s-20.333 21.667 -34 29s-29.167 11 -46.5 11c-18.667 0 -36.334 -4 -53.001 -12s-31.5 -18.5 -44.5 -31.5s-23.5 -27.833 -31.5 -44.5s-12.667 -34 -14 -52z" />
    <glyph glyph-name="plusminus" unicode="&#xb1;" 
d="M728 855h353l-24 -152h-352l-65 -414h-165l66 414h-374l24 152h373l65 412h164zM907 1h-811l27 151h811z" />
    <glyph glyph-name="twosuperior" unicode="&#xb2;" 
d="M918 667h-583.002l21 116l316 265l45 39c16 14 31.333 29 46 45s27.334 33 38.001 51s17.334 36.667 20.001 56c4.66699 32 -2 57 -20 75s-42.667 27.333 -74 28c-44 0.666992 -79.167 -11.666 -105.5 -36.999s-44.166 -58.333 -53.499 -99l-155 -1
c4.66699 41.333 15.834 78.333 33.501 111s40.5 60.5 68.5 83.5s60 40.5 96 52.5s74.667 17.667 116 17c34.667 -0.666992 67.834 -5.83398 99.501 -15.501s59.167 -24 82.5 -43s41.666 -42.833 54.999 -71.5s19 -62 17 -100c-2 -32.667 -10.333 -63.167 -25 -91.5
s-32.834 -54.833 -54.501 -79.5s-45.334 -47.667 -71.001 -69l-73.5 -59l-195 -145h379z" />
    <glyph glyph-name="threesuperior" unicode="&#xb3;" 
d="M596 1125l79.9912 -1c18 0.666992 36.333 3.33398 55 8.00098s35.667 11.667 51 21s28.333 21.166 39 35.499s17.334 31.833 20.001 52.5c2 16.667 0.5 31.167 -4.5 43.5s-12.5 22.5 -22.5 30.5s-21.833 14 -35.5 18s-28.167 6 -43.5 6
c-33.333 0 -62.666 -7.5 -87.999 -22.5s-43.333 -38.5 -54 -70.5h-156c4 38 15 70.833 33 98.5s40.5 50.667 67.5 69s57.167 32 90.5 41s68 13.167 104 12.5c32.667 0 65.167 -4.33301 97.5 -13s61 -21.834 86 -39.501s44.833 -40.167 59.5 -67.5s21 -60 19 -98
c-1.33301 -24 -6.66602 -45.333 -15.999 -64s-21.333 -35.334 -36 -50.001s-31.167 -27.834 -49.5 -39.501s-37.5 -21.834 -57.5 -30.501c38.667 -14 67.834 -35.667 87.501 -65s28.834 -64.666 27.501 -105.999c-1.33301 -42 -11.833 -78.167 -31.5 -108.5
s-44.667 -55.333 -75 -75s-64.166 -34 -101.499 -43s-74.333 -13.167 -111 -12.5c-36 0.666992 -70.333 6 -103 16s-61.167 24.667 -85.5 44s-43.666 43.5 -57.999 72.5s-21.5 62.833 -21.5 101.5h152c0 -36.667 11.667 -63.167 35 -79.5s52.666 -24.833 87.999 -25.5
c18.667 0 37 2.33301 55 7s34.5 11.834 49.5 21.501s27.667 21.834 38 36.501s16.833 32 19.5 52c2.66699 20.667 0.833984 37.834 -5.49902 51.501s-15.666 24.5 -27.999 32.5s-26.666 13.667 -42.999 17s-33.5 5.33301 -51.5 6l-87 1z" />
    <glyph glyph-name="acute" unicode="&#xb4;" 
d="M708 1481h231l-302 -266h-150z" />
    <glyph glyph-name="mu" unicode="&#xb5;" 
d="M446 1082l-101.997 -625c-2.66699 -21.333 -4.83398 -44.166 -6.50098 -68.499s-1.83398 -48.5 -0.500977 -72.5s4.66602 -46.833 9.99902 -68.5s13.833 -41 25.5 -58s27.167 -30.833 46.5 -41.5s43.666 -16.334 72.999 -17.001
c61.333 -2.66699 115.5 8.83301 162.5 34.5s86.5 64.5 118.5 116.5l139 800h182l-188 -1082h-162l19 116c-35.333 -44 -75.166 -78 -119.499 -102s-95.5 -35.667 -153.5 -35c-40 0.666992 -78.333 6.5 -115 17.5s-70 30.167 -100 57.5l-89 -470h-180l260 1498h180z" />
    <glyph glyph-name="paragraph" unicode="&#xb6;" 
d="M662 0l89.999 520.001l-72 1c-67.333 2 -127.666 14.5 -180.999 37.5s-97.833 54.667 -133.5 95s-61.667 88.333 -78 144s-21.5 117.167 -15.5 184.5c6.66699 73.333 25.5 139.166 56.5 197.499s70.833 108 119.5 149s104.667 72.667 168 95s131 33.5 203 33.5l277 -1
l-253 -1456h-181z" />
    <glyph glyph-name="periodcentered" unicode="&#xb7;" 
d="M511 726c0.666992 32.667 11.333 59.834 32 81.501s47.667 33.167 81 34.5c16 0.666992 30.833 -1.66602 44.5 -6.99902s25.5 -13 35.5 -23s17.667 -21.833 23 -35.5s8 -28.5 8 -44.5c-0.666992 -32.667 -11.5 -59.5 -32.5 -80.5s-47.5 -32.167 -79.5 -33.5
c-16 -0.666992 -31 1.66602 -45 6.99902s-26 12.666 -36 21.999s-17.667 20.833 -23 34.5s-8 28.5 -8 44.5z" />
    <glyph glyph-name="cedilla" unicode="&#xb8;" 
d="M503 0l-20.999 -55.001c41.333 -10 72.666 -29 93.999 -57s31.333 -63.333 30 -106c-1.33301 -43.333 -12.5 -78.833 -33.5 -106.5s-47.5 -49.667 -79.5 -66s-67 -27.833 -105 -34.5s-74.333 -10.667 -109 -12l4 108c18 0.666992 36.833 2.66699 56.5 6
s38.167 8.83301 55.5 16.5s32.333 18.334 45 32.001s20.667 31.167 24 52.5c3.33301 20 0.666016 35.5 -8.00098 46.5s-20.167 19.333 -34.5 25s-30.166 9.5 -47.499 11.5s-33 4 -47 6l45 133h131z" />
    <glyph glyph-name="onesuperior" unicode="&#xb9;" 
d="M747 665h-153l104 597l-219 -56l23 135l355 113h22z" />
    <glyph glyph-name="ordmasculine" unicode="&#xba;" 
d="M352 1140c6 49.333 19.833 94.832 41.5 136.499s49.167 77.5 82.5 107.5s71.833 53.167 115.5 69.5s90.834 23.833 141.501 22.5c48 -1.33301 90.667 -10.666 128 -27.999s68.5 -41 93.5 -71s43.167 -65.167 54.5 -105.5s14.666 -83.833 9.99902 -130.5l-13 -117
c-6 -49.333 -19.667 -94.666 -41 -135.999s-48.5 -77 -81.5 -107s-71.167 -53 -114.5 -69s-90.333 -23.333 -141 -22c-48 1.33301 -90.833 10.666 -128.5 27.999s-69 40.833 -94 70.5s-43.333 64.667 -55 105s-15.5 83.833 -11.5 130.5zM502 1022
c-2 -25.333 -0.832031 -49.499 3.50098 -72.499s12.166 -43.5 23.499 -61.5s26.833 -32.5 46.5 -43.5s43.5 -16.833 71.5 -17.5c28.667 -0.666992 54.5 4.16602 77.5 14.499s42.833 24.5 59.5 42.5s30.167 39 40.5 63s17.5 49.333 21.5 76l13 119
c2 24.667 0.833008 48.667 -3.5 72s-12.333 44 -24 62s-27.167 32.5 -46.5 43.5s-43 16.833 -71 17.5c-29.333 0.666992 -55.5 -4 -78.5 -14s-42.833 -24 -59.5 -42s-30.167 -39 -40.5 -63s-17.5 -49.333 -21.5 -76z" />
    <glyph glyph-name="guillemotright" unicode="&#xbb;" 
d="M426 949l224 -387l-1 -20l-347 -390h-152l328 408l-178 389h126zM760 949l224 -387l-1 -20l-347 -390h-152l328 408l-178 389h126z" />
    <glyph glyph-name="onequarter" unicode="&#xbc;" 
d="M408.614 751h-137.703l93.6025 537.314l-197.105 -50.4014l20.7002 121.503l319.509 101.703h19.8008zM332 223l-107 71l658 945l107 -71zM989.719 269.107h93.6025l-20.7012 -117.003h-92.7021l-27.001 -152.104h-138.604l27.001 152.104h-326.709l11.7002 99.9023
l402.311 458.112h147.604zM663.909 269.107h187.205l51.3018 261.907l-19.8008 -27.001z" />
    <glyph glyph-name="onehalf" unicode="&#xbd;" 
d="M274 223l-107 71l658 945l107 -71zM395.614 747h-137.703l93.6025 537.314l-197.105 -50.4014l20.7002 121.503l319.509 101.703h19.8008zM1045.92 0l-524.718 0.000976562l18.9004 104.402l284.408 238.507l40.501 35.1006
c14.4004 12.6006 28.2012 26.1016 41.4014 40.502s24.6006 29.7002 34.2012 45.9004s15.6006 33.001 18 50.4023c4.2002 28.8008 -1.7998 51.3008 -18 67.501s-38.4014 24.6006 -66.6025 25.2012c-39.6006 0.599609 -71.251 -10.501 -94.9512 -33.3008
c-23.7002 -22.8008 -39.751 -52.502 -48.1514 -89.1025l-139.504 -0.900391c4.2002 37.2012 14.25 70.502 30.1504 99.9033c15.9004 29.4004 36.4512 54.4512 61.6523 75.1514c25.2002 20.7002 54.001 36.4512 86.4023 47.252
c32.4004 10.7998 67.2012 15.8994 104.402 15.2988c31.2012 -0.599609 61.0518 -5.25 89.5527 -13.9502s53.252 -21.6006 74.2529 -38.7012s37.501 -38.5508 49.501 -64.3516c12.001 -25.8008 17.1016 -55.8018 15.3018 -90.002
c-1.7998 -29.4014 -9.2998 -56.8525 -22.5 -82.3535s-29.5508 -49.3516 -49.0518 -71.5518s-40.8018 -42.9004 -63.9023 -62.1006l-66.1514 -53.1016l-175.505 -130.504h341.109z" />
    <glyph glyph-name="threequarters" unicode="&#xbe;" 
d="M396 222l-107 71l658 945l107 -71zM1021.72 269.107h93.6025l-20.7012 -117.003h-92.7021l-27.001 -152.104h-138.604l27.001 152.104h-326.709l11.7002 99.9023l402.311 458.112h147.604zM695.909 269.107h187.205l51.3018 261.907l-19.8008 -27.001zM316.012 1157.11
l72.0029 -0.904297c16.2002 0.600586 32.7002 3.00098 49.5 7.20117c16.8008 4.2002 32.1016 10.5 45.9014 18.8994c13.7998 8.40039 25.5 19.0508 35.1006 31.9512s15.6006 28.6504 18.001 47.251c1.7998 15.001 0.450195 28.0518 -4.0498 39.1523
c-4.50098 11.1006 -11.251 20.251 -20.251 27.4512s-19.6504 12.6006 -31.9512 16.2012c-12.2998 3.60059 -25.3496 5.40039 -39.1494 5.40039c-30.001 0 -56.4014 -6.75 -79.2012 -20.251c-22.8008 -13.501 -39.001 -34.6514 -48.6016 -63.4521h-140.404
c3.60059 34.2012 13.501 63.752 29.7012 88.6523c16.2002 24.9014 36.4512 45.6025 60.752 62.1035c24.2998 16.5 51.4502 28.7998 81.4512 36.9004s61.2021 11.8506 93.6035 11.251c29.4004 0 58.6514 -3.90039 87.752 -11.7012
c29.1006 -7.7998 54.9014 -19.6504 77.4023 -35.5508s40.3516 -36.1504 53.5518 -60.751s18.9004 -54.002 17.1006 -88.2031c-1.2002 -21.6006 -6 -40.8008 -14.4004 -57.6016c-8.39941 -16.7998 -19.1992 -31.7998 -32.3994 -45s-28.0508 -25.0508 -44.5508 -35.5508
c-16.501 -10.5 -33.752 -19.6504 -51.7529 -27.4512c34.8008 -12.6006 61.0518 -32.1006 78.752 -58.501c17.7002 -26.4014 25.9502 -58.2021 24.75 -95.4033c-1.2002 -37.8008 -10.6504 -70.3516 -28.3506 -97.6523s-40.2012 -49.8018 -67.502 -67.502
s-57.752 -30.6006 -91.3525 -38.7012s-66.9014 -11.8506 -99.9023 -11.25c-32.4014 0.600586 -63.3027 5.40039 -92.7041 14.4004c-29.4004 9 -55.0508 22.2002 -76.9521 39.6016c-21.9004 17.4004 -39.3008 39.1504 -52.2012 65.251s-19.3506 56.5518 -19.3506 91.3525
h136.804c0 -33.001 10.5 -56.8516 31.501 -71.5518s47.4014 -22.3506 79.2021 -22.9502c16.8008 0 33.3008 2.09961 49.501 6.2998s31.0508 10.6504 44.5518 19.3506c13.5 8.7002 24.9004 19.6504 34.2012 32.8506c9.2998 13.2002 15.1494 28.8008 17.5488 46.8018
c2.40039 18.6006 0.75 34.0508 -4.9502 46.3516c-5.7002 12.2998 -14.1006 22.0498 -25.2012 29.25s-24.001 12.3008 -38.7012 15.3008s-30.1504 4.7998 -46.3506 5.40039l-78.3018 0.899414z" />
    <glyph glyph-name="questiondown" unicode="&#xbf;" 
d="M708 674c-4 -42 -10.3311 -78.4971 -18.998 -109.497s-20.334 -59.667 -35.001 -86s-33 -51.5 -55 -75.5s-48.333 -49.667 -79 -77l-78 -71c-26.667 -25.333 -51.334 -52.333 -74.001 -81s-42.167 -58.834 -58.5 -90.501s-26.833 -65.167 -31.5 -100.5
c-4 -31.333 -3.33301 -60 2 -86s15.333 -48.5 30 -67.5s33.834 -34 57.501 -45s51.834 -16.833 84.501 -17.5c64.667 -1.33301 119.167 16 163.5 52s72.833 85.333 85.5 148l180 1c-6.66699 -57.333 -22.834 -108.666 -48.501 -153.999s-58 -83.5 -97 -114.5
s-83.667 -54.5 -134 -70.5s-103.833 -23.333 -160.5 -22c-55.333 1.33301 -105.5 10.666 -150.5 27.999s-83 42 -114 74s-53.833 70.667 -68.5 116s-19.334 96.333 -14.001 153c4.66699 50.667 17 97.667 37 141s44.833 83.666 74.5 120.999s62.5 72.666 98.5 105.999
l108 96c19.333 16.667 35.833 33.5 49.5 50.5s25 34.667 34 53s16.333 38 22 59s10.167 43.833 13.5 68.5zM561.002 985.003c0.666992 32.667 11.333 60.001 32 82.001s47.667 33.667 81 35c32.667 0.666992 59.5 -9.5 80.5 -30.5s31.167 -47.833 30.5 -80.5
s-11.5 -59.334 -32.5 -80.001s-47.833 -31.667 -80.5 -33c-16 -0.666992 -30.833 1.5 -44.5 6.5s-25.5 12.333 -35.5 22s-17.667 21.167 -23 34.5s-8 28 -8 44z" />
    <glyph glyph-name="Agrave" unicode="&#xc0;" 
d="M807 377h-469l-180 -377h-188l709 1456h152l195 -1456h-173zM413 538h375l-76 630zM851 1561h-134l-199 266h204z" />
    <glyph glyph-name="Aacute" unicode="&#xc1;" 
d="M807 377h-469l-180 -377h-188l709 1456h152l195 -1456h-173zM413 538h375l-76 630zM908 1824h231l-302 -266h-150z" />
    <glyph glyph-name="Acircumflex" unicode="&#xc2;" 
d="M807 377h-469l-180 -377h-188l709 1456h152l195 -1456h-173zM413 538h375l-76 630zM1084 1625l-2 -27l-146 1l-118 150l-172 -149l-153 -1l2 27l272 238h106z" />
    <glyph glyph-name="Atilde" unicode="&#xc3;" 
d="M807 377h-469l-180 -377h-188l709 1456h152l195 -1456h-173zM413 538h375l-76 630zM1154 1844c-3.33301 -29.333 -10.498 -57.501 -21.498 -84.501s-25.667 -51 -44 -72s-40.333 -37.833 -66 -50.5s-54.5 -19 -86.5 -19c-25.333 0 -48.666 5.16699 -69.999 15.5
s-42.166 21.833 -62.499 34.5s-41 24.167 -62 34.5s-43.833 15.166 -68.5 14.499c-16 -0.666992 -30.5 -4.16699 -43.5 -10.5s-24.333 -14.666 -34 -24.999s-17.834 -22.166 -24.501 -35.499s-12 -27 -16 -41l-100 23c3.33301 28.667 10.666 57 21.999 85
s26.166 52.833 44.499 74.5s40.333 39 66 52s54.5 19.5 86.5 19.5c24.667 0 47.667 -5.33301 69 -16s42.333 -22.167 63 -34.5s41.5 -23.666 62.5 -33.999s43.833 -15.166 68.5 -14.499c33.333 1.33301 59.666 13.166 78.999 35.499s33 48.166 41 77.499z" />
    <glyph glyph-name="Adieresis" unicode="&#xc4;" 
d="M807 377h-469l-180 -377h-188l709 1456h152l195 -1456h-173zM413 538h375l-76 630zM485 1716c0 30.667 9.83203 56.1699 29.499 76.5029s45.167 31.166 76.5 32.499c30.667 0.666992 56.334 -8.83301 77.001 -28.5s30.667 -45.167 30 -76.5
c-0.666992 -30.667 -11 -56 -31 -76s-45.333 -30.667 -76 -32c-31.333 -0.666992 -57 8.66602 -77 27.999s-29.667 44.666 -29 75.999zM900.999 1714c0.666992 30.667 10.833 56.335 30.5 77.002s45.167 31.667 76.5 33c31.333 0.666992 57 -8.83301 77 -28.5
s30 -45.5 30 -77.5c-0.666992 -30.667 -11 -56 -31 -76s-45.667 -30.667 -77 -32c-30.667 -0.666992 -56 8.66602 -76 27.999s-30 44.666 -30 75.999z" />
    <glyph glyph-name="Aring" unicode="&#xc5;" 
d="M807 377h-469l-180 -377h-188l709 1456h152l195 -1456h-173zM413 538h375l-76 630zM607 1724c0.666992 28.667 6.99902 55.6621 18.999 80.9951s27.667 47.5 47 66.5s41.833 33.833 67.5 44.5s52.834 16 81.501 16c26.667 0 51.334 -5.16699 74.001 -15.5
s42 -24.166 58 -41.499s28.333 -37.666 37 -60.999s12.667 -48 12 -74c-1.33301 -28.667 -7.66602 -55.334 -18.999 -80.001s-26.5 -46.167 -45.5 -64.5s-41.167 -32.666 -66.5 -42.999s-52.333 -15.5 -81 -15.5c-26.667 0 -51.334 4.83301 -74.001 14.5
s-42.334 22.834 -59.001 39.501s-29.5 36.334 -38.5 59.001s-13.167 47.334 -12.5 74.001zM704.999 1727c-2 -26.667 5 -49.9961 21 -69.9961s38 -30 66 -30c14.667 0 28.5 3 41.5 9s24.667 14.167 35 24.5s18.666 22.166 24.999 35.499s10.5 27 12.5 41
c1.33301 13.333 0.333008 26.166 -3 38.499s-8.66602 23.333 -15.999 33s-16.5 17.5 -27.5 23.5s-23.5 9 -37.5 9c-15.333 0 -29.833 -3.16699 -43.5 -9.5s-25.667 -14.833 -36 -25.5s-18.833 -22.834 -25.5 -36.501s-10.667 -27.834 -12 -42.501z" />
    <glyph glyph-name="AE" unicode="&#xc6;" 
d="M1056 0h-516l60 353h-295l-182 -353h-201l796 1456h568l-27 -152h-327l-78 -471h292l-26 -151h-293l-91 -531h347zM393 527h237l119 691z" />
    <glyph glyph-name="Ccedilla" unicode="&#xc7;" 
d="M1046 440c-13.333 -66 -35.3428 -127.501 -66.0098 -184.501s-68.834 -106.167 -114.501 -147.5s-98 -73.5 -157 -96.5s-123.5 -33.5 -193.5 -31.5c-57.333 1.33301 -108.166 11.5 -152.499 30.5s-82.666 44.333 -114.999 76s-58.833 68.5 -79.5 110.5
s-36.5 86.667 -47.5 134s-17.167 96.166 -18.5 146.499s1.33398 99.833 8.00098 148.5l32 203c8.66699 52.667 21.167 105.334 37.5 158.001s36.666 103.167 60.999 151.5s52.833 93.333 85.5 135s69.834 77.667 111.501 108s87.834 54 138.501 71
s106.334 24.833 167.001 23.5c68.667 -1.33301 128.334 -14.5 179.001 -39.5s93 -58.5 127 -100.5s59.833 -91 77.5 -147s27.834 -116 30.501 -180h-179c-2 40 -7.33301 78.667 -16 116s-22.5 70.666 -41.5 99.999s-43.667 53.166 -74 71.499
s-68.166 28.166 -113.499 29.499c-44 1.33301 -83.833 -5 -119.5 -19s-67.667 -33.167 -96 -57.5s-53 -53.166 -74 -86.499s-39.333 -68.5 -55 -105.5s-28.667 -75 -39 -114s-18.5 -76.5 -24.5 -112.5l-34 -206c-4.66699 -31.333 -8 -65.166 -10 -101.499
s-1.33301 -72.5 2 -108.5s9.83301 -70.833 19.5 -104.5s23.834 -63.667 42.501 -90s42.667 -47.666 72 -63.999s65 -25.166 107 -26.499c48 -2 90.833 5 128.5 21s70.834 38 99.501 66s52.834 61 72.501 99s35.5 78.333 47.5 121zM554.99 -0.000976562l-20.999 -55.001
c41.333 -10 72.666 -29 93.999 -57s31.333 -63.333 30 -106c-1.33301 -43.333 -12.5 -78.833 -33.5 -106.5s-47.5 -49.667 -79.5 -66s-67 -27.833 -105 -34.5s-74.333 -10.667 -109 -12l4 108c18 0.666992 36.833 2.66699 56.5 6s38.167 8.83301 55.5 16.5
s32.333 18.334 45 32.001s20.667 31.167 24 52.5c3.33301 20 0.666016 35.5 -8.00098 46.5s-20.167 19.333 -34.5 25s-30.166 9.5 -47.499 11.5s-33 4 -47 6l45 133h131z" />
    <glyph glyph-name="Egrave" unicode="&#xc8;" 
d="M959 673h-589l-90 -516h688l-28 -157h-868l253 1456h860l-28 -158h-679l-81 -468h590zM841 1561h-134l-199 266h204z" />
    <glyph glyph-name="Eacute" unicode="&#xc9;" 
d="M959 673h-589l-90 -516h688l-28 -157h-868l253 1456h860l-28 -158h-679l-81 -468h590zM898 1824h231l-302 -266h-150z" />
    <glyph glyph-name="Ecircumflex" unicode="&#xca;" 
d="M959 673h-589l-90 -516h688l-28 -157h-868l253 1456h860l-28 -158h-679l-81 -468h590zM1074 1625l-2 -27l-146 1l-118 150l-172 -149l-153 -1l2 27l272 238h106z" />
    <glyph glyph-name="Edieresis" unicode="&#xcb;" 
d="M959 673h-589l-90 -516h688l-28 -157h-868l253 1456h860l-28 -158h-679l-81 -468h590zM475 1716c0 30.667 9.83203 56.1699 29.499 76.5029s45.167 31.166 76.5 32.499c30.667 0.666992 56.334 -8.83301 77.001 -28.5s30.667 -45.167 30 -76.5
c-0.666992 -30.667 -11 -56 -31 -76s-45.333 -30.667 -76 -32c-31.333 -0.666992 -57 8.66602 -77 27.999s-29.667 44.666 -29 75.999zM890.999 1714c0.666992 30.667 10.833 56.335 30.5 77.002s45.167 31.667 76.5 33c31.333 0.666992 57 -8.83301 77 -28.5
s30 -45.5 30 -77.5c-0.666992 -30.667 -11 -56 -31 -76s-45.667 -30.667 -77 -32c-30.667 -0.666992 -56 8.66602 -76 27.999s-30 44.666 -30 75.999z" />
    <glyph glyph-name="Igrave" unicode="&#xcc;" 
d="M317 1456h855l-29 -161h-338l-197 -1135h339l-28 -160h-855l28 160h331l197 1135h-332zM791 1561h-134l-199 266h204z" />
    <glyph glyph-name="Iacute" unicode="&#xcd;" 
d="M317 1456h855l-29 -161h-338l-197 -1135h339l-28 -160h-855l28 160h331l197 1135h-332zM848 1824h231l-302 -266h-150z" />
    <glyph glyph-name="Icircumflex" unicode="&#xce;" 
d="M317 1456h855l-29 -161h-338l-197 -1135h339l-28 -160h-855l28 160h331l197 1135h-332zM1024 1625l-2 -27l-146 1l-118 150l-172 -149l-153 -1l2 27l272 238h106z" />
    <glyph glyph-name="Idieresis" unicode="&#xcf;" 
d="M317 1456h855l-29 -161h-338l-197 -1135h339l-28 -160h-855l28 160h331l197 1135h-332zM425 1716c0 30.667 9.83203 56.1699 29.499 76.5029s45.167 31.166 76.5 32.499c30.667 0.666992 56.334 -8.83301 77.001 -28.5s30.667 -45.167 30 -76.5
c-0.666992 -30.667 -11 -56 -31 -76s-45.333 -30.667 -76 -32c-31.333 -0.666992 -57 8.66602 -77 27.999s-29.667 44.666 -29 75.999zM840.999 1714c0.666992 30.667 10.833 56.335 30.5 77.002s45.167 31.667 76.5 33c31.333 0.666992 57 -8.83301 77 -28.5
s30 -45.5 30 -77.5c-0.666992 -30.667 -11 -56 -31 -76s-45.667 -30.667 -77 -32c-30.667 -0.666992 -56 8.66602 -76 27.999s-30 44.666 -30 75.999z" />
    <glyph glyph-name="Eth" unicode="&#xd0;" horiz-adv-x="1232" 
d="M76 0l115 665.999h-221l27 151h220l111 639l316 -1c96 -2 179.167 -21.5 249.5 -58.5s127.333 -86 171 -147s73.667 -131.833 90 -212.5s18.833 -166 7.5 -256l-15 -107c-14.667 -96 -42.167 -185 -82.5 -267s-91.833 -153.167 -154.5 -213.5
s-135.667 -107.666 -219 -141.999s-175.333 -51.5 -276 -51.5h-339zM589 665.999h-213.999l-89 -515l133 -1c78 0.666992 148 14.667 210 42s116 64.5 162 111.5s83.667 102.333 113 166s50 131.834 62 204.501l16 110c8.66699 64 9.5 126.5 2.5 187.5
s-23.833 115.667 -50.5 164s-63.834 87.666 -111.501 117.999s-108.167 46.833 -181.5 49.5l-155 1l-85 -487h215z" />
    <glyph glyph-name="Ntilde" unicode="&#xd1;" 
d="M950 0h-178l-362 1096l-193 -1096h-183l253 1456h178l362 -1094l193 1094h183zM1116 1844c-3.33301 -29.333 -10.498 -57.501 -21.498 -84.501s-25.667 -51 -44 -72s-40.333 -37.833 -66 -50.5s-54.5 -19 -86.5 -19c-25.333 0 -48.666 5.16699 -69.999 15.5
s-42.166 21.833 -62.499 34.5s-41 24.167 -62 34.5s-43.833 15.166 -68.5 14.499c-16 -0.666992 -30.5 -4.16699 -43.5 -10.5s-24.333 -14.666 -34 -24.999s-17.834 -22.166 -24.501 -35.499s-12 -27 -16 -41l-100 23c3.33301 28.667 10.666 57 21.999 85
s26.166 52.833 44.499 74.5s40.333 39 66 52s54.5 19.5 86.5 19.5c24.667 0 47.667 -5.33301 69 -16s42.333 -22.167 63 -34.5s41.5 -23.666 62.5 -33.999s43.833 -15.166 68.5 -14.499c33.333 1.33301 59.666 13.166 78.999 35.499s33 48.166 41 77.499z" />
    <glyph glyph-name="Ograve" unicode="&#xd2;" 
d="M1097 645c-8.66699 -51.333 -20.835 -103.501 -36.502 -156.501s-35.334 -104.333 -59.001 -154s-51.5 -96.5 -83.5 -140.5s-68.5 -82 -109.5 -114s-86.667 -57 -137 -75s-105.5 -26.333 -165.5 -25c-57.333 1.33301 -107.833 12.166 -151.5 32.499
s-81.167 47.166 -112.5 80.499s-57 72 -77 116s-35 90.333 -45 139s-15.5 98.334 -16.5 149.001s1.83301 99.667 8.5 147l26 166c8.66699 51.333 20.834 103.5 36.501 156.5s35.334 104.333 59.001 154s51.667 96.5 84 140.5s69 82.167 110 114.5s86.667 57.5 137 75.5
s105.5 26.333 165.5 25c58 -1.33301 108.833 -12.166 152.5 -32.499s81.167 -47.166 112.5 -80.499s56.833 -72 76.5 -116s34.334 -90.5 44.001 -139.5s15 -99 16 -150s-1.83301 -100.167 -8.5 -147.5zM943.999 813.999c4 30.667 7.16797 64.0039 9.50098 100.004
s2 72.167 -1 108.5s-9.16699 71.666 -18.5 105.999s-23.166 64.833 -41.499 91.5s-41.666 48.334 -69.999 65.001s-63.166 25.667 -104.499 27c-43.333 1.33301 -82.5 -5.16699 -117.5 -19.5s-66.333 -34.333 -94 -60s-52 -55.334 -73 -89.001
s-39.167 -69.334 -54.5 -107.001s-28 -75.834 -38 -114.501s-18 -75.334 -24 -110.001l-28 -169c-4 -30 -7 -63 -9 -99s-1.33301 -72.333 2 -109s9.66602 -72.334 18.999 -107.001s23.333 -65.5 42 -92.5s42.167 -49 70.5 -66s63.166 -26.167 104.499 -27.5
c43.333 -1.33301 82.666 5.16699 117.999 19.5s66.666 34.333 93.999 60s51.333 55.5 72 89.5s38.5 69.833 53.5 107.5s27.5 75.834 37.5 114.501s18 75.667 24 111zM858 1582h-134l-199 266h204z" />
    <glyph glyph-name="Oacute" unicode="&#xd3;" 
d="M1097 645c-8.66699 -51.333 -20.835 -103.501 -36.502 -156.501s-35.334 -104.333 -59.001 -154s-51.5 -96.5 -83.5 -140.5s-68.5 -82 -109.5 -114s-86.667 -57 -137 -75s-105.5 -26.333 -165.5 -25c-57.333 1.33301 -107.833 12.166 -151.5 32.499
s-81.167 47.166 -112.5 80.499s-57 72 -77 116s-35 90.333 -45 139s-15.5 98.334 -16.5 149.001s1.83301 99.667 8.5 147l26 166c8.66699 51.333 20.834 103.5 36.501 156.5s35.334 104.333 59.001 154s51.667 96.5 84 140.5s69 82.167 110 114.5s86.667 57.5 137 75.5
s105.5 26.333 165.5 25c58 -1.33301 108.833 -12.166 152.5 -32.499s81.167 -47.166 112.5 -80.499s56.833 -72 76.5 -116s34.334 -90.5 44.001 -139.5s15 -99 16 -150s-1.83301 -100.167 -8.5 -147.5zM943.999 813.999c4 30.667 7.16797 64.0039 9.50098 100.004
s2 72.167 -1 108.5s-9.16699 71.666 -18.5 105.999s-23.166 64.833 -41.499 91.5s-41.666 48.334 -69.999 65.001s-63.166 25.667 -104.499 27c-43.333 1.33301 -82.5 -5.16699 -117.5 -19.5s-66.333 -34.333 -94 -60s-52 -55.334 -73 -89.001
s-39.167 -69.334 -54.5 -107.001s-28 -75.834 -38 -114.501s-18 -75.334 -24 -110.001l-28 -169c-4 -30 -7 -63 -9 -99s-1.33301 -72.333 2 -109s9.66602 -72.334 18.999 -107.001s23.333 -65.5 42 -92.5s42.167 -49 70.5 -66s63.166 -26.167 104.499 -27.5
c43.333 -1.33301 82.666 5.16699 117.999 19.5s66.666 34.333 93.999 60s51.333 55.5 72 89.5s38.5 69.833 53.5 107.5s27.5 75.834 37.5 114.501s18 75.667 24 111zM915 1845h231l-302 -266h-150z" />
    <glyph glyph-name="Ocircumflex" unicode="&#xd4;" 
d="M1097 645c-8.66699 -51.333 -20.835 -103.501 -36.502 -156.501s-35.334 -104.333 -59.001 -154s-51.5 -96.5 -83.5 -140.5s-68.5 -82 -109.5 -114s-86.667 -57 -137 -75s-105.5 -26.333 -165.5 -25c-57.333 1.33301 -107.833 12.166 -151.5 32.499
s-81.167 47.166 -112.5 80.499s-57 72 -77 116s-35 90.333 -45 139s-15.5 98.334 -16.5 149.001s1.83301 99.667 8.5 147l26 166c8.66699 51.333 20.834 103.5 36.501 156.5s35.334 104.333 59.001 154s51.667 96.5 84 140.5s69 82.167 110 114.5s86.667 57.5 137 75.5
s105.5 26.333 165.5 25c58 -1.33301 108.833 -12.166 152.5 -32.499s81.167 -47.166 112.5 -80.499s56.833 -72 76.5 -116s34.334 -90.5 44.001 -139.5s15 -99 16 -150s-1.83301 -100.167 -8.5 -147.5zM943.999 813.999c4 30.667 7.16797 64.0039 9.50098 100.004
s2 72.167 -1 108.5s-9.16699 71.666 -18.5 105.999s-23.166 64.833 -41.499 91.5s-41.666 48.334 -69.999 65.001s-63.166 25.667 -104.499 27c-43.333 1.33301 -82.5 -5.16699 -117.5 -19.5s-66.333 -34.333 -94 -60s-52 -55.334 -73 -89.001
s-39.167 -69.334 -54.5 -107.001s-28 -75.834 -38 -114.501s-18 -75.334 -24 -110.001l-28 -169c-4 -30 -7 -63 -9 -99s-1.33301 -72.333 2 -109s9.66602 -72.334 18.999 -107.001s23.333 -65.5 42 -92.5s42.167 -49 70.5 -66s63.166 -26.167 104.499 -27.5
c43.333 -1.33301 82.666 5.16699 117.999 19.5s66.666 34.333 93.999 60s51.333 55.5 72 89.5s38.5 69.833 53.5 107.5s27.5 75.834 37.5 114.501s18 75.667 24 111zM1091 1646l-2 -27l-146 1l-118 150l-172 -149l-153 -1l2 27l272 238h106z" />
    <glyph glyph-name="Otilde" unicode="&#xd5;" 
d="M1097 645c-8.66699 -51.333 -20.835 -103.501 -36.502 -156.501s-35.334 -104.333 -59.001 -154s-51.5 -96.5 -83.5 -140.5s-68.5 -82 -109.5 -114s-86.667 -57 -137 -75s-105.5 -26.333 -165.5 -25c-57.333 1.33301 -107.833 12.166 -151.5 32.499
s-81.167 47.166 -112.5 80.499s-57 72 -77 116s-35 90.333 -45 139s-15.5 98.334 -16.5 149.001s1.83301 99.667 8.5 147l26 166c8.66699 51.333 20.834 103.5 36.501 156.5s35.334 104.333 59.001 154s51.667 96.5 84 140.5s69 82.167 110 114.5s86.667 57.5 137 75.5
s105.5 26.333 165.5 25c58 -1.33301 108.833 -12.166 152.5 -32.499s81.167 -47.166 112.5 -80.499s56.833 -72 76.5 -116s34.334 -90.5 44.001 -139.5s15 -99 16 -150s-1.83301 -100.167 -8.5 -147.5zM943.999 813.999c4 30.667 7.16797 64.0039 9.50098 100.004
s2 72.167 -1 108.5s-9.16699 71.666 -18.5 105.999s-23.166 64.833 -41.499 91.5s-41.666 48.334 -69.999 65.001s-63.166 25.667 -104.499 27c-43.333 1.33301 -82.5 -5.16699 -117.5 -19.5s-66.333 -34.333 -94 -60s-52 -55.334 -73 -89.001
s-39.167 -69.334 -54.5 -107.001s-28 -75.834 -38 -114.501s-18 -75.334 -24 -110.001l-28 -169c-4 -30 -7 -63 -9 -99s-1.33301 -72.333 2 -109s9.66602 -72.334 18.999 -107.001s23.333 -65.5 42 -92.5s42.167 -49 70.5 -66s63.166 -26.167 104.499 -27.5
c43.333 -1.33301 82.666 5.16699 117.999 19.5s66.666 34.333 93.999 60s51.333 55.5 72 89.5s38.5 69.833 53.5 107.5s27.5 75.834 37.5 114.501s18 75.667 24 111zM1161 1865c-3.33301 -29.333 -10.498 -57.501 -21.498 -84.501s-25.667 -51 -44 -72
s-40.333 -37.833 -66 -50.5s-54.5 -19 -86.5 -19c-25.333 0 -48.666 5.16699 -69.999 15.5s-42.166 21.833 -62.499 34.5s-41 24.167 -62 34.5s-43.833 15.166 -68.5 14.499c-16 -0.666992 -30.5 -4.16699 -43.5 -10.5s-24.333 -14.666 -34 -24.999
s-17.834 -22.166 -24.501 -35.499s-12 -27 -16 -41l-100 23c3.33301 28.667 10.666 57 21.999 85s26.166 52.833 44.499 74.5s40.333 39 66 52s54.5 19.5 86.5 19.5c24.667 0 47.667 -5.33301 69 -16s42.333 -22.167 63 -34.5s41.5 -23.666 62.5 -33.999
s43.833 -15.166 68.5 -14.499c33.333 1.33301 59.666 13.166 78.999 35.499s33 48.166 41 77.499z" />
    <glyph glyph-name="Odieresis" unicode="&#xd6;" 
d="M1097 645c-8.66699 -51.333 -20.835 -103.501 -36.502 -156.501s-35.334 -104.333 -59.001 -154s-51.5 -96.5 -83.5 -140.5s-68.5 -82 -109.5 -114s-86.667 -57 -137 -75s-105.5 -26.333 -165.5 -25c-57.333 1.33301 -107.833 12.166 -151.5 32.499
s-81.167 47.166 -112.5 80.499s-57 72 -77 116s-35 90.333 -45 139s-15.5 98.334 -16.5 149.001s1.83301 99.667 8.5 147l26 166c8.66699 51.333 20.834 103.5 36.501 156.5s35.334 104.333 59.001 154s51.667 96.5 84 140.5s69 82.167 110 114.5s86.667 57.5 137 75.5
s105.5 26.333 165.5 25c58 -1.33301 108.833 -12.166 152.5 -32.499s81.167 -47.166 112.5 -80.499s56.833 -72 76.5 -116s34.334 -90.5 44.001 -139.5s15 -99 16 -150s-1.83301 -100.167 -8.5 -147.5zM943.999 813.999c4 30.667 7.16797 64.0039 9.50098 100.004
s2 72.167 -1 108.5s-9.16699 71.666 -18.5 105.999s-23.166 64.833 -41.499 91.5s-41.666 48.334 -69.999 65.001s-63.166 25.667 -104.499 27c-43.333 1.33301 -82.5 -5.16699 -117.5 -19.5s-66.333 -34.333 -94 -60s-52 -55.334 -73 -89.001
s-39.167 -69.334 -54.5 -107.001s-28 -75.834 -38 -114.501s-18 -75.334 -24 -110.001l-28 -169c-4 -30 -7 -63 -9 -99s-1.33301 -72.333 2 -109s9.66602 -72.334 18.999 -107.001s23.333 -65.5 42 -92.5s42.167 -49 70.5 -66s63.166 -26.167 104.499 -27.5
c43.333 -1.33301 82.666 5.16699 117.999 19.5s66.666 34.333 93.999 60s51.333 55.5 72 89.5s38.5 69.833 53.5 107.5s27.5 75.834 37.5 114.501s18 75.667 24 111zM492 1737c0 30.667 9.83203 56.1699 29.499 76.5029s45.167 31.166 76.5 32.499
c30.667 0.666992 56.334 -8.83301 77.001 -28.5s30.667 -45.167 30 -76.5c-0.666992 -30.667 -11 -56 -31 -76s-45.333 -30.667 -76 -32c-31.333 -0.666992 -57 8.66602 -77 27.999s-29.667 44.666 -29 75.999zM907.999 1735.01c0.666992 30.667 10.833 56.335 30.5 77.002
s45.167 31.667 76.5 33c31.333 0.666992 57 -8.83301 77 -28.5s30 -45.5 30 -77.5c-0.666992 -30.667 -11 -56 -31 -76s-45.667 -30.667 -77 -32c-30.667 -0.666992 -56 8.66602 -76 27.999s-30 44.666 -30 75.999z" />
    <glyph glyph-name="multiply" unicode="&#xd7;" 
d="M129 338l380 336l-261 334l129 115l260 -334l377 334l102 -132l-377 -333l263 -338l-128 -114l-264 336l-379 -336z" />
    <glyph glyph-name="Oslash" unicode="&#xd8;" 
d="M1089 645c-8.66699 -51.333 -20.8301 -103.504 -36.4971 -156.504s-35.334 -104.333 -59.001 -154s-51.5 -96.5 -83.5 -140.5s-68.5 -82 -109.5 -114s-86.667 -57 -137 -75s-105.5 -26.333 -165.5 -25c-58.667 1.33301 -109.5 12.166 -152.5 32.499
s-80.5 47.5 -112.5 81.5l-140 -187h-151l219 293c-16 32.667 -28.833 67.334 -38.5 104.001s-16.834 74.167 -21.501 112.5s-6.66699 76.833 -6 115.5s3.66699 76 9 112l26 166c8 51.333 20 103.5 36 156.5s35.833 104.333 59.5 154s51.667 96.5 84 140.5
s69 82.167 110 114.5s86.667 57.5 137 75.5s105.5 26.333 165.5 25c66 -1.33301 122.5 -14.666 169.5 -39.999s86.5 -58.666 118.5 -99.999l134 180h151l-221 -295c12.667 -31.333 22.667 -64.166 30 -98.499s12.666 -69.166 15.999 -104.499s4.5 -70.5 3.5 -105.5
s-3.83301 -69.167 -8.5 -102.5zM281.004 642.996c-6 -40 -9.5 -84.6631 -10.5 -133.996s3.5 -97.666 13.5 -144.999l617 827c-17.333 34.667 -41.5 63.167 -72.5 85.5s-70.5 34.166 -118.5 35.499c-43.333 1.33301 -82.5 -5.16699 -117.5 -19.5s-66.333 -34.333 -94 -60
s-52 -55.334 -73 -89.001s-39.167 -69.334 -54.5 -107.001s-28 -75.834 -38 -114.501s-18 -75.334 -24 -110.001zM936.004 814c4.66699 33.333 8.00195 69.8311 10.002 109.498s0.666992 79.5 -4 119.5l-606 -810c18.667 -26.667 42 -48.167 70 -64.5
s62.667 -25.166 104 -26.499c43.333 -1.33301 82.666 5.16699 117.999 19.5s66.666 34.333 93.999 60s51.333 55.5 72 89.5s38.5 69.833 53.5 107.5s27.5 75.834 37.5 114.501s18 75.667 24 111z" />
    <glyph glyph-name="Ugrave" unicode="&#xd9;" 
d="M1205 1456l-166.995 -985.002c-10 -66.667 -30.333 -130 -61 -190s-69.334 -112.5 -116.001 -157.5s-100.334 -80.5 -161.001 -106.5s-126.334 -38.333 -197.001 -37c-66.667 1.33301 -125.667 15.833 -177 43.5s-93.833 64 -127.5 109s-57.834 96.667 -72.501 155
s-18.334 118.833 -11.001 181.5l170 987h172l-165 -987c-4.66699 -39.333 -4 -78.333 2 -117s18 -73.667 36 -105s42.167 -57.166 72.5 -77.499s67.833 -31.166 112.5 -32.499c47.333 -1.33301 90.5 7.16699 129.5 25.5s73 43.166 102 74.499s52.833 67.333 71.5 108
s32 82.334 40 125.001l172 986h175zM878.005 1549h-134l-199 266h204z" />
    <glyph glyph-name="Uacute" unicode="&#xda;" 
d="M1205 1456l-166.995 -985.002c-10 -66.667 -30.333 -130 -61 -190s-69.334 -112.5 -116.001 -157.5s-100.334 -80.5 -161.001 -106.5s-126.334 -38.333 -197.001 -37c-66.667 1.33301 -125.667 15.833 -177 43.5s-93.833 64 -127.5 109s-57.834 96.667 -72.501 155
s-18.334 118.833 -11.001 181.5l170 987h172l-165 -987c-4.66699 -39.333 -4 -78.333 2 -117s18 -73.667 36 -105s42.167 -57.166 72.5 -77.499s67.833 -31.166 112.5 -32.499c47.333 -1.33301 90.5 7.16699 129.5 25.5s73 43.166 102 74.499s52.833 67.333 71.5 108
s32 82.334 40 125.001l172 986h175zM935.005 1812h231l-302 -266h-150z" />
    <glyph glyph-name="Ucircumflex" unicode="&#xdb;" 
d="M1205 1456l-166.995 -985.002c-10 -66.667 -30.333 -130 -61 -190s-69.334 -112.5 -116.001 -157.5s-100.334 -80.5 -161.001 -106.5s-126.334 -38.333 -197.001 -37c-66.667 1.33301 -125.667 15.833 -177 43.5s-93.833 64 -127.5 109s-57.834 96.667 -72.501 155
s-18.334 118.833 -11.001 181.5l170 987h172l-165 -987c-4.66699 -39.333 -4 -78.333 2 -117s18 -73.667 36 -105s42.167 -57.166 72.5 -77.499s67.833 -31.166 112.5 -32.499c47.333 -1.33301 90.5 7.16699 129.5 25.5s73 43.166 102 74.499s52.833 67.333 71.5 108
s32 82.334 40 125.001l172 986h175zM1111 1613l-2 -27l-146 1l-118 150l-172 -149l-153 -1l2 27l272 238h106z" />
    <glyph glyph-name="Udieresis" unicode="&#xdc;" 
d="M1205 1456l-166.995 -985.002c-10 -66.667 -30.333 -130 -61 -190s-69.334 -112.5 -116.001 -157.5s-100.334 -80.5 -161.001 -106.5s-126.334 -38.333 -197.001 -37c-66.667 1.33301 -125.667 15.833 -177 43.5s-93.833 64 -127.5 109s-57.834 96.667 -72.501 155
s-18.334 118.833 -11.001 181.5l170 987h172l-165 -987c-4.66699 -39.333 -4 -78.333 2 -117s18 -73.667 36 -105s42.167 -57.166 72.5 -77.499s67.833 -31.166 112.5 -32.499c47.333 -1.33301 90.5 7.16699 129.5 25.5s73 43.166 102 74.499s52.833 67.333 71.5 108
s32 82.334 40 125.001l172 986h175zM512.005 1704c0 30.667 9.83203 56.1699 29.499 76.5029s45.167 31.166 76.5 32.499c30.667 0.666992 56.334 -8.83301 77.001 -28.5s30.667 -45.167 30 -76.5c-0.666992 -30.667 -11 -56 -31 -76s-45.333 -30.667 -76 -32
c-31.333 -0.666992 -57 8.66602 -77 27.999s-29.667 44.666 -29 75.999zM928.004 1702c0.666992 30.667 10.833 56.335 30.5 77.002s45.167 31.667 76.5 33c31.333 0.666992 57 -8.83301 77 -28.5s30 -45.5 30 -77.5c-0.666992 -30.667 -11 -56 -31 -76
s-45.667 -30.667 -77 -32c-30.667 -0.666992 -56 8.66602 -76 27.999s-30 44.666 -30 75.999z" />
    <glyph glyph-name="Yacute" unicode="&#xdd;" 
d="M602 726l448 730h215l-605 -924l-95 -532h-168l94 554l-279 902h196zM888 1823h231l-302 -266h-150z" />
    <glyph glyph-name="Thorn" unicode="&#xde;" 
d="M492 1456l-51 -293.001l256 -1c62 -2 119.167 -12.5 171.5 -31.5s97.166 -46.167 134.499 -81.5s65.5 -78.5 84.5 -129.5s25.833 -109.167 20.5 -174.5c-6 -71.333 -24.667 -134 -56 -188s-71.166 -99.167 -119.499 -135.5s-103.5 -63.666 -165.5 -81.999
s-126.667 -27.5 -194 -27.5l-279 1l-55 -313h-181l253 1456h181zM415 1011l-95 -545.999l257 -2c43.333 0 85 6.16699 125 18.5s75.667 30.5 107 54.5s57.5 53.333 78.5 88s34.5 74.667 40.5 120c4.66699 39.333 2.5 75 -6.5 107s-23.833 59.5 -44.5 82.5
s-46.667 41.167 -78 54.5s-66.333 20.666 -105 21.999z" />
    <glyph glyph-name="germandbls" unicode="&#xdf;" 
d="M239 0l-180.001 0.00488281l186 1087c8.66699 60 24.167 118.667 46.5 176s52 108.166 89 152.499s81.333 79.666 133 105.999s111.5 38.5 179.5 36.5c48.667 -1.33301 92.5 -10 131.5 -26s71.833 -38.333 98.5 -67s46.5 -63 59.5 -103s17.5 -84.333 13.5 -133
c-3.33301 -41.333 -13.666 -79 -30.999 -113s-36.166 -67 -56.499 -99s-39.833 -64.333 -58.5 -97s-31 -68.334 -37 -107.001c-5.33301 -30 -3.66602 -58.333 5.00098 -85s21 -52.5 37 -77.5s33.833 -49.833 53.5 -74.5s38 -50 55 -76s30.833 -53.333 41.5 -82
s15 -59.667 13 -93c-3.33301 -53.333 -14.833 -101.5 -34.5 -144.5s-46 -79.833 -79 -110.5s-72 -54 -117 -70s-93.833 -23.667 -146.5 -23c-24 0 -48.833 1.33301 -74.5 4s-50.834 6.83398 -75.501 12.501s-48.834 13.167 -72.501 22.5s-45.5 20.666 -65.5 33.999l54 156
c32 -22 67 -40.333 105 -55s76.667 -22 116 -22c28.667 0 55 4.33301 79 13s45.167 21.167 63.5 37.5s33.333 36 45 59s19.5 48.5 23.5 76.5c4.66699 32 2.16699 61.667 -7.5 89s-22.667 53.666 -39 78.999s-34.5 50.5 -54.5 75.5s-38.5 50.667 -55.5 77
s-30.667 54.333 -41 84s-13.833 61.834 -10.5 96.501c2 26 7.83301 50.333 17.5 73s21 44.5 34 65.5s26.833 41.5 41.5 61.5s28.667 40.5 42 61.5s25 42.667 35 65s16.667 46.166 20 71.499c2.66699 22.667 2.16699 45.334 -1.5 68.001s-10.667 43.167 -21 61.5
s-24.5 33.333 -42.5 45s-40 18.167 -66 19.5c-43.333 2 -80.5 -7 -111.5 -27s-57.167 -45.833 -78.5 -77.5s-38 -66.834 -50 -105.501s-20.667 -75.334 -26 -110.001z" />
    <glyph glyph-name="agrave" unicode="&#xe0;" 
d="M764 0c-5.33301 20 -7.99902 39.665 -7.99902 58.998s1 39 3 59c-47.333 -42 -98.833 -75.667 -154.5 -101s-115.834 -37.333 -180.501 -36c-45.333 0.666992 -88.166 8.33398 -128.499 23.001s-75.333 35.334 -105 62.001s-52.667 59 -69 97s-23.166 81 -20.499 129
c2.66699 46.667 12.167 88 28.5 124s37.5 67.5 63.5 94.5s56 49.833 90 68.5s70.167 33.834 108.5 45.501s78 20 119 25s81.5 7.5 121.5 7.5l206 -1l13 86c4 34 1.5 64 -7.5 90s-22.833 48 -41.5 66s-41.5 31.667 -68.5 41s-56.833 14.333 -89.5 15
c-28.667 0.666992 -56.834 -2.33301 -84.501 -9s-53 -17 -76 -31s-42.833 -31.833 -59.5 -53.5s-28.334 -47.5 -35.001 -77.5l-181 -1c6 54.667 23.667 102.167 53 142.5s65.5 73.833 108.5 100.5s90.167 46.5 141.5 59.5s101.666 19.167 150.999 18.5
c54.667 -1.33301 105.667 -10 153 -26s87.833 -39.5 121.5 -70.5s59.167 -68.833 76.5 -113.5s23 -96 17 -154l-84 -503c-6 -36.667 -9.16699 -73.334 -9.5 -110.001s3.83398 -73 12.501 -109l-2 -17h-183zM459.001 139.998c64 -1.33301 123.67 13.168 179.003 43.501
s101.666 70.833 138.999 121.5l39 220l-155 1c-36.667 0 -75.834 -2.33301 -117.501 -7s-80.834 -14.334 -117.501 -29.001s-68 -35.667 -94 -63s-41.667 -63.333 -47 -108c-3.33301 -28.667 -1.33301 -54 6 -76s19 -40.5 35 -55.5s35.333 -26.5 58 -34.5
s47.667 -12.333 75 -13zM791.004 1239h-134l-199 266h204z" />
    <glyph glyph-name="aacute" unicode="&#xe1;" 
d="M764 0c-5.33301 20 -7.99902 39.665 -7.99902 58.998s1 39 3 59c-47.333 -42 -98.833 -75.667 -154.5 -101s-115.834 -37.333 -180.501 -36c-45.333 0.666992 -88.166 8.33398 -128.499 23.001s-75.333 35.334 -105 62.001s-52.667 59 -69 97s-23.166 81 -20.499 129
c2.66699 46.667 12.167 88 28.5 124s37.5 67.5 63.5 94.5s56 49.833 90 68.5s70.167 33.834 108.5 45.501s78 20 119 25s81.5 7.5 121.5 7.5l206 -1l13 86c4 34 1.5 64 -7.5 90s-22.833 48 -41.5 66s-41.5 31.667 -68.5 41s-56.833 14.333 -89.5 15
c-28.667 0.666992 -56.834 -2.33301 -84.501 -9s-53 -17 -76 -31s-42.833 -31.833 -59.5 -53.5s-28.334 -47.5 -35.001 -77.5l-181 -1c6 54.667 23.667 102.167 53 142.5s65.5 73.833 108.5 100.5s90.167 46.5 141.5 59.5s101.666 19.167 150.999 18.5
c54.667 -1.33301 105.667 -10 153 -26s87.833 -39.5 121.5 -70.5s59.167 -68.833 76.5 -113.5s23 -96 17 -154l-84 -503c-6 -36.667 -9.16699 -73.334 -9.5 -110.001s3.83398 -73 12.501 -109l-2 -17h-183zM459.001 139.998c64 -1.33301 123.67 13.168 179.003 43.501
s101.666 70.833 138.999 121.5l39 220l-155 1c-36.667 0 -75.834 -2.33301 -117.501 -7s-80.834 -14.334 -117.501 -29.001s-68 -35.667 -94 -63s-41.667 -63.333 -47 -108c-3.33301 -28.667 -1.33301 -54 6 -76s19 -40.5 35 -55.5s35.333 -26.5 58 -34.5
s47.667 -12.333 75 -13zM848.004 1502h231l-302 -266h-150z" />
    <glyph glyph-name="acircumflex" unicode="&#xe2;" 
d="M764 0c-5.33301 20 -7.99902 39.665 -7.99902 58.998s1 39 3 59c-47.333 -42 -98.833 -75.667 -154.5 -101s-115.834 -37.333 -180.501 -36c-45.333 0.666992 -88.166 8.33398 -128.499 23.001s-75.333 35.334 -105 62.001s-52.667 59 -69 97s-23.166 81 -20.499 129
c2.66699 46.667 12.167 88 28.5 124s37.5 67.5 63.5 94.5s56 49.833 90 68.5s70.167 33.834 108.5 45.501s78 20 119 25s81.5 7.5 121.5 7.5l206 -1l13 86c4 34 1.5 64 -7.5 90s-22.833 48 -41.5 66s-41.5 31.667 -68.5 41s-56.833 14.333 -89.5 15
c-28.667 0.666992 -56.834 -2.33301 -84.501 -9s-53 -17 -76 -31s-42.833 -31.833 -59.5 -53.5s-28.334 -47.5 -35.001 -77.5l-181 -1c6 54.667 23.667 102.167 53 142.5s65.5 73.833 108.5 100.5s90.167 46.5 141.5 59.5s101.666 19.167 150.999 18.5
c54.667 -1.33301 105.667 -10 153 -26s87.833 -39.5 121.5 -70.5s59.167 -68.833 76.5 -113.5s23 -96 17 -154l-84 -503c-6 -36.667 -9.16699 -73.334 -9.5 -110.001s3.83398 -73 12.501 -109l-2 -17h-183zM459.001 139.998c64 -1.33301 123.67 13.168 179.003 43.501
s101.666 70.833 138.999 121.5l39 220l-155 1c-36.667 0 -75.834 -2.33301 -117.501 -7s-80.834 -14.334 -117.501 -29.001s-68 -35.667 -94 -63s-41.667 -63.333 -47 -108c-3.33301 -28.667 -1.33301 -54 6 -76s19 -40.5 35 -55.5s35.333 -26.5 58 -34.5
s47.667 -12.333 75 -13zM1024 1303l-2 -27l-146 1l-118 150l-172 -149l-153 -1l2 27l272 238h106z" />
    <glyph glyph-name="atilde" unicode="&#xe3;" 
d="M764 0c-5.33301 20 -7.99902 39.665 -7.99902 58.998s1 39 3 59c-47.333 -42 -98.833 -75.667 -154.5 -101s-115.834 -37.333 -180.501 -36c-45.333 0.666992 -88.166 8.33398 -128.499 23.001s-75.333 35.334 -105 62.001s-52.667 59 -69 97s-23.166 81 -20.499 129
c2.66699 46.667 12.167 88 28.5 124s37.5 67.5 63.5 94.5s56 49.833 90 68.5s70.167 33.834 108.5 45.501s78 20 119 25s81.5 7.5 121.5 7.5l206 -1l13 86c4 34 1.5 64 -7.5 90s-22.833 48 -41.5 66s-41.5 31.667 -68.5 41s-56.833 14.333 -89.5 15
c-28.667 0.666992 -56.834 -2.33301 -84.501 -9s-53 -17 -76 -31s-42.833 -31.833 -59.5 -53.5s-28.334 -47.5 -35.001 -77.5l-181 -1c6 54.667 23.667 102.167 53 142.5s65.5 73.833 108.5 100.5s90.167 46.5 141.5 59.5s101.666 19.167 150.999 18.5
c54.667 -1.33301 105.667 -10 153 -26s87.833 -39.5 121.5 -70.5s59.167 -68.833 76.5 -113.5s23 -96 17 -154l-84 -503c-6 -36.667 -9.16699 -73.334 -9.5 -110.001s3.83398 -73 12.501 -109l-2 -17h-183zM459.001 139.998c64 -1.33301 123.67 13.168 179.003 43.501
s101.666 70.833 138.999 121.5l39 220l-155 1c-36.667 0 -75.834 -2.33301 -117.501 -7s-80.834 -14.334 -117.501 -29.001s-68 -35.667 -94 -63s-41.667 -63.333 -47 -108c-3.33301 -28.667 -1.33301 -54 6 -76s19 -40.5 35 -55.5s35.333 -26.5 58 -34.5
s47.667 -12.333 75 -13zM1094 1522c-3.33301 -29.333 -10.498 -57.501 -21.498 -84.501s-25.667 -51 -44 -72s-40.333 -37.833 -66 -50.5s-54.5 -19 -86.5 -19c-25.333 0 -48.666 5.16699 -69.999 15.5s-42.166 21.833 -62.499 34.5s-41 24.167 -62 34.5
s-43.833 15.166 -68.5 14.499c-16 -0.666992 -30.5 -4.16699 -43.5 -10.5s-24.333 -14.666 -34 -24.999s-17.834 -22.166 -24.501 -35.499s-12 -27 -16 -41l-100 23c3.33301 28.667 10.666 57 21.999 85s26.166 52.833 44.499 74.5s40.333 39 66 52s54.5 19.5 86.5 19.5
c24.667 0 47.667 -5.33301 69 -16s42.333 -22.167 63 -34.5s41.5 -23.666 62.5 -33.999s43.833 -15.166 68.5 -14.499c33.333 1.33301 59.666 13.166 78.999 35.499s33 48.166 41 77.499z" />
    <glyph glyph-name="adieresis" unicode="&#xe4;" 
d="M764 0c-5.33301 20 -7.99902 39.665 -7.99902 58.998s1 39 3 59c-47.333 -42 -98.833 -75.667 -154.5 -101s-115.834 -37.333 -180.501 -36c-45.333 0.666992 -88.166 8.33398 -128.499 23.001s-75.333 35.334 -105 62.001s-52.667 59 -69 97s-23.166 81 -20.499 129
c2.66699 46.667 12.167 88 28.5 124s37.5 67.5 63.5 94.5s56 49.833 90 68.5s70.167 33.834 108.5 45.501s78 20 119 25s81.5 7.5 121.5 7.5l206 -1l13 86c4 34 1.5 64 -7.5 90s-22.833 48 -41.5 66s-41.5 31.667 -68.5 41s-56.833 14.333 -89.5 15
c-28.667 0.666992 -56.834 -2.33301 -84.501 -9s-53 -17 -76 -31s-42.833 -31.833 -59.5 -53.5s-28.334 -47.5 -35.001 -77.5l-181 -1c6 54.667 23.667 102.167 53 142.5s65.5 73.833 108.5 100.5s90.167 46.5 141.5 59.5s101.666 19.167 150.999 18.5
c54.667 -1.33301 105.667 -10 153 -26s87.833 -39.5 121.5 -70.5s59.167 -68.833 76.5 -113.5s23 -96 17 -154l-84 -503c-6 -36.667 -9.16699 -73.334 -9.5 -110.001s3.83398 -73 12.501 -109l-2 -17h-183zM459.001 139.998c64 -1.33301 123.67 13.168 179.003 43.501
s101.666 70.833 138.999 121.5l39 220l-155 1c-36.667 0 -75.834 -2.33301 -117.501 -7s-80.834 -14.334 -117.501 -29.001s-68 -35.667 -94 -63s-41.667 -63.333 -47 -108c-3.33301 -28.667 -1.33301 -54 6 -76s19 -40.5 35 -55.5s35.333 -26.5 58 -34.5
s47.667 -12.333 75 -13zM425.004 1394c0 30.667 9.83203 56.1699 29.499 76.5029s45.167 31.166 76.5 32.499c30.667 0.666992 56.334 -8.83301 77.001 -28.5s30.667 -45.167 30 -76.5c-0.666992 -30.667 -11 -56 -31 -76s-45.333 -30.667 -76 -32
c-31.333 -0.666992 -57 8.66602 -77 27.999s-29.667 44.666 -29 75.999zM841.003 1392c0.666992 30.667 10.833 56.335 30.5 77.002s45.167 31.667 76.5 33c31.333 0.666992 57 -8.83301 77 -28.5s30 -45.5 30 -77.5c-0.666992 -30.667 -11 -56 -31 -76
s-45.667 -30.667 -77 -32c-30.667 -0.666992 -56 8.66602 -76 27.999s-30 44.666 -30 75.999z" />
    <glyph glyph-name="aring" unicode="&#xe5;" 
d="M764 0c-5.33301 20 -7.99902 39.665 -7.99902 58.998s1 39 3 59c-47.333 -42 -98.833 -75.667 -154.5 -101s-115.834 -37.333 -180.501 -36c-45.333 0.666992 -88.166 8.33398 -128.499 23.001s-75.333 35.334 -105 62.001s-52.667 59 -69 97s-23.166 81 -20.499 129
c2.66699 46.667 12.167 88 28.5 124s37.5 67.5 63.5 94.5s56 49.833 90 68.5s70.167 33.834 108.5 45.501s78 20 119 25s81.5 7.5 121.5 7.5l206 -1l13 86c4 34 1.5 64 -7.5 90s-22.833 48 -41.5 66s-41.5 31.667 -68.5 41s-56.833 14.333 -89.5 15
c-28.667 0.666992 -56.834 -2.33301 -84.501 -9s-53 -17 -76 -31s-42.833 -31.833 -59.5 -53.5s-28.334 -47.5 -35.001 -77.5l-181 -1c6 54.667 23.667 102.167 53 142.5s65.5 73.833 108.5 100.5s90.167 46.5 141.5 59.5s101.666 19.167 150.999 18.5
c54.667 -1.33301 105.667 -10 153 -26s87.833 -39.5 121.5 -70.5s59.167 -68.833 76.5 -113.5s23 -96 17 -154l-84 -503c-6 -36.667 -9.16699 -73.334 -9.5 -110.001s3.83398 -73 12.501 -109l-2 -17h-183zM459.001 139.998c64 -1.33301 123.67 13.168 179.003 43.501
s101.666 70.833 138.999 121.5l39 220l-155 1c-36.667 0 -75.834 -2.33301 -117.501 -7s-80.834 -14.334 -117.501 -29.001s-68 -35.667 -94 -63s-41.667 -63.333 -47 -108c-3.33301 -28.667 -1.33301 -54 6 -76s19 -40.5 35 -55.5s35.333 -26.5 58 -34.5
s47.667 -12.333 75 -13zM547.004 1402c0.666992 28.667 6.99902 55.6621 18.999 80.9951s27.667 47.5 47 66.5s41.833 33.833 67.5 44.5s52.834 16 81.501 16c26.667 0 51.334 -5.16699 74.001 -15.5s42 -24.166 58 -41.499s28.333 -37.666 37 -60.999s12.667 -48 12 -74
c-1.33301 -28.667 -7.66602 -55.334 -18.999 -80.001s-26.5 -46.167 -45.5 -64.5s-41.167 -32.666 -66.5 -42.999s-52.333 -15.5 -81 -15.5c-26.667 0 -51.334 4.83301 -74.001 14.5s-42.334 22.834 -59.001 39.501s-29.5 36.334 -38.5 59.001s-13.167 47.334 -12.5 74.001z
M645.003 1404.99c-2 -26.667 5 -49.9961 21 -69.9961s38 -30 66 -30c14.667 0 28.5 3 41.5 9s24.667 14.167 35 24.5s18.666 22.166 24.999 35.499s10.5 27 12.5 41c1.33301 13.333 0.333008 26.166 -3 38.499s-8.66602 23.333 -15.999 33s-16.5 17.5 -27.5 23.5
s-23.5 9 -37.5 9c-15.333 0 -29.833 -3.16699 -43.5 -9.5s-25.667 -14.833 -36 -25.5s-18.833 -22.834 -25.5 -36.501s-10.667 -27.834 -12 -42.501z" />
    <glyph glyph-name="ae" unicode="&#xe6;" 
d="M776 -19c-27.333 0 -54.1689 2.8291 -80.502 8.49609s-51 14.334 -74 26.001s-44 26.5 -63 44.5s-34.833 39.667 -47.5 65c-18 -21.333 -37 -41 -57 -59s-41.167 -33.5 -63.5 -46.5s-46.333 -23 -72 -30s-52.834 -10.167 -81.501 -9.5
c-43.333 0.666992 -81 8.83398 -113 24.501s-58.5 36.834 -79.5 63.501s-36.167 58 -45.5 94s-13 74.333 -11 115c4 62 18.5 115.5 43.5 160.5s57.5 82.333 97.5 112s85.833 51.5 137.5 65.5s106.167 21 163.5 21l66 -1l26 149c2 18.667 2.5 37.834 1.5 57.501
s-4.66699 37.5 -11 53.5s-16.333 29.167 -30 39.5s-32.167 15.833 -55.5 16.5c-24 0.666992 -44.833 -3.33301 -62.5 -12s-32.667 -20.5 -45 -35.5s-22.333 -32.167 -30 -51.5s-13.5 -39.333 -17.5 -60l-175 8c4.66699 46.667 16.167 88.834 34.5 126.501
s42.333 69.667 72 96s64.334 46.5 104.001 60.5s83.167 20.667 130.5 20c22 0 44 -2 66 -6s42.667 -10.167 62 -18.5s37.5 -19.333 54.5 -33s31.5 -30.167 43.5 -49.5c34 32.667 70.833 58.667 110.5 78s83.5 28.666 131.5 27.999
c52.667 -1.33301 97.334 -12.5 134.001 -33.5s66 -48.667 88 -83s36.833 -73.5 44.5 -117.5s9.16699 -89.667 4.5 -137l-37 -234h-489l-12 -87c-4 -35.333 -4.66699 -69.666 -2 -102.999s10.5 -62.833 23.5 -88.5s32.333 -46.5 58 -62.5s59.167 -24 100.5 -24
c38 -0.666992 72.833 5.66602 104.5 18.999s62.834 29.666 93.501 48.999l35 -138c-18.667 -15.333 -39.167 -28.333 -61.5 -39s-45.5 -19.167 -69.5 -25.5s-48.333 -10.666 -73 -12.999s-48.667 -3.5 -72 -3.5zM889.997 951.996
c-33.333 0.666992 -62.0029 -6.33203 -86.0029 -20.999s-44.167 -33.834 -60.5 -57.501s-29.666 -50 -39.999 -79s-17.833 -57.167 -22.5 -84.5l-12 -70h324l18 129c2 20.667 1.33301 41.667 -2 63s-9.66602 40.833 -18.999 58.5s-22.166 32 -38.499 43
s-36.833 17.167 -61.5 18.5zM278.994 128.997c14.667 0 28.668 1.99609 42.001 5.99609s26.333 9.5 39 16.5s24.667 15 36 24l33 26.5l52 295h-54c-32.667 -0.666992 -63.834 -6.5 -93.501 -17.5s-56.334 -26.167 -80.001 -45.5s-43.167 -42.666 -58.5 -69.999
s-25 -57.666 -29 -90.999c-2 -19.333 -1.16699 -37.666 2.5 -54.999s10.334 -32.666 20.001 -45.999s22 -23.833 37 -31.5s32.833 -11.5 53.5 -11.5z" />
    <glyph glyph-name="ccedilla" unicode="&#xe7;" 
d="M533 129c32.667 -0.666992 64.998 3.82812 96.998 13.4951s61.167 23.667 87.5 42s48.833 40.666 67.5 66.999s31.667 55.833 39 88.5l171 1c-6 -55.333 -24 -105.5 -54 -150.5s-67 -83.333 -111 -115s-92.667 -56 -146 -73s-106.333 -24.833 -159 -23.5
c-76 2 -140.667 18.333 -194 49s-96.333 70.834 -129 120.501s-55 106.5 -67 170.5s-14.667 130 -8 198l5 43c6 48.667 16.667 96 32 142s34.833 89.333 58.5 130s51.334 77.834 83.001 111.501s67.167 62.5 106.5 86.5s82 42.333 128 55s95 18.334 147 17.001
c56 -1.33301 107.667 -12 155 -32s87.833 -47.167 121.5 -81.5s59.5 -75.333 77.5 -123s25.667 -99.834 23 -156.501l-170 1c1.33301 33.333 -2.66699 64.333 -12 93s-23.5 53.834 -42.5 75.501s-42.167 38.834 -69.5 51.501s-58.333 19.667 -93 21
c-55.333 2 -104.166 -8.16699 -146.499 -30.5s-78.5 -52.166 -108.5 -89.499s-54.167 -79.666 -72.5 -126.999s-30.833 -95.333 -37.5 -144l-5 -42c-3.33301 -28.667 -5 -58 -5 -88s2.5 -59.167 7.5 -87.5s12.833 -55.333 23.5 -81s25 -48 43 -67s39.833 -34.5 65.5 -46.5
s56.167 -18.333 91.5 -19zM574.998 -0.00488281l-20.999 -55.001c41.333 -10 72.666 -29 93.999 -57s31.333 -63.333 30 -106c-1.33301 -43.333 -12.5 -78.833 -33.5 -106.5s-47.5 -49.667 -79.5 -66s-67 -27.833 -105 -34.5s-74.333 -10.667 -109 -12l4 108
c18 0.666992 36.833 2.66699 56.5 6s38.167 8.83301 55.5 16.5s32.333 18.334 45 32.001s20.667 31.167 24 52.5c3.33301 20 0.666016 35.5 -8.00098 46.5s-20.167 19.333 -34.5 25s-30.166 9.5 -47.499 11.5s-33 4 -47 6l45 133h131z" />
    <glyph glyph-name="egrave" unicode="&#xe8;" 
d="M540 -20c-73.333 1.33301 -137.827 16.3301 -193.494 44.9971s-101.5 66.667 -137.5 114s-61.833 102 -77.5 164s-20.5 127.667 -14.5 197l5 43c5.33301 47.333 15.666 94.166 30.999 140.499s35.166 90.5 59.499 132.5s52.666 80.667 84.999 116s68.333 65.833 108 91.5
s82.667 45.5 129 59.5s95.166 20.333 146.499 19c74.667 -2 137.667 -18.167 189 -48.5s92 -70.166 122 -119.499s50 -105.5 60 -168.5s10.667 -127.833 2 -194.5l-13 -83h-745c-5.33301 -44 -3.83301 -87 4.5 -129s23.166 -79.667 44.499 -113s49.666 -60.333 84.999 -81
s77.333 -31.667 126 -33c62.667 -2 120.5 10.333 173.5 37s100.833 62 143.5 106l104 -88c-24.667 -34.667 -53.5 -65.167 -86.5 -91.5s-68.5 -48.166 -106.5 -65.499s-77.667 -30.166 -119 -38.499s-83 -12.166 -125 -11.499zM672.006 949.997
c-46.667 2 -88.667 -5.83398 -126 -23.501s-70.5 -41.167 -99.5 -70.5s-54.167 -63 -75.5 -101s-39 -76.333 -53 -115l564 -2l4 18c6 36.667 5.66699 72.334 -1 107.001s-19.334 65.667 -38.001 93s-42.667 49.5 -72 66.5s-63.666 26.167 -102.999 27.5zM787.006 1240h-134
l-199 266h204z" />
    <glyph glyph-name="eacute" unicode="&#xe9;" 
d="M540 -20c-73.333 1.33301 -137.827 16.3301 -193.494 44.9971s-101.5 66.667 -137.5 114s-61.833 102 -77.5 164s-20.5 127.667 -14.5 197l5 43c5.33301 47.333 15.666 94.166 30.999 140.499s35.166 90.5 59.499 132.5s52.666 80.667 84.999 116s68.333 65.833 108 91.5
s82.667 45.5 129 59.5s95.166 20.333 146.499 19c74.667 -2 137.667 -18.167 189 -48.5s92 -70.166 122 -119.499s50 -105.5 60 -168.5s10.667 -127.833 2 -194.5l-13 -83h-745c-5.33301 -44 -3.83301 -87 4.5 -129s23.166 -79.667 44.499 -113s49.666 -60.333 84.999 -81
s77.333 -31.667 126 -33c62.667 -2 120.5 10.333 173.5 37s100.833 62 143.5 106l104 -88c-24.667 -34.667 -53.5 -65.167 -86.5 -91.5s-68.5 -48.166 -106.5 -65.499s-77.667 -30.166 -119 -38.499s-83 -12.166 -125 -11.499zM672.006 949.997
c-46.667 2 -88.667 -5.83398 -126 -23.501s-70.5 -41.167 -99.5 -70.5s-54.167 -63 -75.5 -101s-39 -76.333 -53 -115l564 -2l4 18c6 36.667 5.66699 72.334 -1 107.001s-19.334 65.667 -38.001 93s-42.667 49.5 -72 66.5s-63.666 26.167 -102.999 27.5zM844.006 1503h231
l-302 -266h-150z" />
    <glyph glyph-name="ecircumflex" unicode="&#xea;" 
d="M540 -20c-73.333 1.33301 -137.827 16.3301 -193.494 44.9971s-101.5 66.667 -137.5 114s-61.833 102 -77.5 164s-20.5 127.667 -14.5 197l5 43c5.33301 47.333 15.666 94.166 30.999 140.499s35.166 90.5 59.499 132.5s52.666 80.667 84.999 116s68.333 65.833 108 91.5
s82.667 45.5 129 59.5s95.166 20.333 146.499 19c74.667 -2 137.667 -18.167 189 -48.5s92 -70.166 122 -119.499s50 -105.5 60 -168.5s10.667 -127.833 2 -194.5l-13 -83h-745c-5.33301 -44 -3.83301 -87 4.5 -129s23.166 -79.667 44.499 -113s49.666 -60.333 84.999 -81
s77.333 -31.667 126 -33c62.667 -2 120.5 10.333 173.5 37s100.833 62 143.5 106l104 -88c-24.667 -34.667 -53.5 -65.167 -86.5 -91.5s-68.5 -48.166 -106.5 -65.499s-77.667 -30.166 -119 -38.499s-83 -12.166 -125 -11.499zM672.006 949.997
c-46.667 2 -88.667 -5.83398 -126 -23.501s-70.5 -41.167 -99.5 -70.5s-54.167 -63 -75.5 -101s-39 -76.333 -53 -115l564 -2l4 18c6 36.667 5.66699 72.334 -1 107.001s-19.334 65.667 -38.001 93s-42.667 49.5 -72 66.5s-63.666 26.167 -102.999 27.5zM1020.01 1304
l-2 -27l-146 1l-118 150l-172 -149l-153 -1l2 27l272 238h106z" />
    <glyph glyph-name="edieresis" unicode="&#xeb;" 
d="M540 -20c-73.333 1.33301 -137.827 16.3301 -193.494 44.9971s-101.5 66.667 -137.5 114s-61.833 102 -77.5 164s-20.5 127.667 -14.5 197l5 43c5.33301 47.333 15.666 94.166 30.999 140.499s35.166 90.5 59.499 132.5s52.666 80.667 84.999 116s68.333 65.833 108 91.5
s82.667 45.5 129 59.5s95.166 20.333 146.499 19c74.667 -2 137.667 -18.167 189 -48.5s92 -70.166 122 -119.499s50 -105.5 60 -168.5s10.667 -127.833 2 -194.5l-13 -83h-745c-5.33301 -44 -3.83301 -87 4.5 -129s23.166 -79.667 44.499 -113s49.666 -60.333 84.999 -81
s77.333 -31.667 126 -33c62.667 -2 120.5 10.333 173.5 37s100.833 62 143.5 106l104 -88c-24.667 -34.667 -53.5 -65.167 -86.5 -91.5s-68.5 -48.166 -106.5 -65.499s-77.667 -30.166 -119 -38.499s-83 -12.166 -125 -11.499zM672.006 949.997
c-46.667 2 -88.667 -5.83398 -126 -23.501s-70.5 -41.167 -99.5 -70.5s-54.167 -63 -75.5 -101s-39 -76.333 -53 -115l564 -2l4 18c6 36.667 5.66699 72.334 -1 107.001s-19.334 65.667 -38.001 93s-42.667 49.5 -72 66.5s-63.666 26.167 -102.999 27.5zM421.006 1395
c0 30.667 9.83203 56.1699 29.499 76.5029s45.167 31.166 76.5 32.499c30.667 0.666992 56.334 -8.83301 77.001 -28.5s30.667 -45.167 30 -76.5c-0.666992 -30.667 -11 -56 -31 -76s-45.333 -30.667 -76 -32c-31.333 -0.666992 -57 8.66602 -77 27.999
s-29.667 44.666 -29 75.999zM837.005 1393c0.666992 30.667 10.833 56.335 30.5 77.002s45.167 31.667 76.5 33c31.333 0.666992 57 -8.83301 77 -28.5s30 -45.5 30 -77.5c-0.666992 -30.667 -11 -56 -31 -76s-45.667 -30.667 -77 -32
c-30.667 -0.666992 -56 8.66602 -76 27.999s-30 44.666 -30 75.999z" />
    <glyph glyph-name="igrave" unicode="&#xec;" 
d="M280 1082h538l-160 -922h343l-29 -160h-880l29 160h356l132 761h-357zM828 1218h-134l-199 266h204z" />
    <glyph glyph-name="iacute" unicode="&#xed;" 
d="M280 1082h538l-160 -922h343l-29 -160h-880l29 160h356l132 761h-357zM885 1481h231l-302 -266h-150z" />
    <glyph glyph-name="icircumflex" unicode="&#xee;" 
d="M280 1082h538l-160 -922h343l-29 -160h-880l29 160h356l132 761h-357zM1061 1282l-2 -27l-146 1l-118 150l-172 -149l-153 -1l2 27l272 238h106z" />
    <glyph glyph-name="idieresis" unicode="&#xef;" 
d="M280 1082h538l-160 -922h343l-29 -160h-880l29 160h356l132 761h-357zM462 1373c0 30.667 9.83203 56.1699 29.499 76.5029s45.167 31.166 76.5 32.499c30.667 0.666992 56.334 -8.83301 77.001 -28.5s30.667 -45.167 30 -76.5c-0.666992 -30.667 -11 -56 -31 -76
s-45.333 -30.667 -76 -32c-31.333 -0.666992 -57 8.66602 -77 27.999s-29.667 44.666 -29 75.999zM877.999 1371c0.666992 30.667 10.833 56.335 30.5 77.002s45.167 31.667 76.5 33c31.333 0.666992 57 -8.83301 77 -28.5s30 -45.5 30 -77.5
c-0.666992 -30.667 -11 -56 -31 -76s-45.667 -30.667 -77 -32c-30.667 -0.666992 -56 8.66602 -76 27.999s-30 44.666 -30 75.999z" />
    <glyph glyph-name="eth" unicode="&#xf0;" 
d="M938 1284c53.333 -102.667 87.1641 -207.999 101.497 -315.999s14.166 -219 -0.500977 -333l-8 -63c-10 -76 -29.833 -149.833 -59.5 -221.5s-68.667 -135.334 -117 -191.001s-105.833 -100 -172.5 -133s-142 -48.5 -226 -46.5c-66 2 -125.5 15.833 -178.5 41.5
s-97.5 60.167 -133.5 103.5s-62.333 93.666 -79 150.999s-22 118.333 -16 183c6.66699 72 24.834 139.833 54.501 203.5s68.5 119.167 116.5 166.5s103.833 84.333 167.5 111s132.834 39 207.501 37c54 -1.33301 104.333 -12.833 151 -34.5s88 -51.5 124 -89.5
c1.33301 60.667 -5.66699 119.667 -21 177s-39.666 111.666 -72.999 162.999l-287 -152l-58 107l253 133c-23.333 18.667 -47.666 34.334 -72.999 47.001s-52 24.334 -80 35.001l71 157c48 -15.333 93 -34.833 135 -58.5s81 -52.5 117 -86.5l250 133l58 -109z
M867.998 687.001c-12.667 26 -29.332 47.835 -49.999 65.502s-43.667 32 -69 43s-52 19 -80 24s-55.333 7.5 -82 7.5c-50.667 0.666992 -96.667 -9.5 -138 -30.5s-77.333 -48.833 -108 -83.5s-55.334 -74.167 -74.001 -118.5s-30.667 -89.5 -36 -135.5
c-5.33301 -40 -4.16602 -79.333 3.50098 -118s21.5 -73.334 41.5 -104.001s46.167 -55.834 78.5 -75.501s70.5 -30.167 114.5 -31.5c59.333 -2 111.166 10.5 155.499 37.5s82 62.167 113 105.5s55.667 91.333 74 144s31.5 104 39.5 154l10 64z" />
    <glyph glyph-name="ntilde" unicode="&#xf1;" 
d="M413 1083l-22.998 -161c22 26.667 46 51.334 72 74.001s53.667 42 83 58s60.333 28.167 93 36.5s67 12.166 103 11.499c60.667 -1.33301 111.667 -13.333 153 -36s74.166 -52.834 98.499 -90.501s40.666 -81.5 48.999 -131.5s9.5 -102.333 3.5 -157l-115 -687h-181
l115 684c4 36.667 4.16699 70.667 0.5 102s-12.667 58.666 -27 81.999s-34.5 41.833 -60.5 55.5s-59 20.834 -99 21.501c-31.333 0.666992 -61.166 -3.16602 -89.499 -11.499s-54.833 -20 -79.5 -35s-47.834 -33 -69.501 -54s-41.5 -43.5 -59.5 -67.5l-135 -777h-181
l188 1082zM1075 1522c-3.33301 -29.333 -10.498 -57.501 -21.498 -84.501s-25.667 -51 -44 -72s-40.333 -37.833 -66 -50.5s-54.5 -19 -86.5 -19c-25.333 0 -48.666 5.16699 -69.999 15.5s-42.166 21.833 -62.499 34.5s-41 24.167 -62 34.5s-43.833 15.166 -68.5 14.499
c-16 -0.666992 -30.5 -4.16699 -43.5 -10.5s-24.333 -14.666 -34 -24.999s-17.834 -22.166 -24.501 -35.499s-12 -27 -16 -41l-100 23c3.33301 28.667 10.666 57 21.999 85s26.166 52.833 44.499 74.5s40.333 39 66 52s54.5 19.5 86.5 19.5c24.667 0 47.667 -5.33301 69 -16
s42.333 -22.167 63 -34.5s41.5 -23.666 62.5 -33.999s43.833 -15.166 68.5 -14.499c33.333 1.33301 59.666 13.166 78.999 35.499s33 48.166 41 77.499z" />
    <glyph glyph-name="ograve" unicode="&#xf2;" 
d="M110 544c6 48.667 16.502 96.499 31.502 143.499s34.167 91.333 57.5 133s50.833 80 82.5 115s67 65 106 90s81.667 44.333 128 58s96.166 19.834 149.499 18.501c76 -2 140.833 -18.833 194.5 -50.5s96.834 -73 129.501 -124s55.167 -109 67.5 -174
s14.833 -131.5 7.5 -199.5l-2 -23c-9.33301 -72.667 -28.833 -142.667 -58.5 -210s-68.167 -126.5 -115.5 -177.5s-103.166 -91.5 -167.499 -121.5s-135.833 -44 -214.5 -42c-75.333 2 -139.833 18.5 -193.5 49.5s-96.834 71.833 -129.501 122.5s-55.334 108 -68.001 172
s-15.334 130 -8.00098 198zM288.002 521.999c-3.33301 -28 -4.83398 -57.001 -4.50098 -87.001s3 -59.333 8 -88s12.833 -56 23.5 -82s25 -48.833 43 -68.5s39.833 -35.5 65.5 -47.5s55.834 -18.667 90.501 -20c55.333 -2 104.333 9 147 33s79.167 55.333 109.5 94
s54.5 82.167 72.5 130.5s30.667 96.5 38 144.5l2 22c4.66699 42 5.5 86 2.5 132s-12.833 88.5 -29.5 127.5s-41 71.333 -73 97s-74 39.5 -126 41.5c-56 2 -105.333 -9.16699 -148 -33.5s-79 -56.166 -109 -95.499s-54 -83.5 -72 -132.5s-30.333 -97.5 -37 -145.5z
M781.001 1239h-134l-199 266h204z" />
    <glyph glyph-name="oacute" unicode="&#xf3;" 
d="M110 544c6 48.667 16.502 96.499 31.502 143.499s34.167 91.333 57.5 133s50.833 80 82.5 115s67 65 106 90s81.667 44.333 128 58s96.166 19.834 149.499 18.501c76 -2 140.833 -18.833 194.5 -50.5s96.834 -73 129.501 -124s55.167 -109 67.5 -174
s14.833 -131.5 7.5 -199.5l-2 -23c-9.33301 -72.667 -28.833 -142.667 -58.5 -210s-68.167 -126.5 -115.5 -177.5s-103.166 -91.5 -167.499 -121.5s-135.833 -44 -214.5 -42c-75.333 2 -139.833 18.5 -193.5 49.5s-96.834 71.833 -129.501 122.5s-55.334 108 -68.001 172
s-15.334 130 -8.00098 198zM288.002 521.999c-3.33301 -28 -4.83398 -57.001 -4.50098 -87.001s3 -59.333 8 -88s12.833 -56 23.5 -82s25 -48.833 43 -68.5s39.833 -35.5 65.5 -47.5s55.834 -18.667 90.501 -20c55.333 -2 104.333 9 147 33s79.167 55.333 109.5 94
s54.5 82.167 72.5 130.5s30.667 96.5 38 144.5l2 22c4.66699 42 5.5 86 2.5 132s-12.833 88.5 -29.5 127.5s-41 71.333 -73 97s-74 39.5 -126 41.5c-56 2 -105.333 -9.16699 -148 -33.5s-79 -56.166 -109 -95.499s-54 -83.5 -72 -132.5s-30.333 -97.5 -37 -145.5z
M838.001 1502h231l-302 -266h-150z" />
    <glyph glyph-name="ocircumflex" unicode="&#xf4;" 
d="M110 544c6 48.667 16.502 96.499 31.502 143.499s34.167 91.333 57.5 133s50.833 80 82.5 115s67 65 106 90s81.667 44.333 128 58s96.166 19.834 149.499 18.501c76 -2 140.833 -18.833 194.5 -50.5s96.834 -73 129.501 -124s55.167 -109 67.5 -174
s14.833 -131.5 7.5 -199.5l-2 -23c-9.33301 -72.667 -28.833 -142.667 -58.5 -210s-68.167 -126.5 -115.5 -177.5s-103.166 -91.5 -167.499 -121.5s-135.833 -44 -214.5 -42c-75.333 2 -139.833 18.5 -193.5 49.5s-96.834 71.833 -129.501 122.5s-55.334 108 -68.001 172
s-15.334 130 -8.00098 198zM288.002 521.999c-3.33301 -28 -4.83398 -57.001 -4.50098 -87.001s3 -59.333 8 -88s12.833 -56 23.5 -82s25 -48.833 43 -68.5s39.833 -35.5 65.5 -47.5s55.834 -18.667 90.501 -20c55.333 -2 104.333 9 147 33s79.167 55.333 109.5 94
s54.5 82.167 72.5 130.5s30.667 96.5 38 144.5l2 22c4.66699 42 5.5 86 2.5 132s-12.833 88.5 -29.5 127.5s-41 71.333 -73 97s-74 39.5 -126 41.5c-56 2 -105.333 -9.16699 -148 -33.5s-79 -56.166 -109 -95.499s-54 -83.5 -72 -132.5s-30.333 -97.5 -37 -145.5zM1014 1303
l-2 -27l-146 1l-118 150l-172 -149l-153 -1l2 27l272 238h106z" />
    <glyph glyph-name="otilde" unicode="&#xf5;" 
d="M110 544c6 48.667 16.502 96.499 31.502 143.499s34.167 91.333 57.5 133s50.833 80 82.5 115s67 65 106 90s81.667 44.333 128 58s96.166 19.834 149.499 18.501c76 -2 140.833 -18.833 194.5 -50.5s96.834 -73 129.501 -124s55.167 -109 67.5 -174
s14.833 -131.5 7.5 -199.5l-2 -23c-9.33301 -72.667 -28.833 -142.667 -58.5 -210s-68.167 -126.5 -115.5 -177.5s-103.166 -91.5 -167.499 -121.5s-135.833 -44 -214.5 -42c-75.333 2 -139.833 18.5 -193.5 49.5s-96.834 71.833 -129.501 122.5s-55.334 108 -68.001 172
s-15.334 130 -8.00098 198zM288.002 521.999c-3.33301 -28 -4.83398 -57.001 -4.50098 -87.001s3 -59.333 8 -88s12.833 -56 23.5 -82s25 -48.833 43 -68.5s39.833 -35.5 65.5 -47.5s55.834 -18.667 90.501 -20c55.333 -2 104.333 9 147 33s79.167 55.333 109.5 94
s54.5 82.167 72.5 130.5s30.667 96.5 38 144.5l2 22c4.66699 42 5.5 86 2.5 132s-12.833 88.5 -29.5 127.5s-41 71.333 -73 97s-74 39.5 -126 41.5c-56 2 -105.333 -9.16699 -148 -33.5s-79 -56.166 -109 -95.499s-54 -83.5 -72 -132.5s-30.333 -97.5 -37 -145.5zM1084 1522
c-3.33301 -29.333 -10.498 -57.501 -21.498 -84.501s-25.667 -51 -44 -72s-40.333 -37.833 -66 -50.5s-54.5 -19 -86.5 -19c-25.333 0 -48.666 5.16699 -69.999 15.5s-42.166 21.833 -62.499 34.5s-41 24.167 -62 34.5s-43.833 15.166 -68.5 14.499
c-16 -0.666992 -30.5 -4.16699 -43.5 -10.5s-24.333 -14.666 -34 -24.999s-17.834 -22.166 -24.501 -35.499s-12 -27 -16 -41l-100 23c3.33301 28.667 10.666 57 21.999 85s26.166 52.833 44.499 74.5s40.333 39 66 52s54.5 19.5 86.5 19.5c24.667 0 47.667 -5.33301 69 -16
s42.333 -22.167 63 -34.5s41.5 -23.666 62.5 -33.999s43.833 -15.166 68.5 -14.499c33.333 1.33301 59.666 13.166 78.999 35.499s33 48.166 41 77.499z" />
    <glyph glyph-name="odieresis" unicode="&#xf6;" 
d="M110 544c6 48.667 16.502 96.499 31.502 143.499s34.167 91.333 57.5 133s50.833 80 82.5 115s67 65 106 90s81.667 44.333 128 58s96.166 19.834 149.499 18.501c76 -2 140.833 -18.833 194.5 -50.5s96.834 -73 129.501 -124s55.167 -109 67.5 -174
s14.833 -131.5 7.5 -199.5l-2 -23c-9.33301 -72.667 -28.833 -142.667 -58.5 -210s-68.167 -126.5 -115.5 -177.5s-103.166 -91.5 -167.499 -121.5s-135.833 -44 -214.5 -42c-75.333 2 -139.833 18.5 -193.5 49.5s-96.834 71.833 -129.501 122.5s-55.334 108 -68.001 172
s-15.334 130 -8.00098 198zM288.002 521.999c-3.33301 -28 -4.83398 -57.001 -4.50098 -87.001s3 -59.333 8 -88s12.833 -56 23.5 -82s25 -48.833 43 -68.5s39.833 -35.5 65.5 -47.5s55.834 -18.667 90.501 -20c55.333 -2 104.333 9 147 33s79.167 55.333 109.5 94
s54.5 82.167 72.5 130.5s30.667 96.5 38 144.5l2 22c4.66699 42 5.5 86 2.5 132s-12.833 88.5 -29.5 127.5s-41 71.333 -73 97s-74 39.5 -126 41.5c-56 2 -105.333 -9.16699 -148 -33.5s-79 -56.166 -109 -95.499s-54 -83.5 -72 -132.5s-30.333 -97.5 -37 -145.5z
M415.001 1394c0 30.667 9.83203 56.1699 29.499 76.5029s45.167 31.166 76.5 32.499c30.667 0.666992 56.334 -8.83301 77.001 -28.5s30.667 -45.167 30 -76.5c-0.666992 -30.667 -11 -56 -31 -76s-45.333 -30.667 -76 -32c-31.333 -0.666992 -57 8.66602 -77 27.999
s-29.667 44.666 -29 75.999zM831 1392c0.666992 30.667 10.833 56.335 30.5 77.002s45.167 31.667 76.5 33c31.333 0.666992 57 -8.83301 77 -28.5s30 -45.5 30 -77.5c-0.666992 -30.667 -11 -56 -31 -76s-45.667 -30.667 -77 -32c-30.667 -0.666992 -56 8.66602 -76 27.999
s-30 44.666 -30 75.999z" />
    <glyph glyph-name="divide" unicode="&#xf7;" 
d="M1080 600h-969l32 184h970zM578 1094c0.666992 31.333 10.6709 57.334 30.0039 78.001s44.666 31.667 75.999 33c15.333 0.666992 29.666 -1.5 42.999 -6.5s24.666 -12.333 33.999 -22s16.666 -21 21.999 -34s8 -27.167 8 -42.5c-0.666992 -31.333 -11 -57 -31 -77
s-45.333 -30.667 -76 -32c-31.333 -1.33301 -57 7.66699 -77 27s-29.667 44.666 -29 75.999zM435.004 279.001c0 31.333 9.83594 57.333 29.5029 78s45.167 31.667 76.5 33c15.333 0.666992 29.666 -1.5 42.999 -6.5s24.666 -12.333 33.999 -22s16.666 -21 21.999 -34
s8 -27.167 8 -42.5c-0.666992 -31.333 -11 -57 -31 -77s-45.333 -30.667 -76 -32c-15.333 -0.666992 -29.5 1.5 -42.5 6.5s-24.333 12.167 -34 21.5s-17 20.333 -22 33s-7.5 26.667 -7.5 42z" />
    <glyph glyph-name="oslash" unicode="&#xf8;" 
d="M110 544c6 48.667 16.5029 96.5 31.5029 143.5s34.167 91.333 57.5 133s50.833 80 82.5 115s67 65 106 90s81.667 44.333 128 58s96.166 19.834 149.499 18.501c38 -1.33301 73.167 -6.33301 105.5 -15s62.166 -20.667 89.499 -36l103 158h131l-148 -226
c24.667 -26 45.5 -55.5 62.5 -88.5s30.333 -68 40 -105s15.667 -75.333 18 -115s1.5 -79.834 -2.5 -120.501l-2 -23c-9.33301 -72.667 -28.833 -142.667 -58.5 -210s-68.167 -126.5 -115.5 -177.5s-103.166 -91.5 -167.499 -121.5s-135.833 -44 -214.5 -42
c-36 1.33301 -69.333 5.83301 -100 13.5s-59 18.167 -85 31.5l-104 -160h-131l147 225c-26 26 -47.833 55.333 -65.5 88s-31.834 67.5 -42.501 104.5s-17.334 75.833 -20.001 116.5s-2 81.667 2 123zM288.003 522c-3.33301 -24 -5.16699 -48.501 -5.5 -73.501
s1 -49.833 4 -74.5s8 -48.667 15 -72s16.167 -45 27.5 -65l443 680c-32 20.667 -70.333 32 -115 34c-56 2 -105.333 -9.16699 -148 -33.5s-79 -56.166 -109 -95.499s-54 -83.5 -72 -132.5s-30.333 -97.5 -37 -145.5zM883.002 552.999c2.66699 22.667 4.16797 46 4.50098 70
s-0.833984 48 -3.50098 72s-7 47.5 -13 70.5s-14 44.5 -24 64.5l-440 -673c30 -18 65.667 -27.333 107 -28c55.333 -2 104.333 9 147 33s79.167 55.333 109.5 94s54.5 82.167 72.5 130.5s30.667 96.5 38 144.5z" />
    <glyph glyph-name="ugrave" unicode="&#xf9;" 
d="M780 149c-42.667 -52.667 -91.667 -94.3301 -147 -124.997s-118 -45.334 -188 -44.001c-64.667 1.33301 -117.5 15.5 -158.5 42.5s-72.667 62.167 -95 105.5s-36.333 92.166 -42 146.499s-5.5 109.166 0.5 164.499l108 643h181l-107 -646
c-4 -33.333 -6.33301 -67.5 -7 -102.5s3.83301 -66.833 13.5 -95.5s25.834 -52.334 48.501 -71.001s55 -28.667 97 -30c66.667 -2 125.667 11.833 177 41.5s94.666 71.834 129.999 126.501l135 777h182l-188 -1082h-163zM776 1219h-134l-199 266h204z" />
    <glyph glyph-name="uacute" unicode="&#xfa;" 
d="M780 149c-42.667 -52.667 -91.667 -94.3301 -147 -124.997s-118 -45.334 -188 -44.001c-64.667 1.33301 -117.5 15.5 -158.5 42.5s-72.667 62.167 -95 105.5s-36.333 92.166 -42 146.499s-5.5 109.166 0.5 164.499l108 643h181l-107 -646
c-4 -33.333 -6.33301 -67.5 -7 -102.5s3.83301 -66.833 13.5 -95.5s25.834 -52.334 48.501 -71.001s55 -28.667 97 -30c66.667 -2 125.667 11.833 177 41.5s94.666 71.834 129.999 126.501l135 777h182l-188 -1082h-163zM833 1482h231l-302 -266h-150z" />
    <glyph glyph-name="ucircumflex" unicode="&#xfb;" 
d="M780 149c-42.667 -52.667 -91.667 -94.3301 -147 -124.997s-118 -45.334 -188 -44.001c-64.667 1.33301 -117.5 15.5 -158.5 42.5s-72.667 62.167 -95 105.5s-36.333 92.166 -42 146.499s-5.5 109.166 0.5 164.499l108 643h181l-107 -646
c-4 -33.333 -6.33301 -67.5 -7 -102.5s3.83301 -66.833 13.5 -95.5s25.834 -52.334 48.501 -71.001s55 -28.667 97 -30c66.667 -2 125.667 11.833 177 41.5s94.666 71.834 129.999 126.501l135 777h182l-188 -1082h-163zM1009 1283l-2 -27l-146 1l-118 150l-172 -149
l-153 -1l2 27l272 238h106z" />
    <glyph glyph-name="udieresis" unicode="&#xfc;" 
d="M780 149c-42.667 -52.667 -91.667 -94.3301 -147 -124.997s-118 -45.334 -188 -44.001c-64.667 1.33301 -117.5 15.5 -158.5 42.5s-72.667 62.167 -95 105.5s-36.333 92.166 -42 146.499s-5.5 109.166 0.5 164.499l108 643h181l-107 -646
c-4 -33.333 -6.33301 -67.5 -7 -102.5s3.83301 -66.833 13.5 -95.5s25.834 -52.334 48.501 -71.001s55 -28.667 97 -30c66.667 -2 125.667 11.833 177 41.5s94.666 71.834 129.999 126.501l135 777h182l-188 -1082h-163zM410 1374c0 30.667 9.83203 56.1699 29.499 76.5029
s45.167 31.166 76.5 32.499c30.667 0.666992 56.334 -8.83301 77.001 -28.5s30.667 -45.167 30 -76.5c-0.666992 -30.667 -11 -56 -31 -76s-45.333 -30.667 -76 -32c-31.333 -0.666992 -57 8.66602 -77 27.999s-29.667 44.666 -29 75.999zM825.999 1372.01
c0.666992 30.667 10.833 56.335 30.5 77.002s45.167 31.667 76.5 33c31.333 0.666992 57 -8.83301 77 -28.5s30 -45.5 30 -77.5c-0.666992 -30.667 -11 -56 -31 -76s-45.667 -30.667 -77 -32c-30.667 -0.666992 -56 8.66602 -76 27.999s-30 44.666 -30 75.999z" />
    <glyph glyph-name="yacute" unicode="&#xfd;" 
d="M516 375l20.999 -119.998l464 827h211l-748 -1250c-20 -34.667 -42.667 -68.334 -68 -101.001s-53.5 -61.834 -84.5 -87.501s-65 -46 -102 -61s-77.167 -22.5 -120.5 -22.5c-19.333 0 -38.833 1.83301 -58.5 5.5l-58.5 10.5l41 153c14.667 -1.33301 29.334 -3 44.001 -5
s29 -3 43 -3c26 0.666992 50 7 72 19s42 27 60 45s34.333 37.833 49 59.5l41 61.5l103 156l-271 1020h193zM852.999 1482h231l-302 -266h-150z" />
    <glyph glyph-name="thorn" unicode="&#xfe;" 
d="M1043 535c-5.33301 -44 -14.002 -88.5 -26.002 -133.5s-27.667 -88.167 -47 -129.5s-42.166 -80 -68.499 -116s-56.5 -67.333 -90.5 -94s-72.333 -47.5 -115 -62.5s-89.334 -21.833 -140.001 -20.5c-56.667 1.33301 -109.667 12.166 -159 32.499s-92 52.5 -128 96.5
l-97 -524h-181l343 1974h180l-110 -589c42 44 89 77.5 141 100.5s109.333 33.833 172 32.5c48.667 -1.33301 91.334 -10.166 128.001 -26.499s67.834 -38 93.501 -65s46.667 -58.333 63 -94s28.5 -73.5 36.5 -113.5s12.333 -81.167 13 -123.5s-1 -83.5 -5 -123.5z
M863.998 557c3.33301 26.667 5.16895 54.6689 5.50195 84.002s-1.5 58.166 -5.5 86.499s-10.833 55.5 -20.5 81.5s-22.834 48.833 -39.501 68.5s-37.334 35.5 -62.001 47.5s-54 18.667 -88 20c-57.333 2 -108.5 -11.167 -153.5 -39.5s-84.167 -64.5 -117.5 -108.5l-91 -520
c20.667 -46.667 49.334 -82.5 86.001 -107.5s81 -38.167 133 -39.5c56 -1.33301 104.5 10.167 145.5 34.5s75.667 56.166 104 95.499s50.666 83.333 66.999 132s27.833 96.667 34.5 144z" />
    <glyph glyph-name="ydieresis" unicode="&#xff;" 
d="M516 375l20.999 -119.998l464 827h211l-748 -1250c-20 -34.667 -42.667 -68.334 -68 -101.001s-53.5 -61.834 -84.5 -87.501s-65 -46 -102 -61s-77.167 -22.5 -120.5 -22.5c-19.333 0 -38.833 1.83301 -58.5 5.5l-58.5 10.5l41 153c14.667 -1.33301 29.334 -3 44.001 -5
s29 -3 43 -3c26 0.666992 50 7 72 19s42 27 60 45s34.333 37.833 49 59.5l41 61.5l103 156l-271 1020h193zM429.999 1374c0 30.667 9.83203 56.1699 29.499 76.5029s45.167 31.166 76.5 32.499c30.667 0.666992 56.334 -8.83301 77.001 -28.5s30.667 -45.167 30 -76.5
c-0.666992 -30.667 -11 -56 -31 -76s-45.333 -30.667 -76 -32c-31.333 -0.666992 -57 8.66602 -77 27.999s-29.667 44.666 -29 75.999zM845.998 1372c0.666992 30.667 10.833 56.335 30.5 77.002s45.167 31.667 76.5 33c31.333 0.666992 57 -8.83301 77 -28.5
s30 -45.5 30 -77.5c-0.666992 -30.667 -11 -56 -31 -76s-45.667 -30.667 -77 -32c-30.667 -0.666992 -56 8.66602 -76 27.999s-30 44.666 -30 75.999z" />
    <glyph glyph-name="Amacron" unicode="&#x100;" 
d="M807 377h-469l-180 -377h-188l709 1456h152l195 -1456h-173zM413 538h375l-76 630zM1141 1643h-694l23 143h694z" />
    <glyph glyph-name="amacron" unicode="&#x101;" 
d="M764 0c-5.33301 20 -7.99902 39.665 -7.99902 58.998s1 39 3 59c-47.333 -42 -98.833 -75.667 -154.5 -101s-115.834 -37.333 -180.501 -36c-45.333 0.666992 -88.166 8.33398 -128.499 23.001s-75.333 35.334 -105 62.001s-52.667 59 -69 97s-23.166 81 -20.499 129
c2.66699 46.667 12.167 88 28.5 124s37.5 67.5 63.5 94.5s56 49.833 90 68.5s70.167 33.834 108.5 45.501s78 20 119 25s81.5 7.5 121.5 7.5l206 -1l13 86c4 34 1.5 64 -7.5 90s-22.833 48 -41.5 66s-41.5 31.667 -68.5 41s-56.833 14.333 -89.5 15
c-28.667 0.666992 -56.834 -2.33301 -84.501 -9s-53 -17 -76 -31s-42.833 -31.833 -59.5 -53.5s-28.334 -47.5 -35.001 -77.5l-181 -1c6 54.667 23.667 102.167 53 142.5s65.5 73.833 108.5 100.5s90.167 46.5 141.5 59.5s101.666 19.167 150.999 18.5
c54.667 -1.33301 105.667 -10 153 -26s87.833 -39.5 121.5 -70.5s59.167 -68.833 76.5 -113.5s23 -96 17 -154l-84 -503c-6 -36.667 -9.16699 -73.334 -9.5 -110.001s3.83398 -73 12.501 -109l-2 -17h-183zM459.001 139.998c64 -1.33301 123.67 13.168 179.003 43.501
s101.666 70.833 138.999 121.5l39 220l-155 1c-36.667 0 -75.834 -2.33301 -117.501 -7s-80.834 -14.334 -117.501 -29.001s-68 -35.667 -94 -63s-41.667 -63.333 -47 -108c-3.33301 -28.667 -1.33301 -54 6 -76s19 -40.5 35 -55.5s35.333 -26.5 58 -34.5
s47.667 -12.333 75 -13zM1081 1321h-694l23 143h694z" />
    <glyph glyph-name="Abreve" unicode="&#x102;" 
d="M807 377h-469l-180 -377h-188l709 1456h152l195 -1456h-173zM413 538h375l-76 630zM1111 1866c-4 -42 -14.499 -79.667 -31.499 -113s-39.167 -61.5 -66.5 -84.5s-58.833 -40.5 -94.5 -52.5s-74.5 -17.667 -116.5 -17c-40.667 0.666992 -77.5 7.5 -110.5 20.5
s-61.333 31 -85 54s-41.834 50.833 -54.501 83.5s-18.667 69.334 -18 110.001l146 -1c-0.666992 -21.333 1 -41 5 -59s11 -33.667 21 -47s22.833 -23.833 38.5 -31.5s35.167 -11.5 58.5 -11.5s44.166 3.66699 62.499 11s34.333 17.666 48 30.999s24.834 29 33.501 47
s15 37.667 19 59z" />
    <glyph glyph-name="abreve" unicode="&#x103;" 
d="M764 0c-5.33301 20 -7.99902 39.665 -7.99902 58.998s1 39 3 59c-47.333 -42 -98.833 -75.667 -154.5 -101s-115.834 -37.333 -180.501 -36c-45.333 0.666992 -88.166 8.33398 -128.499 23.001s-75.333 35.334 -105 62.001s-52.667 59 -69 97s-23.166 81 -20.499 129
c2.66699 46.667 12.167 88 28.5 124s37.5 67.5 63.5 94.5s56 49.833 90 68.5s70.167 33.834 108.5 45.501s78 20 119 25s81.5 7.5 121.5 7.5l206 -1l13 86c4 34 1.5 64 -7.5 90s-22.833 48 -41.5 66s-41.5 31.667 -68.5 41s-56.833 14.333 -89.5 15
c-28.667 0.666992 -56.834 -2.33301 -84.501 -9s-53 -17 -76 -31s-42.833 -31.833 -59.5 -53.5s-28.334 -47.5 -35.001 -77.5l-181 -1c6 54.667 23.667 102.167 53 142.5s65.5 73.833 108.5 100.5s90.167 46.5 141.5 59.5s101.666 19.167 150.999 18.5
c54.667 -1.33301 105.667 -10 153 -26s87.833 -39.5 121.5 -70.5s59.167 -68.833 76.5 -113.5s23 -96 17 -154l-84 -503c-6 -36.667 -9.16699 -73.334 -9.5 -110.001s3.83398 -73 12.501 -109l-2 -17h-183zM459.001 139.998c64 -1.33301 123.67 13.168 179.003 43.501
s101.666 70.833 138.999 121.5l39 220l-155 1c-36.667 0 -75.834 -2.33301 -117.501 -7s-80.834 -14.334 -117.501 -29.001s-68 -35.667 -94 -63s-41.667 -63.333 -47 -108c-3.33301 -28.667 -1.33301 -54 6 -76s19 -40.5 35 -55.5s35.333 -26.5 58 -34.5
s47.667 -12.333 75 -13zM1051 1544c-4 -42 -14.499 -79.667 -31.499 -113s-39.167 -61.5 -66.5 -84.5s-58.833 -40.5 -94.5 -52.5s-74.5 -17.667 -116.5 -17c-40.667 0.666992 -77.5 7.5 -110.5 20.5s-61.333 31 -85 54s-41.834 50.833 -54.501 83.5
s-18.667 69.334 -18 110.001l146 -1c-0.666992 -21.333 1 -41 5 -59s11 -33.667 21 -47s22.833 -23.833 38.5 -31.5s35.167 -11.5 58.5 -11.5s44.166 3.66699 62.499 11s34.333 17.666 48 30.999s24.834 29 33.501 47s15 37.667 19 59z" />
    <glyph glyph-name="Aogonek" unicode="&#x104;" 
d="M978 0l5 -2.99902c-21.333 -11.333 -43 -24.5 -65 -39.5s-42.333 -31.667 -61 -50s-34.5 -38.666 -47.5 -60.999s-20.833 -46.5 -23.5 -72.5c-4 -44 15 -66.333 57 -67c17.333 -1.33301 34.333 0.666992 51 6s32.667 11.666 48 18.999l21 -123
c-25.333 -14.667 -52.166 -25.334 -80.499 -32.001s-57.166 -9.66699 -86.499 -9c-54 0.666992 -96.333 17.667 -127 51s-45.334 77 -44.001 131c0.666992 32 7.66699 62 21 90s30.5 53.667 51.5 77s44.667 44.5 71 63.5s53.166 36.167 80.499 51.5l-42 345h-469l-180 -377
h-188l709 1456h152l195 -1456h-48zM413 538.001h375l-76 630z" />
    <glyph glyph-name="aogonek" unicode="&#x105;" 
d="M900 0l5 -3c-21.333 -11.333 -43 -24.5 -65 -39.5s-42.333 -31.667 -61 -50s-34.5 -38.666 -47.5 -60.999s-20.833 -46.5 -23.5 -72.5c-4 -44 15 -66.333 57 -67c17.333 -1.33301 34.333 0.666992 51 6s32.667 11.666 48 18.999l21 -123
c-25.333 -14.667 -52.166 -25.334 -80.499 -32.001s-57.166 -9.66699 -86.499 -9c-54 0.666992 -96.333 17.667 -127 51s-45.334 77 -44.001 131c0.666992 30.667 7.16699 59.5 19.5 86.5s28.5 52 48.5 75s42.5 43.833 67.5 62.5s50.5 35.667 76.5 51
c-2.66699 15.333 -3.66699 30.666 -3 45.999s1.66699 31 3 47c-47.333 -42 -98.833 -75.667 -154.5 -101s-115.834 -37.333 -180.501 -36c-45.333 0.666992 -88.166 8.33398 -128.499 23.001s-75.333 35.334 -105 62.001s-52.667 59 -69 97s-23.166 81 -20.499 129
c2.66699 46.667 12.167 88 28.5 124s37.5 67.5 63.5 94.5s56 49.833 90 68.5s70.167 33.834 108.5 45.501s78 20 119 25s81.5 7.5 121.5 7.5l206 -1l13 86c4 34 1.5 64 -7.5 90s-22.833 48 -41.5 66s-41.5 31.667 -68.5 41s-56.833 14.333 -89.5 15
c-28.667 0.666992 -56.834 -2.33301 -84.501 -9s-53 -17 -76 -31s-42.833 -31.833 -59.5 -53.5s-28.334 -47.5 -35.001 -77.5l-181 -1c6 54.667 23.667 102.167 53 142.5s65.5 73.833 108.5 100.5s90.167 46.5 141.5 59.5s101.666 19.167 150.999 18.5
c54.667 -1.33301 105.667 -10 153 -26s87.833 -39.5 121.5 -70.5s59.167 -68.833 76.5 -113.5s23 -96 17 -154l-84 -503c-6 -36.667 -9.16699 -73.334 -9.5 -110.001s3.83398 -73 12.501 -109l-2 -17h-47zM459 140c64 -1.33301 123.67 13.168 179.003 43.501
s101.666 70.833 138.999 121.5l39 220l-155 1c-36.667 0 -75.834 -2.33301 -117.501 -7s-80.834 -14.334 -117.501 -29.001s-68 -35.667 -94 -63s-41.667 -63.333 -47 -108c-3.33301 -28.667 -1.33301 -54 6 -76s19 -40.5 35 -55.5s35.333 -26.5 58 -34.5
s47.667 -12.333 75 -13z" />
    <glyph glyph-name="Cacute" unicode="&#x106;" 
d="M1046 440c-13.333 -66 -35.3428 -127.501 -66.0098 -184.501s-68.834 -106.167 -114.501 -147.5s-98 -73.5 -157 -96.5s-123.5 -33.5 -193.5 -31.5c-57.333 1.33301 -108.166 11.5 -152.499 30.5s-82.666 44.333 -114.999 76s-58.833 68.5 -79.5 110.5
s-36.5 86.667 -47.5 134s-17.167 96.166 -18.5 146.499s1.33398 99.833 8.00098 148.5l32 203c8.66699 52.667 21.167 105.334 37.5 158.001s36.666 103.167 60.999 151.5s52.833 93.333 85.5 135s69.834 77.667 111.501 108s87.834 54 138.501 71
s106.334 24.833 167.001 23.5c68.667 -1.33301 128.334 -14.5 179.001 -39.5s93 -58.5 127 -100.5s59.833 -91 77.5 -147s27.834 -116 30.501 -180h-179c-2 40 -7.33301 78.667 -16 116s-22.5 70.666 -41.5 99.999s-43.667 53.166 -74 71.499
s-68.166 28.166 -113.499 29.499c-44 1.33301 -83.833 -5 -119.5 -19s-67.667 -33.167 -96 -57.5s-53 -53.166 -74 -86.499s-39.333 -68.5 -55 -105.5s-28.667 -75 -39 -114s-18.5 -76.5 -24.5 -112.5l-34 -206c-4.66699 -31.333 -8 -65.166 -10 -101.499
s-1.33301 -72.5 2 -108.5s9.83301 -70.833 19.5 -104.5s23.834 -63.667 42.501 -90s42.667 -47.666 72 -63.999s65 -25.166 107 -26.499c48 -2 90.833 5 128.5 21s70.834 38 99.501 66s52.834 61 72.501 99s35.5 78.333 47.5 121zM947.99 1845h231l-302 -266h-150z" />
    <glyph glyph-name="cacute" unicode="&#x107;" 
d="M533 129c32.667 -0.666992 64.998 3.82812 96.998 13.4951s61.167 23.667 87.5 42s48.833 40.666 67.5 66.999s31.667 55.833 39 88.5l171 1c-6 -55.333 -24 -105.5 -54 -150.5s-67 -83.333 -111 -115s-92.667 -56 -146 -73s-106.333 -24.833 -159 -23.5
c-76 2 -140.667 18.333 -194 49s-96.333 70.834 -129 120.501s-55 106.5 -67 170.5s-14.667 130 -8 198l5 43c6 48.667 16.667 96 32 142s34.833 89.333 58.5 130s51.334 77.834 83.001 111.501s67.167 62.5 106.5 86.5s82 42.333 128 55s95 18.334 147 17.001
c56 -1.33301 107.667 -12 155 -32s87.833 -47.167 121.5 -81.5s59.5 -75.333 77.5 -123s25.667 -99.834 23 -156.501l-170 1c1.33301 33.333 -2.66699 64.333 -12 93s-23.5 53.834 -42.5 75.501s-42.167 38.834 -69.5 51.501s-58.333 19.667 -93 21
c-55.333 2 -104.166 -8.16699 -146.499 -30.5s-78.5 -52.166 -108.5 -89.499s-54.167 -79.666 -72.5 -126.999s-30.833 -95.333 -37.5 -144l-5 -42c-3.33301 -28.667 -5 -58 -5 -88s2.5 -59.167 7.5 -87.5s12.833 -55.333 23.5 -81s25 -48 43 -67s39.833 -34.5 65.5 -46.5
s56.167 -18.333 91.5 -19zM865.998 1502h231l-302 -266h-150z" />
    <glyph glyph-name="Ccircumflex" unicode="&#x108;" 
d="M1046 440c-13.333 -66 -35.3428 -127.501 -66.0098 -184.501s-68.834 -106.167 -114.501 -147.5s-98 -73.5 -157 -96.5s-123.5 -33.5 -193.5 -31.5c-57.333 1.33301 -108.166 11.5 -152.499 30.5s-82.666 44.333 -114.999 76s-58.833 68.5 -79.5 110.5
s-36.5 86.667 -47.5 134s-17.167 96.166 -18.5 146.499s1.33398 99.833 8.00098 148.5l32 203c8.66699 52.667 21.167 105.334 37.5 158.001s36.666 103.167 60.999 151.5s52.833 93.333 85.5 135s69.834 77.667 111.501 108s87.834 54 138.501 71
s106.334 24.833 167.001 23.5c68.667 -1.33301 128.334 -14.5 179.001 -39.5s93 -58.5 127 -100.5s59.833 -91 77.5 -147s27.834 -116 30.501 -180h-179c-2 40 -7.33301 78.667 -16 116s-22.5 70.666 -41.5 99.999s-43.667 53.166 -74 71.499
s-68.166 28.166 -113.499 29.499c-44 1.33301 -83.833 -5 -119.5 -19s-67.667 -33.167 -96 -57.5s-53 -53.166 -74 -86.499s-39.333 -68.5 -55 -105.5s-28.667 -75 -39 -114s-18.5 -76.5 -24.5 -112.5l-34 -206c-4.66699 -31.333 -8 -65.166 -10 -101.499
s-1.33301 -72.5 2 -108.5s9.83301 -70.833 19.5 -104.5s23.834 -63.667 42.501 -90s42.667 -47.666 72 -63.999s65 -25.166 107 -26.499c48 -2 90.833 5 128.5 21s70.834 38 99.501 66s52.834 61 72.501 99s35.5 78.333 47.5 121zM1123.99 1646l-2 -27l-146 1l-118 150
l-172 -149l-153 -1l2 27l272 238h106z" />
    <glyph glyph-name="ccircumflex" unicode="&#x109;" 
d="M533 129c32.667 -0.666992 64.998 3.82812 96.998 13.4951s61.167 23.667 87.5 42s48.833 40.666 67.5 66.999s31.667 55.833 39 88.5l171 1c-6 -55.333 -24 -105.5 -54 -150.5s-67 -83.333 -111 -115s-92.667 -56 -146 -73s-106.333 -24.833 -159 -23.5
c-76 2 -140.667 18.333 -194 49s-96.333 70.834 -129 120.501s-55 106.5 -67 170.5s-14.667 130 -8 198l5 43c6 48.667 16.667 96 32 142s34.833 89.333 58.5 130s51.334 77.834 83.001 111.501s67.167 62.5 106.5 86.5s82 42.333 128 55s95 18.334 147 17.001
c56 -1.33301 107.667 -12 155 -32s87.833 -47.167 121.5 -81.5s59.5 -75.333 77.5 -123s25.667 -99.834 23 -156.501l-170 1c1.33301 33.333 -2.66699 64.333 -12 93s-23.5 53.834 -42.5 75.501s-42.167 38.834 -69.5 51.501s-58.333 19.667 -93 21
c-55.333 2 -104.166 -8.16699 -146.499 -30.5s-78.5 -52.166 -108.5 -89.499s-54.167 -79.666 -72.5 -126.999s-30.833 -95.333 -37.5 -144l-5 -42c-3.33301 -28.667 -5 -58 -5 -88s2.5 -59.167 7.5 -87.5s12.833 -55.333 23.5 -81s25 -48 43 -67s39.833 -34.5 65.5 -46.5
s56.167 -18.333 91.5 -19zM1042 1303l-2 -27l-146 1l-118 150l-172 -149l-153 -1l2 27l272 238h106z" />
    <glyph glyph-name="uni010A" unicode="&#x10a;" 
d="M1046 440c-13.333 -66 -35.3428 -127.501 -66.0098 -184.501s-68.834 -106.167 -114.501 -147.5s-98 -73.5 -157 -96.5s-123.5 -33.5 -193.5 -31.5c-57.333 1.33301 -108.166 11.5 -152.499 30.5s-82.666 44.333 -114.999 76s-58.833 68.5 -79.5 110.5
s-36.5 86.667 -47.5 134s-17.167 96.166 -18.5 146.499s1.33398 99.833 8.00098 148.5l32 203c8.66699 52.667 21.167 105.334 37.5 158.001s36.666 103.167 60.999 151.5s52.833 93.333 85.5 135s69.834 77.667 111.501 108s87.834 54 138.501 71
s106.334 24.833 167.001 23.5c68.667 -1.33301 128.334 -14.5 179.001 -39.5s93 -58.5 127 -100.5s59.833 -91 77.5 -147s27.834 -116 30.501 -180h-179c-2 40 -7.33301 78.667 -16 116s-22.5 70.666 -41.5 99.999s-43.667 53.166 -74 71.499
s-68.166 28.166 -113.499 29.499c-44 1.33301 -83.833 -5 -119.5 -19s-67.667 -33.167 -96 -57.5s-53 -53.166 -74 -86.499s-39.333 -68.5 -55 -105.5s-28.667 -75 -39 -114s-18.5 -76.5 -24.5 -112.5l-34 -206c-4.66699 -31.333 -8 -65.166 -10 -101.499
s-1.33301 -72.5 2 -108.5s9.83301 -70.833 19.5 -104.5s23.834 -63.667 42.501 -90s42.667 -47.666 72 -63.999s65 -25.166 107 -26.499c48 -2 90.833 5 128.5 21s70.834 38 99.501 66s52.834 61 72.501 99s35.5 78.333 47.5 121zM728.99 1723
c0.666992 33.333 11.333 60.6699 32 82.0029s47.667 32.666 81 33.999c32.667 0.666992 59.5 -9.33301 80.5 -30s31.167 -47.334 30.5 -80.001s-11.5 -59.334 -32.5 -80.001s-47.5 -31.667 -79.5 -33c-16 -0.666992 -30.833 1.5 -44.5 6.5s-25.5 12.333 -35.5 22
s-17.833 21.167 -23.5 34.5s-8.5 28 -8.5 44z" />
    <glyph glyph-name="uni010B" unicode="&#x10b;" 
d="M533 129c32.667 -0.666992 64.998 3.82812 96.998 13.4951s61.167 23.667 87.5 42s48.833 40.666 67.5 66.999s31.667 55.833 39 88.5l171 1c-6 -55.333 -24 -105.5 -54 -150.5s-67 -83.333 -111 -115s-92.667 -56 -146 -73s-106.333 -24.833 -159 -23.5
c-76 2 -140.667 18.333 -194 49s-96.333 70.834 -129 120.501s-55 106.5 -67 170.5s-14.667 130 -8 198l5 43c6 48.667 16.667 96 32 142s34.833 89.333 58.5 130s51.334 77.834 83.001 111.501s67.167 62.5 106.5 86.5s82 42.333 128 55s95 18.334 147 17.001
c56 -1.33301 107.667 -12 155 -32s87.833 -47.167 121.5 -81.5s59.5 -75.333 77.5 -123s25.667 -99.834 23 -156.501l-170 1c1.33301 33.333 -2.66699 64.333 -12 93s-23.5 53.834 -42.5 75.501s-42.167 38.834 -69.5 51.501s-58.333 19.667 -93 21
c-55.333 2 -104.166 -8.16699 -146.499 -30.5s-78.5 -52.166 -108.5 -89.499s-54.167 -79.666 -72.5 -126.999s-30.833 -95.333 -37.5 -144l-5 -42c-3.33301 -28.667 -5 -58 -5 -88s2.5 -59.167 7.5 -87.5s12.833 -55.333 23.5 -81s25 -48 43 -67s39.833 -34.5 65.5 -46.5
s56.167 -18.333 91.5 -19zM646.998 1380c0.666992 33.333 11.333 60.6699 32 82.0029s47.667 32.666 81 33.999c32.667 0.666992 59.5 -9.33301 80.5 -30s31.167 -47.334 30.5 -80.001s-11.5 -59.334 -32.5 -80.001s-47.5 -31.667 -79.5 -33
c-16 -0.666992 -30.833 1.5 -44.5 6.5s-25.5 12.333 -35.5 22s-17.833 21.167 -23.5 34.5s-8.5 28 -8.5 44z" />
    <glyph glyph-name="Ccaron" unicode="&#x10c;" 
d="M1046 440c-13.333 -66 -35.3428 -127.501 -66.0098 -184.501s-68.834 -106.167 -114.501 -147.5s-98 -73.5 -157 -96.5s-123.5 -33.5 -193.5 -31.5c-57.333 1.33301 -108.166 11.5 -152.499 30.5s-82.666 44.333 -114.999 76s-58.833 68.5 -79.5 110.5
s-36.5 86.667 -47.5 134s-17.167 96.166 -18.5 146.499s1.33398 99.833 8.00098 148.5l32 203c8.66699 52.667 21.167 105.334 37.5 158.001s36.666 103.167 60.999 151.5s52.833 93.333 85.5 135s69.834 77.667 111.501 108s87.834 54 138.501 71
s106.334 24.833 167.001 23.5c68.667 -1.33301 128.334 -14.5 179.001 -39.5s93 -58.5 127 -100.5s59.833 -91 77.5 -147s27.834 -116 30.501 -180h-179c-2 40 -7.33301 78.667 -16 116s-22.5 70.666 -41.5 99.999s-43.667 53.166 -74 71.499
s-68.166 28.166 -113.499 29.499c-44 1.33301 -83.833 -5 -119.5 -19s-67.667 -33.167 -96 -57.5s-53 -53.166 -74 -86.499s-39.333 -68.5 -55 -105.5s-28.667 -75 -39 -114s-18.5 -76.5 -24.5 -112.5l-34 -206c-4.66699 -31.333 -8 -65.166 -10 -101.499
s-1.33301 -72.5 2 -108.5s9.83301 -70.833 19.5 -104.5s23.834 -63.667 42.501 -90s42.667 -47.666 72 -63.999s65 -25.166 107 -26.499c48 -2 90.833 5 128.5 21s70.834 38 99.501 66s52.834 61 72.501 99s35.5 78.333 47.5 121zM833.99 1735l174 150l161 2l-1 -20
l-281 -247h-112l-210 244l2 23l149 -1z" />
    <glyph glyph-name="ccaron" unicode="&#x10d;" 
d="M533 129c32.667 -0.666992 64.998 3.82812 96.998 13.4951s61.167 23.667 87.5 42s48.833 40.666 67.5 66.999s31.667 55.833 39 88.5l171 1c-6 -55.333 -24 -105.5 -54 -150.5s-67 -83.333 -111 -115s-92.667 -56 -146 -73s-106.333 -24.833 -159 -23.5
c-76 2 -140.667 18.333 -194 49s-96.333 70.834 -129 120.501s-55 106.5 -67 170.5s-14.667 130 -8 198l5 43c6 48.667 16.667 96 32 142s34.833 89.333 58.5 130s51.334 77.834 83.001 111.501s67.167 62.5 106.5 86.5s82 42.333 128 55s95 18.334 147 17.001
c56 -1.33301 107.667 -12 155 -32s87.833 -47.167 121.5 -81.5s59.5 -75.333 77.5 -123s25.667 -99.834 23 -156.501l-170 1c1.33301 33.333 -2.66699 64.333 -12 93s-23.5 53.834 -42.5 75.501s-42.167 38.834 -69.5 51.501s-58.333 19.667 -93 21
c-55.333 2 -104.166 -8.16699 -146.499 -30.5s-78.5 -52.166 -108.5 -89.499s-54.167 -79.666 -72.5 -126.999s-30.833 -95.333 -37.5 -144l-5 -42c-3.33301 -28.667 -5 -58 -5 -88s2.5 -59.167 7.5 -87.5s12.833 -55.333 23.5 -81s25 -48 43 -67s39.833 -34.5 65.5 -46.5
s56.167 -18.333 91.5 -19zM751.998 1392l174 150l161 2l-1 -20l-281 -247h-112l-210 244l2 23l149 -1z" />
    <glyph glyph-name="Dcaron" unicode="&#x10e;" 
d="M46 0l252 1456l316 -1c96 -2 179.167 -21.5 249.5 -58.5s127.333 -86 171 -147s73.667 -131.833 90 -212.5s18.833 -166 7.5 -256l-15 -107c-14.667 -96 -42.167 -185 -82.5 -267s-91.833 -153.167 -154.5 -213.5s-135.667 -107.666 -219 -141.999
s-175.333 -51.5 -276 -51.5h-339zM456 1304l-199.999 -1153l133 -1c78 0.666992 148 14.667 210 42s116 64.5 162 111.5s83.667 102.333 113 166s50 131.834 62 204.501l16 110c8.66699 64 9.5 126.5 2.5 187.5s-23.833 115.667 -50.5 164s-63.834 87.666 -111.501 117.999
s-108.167 46.833 -181.5 49.5zM741.001 1714l174 150l161 2l-1 -20l-281 -247h-112l-210 244l2 23l149 -1z" />
    <glyph glyph-name="dcaron" unicode="&#x10f;" horiz-adv-x="1352" 
d="M126 543c5.33301 44.667 14.333 89.667 27 135s29 89 49 131s43.833 81 71.5 117s59 67.333 94 94s74.167 47.334 117.5 62.001s90.666 21.334 141.999 20.001c54 -1.33301 104.333 -12 151 -32s87 -52 121 -96l104 562h181l-267 -1536h-164l19 114
c-42 -44.667 -88.833 -78.5 -140.5 -101.5s-108.5 -33.833 -170.5 -32.5c-46.667 1.33301 -88.167 10.166 -124.5 26.499s-67.666 38.166 -93.999 65.499s-48 58.833 -65 94.5s-30.167 73.334 -39.5 113.001s-15 80.167 -17 121.5s-1 81.666 3 120.999zM304 522
c-3.33301 -26.667 -4.99805 -54.668 -4.99805 -84.001s2.16699 -58.166 6.5 -86.499s11.166 -55.166 20.499 -80.499s22.333 -47.833 39 -67.5s37.334 -35.5 62.001 -47.5s54 -18.333 88 -19c59.333 -2 111.166 11.667 155.499 41s83.166 67 116.499 113l87 505
c-19.333 46 -46.833 82.167 -82.5 108.5s-79.167 40.166 -130.5 41.499c-56 2 -104.667 -9 -146 -33s-76.333 -55.5 -105 -94.5s-51.5 -82.667 -68.5 -131s-28.5 -96.5 -34.5 -144.5zM1607 1411c-12 -76 -37.835 -146.667 -77.502 -212s-89.167 -121.666 -148.5 -168.999
l-95 74c34.667 46 64.334 93.667 89.001 143s42.334 102.666 53.001 159.999l26 150h177z" />
    <glyph glyph-name="Dcroat" unicode="&#x110;" horiz-adv-x="1232" 
d="M76 0l115 665.999h-221l27 151h220l111 639l316 -1c96 -2 179.167 -21.5 249.5 -58.5s127.333 -86 171 -147s73.667 -131.833 90 -212.5s18.833 -166 7.5 -256l-15 -107c-14.667 -96 -42.167 -185 -82.5 -267s-91.833 -153.167 -154.5 -213.5
s-135.667 -107.666 -219 -141.999s-175.333 -51.5 -276 -51.5h-339zM589 665.999h-213.999l-89 -515l133 -1c78 0.666992 148 14.667 210 42s116 64.5 162 111.5s83.667 102.333 113 166s50 131.834 62 204.501l16 110c8.66699 64 9.5 126.5 2.5 187.5
s-23.833 115.667 -50.5 164s-63.834 87.666 -111.501 117.999s-108.167 46.833 -181.5 49.5l-155 1l-85 -487h215z" />
    <glyph glyph-name="dcroat" unicode="&#x111;" horiz-adv-x="1232" 
d="M1322 1234h-191l-214 -1234h-164l19 114c-42 -44.667 -88.833 -78.5 -140.5 -101.5s-108.5 -33.833 -170.5 -32.5c-46.667 1.33301 -88.167 10.166 -124.5 26.499s-67.666 38.166 -93.999 65.499s-48 58.833 -65 94.5s-30.167 73.334 -39.5 113.001s-15 80.167 -17 121.5
s-1 81.666 3 120.999l2 21c5.33301 44.667 14.333 89.667 27 135s29 89 49 131s43.833 81 71.5 117s59 67.333 94 94s74.167 47.334 117.5 62.001s90.666 21.334 141.999 20.001c54 -1.33301 104.333 -12 151 -32s87 -52 121 -96l48 260h-244l27 151h245l28 151h181
l-26 -151h191zM304 522c-3.33301 -26.667 -4.99805 -54.668 -4.99805 -84.001s2.16699 -58.166 6.5 -86.499s11.166 -55.166 20.499 -80.499s22.333 -47.833 39 -67.5s37.334 -35.5 62.001 -47.5s54 -18.333 88 -19c59.333 -2 111.166 11.667 155.499 41
s83.166 67 116.499 113l87 505c-19.333 46 -46.833 82.167 -82.5 108.5s-79.167 40.166 -130.5 41.499c-56 2 -104.667 -9 -146 -33s-76.333 -55.5 -105 -94.5s-51.5 -82.667 -68.5 -131s-28.5 -96.5 -34.5 -144.5z" />
    <glyph glyph-name="Emacron" unicode="&#x112;" 
d="M959 673h-589l-90 -516h688l-28 -157h-868l253 1456h860l-28 -158h-679l-81 -468h590zM1131 1643h-694l23 143h694z" />
    <glyph glyph-name="emacron" unicode="&#x113;" 
d="M540 -20c-73.333 1.33301 -137.827 16.3301 -193.494 44.9971s-101.5 66.667 -137.5 114s-61.833 102 -77.5 164s-20.5 127.667 -14.5 197l5 43c5.33301 47.333 15.666 94.166 30.999 140.499s35.166 90.5 59.499 132.5s52.666 80.667 84.999 116s68.333 65.833 108 91.5
s82.667 45.5 129 59.5s95.166 20.333 146.499 19c74.667 -2 137.667 -18.167 189 -48.5s92 -70.166 122 -119.499s50 -105.5 60 -168.5s10.667 -127.833 2 -194.5l-13 -83h-745c-5.33301 -44 -3.83301 -87 4.5 -129s23.166 -79.667 44.499 -113s49.666 -60.333 84.999 -81
s77.333 -31.667 126 -33c62.667 -2 120.5 10.333 173.5 37s100.833 62 143.5 106l104 -88c-24.667 -34.667 -53.5 -65.167 -86.5 -91.5s-68.5 -48.166 -106.5 -65.499s-77.667 -30.166 -119 -38.499s-83 -12.166 -125 -11.499zM672.006 949.997
c-46.667 2 -88.667 -5.83398 -126 -23.501s-70.5 -41.167 -99.5 -70.5s-54.167 -63 -75.5 -101s-39 -76.333 -53 -115l564 -2l4 18c6 36.667 5.66699 72.334 -1 107.001s-19.334 65.667 -38.001 93s-42.667 49.5 -72 66.5s-63.666 26.167 -102.999 27.5zM1077.01 1322h-694
l23 143h694z" />
    <glyph glyph-name="Ebreve" unicode="&#x114;" 
d="M959 673h-589l-90 -516h688l-28 -157h-868l253 1456h860l-28 -158h-679l-81 -468h590zM1101 1866c-4 -42 -14.499 -79.667 -31.499 -113s-39.167 -61.5 -66.5 -84.5s-58.833 -40.5 -94.5 -52.5s-74.5 -17.667 -116.5 -17c-40.667 0.666992 -77.5 7.5 -110.5 20.5
s-61.333 31 -85 54s-41.834 50.833 -54.501 83.5s-18.667 69.334 -18 110.001l146 -1c-0.666992 -21.333 1 -41 5 -59s11 -33.667 21 -47s22.833 -23.833 38.5 -31.5s35.167 -11.5 58.5 -11.5s44.166 3.66699 62.499 11s34.333 17.666 48 30.999s24.834 29 33.501 47
s15 37.667 19 59z" />
    <glyph glyph-name="ebreve" unicode="&#x115;" 
d="M540 -20c-73.333 1.33301 -137.827 16.3301 -193.494 44.9971s-101.5 66.667 -137.5 114s-61.833 102 -77.5 164s-20.5 127.667 -14.5 197l5 43c5.33301 47.333 15.666 94.166 30.999 140.499s35.166 90.5 59.499 132.5s52.666 80.667 84.999 116s68.333 65.833 108 91.5
s82.667 45.5 129 59.5s95.166 20.333 146.499 19c74.667 -2 137.667 -18.167 189 -48.5s92 -70.166 122 -119.499s50 -105.5 60 -168.5s10.667 -127.833 2 -194.5l-13 -83h-745c-5.33301 -44 -3.83301 -87 4.5 -129s23.166 -79.667 44.499 -113s49.666 -60.333 84.999 -81
s77.333 -31.667 126 -33c62.667 -2 120.5 10.333 173.5 37s100.833 62 143.5 106l104 -88c-24.667 -34.667 -53.5 -65.167 -86.5 -91.5s-68.5 -48.166 -106.5 -65.499s-77.667 -30.166 -119 -38.499s-83 -12.166 -125 -11.499zM672.006 949.997
c-46.667 2 -88.667 -5.83398 -126 -23.501s-70.5 -41.167 -99.5 -70.5s-54.167 -63 -75.5 -101s-39 -76.333 -53 -115l564 -2l4 18c6 36.667 5.66699 72.334 -1 107.001s-19.334 65.667 -38.001 93s-42.667 49.5 -72 66.5s-63.666 26.167 -102.999 27.5zM1047.01 1545
c-4 -42 -14.499 -79.667 -31.499 -113s-39.167 -61.5 -66.5 -84.5s-58.833 -40.5 -94.5 -52.5s-74.5 -17.667 -116.5 -17c-40.667 0.666992 -77.5 7.5 -110.5 20.5s-61.333 31 -85 54s-41.834 50.833 -54.501 83.5s-18.667 69.334 -18 110.001l146 -1
c-0.666992 -21.333 1 -41 5 -59s11 -33.667 21 -47s22.833 -23.833 38.5 -31.5s35.167 -11.5 58.5 -11.5s44.166 3.66699 62.499 11s34.333 17.666 48 30.999s24.834 29 33.501 47s15 37.667 19 59z" />
    <glyph glyph-name="Edotaccent" unicode="&#x116;" 
d="M959 673h-589l-90 -516h688l-28 -157h-868l253 1456h860l-28 -158h-679l-81 -468h590zM679 1702c0.666992 33.333 11.333 60.6699 32 82.0029s47.667 32.666 81 33.999c32.667 0.666992 59.5 -9.33301 80.5 -30s31.167 -47.334 30.5 -80.001s-11.5 -59.334 -32.5 -80.001
s-47.5 -31.667 -79.5 -33c-16 -0.666992 -30.833 1.5 -44.5 6.5s-25.5 12.333 -35.5 22s-17.833 21.167 -23.5 34.5s-8.5 28 -8.5 44z" />
    <glyph glyph-name="edotaccent" unicode="&#x117;" 
d="M540 -20c-73.333 1.33301 -137.827 16.3301 -193.494 44.9971s-101.5 66.667 -137.5 114s-61.833 102 -77.5 164s-20.5 127.667 -14.5 197l5 43c5.33301 47.333 15.666 94.166 30.999 140.499s35.166 90.5 59.499 132.5s52.666 80.667 84.999 116s68.333 65.833 108 91.5
s82.667 45.5 129 59.5s95.166 20.333 146.499 19c74.667 -2 137.667 -18.167 189 -48.5s92 -70.166 122 -119.499s50 -105.5 60 -168.5s10.667 -127.833 2 -194.5l-13 -83h-745c-5.33301 -44 -3.83301 -87 4.5 -129s23.166 -79.667 44.499 -113s49.666 -60.333 84.999 -81
s77.333 -31.667 126 -33c62.667 -2 120.5 10.333 173.5 37s100.833 62 143.5 106l104 -88c-24.667 -34.667 -53.5 -65.167 -86.5 -91.5s-68.5 -48.166 -106.5 -65.499s-77.667 -30.166 -119 -38.499s-83 -12.166 -125 -11.499zM672.006 949.997
c-46.667 2 -88.667 -5.83398 -126 -23.501s-70.5 -41.167 -99.5 -70.5s-54.167 -63 -75.5 -101s-39 -76.333 -53 -115l564 -2l4 18c6 36.667 5.66699 72.334 -1 107.001s-19.334 65.667 -38.001 93s-42.667 49.5 -72 66.5s-63.666 26.167 -102.999 27.5zM625.006 1381
c0.666992 33.333 11.333 60.6699 32 82.0029s47.667 32.666 81 33.999c32.667 0.666992 59.5 -9.33301 80.5 -30s31.167 -47.334 30.5 -80.001s-11.5 -59.334 -32.5 -80.001s-47.5 -31.667 -79.5 -33c-16 -0.666992 -30.833 1.5 -44.5 6.5s-25.5 12.333 -35.5 22
s-17.833 21.167 -23.5 34.5s-8.5 28 -8.5 44z" />
    <glyph glyph-name="Eogonek" unicode="&#x118;" 
d="M959 673h-589.003l-90 -516h688l-28 -157h-86l5 -3c-21.333 -11.333 -43 -24.5 -65 -39.5s-42.333 -31.667 -61 -50s-34.5 -38.666 -47.5 -60.999s-20.833 -46.5 -23.5 -72.5c-4 -44 15 -66.333 57 -67c17.333 -1.33301 34.333 0.666992 51 6s32.667 11.666 48 18.999
l21 -123c-25.333 -14.667 -52.166 -25.334 -80.499 -32.001s-57.166 -9.66699 -86.499 -9c-54 0.666992 -96.333 17.667 -127 51s-45.334 77 -44.001 131c0.666992 26.667 5.83398 52 15.501 76s22.334 46.5 38.001 67.5s33.667 40.333 54 58s41.5 33.834 63.5 48.501h-600
l253 1456h860l-28 -158h-679l-81 -468h590z" />
    <glyph glyph-name="eogonek" unicode="&#x119;" 
d="M977 187c-32 -44 -69.8271 -81.166 -113.494 -111.499s-90.5 -53.5 -140.5 -69.5c-20 -11.333 -40.333 -24.166 -61 -38.499s-39.667 -30.333 -57 -48s-31.833 -37.167 -43.5 -58.5s-18.5 -44.333 -20.5 -69c-4 -44 15 -66.333 57 -67
c17.333 -1.33301 34.333 0.666992 51 6s32.667 11.666 48 18.999l21 -123c-25.333 -14.667 -52.166 -25.334 -80.499 -32.001s-57.166 -9.66699 -86.499 -9c-54 0.666992 -96.333 17.667 -127 51s-45.334 77 -44.001 131c1.33301 44 13.666 83.667 36.999 119s52 67 86 95
c-67.333 6 -126.5 24 -177.5 54s-93 68.333 -126 115s-56.5 100 -70.5 160s-18 123 -12 189l5 43c5.33301 47.333 15.666 94.166 30.999 140.499s35.166 90.5 59.499 132.5s52.666 80.667 84.999 116s68.333 65.833 108 91.5s82.667 45.5 129 59.5s95.166 20.333 146.499 19
c74.667 -2 137.667 -18.167 189 -48.5s92 -70.166 122 -119.499s50 -105.5 60 -168.5s10.667 -127.833 2 -194.5l-13 -83h-745c-5.33301 -44 -3.83301 -87 4.5 -129s23.166 -79.667 44.499 -113s49.666 -60.333 84.999 -81s77.333 -31.667 126 -33
c62.667 -2 120.5 10.333 173.5 37s100.833 62 143.5 106zM672.006 950.001c-46.667 2 -88.667 -5.83398 -126 -23.501s-70.5 -41.167 -99.5 -70.5s-54.167 -63 -75.5 -101s-39 -76.333 -53 -115l564 -2l4 18c6 36.667 5.66699 72.334 -1 107.001s-19.334 65.667 -38.001 93
s-42.667 49.5 -72 66.5s-63.666 26.167 -102.999 27.5z" />
    <glyph glyph-name="Ecaron" unicode="&#x11a;" 
d="M959 673h-589l-90 -516h688l-28 -157h-868l253 1456h860l-28 -158h-679l-81 -468h590zM784 1714l174 150l161 2l-1 -20l-281 -247h-112l-210 244l2 23l149 -1z" />
    <glyph glyph-name="ecaron" unicode="&#x11b;" 
d="M540 -20c-73.333 1.33301 -137.827 16.3301 -193.494 44.9971s-101.5 66.667 -137.5 114s-61.833 102 -77.5 164s-20.5 127.667 -14.5 197l5 43c5.33301 47.333 15.666 94.166 30.999 140.499s35.166 90.5 59.499 132.5s52.666 80.667 84.999 116s68.333 65.833 108 91.5
s82.667 45.5 129 59.5s95.166 20.333 146.499 19c74.667 -2 137.667 -18.167 189 -48.5s92 -70.166 122 -119.499s50 -105.5 60 -168.5s10.667 -127.833 2 -194.5l-13 -83h-745c-5.33301 -44 -3.83301 -87 4.5 -129s23.166 -79.667 44.499 -113s49.666 -60.333 84.999 -81
s77.333 -31.667 126 -33c62.667 -2 120.5 10.333 173.5 37s100.833 62 143.5 106l104 -88c-24.667 -34.667 -53.5 -65.167 -86.5 -91.5s-68.5 -48.166 -106.5 -65.499s-77.667 -30.166 -119 -38.499s-83 -12.166 -125 -11.499zM672.006 949.997
c-46.667 2 -88.667 -5.83398 -126 -23.501s-70.5 -41.167 -99.5 -70.5s-54.167 -63 -75.5 -101s-39 -76.333 -53 -115l564 -2l4 18c6 36.667 5.66699 72.334 -1 107.001s-19.334 65.667 -38.001 93s-42.667 49.5 -72 66.5s-63.666 26.167 -102.999 27.5zM730.006 1393
l174 150l161 2l-1 -20l-281 -247h-112l-210 244l2 23l149 -1z" />
    <glyph glyph-name="Gcircumflex" unicode="&#x11c;" 
d="M1020 191c-63.333 -69.333 -136.833 -122.507 -220.5 -159.507s-173.167 -53.833 -268.5 -50.5c-57.333 2 -108.666 12.833 -153.999 32.5s-84.833 45.667 -118.5 78s-61.834 70 -84.501 113s-40.167 88.667 -52.5 137s-19.666 98.333 -21.999 150
s-0.166016 102.167 6.50098 151.5l26 169c8.66699 52.667 21.334 105.834 38.001 159.501s37.5 105.334 62.5 155.001s54.167 96 87.5 139s71.166 80.333 113.499 112s89.166 56.334 140.499 74.001s107.666 25.834 168.999 24.501
c65.333 -1.33301 123.5 -13.666 174.5 -36.999s94 -55 129 -95s61.833 -87 80.5 -141s28.667 -112.333 30 -175h-177c-2.66699 38 -9 74.333 -19 109s-24.667 65.334 -44 92.001s-44.166 47.834 -74.499 63.501s-66.833 24.167 -109.5 25.5
c-44.667 1.33301 -85 -5.16699 -121 -19.5s-68.333 -34 -97 -59s-54.167 -54.5 -76.5 -88.5s-41.5 -69.833 -57.5 -107.5s-29.5 -76.167 -40.5 -115.5s-19.5 -77.333 -25.5 -114l-28 -172c-4.66699 -32.667 -7.33398 -67.5 -8.00098 -104.5s1.5 -73.667 6.5 -110
s13.333 -71.333 25 -105s27.667 -63.667 48 -90s45.333 -48 75 -65s65.5 -26.5 107.5 -28.5c56.667 -3.33301 111.5 2.5 164.5 17.5s99.833 43.5 140.5 85.5l57 327h-287l27 156h459zM1097 1645.99l-2 -27l-146 1l-118 150l-172 -149l-153 -1l2 27l272 238h106z" />
    <glyph glyph-name="gcircumflex" unicode="&#x11d;" 
d="M127 543c6 44.667 15.1621 89.8281 27.4951 135.495s28.5 89.5 48.5 131.5s43.5 81 70.5 117s58.167 67.333 93.5 94s74.5 47.334 117.5 62.001s90.5 21.334 142.5 20.001c56.667 -1.33301 109.167 -13.166 157.5 -35.499s88.5 -57.166 120.5 -104.499l35 119h166
l-180 -1059c-9.33301 -67.333 -28.166 -129 -56.499 -185s-64.666 -103.833 -108.999 -143.5s-95.666 -70.334 -153.999 -92.001s-122.5 -31.5 -192.5 -29.5c-36 0.666992 -71.667 5.33398 -107 14.001s-69 21 -101 37s-61.667 35.5 -89 58.5s-51.333 49.5 -72 79.5l103 111
c31.333 -44.667 68.5 -80.334 111.5 -107.001s92.5 -40.667 148.5 -42c46 -1.33301 87.833 4.83398 125.5 18.501s70.667 33.167 99 58.5s52 56 71 92s32.833 75.667 41.5 119l20 95c-42 -42 -88 -74 -138 -96s-105.333 -32.333 -166 -31
c-47.333 1.33301 -89.166 10.166 -125.499 26.499s-67.666 38 -93.999 65s-48 58.333 -65 94s-30 73.334 -39 113.001s-14.5 80.334 -16.5 122.001s-0.666992 82.167 4 121.5zM304.995 521.994c-3.33301 -26.667 -4.99902 -54.667 -4.99902 -84s2 -58 6 -86
s10.833 -54.833 20.5 -80.5s22.834 -48.334 39.501 -68.001s37.167 -35.5 61.5 -47.5s53.833 -18.667 88.5 -20c60 -1.33301 112.167 12.834 156.5 42.501s83.166 68.167 116.499 115.5l85 499c-18.667 47.333 -45.834 84.333 -81.501 111s-79.5 40.667 -131.5 42
c-56 2 -104.667 -9 -146 -33s-76.166 -55.5 -104.499 -94.5s-50.833 -82.667 -67.5 -131s-28.334 -96.5 -35.001 -144.5zM1003 1302.99l-2 -27l-146 1l-118 150l-172 -149l-153 -1l2 27l272 238h106z" />
    <glyph glyph-name="Gbreve" unicode="&#x11e;" 
d="M1020 191c-63.333 -69.333 -136.833 -122.507 -220.5 -159.507s-173.167 -53.833 -268.5 -50.5c-57.333 2 -108.666 12.833 -153.999 32.5s-84.833 45.667 -118.5 78s-61.834 70 -84.501 113s-40.167 88.667 -52.5 137s-19.666 98.333 -21.999 150
s-0.166016 102.167 6.50098 151.5l26 169c8.66699 52.667 21.334 105.834 38.001 159.501s37.5 105.334 62.5 155.001s54.167 96 87.5 139s71.166 80.333 113.499 112s89.166 56.334 140.499 74.001s107.666 25.834 168.999 24.501
c65.333 -1.33301 123.5 -13.666 174.5 -36.999s94 -55 129 -95s61.833 -87 80.5 -141s28.667 -112.333 30 -175h-177c-2.66699 38 -9 74.333 -19 109s-24.667 65.334 -44 92.001s-44.166 47.834 -74.499 63.501s-66.833 24.167 -109.5 25.5
c-44.667 1.33301 -85 -5.16699 -121 -19.5s-68.333 -34 -97 -59s-54.167 -54.5 -76.5 -88.5s-41.5 -69.833 -57.5 -107.5s-29.5 -76.167 -40.5 -115.5s-19.5 -77.333 -25.5 -114l-28 -172c-4.66699 -32.667 -7.33398 -67.5 -8.00098 -104.5s1.5 -73.667 6.5 -110
s13.333 -71.333 25 -105s27.667 -63.667 48 -90s45.333 -48 75 -65s65.5 -26.5 107.5 -28.5c56.667 -3.33301 111.5 2.5 164.5 17.5s99.833 43.5 140.5 85.5l57 327h-287l27 156h459zM1124 1886.99c-4 -42 -14.499 -79.667 -31.499 -113s-39.167 -61.5 -66.5 -84.5
s-58.833 -40.5 -94.5 -52.5s-74.5 -17.667 -116.5 -17c-40.667 0.666992 -77.5 7.5 -110.5 20.5s-61.333 31 -85 54s-41.834 50.833 -54.501 83.5s-18.667 69.334 -18 110.001l146 -1c-0.666992 -21.333 1 -41 5 -59s11 -33.667 21 -47s22.833 -23.833 38.5 -31.5
s35.167 -11.5 58.5 -11.5s44.166 3.66699 62.499 11s34.333 17.666 48 30.999s24.834 29 33.501 47s15 37.667 19 59z" />
    <glyph glyph-name="gbreve" unicode="&#x11f;" 
d="M127 543c6 44.667 15.1621 89.8281 27.4951 135.495s28.5 89.5 48.5 131.5s43.5 81 70.5 117s58.167 67.333 93.5 94s74.5 47.334 117.5 62.001s90.5 21.334 142.5 20.001c56.667 -1.33301 109.167 -13.166 157.5 -35.499s88.5 -57.166 120.5 -104.499l35 119h166
l-180 -1059c-9.33301 -67.333 -28.166 -129 -56.499 -185s-64.666 -103.833 -108.999 -143.5s-95.666 -70.334 -153.999 -92.001s-122.5 -31.5 -192.5 -29.5c-36 0.666992 -71.667 5.33398 -107 14.001s-69 21 -101 37s-61.667 35.5 -89 58.5s-51.333 49.5 -72 79.5l103 111
c31.333 -44.667 68.5 -80.334 111.5 -107.001s92.5 -40.667 148.5 -42c46 -1.33301 87.833 4.83398 125.5 18.501s70.667 33.167 99 58.5s52 56 71 92s32.833 75.667 41.5 119l20 95c-42 -42 -88 -74 -138 -96s-105.333 -32.333 -166 -31
c-47.333 1.33301 -89.166 10.166 -125.499 26.499s-67.666 38 -93.999 65s-48 58.333 -65 94s-30 73.334 -39 113.001s-14.5 80.334 -16.5 122.001s-0.666992 82.167 4 121.5zM304.995 521.994c-3.33301 -26.667 -4.99902 -54.667 -4.99902 -84s2 -58 6 -86
s10.833 -54.833 20.5 -80.5s22.834 -48.334 39.501 -68.001s37.167 -35.5 61.5 -47.5s53.833 -18.667 88.5 -20c60 -1.33301 112.167 12.834 156.5 42.501s83.166 68.167 116.499 115.5l85 499c-18.667 47.333 -45.834 84.333 -81.501 111s-79.5 40.667 -131.5 42
c-56 2 -104.667 -9 -146 -33s-76.166 -55.5 -104.499 -94.5s-50.833 -82.667 -67.5 -131s-28.334 -96.5 -35.001 -144.5zM1030 1543.99c-4 -42 -14.499 -79.667 -31.499 -113s-39.167 -61.5 -66.5 -84.5s-58.833 -40.5 -94.5 -52.5s-74.5 -17.667 -116.5 -17
c-40.667 0.666992 -77.5 7.5 -110.5 20.5s-61.333 31 -85 54s-41.834 50.833 -54.501 83.5s-18.667 69.334 -18 110.001l146 -1c-0.666992 -21.333 1 -41 5 -59s11 -33.667 21 -47s22.833 -23.833 38.5 -31.5s35.167 -11.5 58.5 -11.5s44.166 3.66699 62.499 11
s34.333 17.666 48 30.999s24.834 29 33.501 47s15 37.667 19 59z" />
    <glyph glyph-name="uni0120" unicode="&#x120;" 
d="M1020 191c-63.333 -69.333 -136.833 -122.507 -220.5 -159.507s-173.167 -53.833 -268.5 -50.5c-57.333 2 -108.666 12.833 -153.999 32.5s-84.833 45.667 -118.5 78s-61.834 70 -84.501 113s-40.167 88.667 -52.5 137s-19.666 98.333 -21.999 150
s-0.166016 102.167 6.50098 151.5l26 169c8.66699 52.667 21.334 105.834 38.001 159.501s37.5 105.334 62.5 155.001s54.167 96 87.5 139s71.166 80.333 113.499 112s89.166 56.334 140.499 74.001s107.666 25.834 168.999 24.501
c65.333 -1.33301 123.5 -13.666 174.5 -36.999s94 -55 129 -95s61.833 -87 80.5 -141s28.667 -112.333 30 -175h-177c-2.66699 38 -9 74.333 -19 109s-24.667 65.334 -44 92.001s-44.166 47.834 -74.499 63.501s-66.833 24.167 -109.5 25.5
c-44.667 1.33301 -85 -5.16699 -121 -19.5s-68.333 -34 -97 -59s-54.167 -54.5 -76.5 -88.5s-41.5 -69.833 -57.5 -107.5s-29.5 -76.167 -40.5 -115.5s-19.5 -77.333 -25.5 -114l-28 -172c-4.66699 -32.667 -7.33398 -67.5 -8.00098 -104.5s1.5 -73.667 6.5 -110
s13.333 -71.333 25 -105s27.667 -63.667 48 -90s45.333 -48 75 -65s65.5 -26.5 107.5 -28.5c56.667 -3.33301 111.5 2.5 164.5 17.5s99.833 43.5 140.5 85.5l57 327h-287l27 156h459zM702 1722.99c0.666992 33.333 11.333 60.6699 32 82.0029s47.667 32.666 81 33.999
c32.667 0.666992 59.5 -9.33301 80.5 -30s31.167 -47.334 30.5 -80.001s-11.5 -59.334 -32.5 -80.001s-47.5 -31.667 -79.5 -33c-16 -0.666992 -30.833 1.5 -44.5 6.5s-25.5 12.333 -35.5 22s-17.833 21.167 -23.5 34.5s-8.5 28 -8.5 44z" />
    <glyph glyph-name="uni0121" unicode="&#x121;" 
d="M127 543c6 44.667 15.1621 89.8281 27.4951 135.495s28.5 89.5 48.5 131.5s43.5 81 70.5 117s58.167 67.333 93.5 94s74.5 47.334 117.5 62.001s90.5 21.334 142.5 20.001c56.667 -1.33301 109.167 -13.166 157.5 -35.499s88.5 -57.166 120.5 -104.499l35 119h166
l-180 -1059c-9.33301 -67.333 -28.166 -129 -56.499 -185s-64.666 -103.833 -108.999 -143.5s-95.666 -70.334 -153.999 -92.001s-122.5 -31.5 -192.5 -29.5c-36 0.666992 -71.667 5.33398 -107 14.001s-69 21 -101 37s-61.667 35.5 -89 58.5s-51.333 49.5 -72 79.5l103 111
c31.333 -44.667 68.5 -80.334 111.5 -107.001s92.5 -40.667 148.5 -42c46 -1.33301 87.833 4.83398 125.5 18.501s70.667 33.167 99 58.5s52 56 71 92s32.833 75.667 41.5 119l20 95c-42 -42 -88 -74 -138 -96s-105.333 -32.333 -166 -31
c-47.333 1.33301 -89.166 10.166 -125.499 26.499s-67.666 38 -93.999 65s-48 58.333 -65 94s-30 73.334 -39 113.001s-14.5 80.334 -16.5 122.001s-0.666992 82.167 4 121.5zM304.995 521.994c-3.33301 -26.667 -4.99902 -54.667 -4.99902 -84s2 -58 6 -86
s10.833 -54.833 20.5 -80.5s22.834 -48.334 39.501 -68.001s37.167 -35.5 61.5 -47.5s53.833 -18.667 88.5 -20c60 -1.33301 112.167 12.834 156.5 42.501s83.166 68.167 116.499 115.5l85 499c-18.667 47.333 -45.834 84.333 -81.501 111s-79.5 40.667 -131.5 42
c-56 2 -104.667 -9 -146 -33s-76.166 -55.5 -104.499 -94.5s-50.833 -82.667 -67.5 -131s-28.334 -96.5 -35.001 -144.5zM608.996 1379.99c0.666992 33.333 11.333 60.6699 32 82.0029s47.667 32.666 81 33.999c32.667 0.666992 59.5 -9.33301 80.5 -30
s31.167 -47.334 30.5 -80.001s-11.5 -59.334 -32.5 -80.001s-47.5 -31.667 -79.5 -33c-16 -0.666992 -30.833 1.5 -44.5 6.5s-25.5 12.333 -35.5 22s-17.833 21.167 -23.5 34.5s-8.5 28 -8.5 44z" />
    <glyph glyph-name="Gcommaaccent" unicode="&#x122;" 
d="M1020 191c-63.333 -69.333 -136.833 -122.507 -220.5 -159.507s-173.167 -53.833 -268.5 -50.5c-57.333 2 -108.666 12.833 -153.999 32.5s-84.833 45.667 -118.5 78s-61.834 70 -84.501 113s-40.167 88.667 -52.5 137s-19.666 98.333 -21.999 150
s-0.166016 102.167 6.50098 151.5l26 169c8.66699 52.667 21.334 105.834 38.001 159.501s37.5 105.334 62.5 155.001s54.167 96 87.5 139s71.166 80.333 113.499 112s89.166 56.334 140.499 74.001s107.666 25.834 168.999 24.501
c65.333 -1.33301 123.5 -13.666 174.5 -36.999s94 -55 129 -95s61.833 -87 80.5 -141s28.667 -112.333 30 -175h-177c-2.66699 38 -9 74.333 -19 109s-24.667 65.334 -44 92.001s-44.166 47.834 -74.499 63.501s-66.833 24.167 -109.5 25.5
c-44.667 1.33301 -85 -5.16699 -121 -19.5s-68.333 -34 -97 -59s-54.167 -54.5 -76.5 -88.5s-41.5 -69.833 -57.5 -107.5s-29.5 -76.167 -40.5 -115.5s-19.5 -77.333 -25.5 -114l-28 -172c-4.66699 -32.667 -7.33398 -67.5 -8.00098 -104.5s1.5 -73.667 6.5 -110
s13.333 -71.333 25 -105s27.667 -63.667 48 -90s45.333 -48 75 -65s65.5 -26.5 107.5 -28.5c56.667 -3.33301 111.5 2.5 164.5 17.5s99.833 43.5 140.5 85.5l57 327h-287l27 156h459zM581 -135.007c-8.66699 -67.333 -29.333 -130.169 -62 -188.502
s-75 -108.833 -127 -151.5l-100 74c28 40.667 52 82.334 72 125.001s34 88.334 42 137.001l10 73h173z" />
    <glyph glyph-name="gcommaaccent" unicode="&#x123;" 
d="M127 543c6 44.667 15.1621 89.8281 27.4951 135.495s28.5 89.5 48.5 131.5s43.5 81 70.5 117s58.167 67.333 93.5 94s74.5 47.334 117.5 62.001s90.5 21.334 142.5 20.001c56.667 -1.33301 109.167 -13.166 157.5 -35.499s88.5 -57.166 120.5 -104.499l35 119h166
l-180 -1059c-9.33301 -67.333 -28.166 -129 -56.499 -185s-64.666 -103.833 -108.999 -143.5s-95.666 -70.334 -153.999 -92.001s-122.5 -31.5 -192.5 -29.5c-36 0.666992 -71.667 5.33398 -107 14.001s-69 21 -101 37s-61.667 35.5 -89 58.5s-51.333 49.5 -72 79.5l103 111
c31.333 -44.667 68.5 -80.334 111.5 -107.001s92.5 -40.667 148.5 -42c46 -1.33301 87.833 4.83398 125.5 18.501s70.667 33.167 99 58.5s52 56 71 92s32.833 75.667 41.5 119l20 95c-42 -42 -88 -74 -138 -96s-105.333 -32.333 -166 -31
c-47.333 1.33301 -89.166 10.166 -125.499 26.499s-67.666 38 -93.999 65s-48 58.333 -65 94s-30 73.334 -39 113.001s-14.5 80.334 -16.5 122.001s-0.666992 82.167 4 121.5zM304.995 521.994c-3.33301 -26.667 -4.99902 -54.667 -4.99902 -84s2 -58 6 -86
s10.833 -54.833 20.5 -80.5s22.834 -48.334 39.501 -68.001s37.167 -35.5 61.5 -47.5s53.833 -18.667 88.5 -20c60 -1.33301 112.167 12.834 156.5 42.501s83.166 68.167 116.499 115.5l85 499c-18.667 47.333 -45.834 84.333 -81.501 111s-79.5 40.667 -131.5 42
c-56 2 -104.667 -9 -146 -33s-76.166 -55.5 -104.499 -94.5s-50.833 -82.667 -67.5 -131s-28.334 -96.5 -35.001 -144.5zM627.996 1380.99c9.33301 60 29.833 116 61.5 168s70.167 97.333 115.5 136l104 -87c-24 -35.333 -44.333 -71 -61 -107s-29 -75 -37 -117l-21 -120
h-180z" />
    <glyph glyph-name="Hcircumflex" unicode="&#x124;" 
d="M951 0h-171l117 673h-578l-117 -673h-170l253 1456h170l-109 -626h578l109 626h171zM1063 1625l-2 -27l-146 1l-118 150l-172 -149l-153 -1l2 27l272 238h106z" />
    <glyph glyph-name="hcircumflex" unicode="&#x125;" 
d="M396 920c22 26.667 45.8359 51.3301 71.5029 73.9971s53 42 82 58s59.667 28.5 92 37.5s66.5 13.167 102.5 12.5c61.333 -1.33301 112.666 -13.666 153.999 -36.999s74 -54.333 98 -93s40 -83.167 48 -133.5s9 -102.833 3 -157.5l-114 -681h-181l115 684
c4 35.333 4 68.5 0 99.5s-13.333 58.333 -28 82s-34.834 42.334 -60.501 56.001s-58.167 21.167 -97.5 22.5c-30.667 0.666992 -59.834 -2.83301 -87.501 -10.5s-54 -18.667 -79 -33s-48.667 -31.166 -71 -50.499s-42.833 -40.333 -61.5 -63l-137 -787h-181l267 1536h181z
M995.003 1664l-2 -27l-146 1l-118 150l-172 -149l-153 -1l2 27l272 238h106z" />
    <glyph glyph-name="Hbar" unicode="&#x126;" 
d="M1151 1167h124l-25 -143h-124l-178 -1024h-171l117 673h-578l-117 -673h-170l178 1024h-111l25 143h111l50 289h170l-50 -289h578l50 289h171zM921 830l34 194h-578l-34 -194h578z" />
    <glyph glyph-name="hbar" unicode="&#x127;" horiz-adv-x="1232" 
d="M755 1234l-269.997 -0.00390625l-59 -314c22 26.667 45.833 51.334 71.5 74.001s53 42 82 58s59.667 28.5 92 37.5s66.5 13.167 102.5 12.5c61.333 -1.33301 112.666 -13.666 153.999 -36.999s74 -54.333 98 -93s40 -83.167 48 -133.5s9 -102.833 3 -157.5l-114 -681
h-181l115 684c4 35.333 4 68.5 0 99.5s-13.333 58.333 -28 82s-34.834 42.334 -60.501 56.001s-58.167 21.167 -97.5 22.5c-30.667 0.666992 -59.834 -2.83301 -87.501 -10.5s-54 -18.667 -79 -33s-48.667 -31.166 -71 -50.499s-42.833 -40.333 -61.5 -63l-137 -787h-181
l214 1234h-172l27 151h171l27 151h181l-29 -151h269z" />
    <glyph glyph-name="Itilde" unicode="&#x128;" 
d="M317 1456h855l-29 -161h-338l-197 -1135h339l-28 -160h-855l28 160h331l197 1135h-332zM1094 1844c-3.33301 -29.333 -10.498 -57.501 -21.498 -84.501s-25.667 -51 -44 -72s-40.333 -37.833 -66 -50.5s-54.5 -19 -86.5 -19c-25.333 0 -48.666 5.16699 -69.999 15.5
s-42.166 21.833 -62.499 34.5s-41 24.167 -62 34.5s-43.833 15.166 -68.5 14.499c-16 -0.666992 -30.5 -4.16699 -43.5 -10.5s-24.333 -14.666 -34 -24.999s-17.834 -22.166 -24.501 -35.499s-12 -27 -16 -41l-100 23c3.33301 28.667 10.666 57 21.999 85
s26.166 52.833 44.499 74.5s40.333 39 66 52s54.5 19.5 86.5 19.5c24.667 0 47.667 -5.33301 69 -16s42.333 -22.167 63 -34.5s41.5 -23.666 62.5 -33.999s43.833 -15.166 68.5 -14.499c33.333 1.33301 59.666 13.166 78.999 35.499s33 48.166 41 77.499z" />
    <glyph glyph-name="itilde" unicode="&#x129;" 
d="M280 1082h538l-160 -922h343l-29 -160h-880l29 160h356l132 761h-357zM1131 1501c-3.33301 -29.333 -10.498 -57.501 -21.498 -84.501s-25.667 -51 -44 -72s-40.333 -37.833 -66 -50.5s-54.5 -19 -86.5 -19c-25.333 0 -48.666 5.16699 -69.999 15.5
s-42.166 21.833 -62.499 34.5s-41 24.167 -62 34.5s-43.833 15.166 -68.5 14.499c-16 -0.666992 -30.5 -4.16699 -43.5 -10.5s-24.333 -14.666 -34 -24.999s-17.834 -22.166 -24.501 -35.499s-12 -27 -16 -41l-100 23c3.33301 28.667 10.666 57 21.999 85
s26.166 52.833 44.499 74.5s40.333 39 66 52s54.5 19.5 86.5 19.5c24.667 0 47.667 -5.33301 69 -16s42.333 -22.167 63 -34.5s41.5 -23.666 62.5 -33.999s43.833 -15.166 68.5 -14.499c33.333 1.33301 59.666 13.166 78.999 35.499s33 48.166 41 77.499z" />
    <glyph glyph-name="Imacron" unicode="&#x12a;" 
d="M317 1456h855l-29 -161h-338l-197 -1135h339l-28 -160h-855l28 160h331l197 1135h-332zM1081 1643h-694l23 143h694z" />
    <glyph glyph-name="imacron" unicode="&#x12b;" 
d="M280 1082h538l-160 -922h343l-29 -160h-880l29 160h356l132 761h-357zM1118 1301h-694l23 143h694z" />
    <glyph glyph-name="Ibreve" unicode="&#x12c;" 
d="M317 1456h855l-29 -161h-338l-197 -1135h339l-28 -160h-855l28 160h331l197 1135h-332zM1051 1866c-4 -42 -14.499 -79.667 -31.499 -113s-39.167 -61.5 -66.5 -84.5s-58.833 -40.5 -94.5 -52.5s-74.5 -17.667 -116.5 -17c-40.667 0.666992 -77.5 7.5 -110.5 20.5
s-61.333 31 -85 54s-41.834 50.833 -54.501 83.5s-18.667 69.334 -18 110.001l146 -1c-0.666992 -21.333 1 -41 5 -59s11 -33.667 21 -47s22.833 -23.833 38.5 -31.5s35.167 -11.5 58.5 -11.5s44.166 3.66699 62.499 11s34.333 17.666 48 30.999s24.834 29 33.501 47
s15 37.667 19 59z" />
    <glyph glyph-name="ibreve" unicode="&#x12d;" 
d="M280 1082h538l-160 -922h343l-29 -160h-880l29 160h356l132 761h-357zM1088 1523c-4 -42 -14.499 -79.667 -31.499 -113s-39.167 -61.5 -66.5 -84.5s-58.833 -40.5 -94.5 -52.5s-74.5 -17.667 -116.5 -17c-40.667 0.666992 -77.5 7.5 -110.5 20.5s-61.333 31 -85 54
s-41.834 50.833 -54.501 83.5s-18.667 69.334 -18 110.001l146 -1c-0.666992 -21.333 1 -41 5 -59s11 -33.667 21 -47s22.833 -23.833 38.5 -31.5s35.167 -11.5 58.5 -11.5s44.166 3.66699 62.499 11s34.333 17.666 48 30.999s24.834 29 33.501 47s15 37.667 19 59z" />
    <glyph glyph-name="Iogonek" unicode="&#x12e;" 
d="M317 1456h854.997l-29 -161h-338l-197 -1135h339l-28 -160h-143l5 -3c-21.333 -11.333 -43 -24.5 -65 -39.5s-42.333 -31.667 -61 -50s-34.5 -38.666 -47.5 -60.999s-20.833 -46.5 -23.5 -72.5c-4 -44 15 -66.333 57 -67c17.333 -1.33301 34.333 0.666992 51 6
s32.667 11.666 48 18.999l21 -123c-25.333 -14.667 -52.166 -25.334 -80.499 -32.001s-57.166 -9.66699 -86.499 -9c-54 0.666992 -96.333 17.667 -127 51s-45.334 77 -44.001 131c0.666992 26.667 5.83398 52 15.501 76s22.334 46.5 38.001 67.5s33.667 40.333 54 58
s41.5 33.834 63.5 48.501h-530l28 160h331l197 1135h-332z" />
    <glyph glyph-name="iogonek" unicode="&#x12f;" 
d="M280 1082h537.997l-160 -922h343l-29 -160h-347l5 -3c-21.333 -11.333 -43 -24.5 -65 -39.5s-42.333 -31.667 -61 -50s-34.5 -38.666 -47.5 -60.999s-20.833 -46.5 -23.5 -72.5c-4 -44 15 -66.333 57 -67c17.333 -1.33301 34.333 0.666992 51 6s32.667 11.666 48 18.999
l21 -123c-25.333 -14.667 -52.166 -25.334 -80.499 -32.001s-57.166 -9.66699 -86.499 -9c-54 0.666992 -96.333 17.667 -127 51s-45.334 77 -44.001 131c0.666992 26.667 5.83398 52 15.501 76s22.334 46.5 38.001 67.5s33.667 40.333 54 58s41.5 33.834 63.5 48.501h-351
l29 160h356l132 761h-357zM662.997 1363c0.666992 32 10.999 58.4971 30.999 79.4971s46 32.167 78 33.5c16 0.666992 30.5 -1.66602 43.5 -6.99902s24.333 -12.666 34 -21.999s17 -20.666 22 -33.999s7.5 -28 7.5 -44c0 -32 -10 -57.833 -30 -77.5s-46 -30.167 -78 -31.5
c-31.333 -1.33301 -57.166 7.5 -77.499 26.5s-30.5 44.5 -30.5 76.5z" />
    <glyph glyph-name="Idotaccent" unicode="&#x130;" 
d="M317 1456h855l-29 -161h-338l-197 -1135h339l-28 -160h-855l28 160h331l197 1135h-332zM629 1702c0.666992 33.333 11.333 60.6699 32 82.0029s47.667 32.666 81 33.999c32.667 0.666992 59.5 -9.33301 80.5 -30s31.167 -47.334 30.5 -80.001
s-11.5 -59.334 -32.5 -80.001s-47.5 -31.667 -79.5 -33c-16 -0.666992 -30.833 1.5 -44.5 6.5s-25.5 12.333 -35.5 22s-17.833 21.167 -23.5 34.5s-8.5 28 -8.5 44z" />
    <glyph glyph-name="dotlessi" unicode="&#x131;" 
d="M280 1082h538l-160 -922h343l-29 -160h-880l29 160h356l132 761h-357z" />
    <glyph glyph-name="IJ" unicode="&#x132;" 
d="M200 0h-180l252 1456h181zM1036 1456h180.999l-193 -1133c-7.33301 -52.667 -20.833 -100.334 -40.5 -143.001s-45.167 -79 -76.5 -109s-68.833 -52.833 -112.5 -68.5s-92.834 -22.834 -147.501 -21.501c-50.667 0.666992 -94.5 9.83398 -131.5 27.501
s-67.333 41.834 -91 72.501s-40.667 66.5 -51 107.5s-14.166 85.5 -11.499 133.5l183 -1c-1.33301 -22 -1.16602 -44.167 0.500977 -66.5s6.5 -42.5 14.5 -60.5s20 -32.833 36 -44.5s37.667 -17.834 65 -18.501c30 -0.666992 55.667 3.83301 77 13.5
s39.333 23.334 54 41.001s26 38.167 34 61.5s14 48.333 18 75z" />
    <glyph glyph-name="ij" unicode="&#x133;" 
d="M749 1082l395.998 0.00488281l-186 -1087c-9.33301 -65.333 -26.666 -124.5 -51.999 -177.5s-58 -98.333 -98 -136s-87.167 -66.5 -141.5 -86.5s-115.5 -30 -183.5 -30c-36 0 -71.333 1.66699 -106 5s-69.667 7.66602 -105 12.999l30 158
c29.333 -5.33301 58.833 -9 88.5 -11s59.5 -3.33301 89.5 -4c42.667 -0.666992 81 5.16602 115 17.499s63.5 30.166 88.5 53.499s45.333 51.666 61 84.999s26.834 70.666 33.501 111.999l157 927h-216zM165.998 1082h408l-160 -922h217l-28 -160h-630l28 160h232l132 761
h-228zM986.998 1360c0 32 9.83301 58.333 29.5 79s45.5 31.667 77.5 33c16 0.666992 30.667 -1.5 44 -6.5s24.833 -12.333 34.5 -22s17.167 -21 22.5 -34s8 -27.5 8 -43.5c-0.666992 -32 -11 -58 -31 -78s-46 -30.667 -78 -32s-58 7.66699 -78 27s-29.667 45 -29 77z
M425.998 1359c0.666992 32 10.835 58.333 30.502 79s45.5 31.667 77.5 33c16 0.666992 30.667 -1.5 44 -6.5s24.666 -12.333 33.999 -22s16.666 -21 21.999 -34s8 -27.5 8 -43.5c-0.666992 -32 -10.834 -58 -30.501 -78s-45.5 -30.667 -77.5 -32s-58.167 7.66699 -78.5 27
s-30.166 45 -29.499 77z" />
    <glyph glyph-name="Jcircumflex" unicode="&#x134;" 
d="M979 1456l185.001 0.00390625l-173 -1013c-10 -66 -30.333 -127.333 -61 -184s-69.167 -106 -115.5 -148s-99.5 -74.667 -159.5 -98s-124 -34.333 -192 -33c-64.667 1.33301 -121.667 13.5 -171 36.5s-90.833 54.333 -124.5 94s-59.334 86.167 -77.001 139.5
s-26.834 110.666 -27.501 171.999l182 -1c-1.33301 -37.333 2.33398 -72.833 11.001 -106.5s22.334 -63.5 41.001 -89.5s42.667 -47 72 -63s64.666 -24.333 105.999 -25c44 -1.33301 84.5 6.16699 121.5 22.5s69.833 38.666 98.5 66.999s52.5 61.166 71.5 98.499
s32.167 76.666 39.5 117.999zM1386 1612l-2 -27l-146 1l-118 150l-172 -149l-153 -1l2 27l272 238h106z" />
    <glyph glyph-name="jcircumflex" unicode="&#x135;" 
d="M336 1082h534l-185 -1089c-9.33301 -65.333 -26.5 -124.666 -51.5 -177.999s-57.5 -98.833 -97.5 -136.5s-87.167 -66.667 -141.5 -87s-115.5 -30.5 -183.5 -30.5c-36 0 -71.167 1.5 -105.5 4.5s-69.166 7.16699 -104.499 12.5l26 154
c30 -5.33301 59.833 -9.16602 89.5 -11.499s59.5 -3.83301 89.5 -4.5c43.333 -0.666992 82.166 5.66602 116.499 18.999s63.833 32.166 88.5 56.499s44.667 53.5 60 87.5s26 71.667 32 113l158 929h-354zM1101 1273l-2 -27l-146 1l-118 150l-172 -149l-153 -1l2 27l272 238
h106z" />
    <glyph glyph-name="Kcommaaccent" unicode="&#x136;" 
d="M528 674l-197 -191l-84 -483h-185l253 1456h185l-123 -700l158 165l507 535h234l-614 -646l381 -810h-207zM590 -110c-8.66699 -67.333 -29.333 -130.169 -62 -188.502s-75 -108.833 -127 -151.5l-100 74c28 40.667 52 82.334 72 125.001s34 88.334 42 137.001l10 73h173
z" />
    <glyph glyph-name="kcommaaccent" unicode="&#x137;" 
d="M474 503l-163 -137l-63 -366h-182l267 1536h182l-162 -930l133 123l402 353h236l-514 -460l376 -622h-215zM509 -108c-8.66699 -67.333 -29.333 -130.169 -62 -188.502s-75 -108.833 -127 -151.5l-100 74c28 40.667 52 82.334 72 125.001s34 88.334 42 137.001l10 73h173
z" />
    <glyph glyph-name="kgreenlandic" unicode="&#x138;" 
d="M492 475l-177 -139l-58 -336h-181l188 1082h181l-92 -521l121 112l454 409h233l-535 -488l368 -594h-214z" />
    <glyph glyph-name="Lacute" unicode="&#x139;" 
d="M296 157h691l-28 -157h-871l252 1456h181zM578 1792h231l-302 -266h-150z" />
    <glyph glyph-name="lacute" unicode="&#x13a;" 
d="M359 1536h538l-239 -1376h343l-29 -160h-880l29 160h356l211 1215h-358zM948 1894h231l-302 -266h-150z" />
    <glyph glyph-name="Lcommaaccent" unicode="&#x13b;" 
d="M296 157h691l-28 -157h-871l252 1456h181zM590 -116c-8.66699 -67.333 -29.333 -130.169 -62 -188.502s-75 -108.833 -127 -151.5l-100 74c28 40.667 52 82.334 72 125.001s34 88.334 42 137.001l10 73h173z" />
    <glyph glyph-name="lcommaaccent" unicode="&#x13c;" 
d="M359 1536h538l-239 -1376h343l-29 -160h-880l29 160h356l211 1215h-358zM616 -115c-8.66699 -67.333 -29.333 -130.169 -62 -188.502s-75 -108.833 -127 -151.5l-100 74c28 40.667 52 82.334 72 125.001s34 88.334 42 137.001l10 73h173z" />
    <glyph glyph-name="Lcaron" unicode="&#x13d;" 
d="M296 157h691l-28 -157h-871l252 1456h181zM1074 1310c-12 -76 -37.835 -146.667 -77.502 -212s-89.167 -121.666 -148.5 -168.999l-95 74c34.667 46 64.334 93.667 89.001 143s42.334 102.666 53.001 159.999l26 150h177z" />
    <glyph glyph-name="lcaron" unicode="&#x13e;" horiz-adv-x="1352" 
d="M359 1536h538l-239 -1376h343l-29 -160h-880l29 160h356l211 1215h-358zM1351 1394c-12 -76 -37.835 -146.667 -77.502 -212s-89.167 -121.666 -148.5 -168.999l-95 74c34.667 46 64.334 93.667 89.001 143s42.334 102.666 53.001 159.999l26 150h177z" />
    <glyph glyph-name="Ldot" unicode="&#x13f;" 
d="M296 157h691l-28 -157h-871l252 1456h181zM628 784c0.666992 33.333 11.333 60.6699 32 82.0029s47.667 32.666 81 33.999c32.667 0.666992 59.5 -9.33301 80.5 -30s31.167 -47.334 30.5 -80.001s-11.5 -59.334 -32.5 -80.001s-47.5 -31.667 -79.5 -33
c-16 -0.666992 -30.833 1.5 -44.5 6.5s-25.5 12.333 -35.5 22s-17.833 21.167 -23.5 34.5s-8.5 28 -8.5 44z" />
    <glyph glyph-name="ldot" unicode="&#x140;" horiz-adv-x="1422" 
d="M359 1536h538l-239 -1376h343l-29 -160h-880l29 160h356l211 1215h-358zM894 818c0.666992 33.333 11.333 60.6699 32 82.0029s47.667 32.666 81 33.999c32.667 0.666992 59.5 -9.33301 80.5 -30s31.167 -47.334 30.5 -80.001s-11.5 -59.334 -32.5 -80.001
s-47.5 -31.667 -79.5 -33c-16 -0.666992 -30.833 1.5 -44.5 6.5s-25.5 12.333 -35.5 22s-17.833 21.167 -23.5 34.5s-8.5 28 -8.5 44z" />
    <glyph glyph-name="Lslash" unicode="&#x141;" 
d="M420 849l268 83l-30 -169l-268 -83l-90 -523h691l-28 -157h-871l107 621l-148 -46l30 169l147 45l116 667h181z" />
    <glyph glyph-name="lslash" unicode="&#x142;" 
d="M359 1536h538l-97 -558l303 131l-27 -170l-306 -133l-112 -646h343l-29 -160h-880l29 160h356l97 562l-355 -154l30 171l355 154l84 482h-358z" />
    <glyph glyph-name="Nacute" unicode="&#x143;" 
d="M950 0h-178l-362 1096l-193 -1096h-183l253 1456h178l362 -1094l193 1094h183zM870 1824h231l-302 -266h-150z" />
    <glyph glyph-name="nacute" unicode="&#x144;" 
d="M413 1083l-22.998 -161c22 26.667 46 51.334 72 74.001s53.667 42 83 58s60.333 28.167 93 36.5s67 12.166 103 11.499c60.667 -1.33301 111.667 -13.333 153 -36s74.166 -52.834 98.499 -90.501s40.666 -81.5 48.999 -131.5s9.5 -102.333 3.5 -157l-115 -687h-181
l115 684c4 36.667 4.16699 70.667 0.5 102s-12.667 58.666 -27 81.999s-34.5 41.833 -60.5 55.5s-59 20.834 -99 21.501c-31.333 0.666992 -61.166 -3.16602 -89.499 -11.499s-54.833 -20 -79.5 -35s-47.834 -33 -69.501 -54s-41.5 -43.5 -59.5 -67.5l-135 -777h-181
l188 1082zM829.002 1502h231l-302 -266h-150z" />
    <glyph glyph-name="Ncommaaccent" unicode="&#x145;" 
d="M950 0h-178l-362 1096l-193 -1096h-183l253 1456h178l362 -1094l193 1094h183zM540 -116c-8.66699 -67.333 -29.333 -130.169 -62 -188.502s-75 -108.833 -127 -151.5l-100 74c28 40.667 52 82.334 72 125.001s34 88.334 42 137.001l10 73h173z" />
    <glyph glyph-name="ncommaaccent" unicode="&#x146;" 
d="M413 1083l-22.998 -161c22 26.667 46 51.334 72 74.001s53.667 42 83 58s60.333 28.167 93 36.5s67 12.166 103 11.499c60.667 -1.33301 111.667 -13.333 153 -36s74.166 -52.834 98.499 -90.501s40.666 -81.5 48.999 -131.5s9.5 -102.333 3.5 -157l-115 -687h-181
l115 684c4 36.667 4.16699 70.667 0.5 102s-12.667 58.666 -27 81.999s-34.5 41.833 -60.5 55.5s-59 20.834 -99 21.501c-31.333 0.666992 -61.166 -3.16602 -89.499 -11.499s-54.833 -20 -79.5 -35s-47.834 -33 -69.501 -54s-41.5 -43.5 -59.5 -67.5l-135 -777h-181
l188 1082zM555.002 -116c-8.66699 -67.333 -29.333 -130.169 -62 -188.502s-75 -108.833 -127 -151.5l-100 74c28 40.667 52 82.334 72 125.001s34 88.334 42 137.001l10 73h173z" />
    <glyph glyph-name="Ncaron" unicode="&#x147;" 
d="M950 0h-178l-362 1096l-193 -1096h-183l253 1456h178l362 -1094l193 1094h183zM756 1714l174 150l161 2l-1 -20l-281 -247h-112l-210 244l2 23l149 -1z" />
    <glyph glyph-name="ncaron" unicode="&#x148;" 
d="M413 1083l-22.998 -161c22 26.667 46 51.334 72 74.001s53.667 42 83 58s60.333 28.167 93 36.5s67 12.166 103 11.499c60.667 -1.33301 111.667 -13.333 153 -36s74.166 -52.834 98.499 -90.501s40.666 -81.5 48.999 -131.5s9.5 -102.333 3.5 -157l-115 -687h-181
l115 684c4 36.667 4.16699 70.667 0.5 102s-12.667 58.666 -27 81.999s-34.5 41.833 -60.5 55.5s-59 20.834 -99 21.501c-31.333 0.666992 -61.166 -3.16602 -89.499 -11.499s-54.833 -20 -79.5 -35s-47.834 -33 -69.501 -54s-41.5 -43.5 -59.5 -67.5l-135 -777h-181
l188 1082zM716.002 1392l174 150l161 2l-1 -20l-281 -247h-112l-210 244l2 23l149 -1z" />
    <glyph glyph-name="napostrophe" unicode="&#x149;" 
d="M413 1083l-22.998 -161c22 26.667 46 51.334 72 74.001s53.667 42 83 58s60.333 28.167 93 36.5s67 12.166 103 11.499c60.667 -1.33301 111.667 -13.333 153 -36s74.166 -52.834 98.499 -90.501s40.666 -81.5 48.999 -131.5s9.5 -102.333 3.5 -157l-115 -687h-181
l115 684c4 36.667 4.16699 70.667 0.5 102s-12.667 58.666 -27 81.999s-34.5 41.833 -60.5 55.5s-59 20.834 -99 21.501c-31.333 0.666992 -61.166 -3.16602 -89.499 -11.499s-54.833 -20 -79.5 -35s-47.834 -33 -69.501 -54s-41.5 -43.5 -59.5 -67.5l-135 -777h-181
l188 1082zM342.002 1412c-12 -76 -37.835 -146.667 -77.502 -212s-89.167 -121.666 -148.5 -168.999l-95 74c34.667 46 64.334 93.667 89.001 143s42.334 102.666 53.001 159.999l26 150h177z" />
    <glyph glyph-name="Eng" unicode="&#x14a;" 
d="M1170 1456l-262.999 -1543c-6.66699 -50 -19 -96.5 -37 -139.5s-41.833 -80.167 -71.5 -111.5s-65.167 -56 -106.5 -74s-88.666 -27 -141.999 -27c-19.333 0 -38.333 1.66699 -57 5s-37.334 7.66602 -56.001 12.999l26 148c15.333 -4.66699 31.166 -8.5 47.499 -11.5
s32.5 -4.5 48.5 -4.5c26.667 0 49.667 6.16699 69 18.5s35.5 28.166 48.5 47.499s23.333 40.833 31 64.5s13.167 46.834 16.5 69.501l16 103l-307 1063l-187 -1077h-181l253 1456h175l309 -1075l187 1075h181z" />
    <glyph glyph-name="eng" unicode="&#x14b;" 
d="M423 1083l-23.0029 -155.002c42 53.333 90.167 96 144.5 128s116.833 47.333 187.5 46c60.667 -1.33301 111.334 -13.666 152.001 -36.999s72.667 -54.333 96 -93s38.5 -83 45.5 -133s7.5 -102.333 1.5 -157l-126 -771c-6.66699 -50.667 -19.167 -97.5 -37.5 -140.5
s-42.666 -80.167 -72.999 -111.5s-66.5 -55.666 -108.5 -72.999s-90 -25.666 -144 -24.999c-20.667 0 -40.834 1.83301 -60.501 5.5s-39.167 8.5 -58.5 14.5l30 156c16 -5.33301 32.333 -9.33301 49 -12s33.334 -4 50.001 -4c27.333 0 51 5.33301 71 16
s36.833 24.834 50.5 42.501s24.5 38 32.5 61s14 46.5 18 70.5l126 768c4 35.333 4.83301 69 2.5 101s-10 60 -23 84s-32 43.167 -57 57.5s-57.833 22.166 -98.5 23.499c-56.667 1.33301 -107.667 -9.83398 -153 -33.501s-85.666 -57.167 -120.999 -100.5l-141 -811h-181
l188 1082z" />
    <glyph glyph-name="Omacron" unicode="&#x14c;" 
d="M1097 645c-8.66699 -51.333 -20.835 -103.501 -36.502 -156.501s-35.334 -104.333 -59.001 -154s-51.5 -96.5 -83.5 -140.5s-68.5 -82 -109.5 -114s-86.667 -57 -137 -75s-105.5 -26.333 -165.5 -25c-57.333 1.33301 -107.833 12.166 -151.5 32.499
s-81.167 47.166 -112.5 80.499s-57 72 -77 116s-35 90.333 -45 139s-15.5 98.334 -16.5 149.001s1.83301 99.667 8.5 147l26 166c8.66699 51.333 20.834 103.5 36.501 156.5s35.334 104.333 59.001 154s51.667 96.5 84 140.5s69 82.167 110 114.5s86.667 57.5 137 75.5
s105.5 26.333 165.5 25c58 -1.33301 108.833 -12.166 152.5 -32.499s81.167 -47.166 112.5 -80.499s56.833 -72 76.5 -116s34.334 -90.5 44.001 -139.5s15 -99 16 -150s-1.83301 -100.167 -8.5 -147.5zM943.999 813.999c4 30.667 7.16797 64.0039 9.50098 100.004
s2 72.167 -1 108.5s-9.16699 71.666 -18.5 105.999s-23.166 64.833 -41.499 91.5s-41.666 48.334 -69.999 65.001s-63.166 25.667 -104.499 27c-43.333 1.33301 -82.5 -5.16699 -117.5 -19.5s-66.333 -34.333 -94 -60s-52 -55.334 -73 -89.001
s-39.167 -69.334 -54.5 -107.001s-28 -75.834 -38 -114.501s-18 -75.334 -24 -110.001l-28 -169c-4 -30 -7 -63 -9 -99s-1.33301 -72.333 2 -109s9.66602 -72.334 18.999 -107.001s23.333 -65.5 42 -92.5s42.167 -49 70.5 -66s63.166 -26.167 104.499 -27.5
c43.333 -1.33301 82.666 5.16699 117.999 19.5s66.666 34.333 93.999 60s51.333 55.5 72 89.5s38.5 69.833 53.5 107.5s27.5 75.834 37.5 114.501s18 75.667 24 111zM1148 1664h-694l23 143h694z" />
    <glyph glyph-name="omacron" unicode="&#x14d;" 
d="M110 544c6 48.667 16.502 96.499 31.502 143.499s34.167 91.333 57.5 133s50.833 80 82.5 115s67 65 106 90s81.667 44.333 128 58s96.166 19.834 149.499 18.501c76 -2 140.833 -18.833 194.5 -50.5s96.834 -73 129.501 -124s55.167 -109 67.5 -174
s14.833 -131.5 7.5 -199.5l-2 -23c-9.33301 -72.667 -28.833 -142.667 -58.5 -210s-68.167 -126.5 -115.5 -177.5s-103.166 -91.5 -167.499 -121.5s-135.833 -44 -214.5 -42c-75.333 2 -139.833 18.5 -193.5 49.5s-96.834 71.833 -129.501 122.5s-55.334 108 -68.001 172
s-15.334 130 -8.00098 198zM288.002 521.999c-3.33301 -28 -4.83398 -57.001 -4.50098 -87.001s3 -59.333 8 -88s12.833 -56 23.5 -82s25 -48.833 43 -68.5s39.833 -35.5 65.5 -47.5s55.834 -18.667 90.501 -20c55.333 -2 104.333 9 147 33s79.167 55.333 109.5 94
s54.5 82.167 72.5 130.5s30.667 96.5 38 144.5l2 22c4.66699 42 5.5 86 2.5 132s-12.833 88.5 -29.5 127.5s-41 71.333 -73 97s-74 39.5 -126 41.5c-56 2 -105.333 -9.16699 -148 -33.5s-79 -56.166 -109 -95.499s-54 -83.5 -72 -132.5s-30.333 -97.5 -37 -145.5zM1071 1321
h-694l23 143h694z" />
    </font>
</defs>
</svg>
